<?xml version="1.0" encoding="UTF-8" standalone="no"?>
<!DOCTYPE svg PUBLIC "-//W3C//DTD SVG 1.1//EN"
 "http://www.w3.org/Graphics/SVG/1.1/DTD/svg11.dtd">
<!-- Generated by graphviz version 2.40.1 (0)
 -->
<!-- Title: MallocTree Pages: 1 -->
<svg width="530pt" height="597pt"
 viewBox="0.00 0.00 530.00 597.42" xmlns="http://www.w3.org/2000/svg" xmlns:xlink="http://www.w3.org/1999/xlink">
<g id="graph0" class="graph" transform="scale(1 1) rotate(0) translate(4 593.4163)">
<title>MallocTree</title>
<polygon fill="#ffffff" stroke="transparent" points="-4,4 -4,-593.4163 526,-593.4163 526,4 -4,4"/>
<text text-anchor="middle" x="261" y="-97.8" font-family="Times,serif" font-size="14.00" fill="#000000">Memory allocated before MallocTag initialization = 20MB</text>
<text text-anchor="middle" x="261" y="-82.8" font-family="Times,serif" font-size="14.00" fill="#000000">Memory allocated by MallocTag itself =61kB</text>
<text text-anchor="middle" x="261" y="-67.8" font-family="Times,serif" font-size="14.00" fill="#000000">Total memory tracked by MallocTag across all threads =30MB</text>
<text text-anchor="middle" x="261" y="-52.8" font-family="Times,serif" font-size="14.00" fill="#000000">Memory profiling session start timestamp = 2023&#45;09&#45;15 @ 01:01:33 CEST</text>
<text text-anchor="middle" x="261" y="-37.8" font-family="Times,serif" font-size="14.00" fill="#000000">This snapshot timestamp = 2023&#45;09&#45;15 @ 01:01:33 CEST</text>
<text text-anchor="middle" x="261" y="-22.8" font-family="Times,serif" font-size="14.00" fill="#000000">PID =957544</text>
<text text-anchor="middle" x="261" y="-7.8" font-family="Times,serif" font-size="14.00" fill="#000000">VmSizeNow =30MB</text>
<g id="clust1" class="cluster">
<title>cluster_TID957544</title>
<polygon fill="none" stroke="#000000" points="8,-121 8,-581.4163 514,-581.4163 514,-121 8,-121"/>
<text text-anchor="middle" x="261" y="-143.8" font-family="Times,serif" font-size="14.00" fill="#000000">nPushNodeFailures=0</text>
<text text-anchor="middle" x="261" y="-128.8" font-family="Times,serif" font-size="14.00" fill="#000000">nTreeNodesInUse/Max=6/256</text>
</g>
<!-- 957544_minimal -->
<g id="node1" class="node">
<title>957544_minimal</title>
<polygon fill="#fff5f0" stroke="#000000" points="209.5,-573.4163 108.5,-573.4163 108.5,-515.4163 209.5,-515.4163 209.5,-573.4163"/>
<text text-anchor="middle" x="159" y="-562.2163" font-family="Times,serif" font-size="9.00" fill="#000000">thread=minimal</text>
<text text-anchor="middle" x="159" y="-552.2163" font-family="Times,serif" font-size="9.00" fill="#000000">TID=957544</text>
<text text-anchor="middle" x="159" y="-542.2163" font-family="Times,serif" font-size="9.00" fill="#000000">total=10MB (100.00%)</text>
<text text-anchor="middle" x="159" y="-532.2163" font-family="Times,serif" font-size="9.00" fill="#000000">self=1kB (0.01%)</text>
<text text-anchor="middle" x="159" y="-522.2163" font-family="Times,serif" font-size="9.00" fill="#000000">num_malloc_self=1</text>
</g>
<!-- 957544_TopFunc -->
<g id="node2" class="node">
<title>957544_TopFunc</title>
<ellipse fill="#fff5f0" stroke="#000000" cx="159" cy="-445.4752" rx="67.7647" ry="33.8824"/>
<text text-anchor="middle" x="159" y="-458.2752" font-family="Times,serif" font-size="9.00" fill="#000000">scope=TopFunc</text>
<text text-anchor="middle" x="159" y="-448.2752" font-family="Times,serif" font-size="9.00" fill="#000000">total=10MB (99.98%)</text>
<text text-anchor="middle" x="159" y="-438.2752" font-family="Times,serif" font-size="9.00" fill="#000000">self=5B (0.00%)</text>
<text text-anchor="middle" x="159" y="-428.2752" font-family="Times,serif" font-size="9.00" fill="#000000">num_malloc_self=1</text>
</g>
<!-- 957544_minimal&#45;&gt;957544_TopFunc -->
<g id="edge1" class="edge">
<title>957544_minimal&#45;&gt;957544_TopFunc</title>
<path fill="none" stroke="#000000" d="M159,-515.2658C159,-507.2356 159,-498.3409 159,-489.6652"/>
<polygon fill="#000000" stroke="#000000" points="162.5001,-489.6463 159,-479.6463 155.5001,-489.6464 162.5001,-489.6463"/>
</g>
<!-- 957544_FuncA -->
<g id="node3" class="node">
<title>957544_FuncA</title>
<ellipse fill="#fff5f0" stroke="#000000" cx="78" cy="-323.2082" rx="62.4516" ry="48.1667"/>
<text text-anchor="middle" x="78" y="-346.0082" font-family="Times,serif" font-size="9.00" fill="#000000">scope=FuncA</text>
<text text-anchor="middle" x="78" y="-336.0082" font-family="Times,serif" font-size="9.00" fill="#000000">total=800B (0.00%)</text>
<text text-anchor="middle" x="78" y="-326.0082" font-family="Times,serif" font-size="9.00" fill="#000000">self=300B (0.00%)</text>
<text text-anchor="middle" x="78" y="-316.0082" font-family="Times,serif" font-size="9.00" fill="#000000">num_malloc_self=1</text>
<text text-anchor="middle" x="78" y="-306.0082" font-family="Times,serif" font-size="9.00" fill="#000000">num_realloc_self=1</text>
<text text-anchor="middle" x="78" y="-296.0082" font-family="Times,serif" font-size="9.00" fill="#000000">num_free_self=1</text>
</g>
<!-- 957544_TopFunc&#45;&gt;957544_FuncA -->
<g id="edge2" class="edge">
<title>957544_TopFunc&#45;&gt;957544_FuncA</title>
<path fill="none" stroke="#000000" d="M137.5061,-413.0309C129.7399,-401.3079 120.7678,-387.7648 112.1837,-374.8075"/>
<polygon fill="#000000" stroke="#000000" points="115.0561,-372.8059 106.6154,-366.4023 109.2205,-376.6719 115.0561,-372.8059"/>
</g>
<!-- 957544_FuncB -->
<g id="node4" class="node">
<title>957544_FuncB</title>
<ellipse fill="#fff5f0" stroke="#000000" cx="125" cy="-200.9411" rx="74.9067" ry="33.8824"/>
<text text-anchor="middle" x="125" y="-213.7411" font-family="Times,serif" font-size="9.00" fill="#000000">scope=FuncB</text>
<text text-anchor="middle" x="125" y="-203.7411" font-family="Times,serif" font-size="9.00" fill="#000000">total=self=500B (0.00%)</text>
<text text-anchor="middle" x="125" y="-193.7411" font-family="Times,serif" font-size="9.00" fill="#000000">num_malloc_self=1</text>
<text text-anchor="middle" x="125" y="-183.7411" font-family="Times,serif" font-size="9.00" fill="#000000">num_free_self=1</text>
</g>
<!-- 957544_TopFunc&#45;&gt;957544_FuncB -->
<g id="edge3" class="edge">
<title>957544_TopFunc&#45;&gt;957544_FuncB</title>
<path fill="none" stroke="#000000" d="M159.7801,-411.3357C159.9546,-375.8892 158.4473,-318.9965 149,-270.8823 147.2748,-262.0958 144.708,-252.9052 141.8864,-244.183"/>
<polygon fill="#000000" stroke="#000000" points="145.1549,-242.9231 138.6236,-234.5808 138.527,-245.1752 145.1549,-242.9231"/>
</g>
<!-- 957544_FuncC -->
<g id="node5" class="node">
<title>957544_FuncC</title>
<ellipse fill="#cb181d" stroke="#000000" cx="342" cy="-323.2082" rx="164.0976" ry="52.1524"/>
<text text-anchor="middle" x="342" y="-340.2082" font-family="Times,serif" font-size="20.00" fill="#000000">scope=FuncC</text>
<text text-anchor="middle" x="342" y="-318.2082" font-family="Times,serif" font-size="20.00" fill="#000000">total=self=10MB (99.97%)</text>
<text text-anchor="middle" x="342" y="-296.2082" font-family="Times,serif" font-size="20.00" fill="#000000">num_malloc_self=1</text>
</g>
<!-- 957544_TopFunc&#45;&gt;957544_FuncC -->
<g id="edge4" class="edge">
<title>957544_TopFunc&#45;&gt;957544_FuncC</title>
<path fill="none" stroke="#000000" d="M200.0688,-418.0361C218.5819,-405.667 241.1006,-390.6217 262.6964,-376.193"/>
<polygon fill="#000000" stroke="#000000" points="264.8657,-378.953 271.2362,-370.4873 260.9769,-373.1325 264.8657,-378.953"/>
</g>
<!-- 957544_FuncA&#45;&gt;957544_FuncB -->
<g id="edge5" class="edge">
<title>957544_FuncA&#45;&gt;957544_FuncB</title>
<path fill="none" stroke="#000000" d="M95.7687,-276.9842C99.9084,-266.215 104.3009,-254.7883 108.3884,-244.1551"/>
<polygon fill="#000000" stroke="#000000" points="111.7192,-245.2445 112.0404,-234.6545 105.1853,-242.7328 111.7192,-245.2445"/>
</g>
</g>
</svg>
