<?xml version="1.0" encoding="UTF-8" standalone="no"?>
<!DOCTYPE svg PUBLIC "-//W3C//DTD SVG 1.1//EN"
 "http://www.w3.org/Graphics/SVG/1.1/DTD/svg11.dtd">
<!-- Generated by graphviz version 2.40.1 (0)
 -->
<!-- Title: MallocTree Pages: 1 -->
<svg width="556pt" height="627pt"
 viewBox="0.00 0.00 556.00 627.42" xmlns="http://www.w3.org/2000/svg" xmlns:xlink="http://www.w3.org/1999/xlink">
<g id="graph0" class="graph" transform="scale(1 1) rotate(0) translate(4 623.4163)">
<title>MallocTree</title>
<polygon fill="#ffffff" stroke="transparent" points="-4,4 -4,-623.4163 552,-623.4163 552,4 -4,4"/>
<text text-anchor="middle" x="274" y="-112.8" font-family="Times,serif" font-size="14.00" fill="#000000">Memory allocated before MallocTag initialization = 187kB</text>
<text text-anchor="middle" x="274" y="-97.8" font-family="Times,serif" font-size="14.00" fill="#000000">Memory allocated by MallocTag itself =65kB</text>
<text text-anchor="middle" x="274" y="-82.8" font-family="Times,serif" font-size="14.00" fill="#000000">Total memory tracked by MallocTag across all threads =30MB</text>
<text text-anchor="middle" x="274" y="-67.8" font-family="Times,serif" font-size="14.00" fill="#000000">vmSizeNowBytes = 30MB</text>
<text text-anchor="middle" x="274" y="-52.8" font-family="Times,serif" font-size="14.00" fill="#000000">vmRSSNowBytes = 30MB</text>
<text text-anchor="middle" x="274" y="-37.8" font-family="Times,serif" font-size="14.00" fill="#000000">Memory profiling session start timestamp = 2023&#45;09&#45;21 @ 17:11:21 CEST</text>
<text text-anchor="middle" x="274" y="-22.8" font-family="Times,serif" font-size="14.00" fill="#000000">This snapshot timestamp = 2023&#45;09&#45;21 @ 17:11:21 CEST</text>
<text text-anchor="middle" x="274" y="-7.8" font-family="Times,serif" font-size="14.00" fill="#000000">PID = 2349966</text>
<g id="clust1" class="cluster">
<title>cluster_TID2349966</title>
<polygon fill="none" stroke="#000000" points="8,-136 8,-611.4163 540,-611.4163 540,-136 8,-136"/>
<text text-anchor="middle" x="274" y="-173.8" font-family="Times,serif" font-size="14.00" fill="#000000">TID=2349966</text>
<text text-anchor="middle" x="274" y="-158.8" font-family="Times,serif" font-size="14.00" fill="#000000">nPushNodeFailures=0</text>
<text text-anchor="middle" x="274" y="-143.8" font-family="Times,serif" font-size="14.00" fill="#000000">nTreeNodesInUse/Max=6/256</text>
</g>
<!-- 2349966_minimal -->
<g id="node1" class="node">
<title>2349966_minimal</title>
<polygon fill="#fff5f0" stroke="#000000" points="235.5,-603.4163 134.5,-603.4163 134.5,-545.4163 235.5,-545.4163 235.5,-603.4163"/>
<text text-anchor="middle" x="185" y="-592.2163" font-family="Times,serif" font-size="9.00" fill="#000000">thread=minimal</text>
<text text-anchor="middle" x="185" y="-582.2163" font-family="Times,serif" font-size="9.00" fill="#000000">TID=2349966</text>
<text text-anchor="middle" x="185" y="-572.2163" font-family="Times,serif" font-size="9.00" fill="#000000">total=10MB (100.00%)</text>
<text text-anchor="middle" x="185" y="-562.2163" font-family="Times,serif" font-size="9.00" fill="#000000">self=1kB (0.01%)</text>
<text text-anchor="middle" x="185" y="-552.2163" font-family="Times,serif" font-size="9.00" fill="#000000">num_malloc_self=1</text>
</g>
<!-- 2349966_TopFunc -->
<g id="node2" class="node">
<title>2349966_TopFunc</title>
<ellipse fill="#fff5f0" stroke="#000000" cx="185" cy="-475.4752" rx="67.7647" ry="33.8824"/>
<text text-anchor="middle" x="185" y="-488.2752" font-family="Times,serif" font-size="9.00" fill="#000000">scope=TopFunc</text>
<text text-anchor="middle" x="185" y="-478.2752" font-family="Times,serif" font-size="9.00" fill="#000000">total=10MB (99.98%)</text>
<text text-anchor="middle" x="185" y="-468.2752" font-family="Times,serif" font-size="9.00" fill="#000000">self=24B (0.00%)</text>
<text text-anchor="middle" x="185" y="-458.2752" font-family="Times,serif" font-size="9.00" fill="#000000">num_malloc_self=1</text>
</g>
<!-- 2349966_minimal&#45;&gt;2349966_TopFunc -->
<g id="edge1" class="edge">
<title>2349966_minimal&#45;&gt;2349966_TopFunc</title>
<path fill="none" stroke="#000000" d="M185,-545.2658C185,-537.2356 185,-528.3409 185,-519.6652"/>
<polygon fill="#000000" stroke="#000000" points="188.5001,-519.6463 185,-509.6463 181.5001,-519.6464 188.5001,-519.6463"/>
</g>
<!-- 2349966_FuncA -->
<g id="node3" class="node">
<title>2349966_FuncA</title>
<ellipse fill="#fff5f0" stroke="#000000" cx="91" cy="-353.2082" rx="74.9067" ry="41.0244"/>
<text text-anchor="middle" x="91" y="-371.0082" font-family="Times,serif" font-size="9.00" fill="#000000">scope=FuncA</text>
<text text-anchor="middle" x="91" y="-361.0082" font-family="Times,serif" font-size="9.00" fill="#000000">total=self=104B (0.00%)</text>
<text text-anchor="middle" x="91" y="-351.0082" font-family="Times,serif" font-size="9.00" fill="#000000">num_malloc_self=1</text>
<text text-anchor="middle" x="91" y="-341.0082" font-family="Times,serif" font-size="9.00" fill="#000000">num_realloc_self=1</text>
<text text-anchor="middle" x="91" y="-331.0082" font-family="Times,serif" font-size="9.00" fill="#000000">num_free_self=1</text>
</g>
<!-- 2349966_TopFunc&#45;&gt;2349966_FuncA -->
<g id="edge2" class="edge">
<title>2349966_TopFunc&#45;&gt;2349966_FuncA</title>
<path fill="none" stroke="#000000" d="M160.548,-443.6701C150.175,-430.1778 137.8816,-414.1877 126.5371,-399.4318"/>
<polygon fill="#000000" stroke="#000000" points="129.2203,-397.1793 120.3505,-391.3847 123.6708,-401.4459 129.2203,-397.1793"/>
</g>
<!-- 2349966_FuncB -->
<g id="node4" class="node">
<title>2349966_FuncB</title>
<ellipse fill="#fff5f0" stroke="#000000" cx="138" cy="-230.9411" rx="68.6788" ry="33.8824"/>
<text text-anchor="middle" x="138" y="-243.7411" font-family="Times,serif" font-size="9.00" fill="#000000">scope=FuncB</text>
<text text-anchor="middle" x="138" y="-233.7411" font-family="Times,serif" font-size="9.00" fill="#000000">total=self=0B (0.00%)</text>
<text text-anchor="middle" x="138" y="-223.7411" font-family="Times,serif" font-size="9.00" fill="#000000">num_malloc_self=1</text>
<text text-anchor="middle" x="138" y="-213.7411" font-family="Times,serif" font-size="9.00" fill="#000000">num_free_self=1</text>
</g>
<!-- 2349966_TopFunc&#45;&gt;2349966_FuncB -->
<g id="edge3" class="edge">
<title>2349966_TopFunc&#45;&gt;2349966_FuncB</title>
<path fill="none" stroke="#000000" d="M187.2882,-441.3062C188.7051,-405.5913 188.2093,-348.26 175,-300.8823 172.344,-291.356 168.2557,-281.6565 163.7508,-272.6344"/>
<polygon fill="#000000" stroke="#000000" points="166.7041,-270.731 158.9479,-263.5135 160.5104,-273.9925 166.7041,-270.731"/>
</g>
<!-- 2349966_FuncC -->
<g id="node5" class="node">
<title>2349966_FuncC</title>
<ellipse fill="#cb181d" stroke="#000000" cx="368" cy="-353.2082" rx="164.0976" ry="52.1524"/>
<text text-anchor="middle" x="368" y="-370.2082" font-family="Times,serif" font-size="20.00" fill="#000000">scope=FuncC</text>
<text text-anchor="middle" x="368" y="-348.2082" font-family="Times,serif" font-size="20.00" fill="#000000">total=self=10MB (99.98%)</text>
<text text-anchor="middle" x="368" y="-326.2082" font-family="Times,serif" font-size="20.00" fill="#000000">num_malloc_self=1</text>
</g>
<!-- 2349966_TopFunc&#45;&gt;2349966_FuncC -->
<g id="edge4" class="edge">
<title>2349966_TopFunc&#45;&gt;2349966_FuncC</title>
<path fill="none" stroke="#000000" d="M226.0688,-448.0361C244.5819,-435.667 267.1006,-420.6217 288.6964,-406.193"/>
<polygon fill="#000000" stroke="#000000" points="290.8657,-408.953 297.2362,-400.4873 286.9769,-403.1325 290.8657,-408.953"/>
</g>
<!-- 2349966_FuncA&#45;&gt;2349966_FuncB -->
<g id="edge5" class="edge">
<title>2349966_FuncA&#45;&gt;2349966_FuncB</title>
<path fill="none" stroke="#000000" d="M106.5198,-312.8345C111.3352,-300.3075 116.6579,-286.4609 121.5353,-273.7729"/>
<polygon fill="#000000" stroke="#000000" points="124.8412,-274.9272 125.1624,-264.3372 118.3073,-272.4155 124.8412,-274.9272"/>
</g>
</g>
</svg>
