<?xml version="1.0" encoding="UTF-8" standalone="no"?>
<!DOCTYPE svg PUBLIC "-//W3C//DTD SVG 1.1//EN"
 "http://www.w3.org/Graphics/SVG/1.1/DTD/svg11.dtd">
<!-- Generated by graphviz version 2.40.1 (0)
 -->
<!-- Title: MallocTree Pages: 1 -->
<svg width="428pt" height="531pt"
 viewBox="0.00 0.00 428.00 531.30" xmlns="http://www.w3.org/2000/svg" xmlns:xlink="http://www.w3.org/1999/xlink">
<g id="graph0" class="graph" transform="scale(1 1) rotate(0) translate(4 527.3036)">
<title>MallocTree</title>
<polygon fill="#ffffff" stroke="transparent" points="-4,4 -4,-527.3036 424,-527.3036 424,4 -4,4"/>
<text text-anchor="middle" x="210" y="-22.8" font-family="Times,serif" font-size="14.00" fill="#000000">Memory allocated before MallocTag initialization = 72kB</text>
<text text-anchor="middle" x="210" y="-7.8" font-family="Times,serif" font-size="14.00" fill="#000000">Memory allocated by MallocTag itself =55kB</text>
<g id="clust1" class="cluster">
<title>cluster_TID3781305</title>
<polygon fill="none" stroke="#000000" points="8,-46 8,-515.3036 412,-515.3036 412,-46 8,-46"/>
<text text-anchor="middle" x="210" y="-68.8" font-family="Times,serif" font-size="14.00" fill="#000000">nPushNodeFailures=0</text>
<text text-anchor="middle" x="210" y="-53.8" font-family="Times,serif" font-size="14.00" fill="#000000">nTreeNodesInUse/Max=6/256</text>
</g>
<!-- 3781305_minimal -->
<g id="node1" class="node">
<title>3781305_minimal</title>
<polygon fill="#fb6a4a" stroke="#000000" points="242,-507.3036 88,-507.3036 88,-409.3036 242,-409.3036 242,-507.3036"/>
<text text-anchor="middle" x="165" y="-490.5036" font-family="Times,serif" font-size="16.00" fill="#000000">thread=minimal</text>
<text text-anchor="middle" x="165" y="-472.5036" font-family="Times,serif" font-size="16.00" fill="#000000">TID=3781305</text>
<text text-anchor="middle" x="165" y="-454.5036" font-family="Times,serif" font-size="16.00" fill="#000000">total=4kB (100.00%)</text>
<text text-anchor="middle" x="165" y="-436.5036" font-family="Times,serif" font-size="16.00" fill="#000000">self=2kB (54.36%)</text>
<text text-anchor="middle" x="165" y="-418.5036" font-family="Times,serif" font-size="16.00" fill="#000000">num_alloc_self=3</text>
</g>
<!-- 3781305_TopFunc -->
<g id="node2" class="node">
<title>3781305_TopFunc</title>
<ellipse fill="#fff5f0" stroke="#000000" cx="165" cy="-339.3625" rx="62.4516" ry="33.8824"/>
<text text-anchor="middle" x="165" y="-352.1625" font-family="Times,serif" font-size="9.00" fill="#000000">scope=TopFunc</text>
<text text-anchor="middle" x="165" y="-342.1625" font-family="Times,serif" font-size="9.00" fill="#000000">total=2kB (45.63%)</text>
<text text-anchor="middle" x="165" y="-332.1625" font-family="Times,serif" font-size="9.00" fill="#000000">self=5B (0.10%)</text>
<text text-anchor="middle" x="165" y="-322.1625" font-family="Times,serif" font-size="9.00" fill="#000000">num_alloc_self=1</text>
</g>
<!-- 3781305_minimal&#45;&gt;3781305_TopFunc -->
<g id="edge1" class="edge">
<title>3781305_minimal&#45;&gt;3781305_TopFunc</title>
<path fill="none" stroke="#000000" d="M165,-409.239C165,-400.7801 165,-392.0313 165,-383.7062"/>
<polygon fill="#000000" stroke="#000000" points="168.5001,-383.4412 165,-373.4413 161.5001,-383.4413 168.5001,-383.4412"/>
</g>
<!-- 3781305_FuncA -->
<g id="node3" class="node">
<title>3781305_FuncA</title>
<ellipse fill="#fff5f0" stroke="#000000" cx="81" cy="-231.9447" rx="65.1077" ry="33.8824"/>
<text text-anchor="middle" x="81" y="-244.7447" font-family="Times,serif" font-size="9.00" fill="#000000">scope=FuncA</text>
<text text-anchor="middle" x="81" y="-234.7447" font-family="Times,serif" font-size="9.00" fill="#000000">total=600B (12.86%)</text>
<text text-anchor="middle" x="81" y="-224.7447" font-family="Times,serif" font-size="9.00" fill="#000000">self=100B (2.14%)</text>
<text text-anchor="middle" x="81" y="-214.7447" font-family="Times,serif" font-size="9.00" fill="#000000">num_alloc_self=1</text>
</g>
<!-- 3781305_TopFunc&#45;&gt;3781305_FuncA -->
<g id="edge2" class="edge">
<title>3781305_TopFunc&#45;&gt;3781305_FuncA</title>
<path fill="none" stroke="#000000" d="M140.4779,-308.004C131.5858,-296.633 121.4216,-283.6351 112.0414,-271.6399"/>
<polygon fill="#000000" stroke="#000000" points="114.6152,-269.2495 105.698,-263.5281 109.101,-273.5615 114.6152,-269.2495"/>
</g>
<!-- 3781305_FuncB -->
<g id="node4" class="node">
<title>3781305_FuncB</title>
<ellipse fill="#fcbba1" stroke="#000000" cx="140" cy="-125.234" rx="98.9899" ry="33.4697"/>
<text text-anchor="middle" x="140" y="-135.134" font-family="Times,serif" font-size="12.00" fill="#000000">scope=FuncB</text>
<text text-anchor="middle" x="140" y="-122.134" font-family="Times,serif" font-size="12.00" fill="#000000">total=self=500B (10.71%)</text>
<text text-anchor="middle" x="140" y="-109.134" font-family="Times,serif" font-size="12.00" fill="#000000">num_alloc_self=1</text>
</g>
<!-- 3781305_TopFunc&#45;&gt;3781305_FuncB -->
<g id="edge3" class="edge">
<title>3781305_TopFunc&#45;&gt;3781305_FuncB</title>
<path fill="none" stroke="#000000" d="M164.0361,-305.2566C162.8726,-275.8018 160.3558,-232.1643 155,-194.468 153.7939,-185.9788 152.1322,-176.9785 150.3525,-168.3751"/>
<polygon fill="#000000" stroke="#000000" points="153.7555,-167.5517 148.2293,-158.5122 146.9123,-169.0249 153.7555,-167.5517"/>
</g>
<!-- 3781305_FuncC -->
<g id="node5" class="node">
<title>3781305_FuncC</title>
<ellipse fill="#fc9272" stroke="#000000" cx="294" cy="-231.9447" rx="109.7032" ry="37.4533"/>
<text text-anchor="middle" x="294" y="-243.2447" font-family="Times,serif" font-size="14.00" fill="#000000">scope=FuncC</text>
<text text-anchor="middle" x="294" y="-228.2447" font-family="Times,serif" font-size="14.00" fill="#000000">total=self=1kB (21.95%)</text>
<text text-anchor="middle" x="294" y="-213.2447" font-family="Times,serif" font-size="14.00" fill="#000000">num_alloc_self=1</text>
</g>
<!-- 3781305_TopFunc&#45;&gt;3781305_FuncC -->
<g id="edge4" class="edge">
<title>3781305_TopFunc&#45;&gt;3781305_FuncC</title>
<path fill="none" stroke="#000000" d="M199.231,-310.8585C213.0876,-299.3201 229.3547,-285.7746 244.4626,-273.1943"/>
<polygon fill="#000000" stroke="#000000" points="246.7935,-275.8079 252.2385,-266.7193 242.3142,-270.4287 246.7935,-275.8079"/>
</g>
<!-- 3781305_FuncA&#45;&gt;3781305_FuncB -->
<g id="edge5" class="edge">
<title>3781305_FuncA&#45;&gt;3781305_FuncB</title>
<path fill="none" stroke="#000000" d="M99.1834,-199.0572C104.7912,-188.9146 111.0421,-177.6089 116.9332,-166.9539"/>
<polygon fill="#000000" stroke="#000000" points="119.9994,-168.6416 121.7751,-158.1966 113.8734,-165.2545 119.9994,-168.6416"/>
</g>
</g>
</svg>
