<?xml version="1.0" encoding="UTF-8" standalone="no"?>
<!DOCTYPE svg PUBLIC "-//W3C//DTD SVG 1.1//EN"
 "http://www.w3.org/Graphics/SVG/1.1/DTD/svg11.dtd">
<!-- Generated by graphviz version 2.40.1 (0)
 -->
<!-- Title: MallocTree Pages: 1 -->
<svg width="539pt" height="352pt"
 viewBox="0.00 0.00 539.11 352.17" xmlns="http://www.w3.org/2000/svg" xmlns:xlink="http://www.w3.org/1999/xlink">
<g id="graph0" class="graph" transform="scale(1 1) rotate(0) translate(4 348.1737)">
<title>MallocTree</title>
<polygon fill="#ffffff" stroke="transparent" points="-4,4 -4,-348.1737 535.1076,-348.1737 535.1076,4 -4,4"/>
<!-- minimal -->
<g id="node1" class="node">
<title>minimal</title>
<ellipse fill="none" stroke="#000000" cx="76.7193" cy="-306.697" rx="46.8387" ry="37.4533"/>
<text text-anchor="middle" x="76.7193" y="-317.997" font-family="Times,serif" font-size="14.00" fill="#000000">minimal</text>
<text text-anchor="middle" x="76.7193" y="-302.997" font-family="Times,serif" font-size="14.00" fill="#000000">100.00%</text>
<text text-anchor="middle" x="76.7193" y="-287.997" font-family="Times,serif" font-size="14.00" fill="#000000">1529B</text>
</g>
<!-- TopFunc -->
<g id="node2" class="node">
<title>TopFunc</title>
<ellipse fill="none" stroke="#000000" cx="76.7193" cy="-206.3503" rx="45.011" ry="26.7407"/>
<text text-anchor="middle" x="76.7193" y="-210.1503" font-family="Times,serif" font-size="14.00" fill="#000000">TopFunc</text>
<text text-anchor="middle" x="76.7193" y="-195.1503" font-family="Times,serif" font-size="14.00" fill="#000000">33.02%</text>
</g>
<!-- minimal&#45;&gt;TopFunc -->
<g id="edge1" class="edge">
<title>minimal&#45;&gt;TopFunc</title>
<path fill="none" stroke="#000000" d="M76.7193,-269.0461C76.7193,-260.6781 76.7193,-251.8136 76.7193,-243.4672"/>
<polygon fill="#000000" stroke="#000000" points="80.2194,-243.2485 76.7193,-233.2486 73.2194,-243.2486 80.2194,-243.2485"/>
</g>
<!-- FuncA -->
<g id="node3" class="node">
<title>FuncA</title>
<ellipse fill="none" stroke="#000000" cx="41.7193" cy="-116.6102" rx="41.9398" ry="26.7407"/>
<text text-anchor="middle" x="41.7193" y="-120.4102" font-family="Times,serif" font-size="14.00" fill="#000000">FuncA</text>
<text text-anchor="middle" x="41.7193" y="-105.4102" font-family="Times,serif" font-size="14.00" fill="#000000">19.62%</text>
</g>
<!-- TopFunc&#45;&gt;FuncA -->
<g id="edge2" class="edge">
<title>TopFunc&#45;&gt;FuncA</title>
<path fill="none" stroke="#000000" d="M66.4074,-179.9107C63.0252,-171.2386 59.2094,-161.4548 55.607,-152.2184"/>
<polygon fill="#000000" stroke="#000000" points="58.8519,-150.9056 51.9574,-142.8608 52.3303,-153.4491 58.8519,-150.9056"/>
</g>
<!-- FuncB -->
<g id="node4" class="node">
<title>FuncB</title>
<ellipse fill="none" stroke="#000000" cx="76.7193" cy="-26.8701" rx="41.9398" ry="26.7407"/>
<text text-anchor="middle" x="76.7193" y="-30.6701" font-family="Times,serif" font-size="14.00" fill="#000000">FuncB</text>
<text text-anchor="middle" x="76.7193" y="-15.6701" font-family="Times,serif" font-size="14.00" fill="#000000">13.08%</text>
</g>
<!-- TopFunc&#45;&gt;FuncB -->
<g id="edge3" class="edge">
<title>TopFunc&#45;&gt;FuncB</title>
<path fill="none" stroke="#000000" d="M85.0633,-179.7096C88.1237,-168.6252 91.2076,-155.5498 92.7193,-143.4802 95.6876,-119.7809 95.6876,-113.4394 92.7193,-89.7401 91.6328,-81.0651 89.734,-71.8705 87.6156,-63.269"/>
<polygon fill="#000000" stroke="#000000" points="90.9798,-62.2996 85.0633,-53.5107 84.2077,-64.0709 90.9798,-62.2996"/>
</g>
<!-- FuncA&#45;&gt;FuncB -->
<g id="edge4" class="edge">
<title>FuncA&#45;&gt;FuncB</title>
<path fill="none" stroke="#000000" d="M52.0312,-90.1706C55.4134,-81.4985 59.2292,-71.7146 62.8316,-62.4783"/>
<polygon fill="#000000" stroke="#000000" points="66.1083,-63.709 66.4812,-53.1207 59.5867,-61.1654 66.1083,-63.709"/>
</g>
<!-- __before_init_node__ -->
<g id="node5" class="node">
<title>__before_init_node__</title>
<ellipse fill="none" stroke="#000000" cx="238.7193" cy="-306.697" rx="97.6615" ry="37.4533"/>
<text text-anchor="middle" x="238.7193" y="-317.997" font-family="Times,serif" font-size="14.00" fill="#000000">Memory Allocated</text>
<text text-anchor="middle" x="238.7193" y="-302.997" font-family="Times,serif" font-size="14.00" fill="#000000">Before MallocTag Init</text>
<text text-anchor="middle" x="238.7193" y="-287.997" font-family="Times,serif" font-size="14.00" fill="#000000">72704B</text>
</g>
<!-- __malloctag_self_memory__ -->
<g id="node6" class="node">
<title>__malloctag_self_memory__</title>
<ellipse fill="none" stroke="#000000" cx="442.7193" cy="-306.697" rx="88.2768" ry="37.4533"/>
<text text-anchor="middle" x="442.7193" y="-317.997" font-family="Times,serif" font-size="14.00" fill="#000000">Memory Allocated</text>
<text text-anchor="middle" x="442.7193" y="-302.997" font-family="Times,serif" font-size="14.00" fill="#000000">By MallocTag itself</text>
<text text-anchor="middle" x="442.7193" y="-287.997" font-family="Times,serif" font-size="14.00" fill="#000000">51224B</text>
</g>
</g>
</svg>
