<?xml version="1.0" encoding="UTF-8" standalone="no"?>
<!DOCTYPE svg PUBLIC "-//W3C//DTD SVG 1.1//EN"
 "http://www.w3.org/Graphics/SVG/1.1/DTD/svg11.dtd">
<!-- Generated by graphviz version 2.40.1 (0)
 -->
<!-- Title: MallocTree Pages: 1 -->
<svg width="556pt" height="612pt"
 viewBox="0.00 0.00 556.00 612.42" xmlns="http://www.w3.org/2000/svg" xmlns:xlink="http://www.w3.org/1999/xlink">
<g id="graph0" class="graph" transform="scale(1 1) rotate(0) translate(4 608.4163)">
<title>MallocTree</title>
<polygon fill="#ffffff" stroke="transparent" points="-4,4 -4,-608.4163 552,-608.4163 552,4 -4,4"/>
<text text-anchor="middle" x="274" y="-97.8" font-family="Times,serif" font-size="14.00" fill="#000000">Memory allocated before MallocTag initialization = 72kB</text>
<text text-anchor="middle" x="274" y="-82.8" font-family="Times,serif" font-size="14.00" fill="#000000">Memory allocated by MallocTag itself =65kB</text>
<text text-anchor="middle" x="274" y="-67.8" font-family="Times,serif" font-size="14.00" fill="#000000">Total memory tracked by MallocTag across all threads =30MB</text>
<text text-anchor="middle" x="274" y="-52.8" font-family="Times,serif" font-size="14.00" fill="#000000">VmSizeNow = 30MB</text>
<text text-anchor="middle" x="274" y="-37.8" font-family="Times,serif" font-size="14.00" fill="#000000">Memory profiling session start timestamp = 2023&#45;09&#45;20 @ 00:10:27 CEST</text>
<text text-anchor="middle" x="274" y="-22.8" font-family="Times,serif" font-size="14.00" fill="#000000">This snapshot timestamp = 2023&#45;09&#45;20 @ 00:10:27 CEST</text>
<text text-anchor="middle" x="274" y="-7.8" font-family="Times,serif" font-size="14.00" fill="#000000">PID = 1908468</text>
<g id="clust1" class="cluster">
<title>cluster_TID1908468</title>
<polygon fill="none" stroke="#000000" points="8,-121 8,-596.4163 540,-596.4163 540,-121 8,-121"/>
<text text-anchor="middle" x="274" y="-158.8" font-family="Times,serif" font-size="14.00" fill="#000000">TID=1908468</text>
<text text-anchor="middle" x="274" y="-143.8" font-family="Times,serif" font-size="14.00" fill="#000000">nPushNodeFailures=0</text>
<text text-anchor="middle" x="274" y="-128.8" font-family="Times,serif" font-size="14.00" fill="#000000">nTreeNodesInUse/Max=6/256</text>
</g>
<!-- 1908468_minimal -->
<g id="node1" class="node">
<title>1908468_minimal</title>
<polygon fill="#fff5f0" stroke="#000000" points="235.5,-588.4163 134.5,-588.4163 134.5,-530.4163 235.5,-530.4163 235.5,-588.4163"/>
<text text-anchor="middle" x="185" y="-577.2163" font-family="Times,serif" font-size="9.00" fill="#000000">thread=minimal</text>
<text text-anchor="middle" x="185" y="-567.2163" font-family="Times,serif" font-size="9.00" fill="#000000">TID=1908468</text>
<text text-anchor="middle" x="185" y="-557.2163" font-family="Times,serif" font-size="9.00" fill="#000000">total=10MB (100.00%)</text>
<text text-anchor="middle" x="185" y="-547.2163" font-family="Times,serif" font-size="9.00" fill="#000000">self=1kB (0.01%)</text>
<text text-anchor="middle" x="185" y="-537.2163" font-family="Times,serif" font-size="9.00" fill="#000000">num_malloc_self=1</text>
</g>
<!-- 1908468_TopFunc -->
<g id="node2" class="node">
<title>1908468_TopFunc</title>
<ellipse fill="#fff5f0" stroke="#000000" cx="185" cy="-460.4752" rx="67.7647" ry="33.8824"/>
<text text-anchor="middle" x="185" y="-473.2752" font-family="Times,serif" font-size="9.00" fill="#000000">scope=TopFunc</text>
<text text-anchor="middle" x="185" y="-463.2752" font-family="Times,serif" font-size="9.00" fill="#000000">total=10MB (99.98%)</text>
<text text-anchor="middle" x="185" y="-453.2752" font-family="Times,serif" font-size="9.00" fill="#000000">self=24B (0.00%)</text>
<text text-anchor="middle" x="185" y="-443.2752" font-family="Times,serif" font-size="9.00" fill="#000000">num_malloc_self=1</text>
</g>
<!-- 1908468_minimal&#45;&gt;1908468_TopFunc -->
<g id="edge1" class="edge">
<title>1908468_minimal&#45;&gt;1908468_TopFunc</title>
<path fill="none" stroke="#000000" d="M185,-530.2658C185,-522.2356 185,-513.3409 185,-504.6652"/>
<polygon fill="#000000" stroke="#000000" points="188.5001,-504.6463 185,-494.6463 181.5001,-504.6464 188.5001,-504.6463"/>
</g>
<!-- 1908468_FuncA -->
<g id="node3" class="node">
<title>1908468_FuncA</title>
<ellipse fill="#fff5f0" stroke="#000000" cx="91" cy="-338.2082" rx="74.9067" ry="41.0244"/>
<text text-anchor="middle" x="91" y="-356.0082" font-family="Times,serif" font-size="9.00" fill="#000000">scope=FuncA</text>
<text text-anchor="middle" x="91" y="-346.0082" font-family="Times,serif" font-size="9.00" fill="#000000">total=self=104B (0.00%)</text>
<text text-anchor="middle" x="91" y="-336.0082" font-family="Times,serif" font-size="9.00" fill="#000000">num_malloc_self=1</text>
<text text-anchor="middle" x="91" y="-326.0082" font-family="Times,serif" font-size="9.00" fill="#000000">num_realloc_self=1</text>
<text text-anchor="middle" x="91" y="-316.0082" font-family="Times,serif" font-size="9.00" fill="#000000">num_free_self=1</text>
</g>
<!-- 1908468_TopFunc&#45;&gt;1908468_FuncA -->
<g id="edge2" class="edge">
<title>1908468_TopFunc&#45;&gt;1908468_FuncA</title>
<path fill="none" stroke="#000000" d="M160.548,-428.6701C150.175,-415.1778 137.8816,-399.1877 126.5371,-384.4318"/>
<polygon fill="#000000" stroke="#000000" points="129.2203,-382.1793 120.3505,-376.3847 123.6708,-386.4459 129.2203,-382.1793"/>
</g>
<!-- 1908468_FuncB -->
<g id="node4" class="node">
<title>1908468_FuncB</title>
<ellipse fill="#fff5f0" stroke="#000000" cx="138" cy="-215.9411" rx="68.6788" ry="33.8824"/>
<text text-anchor="middle" x="138" y="-228.7411" font-family="Times,serif" font-size="9.00" fill="#000000">scope=FuncB</text>
<text text-anchor="middle" x="138" y="-218.7411" font-family="Times,serif" font-size="9.00" fill="#000000">total=self=0B (0.00%)</text>
<text text-anchor="middle" x="138" y="-208.7411" font-family="Times,serif" font-size="9.00" fill="#000000">num_malloc_self=1</text>
<text text-anchor="middle" x="138" y="-198.7411" font-family="Times,serif" font-size="9.00" fill="#000000">num_free_self=1</text>
</g>
<!-- 1908468_TopFunc&#45;&gt;1908468_FuncB -->
<g id="edge3" class="edge">
<title>1908468_TopFunc&#45;&gt;1908468_FuncB</title>
<path fill="none" stroke="#000000" d="M187.2882,-426.3062C188.7051,-390.5913 188.2093,-333.26 175,-285.8823 172.344,-276.356 168.2557,-266.6565 163.7508,-257.6344"/>
<polygon fill="#000000" stroke="#000000" points="166.7041,-255.731 158.9479,-248.5135 160.5104,-258.9925 166.7041,-255.731"/>
</g>
<!-- 1908468_FuncC -->
<g id="node5" class="node">
<title>1908468_FuncC</title>
<ellipse fill="#cb181d" stroke="#000000" cx="368" cy="-338.2082" rx="164.0976" ry="52.1524"/>
<text text-anchor="middle" x="368" y="-355.2082" font-family="Times,serif" font-size="20.00" fill="#000000">scope=FuncC</text>
<text text-anchor="middle" x="368" y="-333.2082" font-family="Times,serif" font-size="20.00" fill="#000000">total=self=10MB (99.98%)</text>
<text text-anchor="middle" x="368" y="-311.2082" font-family="Times,serif" font-size="20.00" fill="#000000">num_malloc_self=1</text>
</g>
<!-- 1908468_TopFunc&#45;&gt;1908468_FuncC -->
<g id="edge4" class="edge">
<title>1908468_TopFunc&#45;&gt;1908468_FuncC</title>
<path fill="none" stroke="#000000" d="M226.0688,-433.0361C244.5819,-420.667 267.1006,-405.6217 288.6964,-391.193"/>
<polygon fill="#000000" stroke="#000000" points="290.8657,-393.953 297.2362,-385.4873 286.9769,-388.1325 290.8657,-393.953"/>
</g>
<!-- 1908468_FuncA&#45;&gt;1908468_FuncB -->
<g id="edge5" class="edge">
<title>1908468_FuncA&#45;&gt;1908468_FuncB</title>
<path fill="none" stroke="#000000" d="M106.5198,-297.8345C111.3352,-285.3075 116.6579,-271.4609 121.5353,-258.7729"/>
<polygon fill="#000000" stroke="#000000" points="124.8412,-259.9272 125.1624,-249.3372 118.3073,-257.4155 124.8412,-259.9272"/>
</g>
</g>
</svg>
