<?xml version="1.0" encoding="UTF-8" standalone="no"?>
<!DOCTYPE svg PUBLIC "-//W3C//DTD SVG 1.1//EN"
 "http://www.w3.org/Graphics/SVG/1.1/DTD/svg11.dtd">
<!-- Generated by graphviz version 2.40.1 (0)
 -->
<!-- Title: MallocTree_TID3665833 Pages: 1 -->
<svg width="434pt" height="409pt"
 viewBox="0.00 0.00 433.55 408.86" xmlns="http://www.w3.org/2000/svg" xmlns:xlink="http://www.w3.org/1999/xlink">
<g id="graph0" class="graph" transform="scale(1 1) rotate(0) translate(4 404.86)">
<title>MallocTree_TID3665833</title>
<polygon fill="#ffffff" stroke="transparent" points="-4,4 -4,-404.86 429.5549,-404.86 429.5549,4 -4,4"/>
<!-- minimal -->
<g id="node1" class="node">
<title>minimal</title>
<polygon fill="#fb6a4a" stroke="#000000" points="284.7523,-400.86 150.7523,-400.86 150.7523,-332.86 284.7523,-332.86 284.7523,-400.86"/>
<text text-anchor="middle" x="217.7523" y="-385.66" font-family="Times,serif" font-size="14.00" fill="#000000">thread=minimal</text>
<text text-anchor="middle" x="217.7523" y="-370.66" font-family="Times,serif" font-size="14.00" fill="#000000">TID=3665833</text>
<text text-anchor="middle" x="217.7523" y="-355.66" font-family="Times,serif" font-size="14.00" fill="#000000">total=4kB (100.00%)</text>
<text text-anchor="middle" x="217.7523" y="-340.66" font-family="Times,serif" font-size="14.00" fill="#000000">self=2kB (54.36%)</text>
</g>
<!-- TopFunc -->
<g id="node2" class="node">
<title>TopFunc</title>
<ellipse fill="#fff5f0" stroke="#000000" cx="217.7523" cy="-259.3833" rx="89.6056" ry="37.4533"/>
<text text-anchor="middle" x="217.7523" y="-270.6833" font-family="Times,serif" font-size="14.00" fill="#000000">scope=TopFunc</text>
<text text-anchor="middle" x="217.7523" y="-255.6833" font-family="Times,serif" font-size="14.00" fill="#000000">total=2kB (45.63%)</text>
<text text-anchor="middle" x="217.7523" y="-240.6833" font-family="Times,serif" font-size="14.00" fill="#000000">self=5B (0.10%)</text>
</g>
<!-- minimal&#45;&gt;TopFunc -->
<g id="edge1" class="edge">
<title>minimal&#45;&gt;TopFunc</title>
<path fill="none" stroke="#000000" d="M217.7523,-332.8537C217.7523,-324.6321 217.7523,-315.6949 217.7523,-306.9764"/>
<polygon fill="#000000" stroke="#000000" points="221.2524,-306.8979 217.7523,-296.898 214.2524,-306.898 221.2524,-306.8979"/>
</g>
<!-- FuncA -->
<g id="node3" class="node">
<title>FuncA</title>
<ellipse fill="#fff5f0" stroke="#000000" cx="94.7523" cy="-148.43" rx="94.5053" ry="37.4533"/>
<text text-anchor="middle" x="94.7523" y="-159.73" font-family="Times,serif" font-size="14.00" fill="#000000">scope=FuncA</text>
<text text-anchor="middle" x="94.7523" y="-144.73" font-family="Times,serif" font-size="14.00" fill="#000000">total=600B (12.86%)</text>
<text text-anchor="middle" x="94.7523" y="-129.73" font-family="Times,serif" font-size="14.00" fill="#000000">self=100B (2.14%)</text>
</g>
<!-- TopFunc&#45;&gt;FuncA -->
<g id="edge2" class="edge">
<title>TopFunc&#45;&gt;FuncA</title>
<path fill="none" stroke="#000000" d="M179.8446,-225.1883C167.4534,-214.0107 153.556,-201.4744 140.642,-189.8252"/>
<polygon fill="#000000" stroke="#000000" points="142.9406,-187.1851 133.1709,-183.0858 138.2519,-192.3828 142.9406,-187.1851"/>
</g>
<!-- FuncB -->
<g id="node4" class="node">
<title>FuncB</title>
<ellipse fill="#fcbba1" stroke="#000000" cx="155.7523" cy="-37.4767" rx="94.5053" ry="37.4533"/>
<text text-anchor="middle" x="155.7523" y="-48.7767" font-family="Times,serif" font-size="14.00" fill="#000000">scope=FuncB</text>
<text text-anchor="middle" x="155.7523" y="-33.7767" font-family="Times,serif" font-size="14.00" fill="#000000">total=500B (10.71%)</text>
<text text-anchor="middle" x="155.7523" y="-18.7767" font-family="Times,serif" font-size="14.00" fill="#000000">self=500B (10.71%)</text>
</g>
<!-- TopFunc&#45;&gt;FuncB -->
<g id="edge3" class="edge">
<title>TopFunc&#45;&gt;FuncB</title>
<path fill="none" stroke="#000000" d="M217.0821,-221.8533C215.566,-191.2709 211.1533,-147.348 198.7523,-110.9533 195.4988,-101.4049 190.9238,-91.7252 185.9632,-82.663"/>
<polygon fill="#000000" stroke="#000000" points="188.9146,-80.7738 180.9087,-73.8344 182.8397,-84.2517 188.9146,-80.7738"/>
</g>
<!-- FuncC -->
<g id="node5" class="node">
<title>FuncC</title>
<ellipse fill="#fc9272" stroke="#000000" cx="335.7523" cy="-148.43" rx="89.6056" ry="37.4533"/>
<text text-anchor="middle" x="335.7523" y="-159.73" font-family="Times,serif" font-size="14.00" fill="#000000">scope=FuncC</text>
<text text-anchor="middle" x="335.7523" y="-144.73" font-family="Times,serif" font-size="14.00" fill="#000000">total=1kB (21.95%)</text>
<text text-anchor="middle" x="335.7523" y="-129.73" font-family="Times,serif" font-size="14.00" fill="#000000">self=1kB (21.95%)</text>
</g>
<!-- TopFunc&#45;&gt;FuncC -->
<g id="edge4" class="edge">
<title>TopFunc&#45;&gt;FuncC</title>
<path fill="none" stroke="#000000" d="M254.4414,-224.8852C266.207,-213.8222 279.3607,-201.454 291.6023,-189.9435"/>
<polygon fill="#000000" stroke="#000000" points="294.1982,-192.3068 299.0859,-182.9068 289.403,-187.2071 294.1982,-192.3068"/>
</g>
<!-- FuncA&#45;&gt;FuncB -->
<g id="edge5" class="edge">
<title>FuncA&#45;&gt;FuncB</title>
<path fill="none" stroke="#000000" d="M114.895,-111.7922C119.8917,-102.7037 125.3093,-92.8497 130.5158,-83.3796"/>
<polygon fill="#000000" stroke="#000000" points="133.6716,-84.9042 135.4223,-74.455 127.5375,-81.5318 133.6716,-84.9042"/>
</g>
</g>
</svg>
