<?xml version="1.0" encoding="UTF-8" standalone="no"?>
<!DOCTYPE svg PUBLIC "-//W3C//DTD SVG 1.1//EN"
 "http://www.w3.org/Graphics/SVG/1.1/DTD/svg11.dtd">
<!-- Generated by graphviz version 2.40.1 (0)
 -->
<!-- Title: MallocTree Pages: 1 -->
<svg width="124pt" height="331pt"
 viewBox="0.00 0.00 124.15 330.96" xmlns="http://www.w3.org/2000/svg" xmlns:xlink="http://www.w3.org/1999/xlink">
<g id="graph0" class="graph" transform="scale(1 1) rotate(0) translate(4 326.9605)">
<title>MallocTree</title>
<polygon fill="#ffffff" stroke="transparent" points="-4,4 -4,-326.9605 120.1457,-326.9605 120.1457,4 -4,4"/>
<!-- minimal -->
<g id="node1" class="node">
<title>minimal</title>
<ellipse fill="none" stroke="#000000" cx="69.4767" cy="-296.0904" rx="46.8387" ry="26.7407"/>
<text text-anchor="middle" x="69.4767" y="-299.8904" font-family="Times,serif" font-size="14.00" fill="#000000">minimal</text>
<text text-anchor="middle" x="69.4767" y="-284.8904" font-family="Times,serif" font-size="14.00" fill="#000000">100.00%</text>
</g>
<!-- Top -->
<g id="node2" class="node">
<title>Top</title>
<ellipse fill="none" stroke="#000000" cx="69.4767" cy="-206.3503" rx="37.4533" ry="26.7407"/>
<text text-anchor="middle" x="69.4767" y="-210.1503" font-family="Times,serif" font-size="14.00" fill="#000000">Top</text>
<text text-anchor="middle" x="69.4767" y="-195.1503" font-family="Times,serif" font-size="14.00" fill="#000000">0.68%</text>
</g>
<!-- minimal&#45;&gt;Top -->
<g id="edge1" class="edge">
<title>minimal&#45;&gt;Top</title>
<path fill="none" stroke="#000000" d="M69.4767,-269.1654C69.4767,-261.0905 69.4767,-252.0872 69.4767,-243.4763"/>
<polygon fill="#000000" stroke="#000000" points="72.9768,-243.2562 69.4767,-233.2563 65.9768,-243.2563 72.9768,-243.2562"/>
</g>
<!-- A -->
<g id="node3" class="node">
<title>A</title>
<ellipse fill="none" stroke="#000000" cx="37.4767" cy="-116.6102" rx="37.4533" ry="26.7407"/>
<text text-anchor="middle" x="37.4767" y="-120.4102" font-family="Times,serif" font-size="14.00" fill="#000000">A</text>
<text text-anchor="middle" x="37.4767" y="-105.4102" font-family="Times,serif" font-size="14.00" fill="#000000">0.40%</text>
</g>
<!-- Top&#45;&gt;A -->
<g id="edge2" class="edge">
<title>Top&#45;&gt;A</title>
<path fill="none" stroke="#000000" d="M60.0487,-179.9107C56.9889,-171.3299 53.541,-161.6606 50.2781,-152.5102"/>
<polygon fill="#000000" stroke="#000000" points="53.4927,-151.1043 46.8373,-142.8608 46.8993,-153.4555 53.4927,-151.1043"/>
</g>
<!-- B -->
<g id="node4" class="node">
<title>B</title>
<ellipse fill="none" stroke="#000000" cx="69.4767" cy="-26.8701" rx="37.4533" ry="26.7407"/>
<text text-anchor="middle" x="69.4767" y="-30.6701" font-family="Times,serif" font-size="14.00" fill="#000000">B</text>
<text text-anchor="middle" x="69.4767" y="-15.6701" font-family="Times,serif" font-size="14.00" fill="#000000">0.26%</text>
</g>
<!-- Top&#45;&gt;B -->
<g id="edge3" class="edge">
<title>Top&#45;&gt;B</title>
<path fill="none" stroke="#000000" d="M76.7056,-179.952C79.4081,-168.792 82.144,-155.5959 83.4767,-143.4802 86.0881,-119.7389 86.0881,-113.4814 83.4767,-89.7401 82.5188,-81.032 80.8361,-71.7657 78.9618,-63.0985"/>
<polygon fill="#000000" stroke="#000000" points="82.354,-62.2319 76.7056,-53.2683 75.5314,-63.7979 82.354,-62.2319"/>
</g>
<!-- A&#45;&gt;B -->
<g id="edge4" class="edge">
<title>A&#45;&gt;B</title>
<path fill="none" stroke="#000000" d="M46.9046,-90.1706C49.9644,-81.5897 53.4123,-71.9205 56.6752,-62.7701"/>
<polygon fill="#000000" stroke="#000000" points="60.054,-63.7154 60.1161,-53.1207 53.4606,-61.3642 60.054,-63.7154"/>
</g>
</g>
</svg>
