<?xml version="1.0" encoding="UTF-8" standalone="no"?>
<!DOCTYPE svg PUBLIC "-//W3C//DTD SVG 1.1//EN"
 "http://www.w3.org/Graphics/SVG/1.1/DTD/svg11.dtd">
<!-- Generated by graphviz version 2.40.1 (0)
 -->
<!-- Title: MallocTree Pages: 1 -->
<svg width="565pt" height="352pt"
 viewBox="0.00 0.00 564.63 352.17" xmlns="http://www.w3.org/2000/svg" xmlns:xlink="http://www.w3.org/1999/xlink">
<g id="graph0" class="graph" transform="scale(1 1) rotate(0) translate(4 348.1737)">
<title>MallocTree</title>
<polygon fill="#ffffff" stroke="transparent" points="-4,4 -4,-348.1737 560.6346,-348.1737 560.6346,4 -4,4"/>
<!-- minimal -->
<g id="node1" class="node">
<title>minimal</title>
<ellipse fill="none" stroke="#000000" cx="74.2462" cy="-306.697" rx="74.4932" ry="37.4533"/>
<text text-anchor="middle" x="74.2462" y="-317.997" font-family="Times,serif" font-size="14.00" fill="#000000">thread=minimal</text>
<text text-anchor="middle" x="74.2462" y="-302.997" font-family="Times,serif" font-size="14.00" fill="#000000">100.00%</text>
<text text-anchor="middle" x="74.2462" y="-287.997" font-family="Times,serif" font-size="14.00" fill="#000000">3kB</text>
</g>
<!-- TopFunc -->
<g id="node2" class="node">
<title>TopFunc</title>
<ellipse fill="none" stroke="#000000" cx="74.2462" cy="-206.3503" rx="45.011" ry="26.7407"/>
<text text-anchor="middle" x="74.2462" y="-210.1503" font-family="Times,serif" font-size="14.00" fill="#000000">TopFunc</text>
<text text-anchor="middle" x="74.2462" y="-195.1503" font-family="Times,serif" font-size="14.00" fill="#000000">16.60%</text>
</g>
<!-- minimal&#45;&gt;TopFunc -->
<g id="edge1" class="edge">
<title>minimal&#45;&gt;TopFunc</title>
<path fill="none" stroke="#000000" d="M74.2462,-269.0461C74.2462,-260.6781 74.2462,-251.8136 74.2462,-243.4672"/>
<polygon fill="#000000" stroke="#000000" points="77.7463,-243.2485 74.2462,-233.2486 70.7463,-243.2486 77.7463,-243.2485"/>
</g>
<!-- FuncA -->
<g id="node3" class="node">
<title>FuncA</title>
<ellipse fill="none" stroke="#000000" cx="42.2462" cy="-116.6102" rx="37.4533" ry="26.7407"/>
<text text-anchor="middle" x="42.2462" y="-120.4102" font-family="Times,serif" font-size="14.00" fill="#000000">FuncA</text>
<text text-anchor="middle" x="42.2462" y="-105.4102" font-family="Times,serif" font-size="14.00" fill="#000000">9.86%</text>
</g>
<!-- TopFunc&#45;&gt;FuncA -->
<g id="edge2" class="edge">
<title>TopFunc&#45;&gt;FuncA</title>
<path fill="none" stroke="#000000" d="M64.8182,-179.9107C61.7584,-171.3299 58.3105,-161.6606 55.0476,-152.5102"/>
<polygon fill="#000000" stroke="#000000" points="58.2623,-151.1043 51.6068,-142.8608 51.6689,-153.4555 58.2623,-151.1043"/>
</g>
<!-- FuncB -->
<g id="node4" class="node">
<title>FuncB</title>
<ellipse fill="none" stroke="#000000" cx="74.2462" cy="-26.8701" rx="37.4533" ry="26.7407"/>
<text text-anchor="middle" x="74.2462" y="-30.6701" font-family="Times,serif" font-size="14.00" fill="#000000">FuncB</text>
<text text-anchor="middle" x="74.2462" y="-15.6701" font-family="Times,serif" font-size="14.00" fill="#000000">6.57%</text>
</g>
<!-- TopFunc&#45;&gt;FuncB -->
<g id="edge3" class="edge">
<title>TopFunc&#45;&gt;FuncB</title>
<path fill="none" stroke="#000000" d="M81.5495,-179.6443C84.2278,-168.5499 86.9258,-155.4847 88.2462,-143.4802 90.8576,-119.7389 90.8576,-113.4814 88.2462,-89.7401 87.2884,-81.032 85.6056,-71.7657 83.7314,-63.0985"/>
<polygon fill="#000000" stroke="#000000" points="87.1236,-62.2319 81.4751,-53.2683 80.301,-63.7979 87.1236,-62.2319"/>
</g>
<!-- FuncA&#45;&gt;FuncB -->
<g id="edge4" class="edge">
<title>FuncA&#45;&gt;FuncB</title>
<path fill="none" stroke="#000000" d="M51.6742,-90.1706C54.734,-81.5897 58.1819,-71.9205 61.4448,-62.7701"/>
<polygon fill="#000000" stroke="#000000" points="64.8235,-63.7154 64.8856,-53.1207 58.2302,-61.3642 64.8235,-63.7154"/>
</g>
<!-- __before_init_node__ -->
<g id="node5" class="node">
<title>__before_init_node__</title>
<ellipse fill="none" stroke="#000000" cx="264.2462" cy="-306.697" rx="97.6615" ry="37.4533"/>
<text text-anchor="middle" x="264.2462" y="-317.997" font-family="Times,serif" font-size="14.00" fill="#000000">Memory Allocated</text>
<text text-anchor="middle" x="264.2462" y="-302.997" font-family="Times,serif" font-size="14.00" fill="#000000">Before MallocTag Init</text>
<text text-anchor="middle" x="264.2462" y="-287.997" font-family="Times,serif" font-size="14.00" fill="#000000">72kB</text>
</g>
<!-- __malloctag_self_memory__ -->
<g id="node6" class="node">
<title>__malloctag_self_memory__</title>
<ellipse fill="none" stroke="#000000" cx="468.2462" cy="-306.697" rx="88.2768" ry="37.4533"/>
<text text-anchor="middle" x="468.2462" y="-317.997" font-family="Times,serif" font-size="14.00" fill="#000000">Memory Allocated</text>
<text text-anchor="middle" x="468.2462" y="-302.997" font-family="Times,serif" font-size="14.00" fill="#000000">By MallocTag itself</text>
<text text-anchor="middle" x="468.2462" y="-287.997" font-family="Times,serif" font-size="14.00" fill="#000000">51kB</text>
</g>
</g>
</svg>
