<?xml version="1.0" encoding="UTF-8" standalone="no"?>
<!DOCTYPE svg PUBLIC "-//W3C//DTD SVG 1.1//EN"
 "http://www.w3.org/Graphics/SVG/1.1/DTD/svg11.dtd">
<!-- Generated by graphviz version 2.40.1 (0)
 -->
<!-- Title: MallocTree Pages: 1 -->
<svg width="446pt" height="627pt"
 viewBox="0.00 0.00 446.00 627.39" xmlns="http://www.w3.org/2000/svg" xmlns:xlink="http://www.w3.org/1999/xlink">
<g id="graph0" class="graph" transform="scale(1 1) rotate(0) translate(4 623.3869)">
<title>MallocTree</title>
<polygon fill="#ffffff" stroke="transparent" points="-4,4 -4,-623.3869 442,-623.3869 442,4 -4,4"/>
<text text-anchor="middle" x="219" y="-52.8" font-family="Times,serif" font-size="14.00" fill="#000000">Memory allocated before MallocTag initialization = 72kB</text>
<text text-anchor="middle" x="219" y="-37.8" font-family="Times,serif" font-size="14.00" fill="#000000">Memory allocated by MallocTag itself =61kB</text>
<text text-anchor="middle" x="219" y="-22.8" font-family="Times,serif" font-size="14.00" fill="#000000">Total memory tracked by MallocTag across all threads =4kB</text>
<text text-anchor="middle" x="219" y="-7.8" font-family="Times,serif" font-size="14.00" fill="#000000">Start time of memory profiling: Aug 02 1970 (Sun) @ 04:44:36</text>
<g id="clust1" class="cluster">
<title>cluster_TID839567</title>
<polygon fill="none" stroke="#000000" points="8,-76 8,-611.3869 430,-611.3869 430,-76 8,-76"/>
<text text-anchor="middle" x="219" y="-98.8" font-family="Times,serif" font-size="14.00" fill="#000000">nPushNodeFailures=0</text>
<text text-anchor="middle" x="219" y="-83.8" font-family="Times,serif" font-size="14.00" fill="#000000">nTreeNodesInUse/Max=6/256</text>
</g>
<!-- 839567_minimal -->
<g id="node1" class="node">
<title>839567_minimal</title>
<polygon fill="#fb6a4a" stroke="#000000" points="260,-603.3869 106,-603.3869 106,-487.3869 260,-487.3869 260,-603.3869"/>
<text text-anchor="middle" x="183" y="-586.5869" font-family="Times,serif" font-size="16.00" fill="#000000">thread=minimal</text>
<text text-anchor="middle" x="183" y="-568.5869" font-family="Times,serif" font-size="16.00" fill="#000000">TID=839567</text>
<text text-anchor="middle" x="183" y="-550.5869" font-family="Times,serif" font-size="16.00" fill="#000000">total=4kB (100.00%)</text>
<text text-anchor="middle" x="183" y="-532.5869" font-family="Times,serif" font-size="16.00" fill="#000000">self=2kB (52.12%)</text>
<text text-anchor="middle" x="183" y="-514.5869" font-family="Times,serif" font-size="16.00" fill="#000000">num_malloc_self=3</text>
<text text-anchor="middle" x="183" y="-496.5869" font-family="Times,serif" font-size="16.00" fill="#000000">num_free_self=2</text>
</g>
<!-- 839567_TopFunc -->
<g id="node2" class="node">
<title>839567_TopFunc</title>
<ellipse fill="#fff5f0" stroke="#000000" cx="183" cy="-417.4457" rx="62.4516" ry="33.8824"/>
<text text-anchor="middle" x="183" y="-430.2457" font-family="Times,serif" font-size="9.00" fill="#000000">scope=TopFunc</text>
<text text-anchor="middle" x="183" y="-420.2457" font-family="Times,serif" font-size="9.00" fill="#000000">total=2kB (47.87%)</text>
<text text-anchor="middle" x="183" y="-410.2457" font-family="Times,serif" font-size="9.00" fill="#000000">self=5B (0.10%)</text>
<text text-anchor="middle" x="183" y="-400.2457" font-family="Times,serif" font-size="9.00" fill="#000000">num_malloc_self=1</text>
</g>
<!-- 839567_minimal&#45;&gt;839567_TopFunc -->
<g id="edge1" class="edge">
<title>839567_minimal&#45;&gt;839567_TopFunc</title>
<path fill="none" stroke="#000000" d="M183,-487.0323C183,-478.5059 183,-469.8454 183,-461.6629"/>
<polygon fill="#000000" stroke="#000000" points="186.5001,-461.6003 183,-451.6003 179.5001,-461.6003 186.5001,-461.6003"/>
</g>
<!-- 839567_FuncA -->
<g id="node3" class="node">
<title>839567_FuncA</title>
<ellipse fill="#fee0d2" stroke="#000000" cx="90" cy="-295.1787" rx="73.5782" ry="52.1524"/>
<text text-anchor="middle" x="90" y="-320.1787" font-family="Times,serif" font-size="10.00" fill="#000000">scope=FuncA</text>
<text text-anchor="middle" x="90" y="-309.1787" font-family="Times,serif" font-size="10.00" fill="#000000">total=800B (16.44%)</text>
<text text-anchor="middle" x="90" y="-298.1787" font-family="Times,serif" font-size="10.00" fill="#000000">self=300B (6.16%)</text>
<text text-anchor="middle" x="90" y="-287.1787" font-family="Times,serif" font-size="10.00" fill="#000000">num_malloc_self=1</text>
<text text-anchor="middle" x="90" y="-276.1787" font-family="Times,serif" font-size="10.00" fill="#000000">num_realloc_self=1</text>
<text text-anchor="middle" x="90" y="-265.1787" font-family="Times,serif" font-size="10.00" fill="#000000">num_free_self=1</text>
</g>
<!-- 839567_TopFunc&#45;&gt;839567_FuncA -->
<g id="edge2" class="edge">
<title>839567_TopFunc&#45;&gt;839567_FuncA</title>
<path fill="none" stroke="#000000" d="M159.0502,-385.9589C150.5737,-374.8149 140.7782,-361.9367 131.2772,-349.4458"/>
<polygon fill="#000000" stroke="#000000" points="133.9328,-347.1558 125.093,-341.3155 128.3614,-351.3937 133.9328,-347.1558"/>
</g>
<!-- 839567_FuncB -->
<g id="node4" class="node">
<title>839567_FuncB</title>
<ellipse fill="#fcbba1" stroke="#000000" cx="149" cy="-164.4264" rx="98.9899" ry="42.3529"/>
<text text-anchor="middle" x="149" y="-180.8264" font-family="Times,serif" font-size="12.00" fill="#000000">scope=FuncB</text>
<text text-anchor="middle" x="149" y="-167.8264" font-family="Times,serif" font-size="12.00" fill="#000000">total=self=500B (10.27%)</text>
<text text-anchor="middle" x="149" y="-154.8264" font-family="Times,serif" font-size="12.00" fill="#000000">num_malloc_self=1</text>
<text text-anchor="middle" x="149" y="-141.8264" font-family="Times,serif" font-size="12.00" fill="#000000">num_free_self=1</text>
</g>
<!-- 839567_TopFunc&#45;&gt;839567_FuncB -->
<g id="edge3" class="edge">
<title>839567_TopFunc&#45;&gt;839567_FuncB</title>
<path fill="none" stroke="#000000" d="M183.4492,-383.3684C183.3571,-347.9719 181.638,-291.1189 173,-242.8528 171.4508,-234.1967 169.2524,-225.1527 166.8081,-216.4119"/>
<polygon fill="#000000" stroke="#000000" points="170.1358,-215.3214 163.9654,-206.7088 163.4181,-217.2895 170.1358,-215.3214"/>
</g>
<!-- 839567_FuncC -->
<g id="node5" class="node">
<title>839567_FuncC</title>
<ellipse fill="#fc9272" stroke="#000000" cx="312" cy="-295.1787" rx="109.7032" ry="48.1667"/>
<text text-anchor="middle" x="312" y="-313.9787" font-family="Times,serif" font-size="14.00" fill="#000000">scope=FuncC</text>
<text text-anchor="middle" x="312" y="-298.9787" font-family="Times,serif" font-size="14.00" fill="#000000">total=self=1kB (21.04%)</text>
<text text-anchor="middle" x="312" y="-283.9787" font-family="Times,serif" font-size="14.00" fill="#000000">num_malloc_self=1</text>
<text text-anchor="middle" x="312" y="-268.9787" font-family="Times,serif" font-size="14.00" fill="#000000">num_free_self=1</text>
</g>
<!-- 839567_TopFunc&#45;&gt;839567_FuncC -->
<g id="edge4" class="edge">
<title>839567_TopFunc&#45;&gt;839567_FuncC</title>
<path fill="none" stroke="#000000" d="M214.2273,-387.8483C227.556,-375.2153 243.4951,-360.1081 258.5974,-345.794"/>
<polygon fill="#000000" stroke="#000000" points="261.0786,-348.2646 265.9289,-338.8452 256.2632,-343.1841 261.0786,-348.2646"/>
</g>
<!-- 839567_FuncA&#45;&gt;839567_FuncB -->
<g id="edge5" class="edge">
<title>839567_FuncA&#45;&gt;839567_FuncB</title>
<path fill="none" stroke="#000000" d="M112.6422,-245.0004C117.0257,-235.2859 121.6231,-225.0975 126.0174,-215.3592"/>
<polygon fill="#000000" stroke="#000000" points="129.2318,-216.7451 130.1546,-206.1905 122.8513,-213.8659 129.2318,-216.7451"/>
</g>
</g>
</svg>
