<?xml version="1.0" encoding="UTF-8" standalone="no"?>
<!DOCTYPE svg PUBLIC "-//W3C//DTD SVG 1.1//EN"
 "http://www.w3.org/Graphics/SVG/1.1/DTD/svg11.dtd">
<!-- Generated by graphviz version 2.40.1 (0)
 -->
<!-- Title: MallocTree Pages: 1 -->
<svg width="446pt" height="642pt"
 viewBox="0.00 0.00 446.00 642.39" xmlns="http://www.w3.org/2000/svg" xmlns:xlink="http://www.w3.org/1999/xlink">
<g id="graph0" class="graph" transform="scale(1 1) rotate(0) translate(4 638.3869)">
<title>MallocTree</title>
<polygon fill="#ffffff" stroke="transparent" points="-4,4 -4,-638.3869 442,-638.3869 442,4 -4,4"/>
<text text-anchor="middle" x="219" y="-67.8" font-family="Times,serif" font-size="14.00" fill="#000000">Memory allocated before MallocTag initialization = 72kB</text>
<text text-anchor="middle" x="219" y="-52.8" font-family="Times,serif" font-size="14.00" fill="#000000">Memory allocated by MallocTag itself =61kB</text>
<text text-anchor="middle" x="219" y="-37.8" font-family="Times,serif" font-size="14.00" fill="#000000">Total memory tracked by MallocTag across all threads =4kB</text>
<text text-anchor="middle" x="219" y="-22.8" font-family="Times,serif" font-size="14.00" fill="#000000">Start time of memory profiling session: 2023&#45;09&#45;14 @ 22:30:19 CEST</text>
<text text-anchor="middle" x="219" y="-7.8" font-family="Times,serif" font-size="14.00" fill="#000000">PID=888400</text>
<g id="clust1" class="cluster">
<title>cluster_TID888400</title>
<polygon fill="none" stroke="#000000" points="8,-91 8,-626.3869 430,-626.3869 430,-91 8,-91"/>
<text text-anchor="middle" x="219" y="-113.8" font-family="Times,serif" font-size="14.00" fill="#000000">nPushNodeFailures=0</text>
<text text-anchor="middle" x="219" y="-98.8" font-family="Times,serif" font-size="14.00" fill="#000000">nTreeNodesInUse/Max=6/256</text>
</g>
<!-- 888400_minimal -->
<g id="node1" class="node">
<title>888400_minimal</title>
<polygon fill="#fb6a4a" stroke="#000000" points="260,-618.3869 106,-618.3869 106,-502.3869 260,-502.3869 260,-618.3869"/>
<text text-anchor="middle" x="183" y="-601.5869" font-family="Times,serif" font-size="16.00" fill="#000000">thread=minimal</text>
<text text-anchor="middle" x="183" y="-583.5869" font-family="Times,serif" font-size="16.00" fill="#000000">TID=888400</text>
<text text-anchor="middle" x="183" y="-565.5869" font-family="Times,serif" font-size="16.00" fill="#000000">total=4kB (100.00%)</text>
<text text-anchor="middle" x="183" y="-547.5869" font-family="Times,serif" font-size="16.00" fill="#000000">self=2kB (52.12%)</text>
<text text-anchor="middle" x="183" y="-529.5869" font-family="Times,serif" font-size="16.00" fill="#000000">num_malloc_self=3</text>
<text text-anchor="middle" x="183" y="-511.5869" font-family="Times,serif" font-size="16.00" fill="#000000">num_free_self=2</text>
</g>
<!-- 888400_TopFunc -->
<g id="node2" class="node">
<title>888400_TopFunc</title>
<ellipse fill="#fff5f0" stroke="#000000" cx="183" cy="-432.4457" rx="62.4516" ry="33.8824"/>
<text text-anchor="middle" x="183" y="-445.2457" font-family="Times,serif" font-size="9.00" fill="#000000">scope=TopFunc</text>
<text text-anchor="middle" x="183" y="-435.2457" font-family="Times,serif" font-size="9.00" fill="#000000">total=2kB (47.87%)</text>
<text text-anchor="middle" x="183" y="-425.2457" font-family="Times,serif" font-size="9.00" fill="#000000">self=5B (0.10%)</text>
<text text-anchor="middle" x="183" y="-415.2457" font-family="Times,serif" font-size="9.00" fill="#000000">num_malloc_self=1</text>
</g>
<!-- 888400_minimal&#45;&gt;888400_TopFunc -->
<g id="edge1" class="edge">
<title>888400_minimal&#45;&gt;888400_TopFunc</title>
<path fill="none" stroke="#000000" d="M183,-502.0323C183,-493.5059 183,-484.8454 183,-476.6629"/>
<polygon fill="#000000" stroke="#000000" points="186.5001,-476.6003 183,-466.6003 179.5001,-476.6003 186.5001,-476.6003"/>
</g>
<!-- 888400_FuncA -->
<g id="node3" class="node">
<title>888400_FuncA</title>
<ellipse fill="#fee0d2" stroke="#000000" cx="90" cy="-310.1787" rx="73.5782" ry="52.1524"/>
<text text-anchor="middle" x="90" y="-335.1787" font-family="Times,serif" font-size="10.00" fill="#000000">scope=FuncA</text>
<text text-anchor="middle" x="90" y="-324.1787" font-family="Times,serif" font-size="10.00" fill="#000000">total=800B (16.44%)</text>
<text text-anchor="middle" x="90" y="-313.1787" font-family="Times,serif" font-size="10.00" fill="#000000">self=300B (6.16%)</text>
<text text-anchor="middle" x="90" y="-302.1787" font-family="Times,serif" font-size="10.00" fill="#000000">num_malloc_self=1</text>
<text text-anchor="middle" x="90" y="-291.1787" font-family="Times,serif" font-size="10.00" fill="#000000">num_realloc_self=1</text>
<text text-anchor="middle" x="90" y="-280.1787" font-family="Times,serif" font-size="10.00" fill="#000000">num_free_self=1</text>
</g>
<!-- 888400_TopFunc&#45;&gt;888400_FuncA -->
<g id="edge2" class="edge">
<title>888400_TopFunc&#45;&gt;888400_FuncA</title>
<path fill="none" stroke="#000000" d="M159.0502,-400.9589C150.5737,-389.8149 140.7782,-376.9367 131.2772,-364.4458"/>
<polygon fill="#000000" stroke="#000000" points="133.9328,-362.1558 125.093,-356.3155 128.3614,-366.3937 133.9328,-362.1558"/>
</g>
<!-- 888400_FuncB -->
<g id="node4" class="node">
<title>888400_FuncB</title>
<ellipse fill="#fcbba1" stroke="#000000" cx="149" cy="-179.4264" rx="98.9899" ry="42.3529"/>
<text text-anchor="middle" x="149" y="-195.8264" font-family="Times,serif" font-size="12.00" fill="#000000">scope=FuncB</text>
<text text-anchor="middle" x="149" y="-182.8264" font-family="Times,serif" font-size="12.00" fill="#000000">total=self=500B (10.27%)</text>
<text text-anchor="middle" x="149" y="-169.8264" font-family="Times,serif" font-size="12.00" fill="#000000">num_malloc_self=1</text>
<text text-anchor="middle" x="149" y="-156.8264" font-family="Times,serif" font-size="12.00" fill="#000000">num_free_self=1</text>
</g>
<!-- 888400_TopFunc&#45;&gt;888400_FuncB -->
<g id="edge3" class="edge">
<title>888400_TopFunc&#45;&gt;888400_FuncB</title>
<path fill="none" stroke="#000000" d="M183.4492,-398.3684C183.3571,-362.9719 181.638,-306.1189 173,-257.8528 171.4508,-249.1967 169.2524,-240.1527 166.8081,-231.4119"/>
<polygon fill="#000000" stroke="#000000" points="170.1358,-230.3214 163.9654,-221.7088 163.4181,-232.2895 170.1358,-230.3214"/>
</g>
<!-- 888400_FuncC -->
<g id="node5" class="node">
<title>888400_FuncC</title>
<ellipse fill="#fc9272" stroke="#000000" cx="312" cy="-310.1787" rx="109.7032" ry="48.1667"/>
<text text-anchor="middle" x="312" y="-328.9787" font-family="Times,serif" font-size="14.00" fill="#000000">scope=FuncC</text>
<text text-anchor="middle" x="312" y="-313.9787" font-family="Times,serif" font-size="14.00" fill="#000000">total=self=1kB (21.04%)</text>
<text text-anchor="middle" x="312" y="-298.9787" font-family="Times,serif" font-size="14.00" fill="#000000">num_malloc_self=1</text>
<text text-anchor="middle" x="312" y="-283.9787" font-family="Times,serif" font-size="14.00" fill="#000000">num_free_self=1</text>
</g>
<!-- 888400_TopFunc&#45;&gt;888400_FuncC -->
<g id="edge4" class="edge">
<title>888400_TopFunc&#45;&gt;888400_FuncC</title>
<path fill="none" stroke="#000000" d="M214.2273,-402.8483C227.556,-390.2153 243.4951,-375.1081 258.5974,-360.794"/>
<polygon fill="#000000" stroke="#000000" points="261.0786,-363.2646 265.9289,-353.8452 256.2632,-358.1841 261.0786,-363.2646"/>
</g>
<!-- 888400_FuncA&#45;&gt;888400_FuncB -->
<g id="edge5" class="edge">
<title>888400_FuncA&#45;&gt;888400_FuncB</title>
<path fill="none" stroke="#000000" d="M112.6422,-260.0004C117.0257,-250.2859 121.6231,-240.0975 126.0174,-230.3592"/>
<polygon fill="#000000" stroke="#000000" points="129.2318,-231.7451 130.1546,-221.1905 122.8513,-228.8659 129.2318,-231.7451"/>
</g>
</g>
</svg>
