<?xml version="1.0" encoding="UTF-8" standalone="no"?>
<!DOCTYPE svg PUBLIC "-//W3C//DTD SVG 1.1//EN"
 "http://www.w3.org/Graphics/SVG/1.1/DTD/svg11.dtd">
<!-- Generated by graphviz version 2.40.1 (0)
 -->
<!-- Title: MallocTree Pages: 1 -->
<svg width="446pt" height="597pt"
 viewBox="0.00 0.00 446.00 597.39" xmlns="http://www.w3.org/2000/svg" xmlns:xlink="http://www.w3.org/1999/xlink">
<g id="graph0" class="graph" transform="scale(1 1) rotate(0) translate(4 593.3869)">
<title>MallocTree</title>
<polygon fill="#ffffff" stroke="transparent" points="-4,4 -4,-593.3869 442,-593.3869 442,4 -4,4"/>
<text text-anchor="middle" x="219" y="-22.8" font-family="Times,serif" font-size="14.00" fill="#000000">Memory allocated before MallocTag initialization = 72kB</text>
<text text-anchor="middle" x="219" y="-7.8" font-family="Times,serif" font-size="14.00" fill="#000000">Memory allocated by MallocTag itself =61kB</text>
<g id="clust1" class="cluster">
<title>cluster_TID3789864</title>
<polygon fill="none" stroke="#000000" points="8,-46 8,-581.3869 430,-581.3869 430,-46 8,-46"/>
<text text-anchor="middle" x="219" y="-68.8" font-family="Times,serif" font-size="14.00" fill="#000000">nPushNodeFailures=0</text>
<text text-anchor="middle" x="219" y="-53.8" font-family="Times,serif" font-size="14.00" fill="#000000">nTreeNodesInUse/Max=6/256</text>
</g>
<!-- 3789864_minimal -->
<g id="node1" class="node">
<title>3789864_minimal</title>
<polygon fill="#fb6a4a" stroke="#000000" points="260,-573.3869 106,-573.3869 106,-457.3869 260,-457.3869 260,-573.3869"/>
<text text-anchor="middle" x="183" y="-556.5869" font-family="Times,serif" font-size="16.00" fill="#000000">thread=minimal</text>
<text text-anchor="middle" x="183" y="-538.5869" font-family="Times,serif" font-size="16.00" fill="#000000">TID=3789864</text>
<text text-anchor="middle" x="183" y="-520.5869" font-family="Times,serif" font-size="16.00" fill="#000000">total=4kB (100.00%)</text>
<text text-anchor="middle" x="183" y="-502.5869" font-family="Times,serif" font-size="16.00" fill="#000000">self=2kB (52.12%)</text>
<text text-anchor="middle" x="183" y="-484.5869" font-family="Times,serif" font-size="16.00" fill="#000000">num_malloc_self=3</text>
<text text-anchor="middle" x="183" y="-466.5869" font-family="Times,serif" font-size="16.00" fill="#000000">num_free_self=2</text>
</g>
<!-- 3789864_TopFunc -->
<g id="node2" class="node">
<title>3789864_TopFunc</title>
<ellipse fill="#fff5f0" stroke="#000000" cx="183" cy="-387.4457" rx="62.4516" ry="33.8824"/>
<text text-anchor="middle" x="183" y="-400.2457" font-family="Times,serif" font-size="9.00" fill="#000000">scope=TopFunc</text>
<text text-anchor="middle" x="183" y="-390.2457" font-family="Times,serif" font-size="9.00" fill="#000000">total=2kB (47.87%)</text>
<text text-anchor="middle" x="183" y="-380.2457" font-family="Times,serif" font-size="9.00" fill="#000000">self=5B (0.10%)</text>
<text text-anchor="middle" x="183" y="-370.2457" font-family="Times,serif" font-size="9.00" fill="#000000">num_malloc_self=1</text>
</g>
<!-- 3789864_minimal&#45;&gt;3789864_TopFunc -->
<g id="edge1" class="edge">
<title>3789864_minimal&#45;&gt;3789864_TopFunc</title>
<path fill="none" stroke="#000000" d="M183,-457.0323C183,-448.5059 183,-439.8454 183,-431.6629"/>
<polygon fill="#000000" stroke="#000000" points="186.5001,-431.6003 183,-421.6003 179.5001,-431.6003 186.5001,-431.6003"/>
</g>
<!-- 3789864_FuncA -->
<g id="node3" class="node">
<title>3789864_FuncA</title>
<ellipse fill="#fee0d2" stroke="#000000" cx="90" cy="-265.1787" rx="73.5782" ry="52.1524"/>
<text text-anchor="middle" x="90" y="-290.1787" font-family="Times,serif" font-size="10.00" fill="#000000">scope=FuncA</text>
<text text-anchor="middle" x="90" y="-279.1787" font-family="Times,serif" font-size="10.00" fill="#000000">total=800B (16.44%)</text>
<text text-anchor="middle" x="90" y="-268.1787" font-family="Times,serif" font-size="10.00" fill="#000000">self=300B (6.16%)</text>
<text text-anchor="middle" x="90" y="-257.1787" font-family="Times,serif" font-size="10.00" fill="#000000">num_malloc_self=1</text>
<text text-anchor="middle" x="90" y="-246.1787" font-family="Times,serif" font-size="10.00" fill="#000000">num_realloc_self=1</text>
<text text-anchor="middle" x="90" y="-235.1787" font-family="Times,serif" font-size="10.00" fill="#000000">num_free_self=1</text>
</g>
<!-- 3789864_TopFunc&#45;&gt;3789864_FuncA -->
<g id="edge2" class="edge">
<title>3789864_TopFunc&#45;&gt;3789864_FuncA</title>
<path fill="none" stroke="#000000" d="M159.0502,-355.9589C150.5737,-344.8149 140.7782,-331.9367 131.2772,-319.4458"/>
<polygon fill="#000000" stroke="#000000" points="133.9328,-317.1558 125.093,-311.3155 128.3614,-321.3937 133.9328,-317.1558"/>
</g>
<!-- 3789864_FuncB -->
<g id="node4" class="node">
<title>3789864_FuncB</title>
<ellipse fill="#fcbba1" stroke="#000000" cx="149" cy="-134.4264" rx="98.9899" ry="42.3529"/>
<text text-anchor="middle" x="149" y="-150.8264" font-family="Times,serif" font-size="12.00" fill="#000000">scope=FuncB</text>
<text text-anchor="middle" x="149" y="-137.8264" font-family="Times,serif" font-size="12.00" fill="#000000">total=self=500B (10.27%)</text>
<text text-anchor="middle" x="149" y="-124.8264" font-family="Times,serif" font-size="12.00" fill="#000000">num_malloc_self=1</text>
<text text-anchor="middle" x="149" y="-111.8264" font-family="Times,serif" font-size="12.00" fill="#000000">num_free_self=1</text>
</g>
<!-- 3789864_TopFunc&#45;&gt;3789864_FuncB -->
<g id="edge3" class="edge">
<title>3789864_TopFunc&#45;&gt;3789864_FuncB</title>
<path fill="none" stroke="#000000" d="M183.4492,-353.3684C183.3571,-317.9719 181.638,-261.1189 173,-212.8528 171.4508,-204.1967 169.2524,-195.1527 166.8081,-186.4119"/>
<polygon fill="#000000" stroke="#000000" points="170.1358,-185.3214 163.9654,-176.7088 163.4181,-187.2895 170.1358,-185.3214"/>
</g>
<!-- 3789864_FuncC -->
<g id="node5" class="node">
<title>3789864_FuncC</title>
<ellipse fill="#fc9272" stroke="#000000" cx="312" cy="-265.1787" rx="109.7032" ry="48.1667"/>
<text text-anchor="middle" x="312" y="-283.9787" font-family="Times,serif" font-size="14.00" fill="#000000">scope=FuncC</text>
<text text-anchor="middle" x="312" y="-268.9787" font-family="Times,serif" font-size="14.00" fill="#000000">total=self=1kB (21.04%)</text>
<text text-anchor="middle" x="312" y="-253.9787" font-family="Times,serif" font-size="14.00" fill="#000000">num_malloc_self=1</text>
<text text-anchor="middle" x="312" y="-238.9787" font-family="Times,serif" font-size="14.00" fill="#000000">num_free_self=1</text>
</g>
<!-- 3789864_TopFunc&#45;&gt;3789864_FuncC -->
<g id="edge4" class="edge">
<title>3789864_TopFunc&#45;&gt;3789864_FuncC</title>
<path fill="none" stroke="#000000" d="M214.2273,-357.8483C227.556,-345.2153 243.4951,-330.1081 258.5974,-315.794"/>
<polygon fill="#000000" stroke="#000000" points="261.0786,-318.2646 265.9289,-308.8452 256.2632,-313.1841 261.0786,-318.2646"/>
</g>
<!-- 3789864_FuncA&#45;&gt;3789864_FuncB -->
<g id="edge5" class="edge">
<title>3789864_FuncA&#45;&gt;3789864_FuncB</title>
<path fill="none" stroke="#000000" d="M112.6422,-215.0004C117.0257,-205.2859 121.6231,-195.0975 126.0174,-185.3592"/>
<polygon fill="#000000" stroke="#000000" points="129.2318,-186.7451 130.1546,-176.1905 122.8513,-183.8659 129.2318,-186.7451"/>
</g>
</g>
</svg>
