<?xml version="1.0" encoding="UTF-8" standalone="no"?>
<!DOCTYPE svg PUBLIC "-//W3C//DTD SVG 1.1//EN"
 "http://www.w3.org/Graphics/SVG/1.1/DTD/svg11.dtd">
<!-- Generated by graphviz version 2.40.1 (0)
 -->
<!-- Title: MallocTree_TID3667376 Pages: 1 -->
<svg width="473pt" height="466pt"
 viewBox="0.00 0.00 473.35 466.29" xmlns="http://www.w3.org/2000/svg" xmlns:xlink="http://www.w3.org/1999/xlink">
<g id="graph0" class="graph" transform="scale(1 1) rotate(0) translate(4 462.2864)">
<title>MallocTree_TID3667376</title>
<polygon fill="#ffffff" stroke="transparent" points="-4,4 -4,-462.2864 469.3539,-462.2864 469.3539,4 -4,4"/>
<!-- minimal -->
<g id="node1" class="node">
<title>minimal</title>
<polygon fill="#fb6a4a" stroke="#000000" points="284.7523,-458.2864 150.7523,-458.2864 150.7523,-375.2864 284.7523,-375.2864 284.7523,-458.2864"/>
<text text-anchor="middle" x="217.7523" y="-443.0864" font-family="Times,serif" font-size="14.00" fill="#000000">thread=minimal</text>
<text text-anchor="middle" x="217.7523" y="-428.0864" font-family="Times,serif" font-size="14.00" fill="#000000">TID=3667376</text>
<text text-anchor="middle" x="217.7523" y="-413.0864" font-family="Times,serif" font-size="14.00" fill="#000000">total=4kB (100.00%)</text>
<text text-anchor="middle" x="217.7523" y="-398.0864" font-family="Times,serif" font-size="14.00" fill="#000000">self=2kB (54.36%)</text>
<text text-anchor="middle" x="217.7523" y="-383.0864" font-family="Times,serif" font-size="14.00" fill="#000000">num_alloc=3</text>
</g>
<!-- TopFunc -->
<g id="node2" class="node">
<title>TopFunc</title>
<ellipse fill="#fff5f0" stroke="#000000" cx="217.7523" cy="-291.2031" rx="89.6056" ry="48.1667"/>
<text text-anchor="middle" x="217.7523" y="-310.0031" font-family="Times,serif" font-size="14.00" fill="#000000">scope=TopFunc</text>
<text text-anchor="middle" x="217.7523" y="-295.0031" font-family="Times,serif" font-size="14.00" fill="#000000">total=2kB (45.63%)</text>
<text text-anchor="middle" x="217.7523" y="-280.0031" font-family="Times,serif" font-size="14.00" fill="#000000">self=5B (0.10%)</text>
<text text-anchor="middle" x="217.7523" y="-265.0031" font-family="Times,serif" font-size="14.00" fill="#000000">num_alloc=1</text>
</g>
<!-- minimal&#45;&gt;TopFunc -->
<g id="edge1" class="edge">
<title>minimal&#45;&gt;TopFunc</title>
<path fill="none" stroke="#000000" d="M217.7523,-374.969C217.7523,-366.7635 217.7523,-358.0181 217.7523,-349.3894"/>
<polygon fill="#000000" stroke="#000000" points="221.2524,-349.3528 217.7523,-339.3528 214.2524,-349.3529 221.2524,-349.3528"/>
</g>
<!-- FuncA -->
<g id="node3" class="node">
<title>FuncA</title>
<ellipse fill="#fff5f0" stroke="#000000" cx="94.7523" cy="-159.0366" rx="94.5053" ry="48.1667"/>
<text text-anchor="middle" x="94.7523" y="-177.8366" font-family="Times,serif" font-size="14.00" fill="#000000">scope=FuncA</text>
<text text-anchor="middle" x="94.7523" y="-162.8366" font-family="Times,serif" font-size="14.00" fill="#000000">total=600B (12.86%)</text>
<text text-anchor="middle" x="94.7523" y="-147.8366" font-family="Times,serif" font-size="14.00" fill="#000000">self=100B (2.14%)</text>
<text text-anchor="middle" x="94.7523" y="-132.8366" font-family="Times,serif" font-size="14.00" fill="#000000">num_alloc=1</text>
</g>
<!-- TopFunc&#45;&gt;FuncA -->
<g id="edge2" class="edge">
<title>TopFunc&#45;&gt;FuncA</title>
<path fill="none" stroke="#000000" d="M177.4775,-247.9268C166.3376,-235.9567 154.1386,-222.8486 142.6127,-210.4638"/>
<polygon fill="#000000" stroke="#000000" points="144.9135,-207.7985 135.5387,-202.8625 139.7892,-212.5674 144.9135,-207.7985"/>
</g>
<!-- FuncB -->
<g id="node4" class="node">
<title>FuncB</title>
<ellipse fill="#fcbba1" stroke="#000000" cx="155.7523" cy="-37.4767" rx="113.6886" ry="37.4533"/>
<text text-anchor="middle" x="155.7523" y="-48.7767" font-family="Times,serif" font-size="14.00" fill="#000000">scope=FuncB</text>
<text text-anchor="middle" x="155.7523" y="-33.7767" font-family="Times,serif" font-size="14.00" fill="#000000">total=self=500B (10.71%)</text>
<text text-anchor="middle" x="155.7523" y="-18.7767" font-family="Times,serif" font-size="14.00" fill="#000000">num_alloc=1</text>
</g>
<!-- TopFunc&#45;&gt;FuncB -->
<g id="edge3" class="edge">
<title>TopFunc&#45;&gt;FuncB</title>
<path fill="none" stroke="#000000" d="M218.1515,-242.9936C217.1618,-206.0138 212.9368,-154.1537 198.7523,-110.9533 195.64,-101.4745 191.1795,-91.886 186.2981,-82.9046"/>
<polygon fill="#000000" stroke="#000000" points="189.3026,-81.1078 181.3108,-74.1522 183.2207,-84.5734 189.3026,-81.1078"/>
</g>
<!-- FuncC -->
<g id="node5" class="node">
<title>FuncC</title>
<ellipse fill="#fc9272" stroke="#000000" cx="355.7523" cy="-159.0366" rx="109.7032" ry="37.4533"/>
<text text-anchor="middle" x="355.7523" y="-170.3366" font-family="Times,serif" font-size="14.00" fill="#000000">scope=FuncC</text>
<text text-anchor="middle" x="355.7523" y="-155.3366" font-family="Times,serif" font-size="14.00" fill="#000000">total=self=1kB (21.95%)</text>
<text text-anchor="middle" x="355.7523" y="-140.3366" font-family="Times,serif" font-size="14.00" fill="#000000">num_alloc=1</text>
</g>
<!-- TopFunc&#45;&gt;FuncC -->
<g id="edge4" class="edge">
<title>TopFunc&#45;&gt;FuncC</title>
<path fill="none" stroke="#000000" d="M261.7958,-249.0214C277.5225,-233.9595 295.2483,-216.983 311.0315,-201.8669"/>
<polygon fill="#000000" stroke="#000000" points="313.8051,-204.0569 318.6063,-194.6123 308.9634,-199.0014 313.8051,-204.0569"/>
</g>
<!-- FuncA&#45;&gt;FuncB -->
<g id="edge5" class="edge">
<title>FuncA&#45;&gt;FuncB</title>
<path fill="none" stroke="#000000" d="M118.162,-112.386C122.849,-103.0459 127.7725,-93.2345 132.4556,-83.902"/>
<polygon fill="#000000" stroke="#000000" points="135.684,-85.272 137.0409,-74.7644 129.4276,-82.1324 135.684,-85.272"/>
</g>
</g>
</svg>
