<?xml version="1.0" encoding="UTF-8" standalone="no"?>
<!DOCTYPE svg PUBLIC "-//W3C//DTD SVG 1.1//EN"
 "http://www.w3.org/Graphics/SVG/1.1/DTD/svg11.dtd">
<!-- Generated by graphviz version 2.40.1 (0)
 -->
<!-- Title: MallocTree Pages: 1 -->
<svg width="532pt" height="352pt"
 viewBox="0.00 0.00 531.87 352.17" xmlns="http://www.w3.org/2000/svg" xmlns:xlink="http://www.w3.org/1999/xlink">
<g id="graph0" class="graph" transform="scale(1 1) rotate(0) translate(4 348.1737)">
<title>MallocTree</title>
<polygon fill="#ffffff" stroke="transparent" points="-4,4 -4,-348.1737 527.865,-348.1737 527.865,4 -4,4"/>
<!-- minimal -->
<g id="node1" class="node">
<title>minimal</title>
<ellipse fill="none" stroke="#000000" cx="69.4767" cy="-306.697" rx="46.8387" ry="37.4533"/>
<text text-anchor="middle" x="69.4767" y="-317.997" font-family="Times,serif" font-size="14.00" fill="#000000">minimal</text>
<text text-anchor="middle" x="69.4767" y="-302.997" font-family="Times,serif" font-size="14.00" fill="#000000">100.00%</text>
<text text-anchor="middle" x="69.4767" y="-287.997" font-family="Times,serif" font-size="14.00" fill="#000000">3041B</text>
</g>
<!-- TopFunc -->
<g id="node2" class="node">
<title>TopFunc</title>
<ellipse fill="none" stroke="#000000" cx="69.4767" cy="-206.3503" rx="45.011" ry="26.7407"/>
<text text-anchor="middle" x="69.4767" y="-210.1503" font-family="Times,serif" font-size="14.00" fill="#000000">TopFunc</text>
<text text-anchor="middle" x="69.4767" y="-195.1503" font-family="Times,serif" font-size="14.00" fill="#000000">16.60%</text>
</g>
<!-- minimal&#45;&gt;TopFunc -->
<g id="edge1" class="edge">
<title>minimal&#45;&gt;TopFunc</title>
<path fill="none" stroke="#000000" d="M69.4767,-269.0461C69.4767,-260.6781 69.4767,-251.8136 69.4767,-243.4672"/>
<polygon fill="#000000" stroke="#000000" points="72.9768,-243.2485 69.4767,-233.2486 65.9768,-243.2486 72.9768,-243.2485"/>
</g>
<!-- FuncA -->
<g id="node3" class="node">
<title>FuncA</title>
<ellipse fill="none" stroke="#000000" cx="37.4767" cy="-116.6102" rx="37.4533" ry="26.7407"/>
<text text-anchor="middle" x="37.4767" y="-120.4102" font-family="Times,serif" font-size="14.00" fill="#000000">FuncA</text>
<text text-anchor="middle" x="37.4767" y="-105.4102" font-family="Times,serif" font-size="14.00" fill="#000000">9.86%</text>
</g>
<!-- TopFunc&#45;&gt;FuncA -->
<g id="edge2" class="edge">
<title>TopFunc&#45;&gt;FuncA</title>
<path fill="none" stroke="#000000" d="M60.0487,-179.9107C56.9889,-171.3299 53.541,-161.6606 50.2781,-152.5102"/>
<polygon fill="#000000" stroke="#000000" points="53.4927,-151.1043 46.8373,-142.8608 46.8993,-153.4555 53.4927,-151.1043"/>
</g>
<!-- FuncB -->
<g id="node4" class="node">
<title>FuncB</title>
<ellipse fill="none" stroke="#000000" cx="69.4767" cy="-26.8701" rx="37.4533" ry="26.7407"/>
<text text-anchor="middle" x="69.4767" y="-30.6701" font-family="Times,serif" font-size="14.00" fill="#000000">FuncB</text>
<text text-anchor="middle" x="69.4767" y="-15.6701" font-family="Times,serif" font-size="14.00" fill="#000000">6.57%</text>
</g>
<!-- TopFunc&#45;&gt;FuncB -->
<g id="edge3" class="edge">
<title>TopFunc&#45;&gt;FuncB</title>
<path fill="none" stroke="#000000" d="M76.78,-179.6443C79.4582,-168.5499 82.1562,-155.4847 83.4767,-143.4802 86.0881,-119.7389 86.0881,-113.4814 83.4767,-89.7401 82.5188,-81.032 80.8361,-71.7657 78.9618,-63.0985"/>
<polygon fill="#000000" stroke="#000000" points="82.354,-62.2319 76.7056,-53.2683 75.5314,-63.7979 82.354,-62.2319"/>
</g>
<!-- FuncA&#45;&gt;FuncB -->
<g id="edge4" class="edge">
<title>FuncA&#45;&gt;FuncB</title>
<path fill="none" stroke="#000000" d="M46.9046,-90.1706C49.9644,-81.5897 53.4123,-71.9205 56.6752,-62.7701"/>
<polygon fill="#000000" stroke="#000000" points="60.054,-63.7154 60.1161,-53.1207 53.4606,-61.3642 60.054,-63.7154"/>
</g>
<!-- __before_init_node__ -->
<g id="node5" class="node">
<title>__before_init_node__</title>
<ellipse fill="none" stroke="#000000" cx="231.4767" cy="-306.697" rx="97.6615" ry="37.4533"/>
<text text-anchor="middle" x="231.4767" y="-317.997" font-family="Times,serif" font-size="14.00" fill="#000000">Memory Allocated</text>
<text text-anchor="middle" x="231.4767" y="-302.997" font-family="Times,serif" font-size="14.00" fill="#000000">Before MallocTag Init</text>
<text text-anchor="middle" x="231.4767" y="-287.997" font-family="Times,serif" font-size="14.00" fill="#000000">72704B</text>
</g>
<!-- __malloctag_self_memory__ -->
<g id="node6" class="node">
<title>__malloctag_self_memory__</title>
<ellipse fill="none" stroke="#000000" cx="435.4767" cy="-306.697" rx="88.2768" ry="37.4533"/>
<text text-anchor="middle" x="435.4767" y="-317.997" font-family="Times,serif" font-size="14.00" fill="#000000">Memory Allocated</text>
<text text-anchor="middle" x="435.4767" y="-302.997" font-family="Times,serif" font-size="14.00" fill="#000000">By MallocTag itself</text>
<text text-anchor="middle" x="435.4767" y="-287.997" font-family="Times,serif" font-size="14.00" fill="#000000">51224B</text>
</g>
</g>
</svg>
