<?xml version="1.0" encoding="UTF-8" standalone="no"?>
<!DOCTYPE svg PUBLIC "-//W3C//DTD SVG 1.1//EN"
 "http://www.w3.org/Graphics/SVG/1.1/DTD/svg11.dtd">
<!-- Generated by graphviz version 2.40.1 (0)
 -->
<!-- Title: MallocTree Pages: 1 -->
<svg width="446pt" height="612pt"
 viewBox="0.00 0.00 446.00 612.39" xmlns="http://www.w3.org/2000/svg" xmlns:xlink="http://www.w3.org/1999/xlink">
<g id="graph0" class="graph" transform="scale(1 1) rotate(0) translate(4 608.3869)">
<title>MallocTree</title>
<polygon fill="#ffffff" stroke="transparent" points="-4,4 -4,-608.3869 442,-608.3869 442,4 -4,4"/>
<text text-anchor="middle" x="219" y="-37.8" font-family="Times,serif" font-size="14.00" fill="#000000">Memory allocated before MallocTag initialization = 72kB</text>
<text text-anchor="middle" x="219" y="-22.8" font-family="Times,serif" font-size="14.00" fill="#000000">Memory allocated by MallocTag itself =61kB</text>
<text text-anchor="middle" x="219" y="-7.8" font-family="Times,serif" font-size="14.00" fill="#000000">Total memory tracked by MallocTag across all threads =4kB</text>
<g id="clust1" class="cluster">
<title>cluster_TID819489</title>
<polygon fill="none" stroke="#000000" points="8,-61 8,-596.3869 430,-596.3869 430,-61 8,-61"/>
<text text-anchor="middle" x="219" y="-83.8" font-family="Times,serif" font-size="14.00" fill="#000000">nPushNodeFailures=0</text>
<text text-anchor="middle" x="219" y="-68.8" font-family="Times,serif" font-size="14.00" fill="#000000">nTreeNodesInUse/Max=6/256</text>
</g>
<!-- 819489_minimal -->
<g id="node1" class="node">
<title>819489_minimal</title>
<polygon fill="#fb6a4a" stroke="#000000" points="260,-588.3869 106,-588.3869 106,-472.3869 260,-472.3869 260,-588.3869"/>
<text text-anchor="middle" x="183" y="-571.5869" font-family="Times,serif" font-size="16.00" fill="#000000">thread=minimal</text>
<text text-anchor="middle" x="183" y="-553.5869" font-family="Times,serif" font-size="16.00" fill="#000000">TID=819489</text>
<text text-anchor="middle" x="183" y="-535.5869" font-family="Times,serif" font-size="16.00" fill="#000000">total=4kB (100.00%)</text>
<text text-anchor="middle" x="183" y="-517.5869" font-family="Times,serif" font-size="16.00" fill="#000000">self=2kB (52.12%)</text>
<text text-anchor="middle" x="183" y="-499.5869" font-family="Times,serif" font-size="16.00" fill="#000000">num_malloc_self=3</text>
<text text-anchor="middle" x="183" y="-481.5869" font-family="Times,serif" font-size="16.00" fill="#000000">num_free_self=2</text>
</g>
<!-- 819489_TopFunc -->
<g id="node2" class="node">
<title>819489_TopFunc</title>
<ellipse fill="#fff5f0" stroke="#000000" cx="183" cy="-402.4457" rx="62.4516" ry="33.8824"/>
<text text-anchor="middle" x="183" y="-415.2457" font-family="Times,serif" font-size="9.00" fill="#000000">scope=TopFunc</text>
<text text-anchor="middle" x="183" y="-405.2457" font-family="Times,serif" font-size="9.00" fill="#000000">total=2kB (47.87%)</text>
<text text-anchor="middle" x="183" y="-395.2457" font-family="Times,serif" font-size="9.00" fill="#000000">self=5B (0.10%)</text>
<text text-anchor="middle" x="183" y="-385.2457" font-family="Times,serif" font-size="9.00" fill="#000000">num_malloc_self=1</text>
</g>
<!-- 819489_minimal&#45;&gt;819489_TopFunc -->
<g id="edge1" class="edge">
<title>819489_minimal&#45;&gt;819489_TopFunc</title>
<path fill="none" stroke="#000000" d="M183,-472.0323C183,-463.5059 183,-454.8454 183,-446.6629"/>
<polygon fill="#000000" stroke="#000000" points="186.5001,-446.6003 183,-436.6003 179.5001,-446.6003 186.5001,-446.6003"/>
</g>
<!-- 819489_FuncA -->
<g id="node3" class="node">
<title>819489_FuncA</title>
<ellipse fill="#fee0d2" stroke="#000000" cx="90" cy="-280.1787" rx="73.5782" ry="52.1524"/>
<text text-anchor="middle" x="90" y="-305.1787" font-family="Times,serif" font-size="10.00" fill="#000000">scope=FuncA</text>
<text text-anchor="middle" x="90" y="-294.1787" font-family="Times,serif" font-size="10.00" fill="#000000">total=800B (16.44%)</text>
<text text-anchor="middle" x="90" y="-283.1787" font-family="Times,serif" font-size="10.00" fill="#000000">self=300B (6.16%)</text>
<text text-anchor="middle" x="90" y="-272.1787" font-family="Times,serif" font-size="10.00" fill="#000000">num_malloc_self=1</text>
<text text-anchor="middle" x="90" y="-261.1787" font-family="Times,serif" font-size="10.00" fill="#000000">num_realloc_self=1</text>
<text text-anchor="middle" x="90" y="-250.1787" font-family="Times,serif" font-size="10.00" fill="#000000">num_free_self=1</text>
</g>
<!-- 819489_TopFunc&#45;&gt;819489_FuncA -->
<g id="edge2" class="edge">
<title>819489_TopFunc&#45;&gt;819489_FuncA</title>
<path fill="none" stroke="#000000" d="M159.0502,-370.9589C150.5737,-359.8149 140.7782,-346.9367 131.2772,-334.4458"/>
<polygon fill="#000000" stroke="#000000" points="133.9328,-332.1558 125.093,-326.3155 128.3614,-336.3937 133.9328,-332.1558"/>
</g>
<!-- 819489_FuncB -->
<g id="node4" class="node">
<title>819489_FuncB</title>
<ellipse fill="#fcbba1" stroke="#000000" cx="149" cy="-149.4264" rx="98.9899" ry="42.3529"/>
<text text-anchor="middle" x="149" y="-165.8264" font-family="Times,serif" font-size="12.00" fill="#000000">scope=FuncB</text>
<text text-anchor="middle" x="149" y="-152.8264" font-family="Times,serif" font-size="12.00" fill="#000000">total=self=500B (10.27%)</text>
<text text-anchor="middle" x="149" y="-139.8264" font-family="Times,serif" font-size="12.00" fill="#000000">num_malloc_self=1</text>
<text text-anchor="middle" x="149" y="-126.8264" font-family="Times,serif" font-size="12.00" fill="#000000">num_free_self=1</text>
</g>
<!-- 819489_TopFunc&#45;&gt;819489_FuncB -->
<g id="edge3" class="edge">
<title>819489_TopFunc&#45;&gt;819489_FuncB</title>
<path fill="none" stroke="#000000" d="M183.4492,-368.3684C183.3571,-332.9719 181.638,-276.1189 173,-227.8528 171.4508,-219.1967 169.2524,-210.1527 166.8081,-201.4119"/>
<polygon fill="#000000" stroke="#000000" points="170.1358,-200.3214 163.9654,-191.7088 163.4181,-202.2895 170.1358,-200.3214"/>
</g>
<!-- 819489_FuncC -->
<g id="node5" class="node">
<title>819489_FuncC</title>
<ellipse fill="#fc9272" stroke="#000000" cx="312" cy="-280.1787" rx="109.7032" ry="48.1667"/>
<text text-anchor="middle" x="312" y="-298.9787" font-family="Times,serif" font-size="14.00" fill="#000000">scope=FuncC</text>
<text text-anchor="middle" x="312" y="-283.9787" font-family="Times,serif" font-size="14.00" fill="#000000">total=self=1kB (21.04%)</text>
<text text-anchor="middle" x="312" y="-268.9787" font-family="Times,serif" font-size="14.00" fill="#000000">num_malloc_self=1</text>
<text text-anchor="middle" x="312" y="-253.9787" font-family="Times,serif" font-size="14.00" fill="#000000">num_free_self=1</text>
</g>
<!-- 819489_TopFunc&#45;&gt;819489_FuncC -->
<g id="edge4" class="edge">
<title>819489_TopFunc&#45;&gt;819489_FuncC</title>
<path fill="none" stroke="#000000" d="M214.2273,-372.8483C227.556,-360.2153 243.4951,-345.1081 258.5974,-330.794"/>
<polygon fill="#000000" stroke="#000000" points="261.0786,-333.2646 265.9289,-323.8452 256.2632,-328.1841 261.0786,-333.2646"/>
</g>
<!-- 819489_FuncA&#45;&gt;819489_FuncB -->
<g id="edge5" class="edge">
<title>819489_FuncA&#45;&gt;819489_FuncB</title>
<path fill="none" stroke="#000000" d="M112.6422,-230.0004C117.0257,-220.2859 121.6231,-210.0975 126.0174,-200.3592"/>
<polygon fill="#000000" stroke="#000000" points="129.2318,-201.7451 130.1546,-191.1905 122.8513,-198.8659 129.2318,-201.7451"/>
</g>
</g>
</svg>
