<?xml version="1.0" encoding="UTF-8" standalone="no"?>
<!DOCTYPE svg PUBLIC "-//W3C//DTD SVG 1.1//EN"
 "http://www.w3.org/Graphics/SVG/1.1/DTD/svg11.dtd">
<!-- Generated by graphviz version 2.40.1 (0)
 -->
<!-- Title: MallocTree Pages: 1 -->
<svg width="613pt" height="352pt"
 viewBox="0.00 0.00 612.68 352.17" xmlns="http://www.w3.org/2000/svg" xmlns:xlink="http://www.w3.org/1999/xlink">
<g id="graph0" class="graph" transform="scale(1 1) rotate(0) translate(4 348.1737)">
<title>MallocTree</title>
<polygon fill="#ffffff" stroke="transparent" points="-4,4 -4,-348.1737 608.6762,-348.1737 608.6762,4 -4,4"/>
<!-- minimal35114 -->
<g id="node1" class="node">
<title>minimal35114</title>
<ellipse fill="none" stroke="#000000" cx="98.2878" cy="-306.697" rx="98.0761" ry="37.4533"/>
<text text-anchor="middle" x="98.2878" y="-317.997" font-family="Times,serif" font-size="14.00" fill="#000000">thread=minimal35114</text>
<text text-anchor="middle" x="98.2878" y="-302.997" font-family="Times,serif" font-size="14.00" fill="#000000">100.00%</text>
<text text-anchor="middle" x="98.2878" y="-287.997" font-family="Times,serif" font-size="14.00" fill="#000000">3kB</text>
</g>
<!-- TopFunc -->
<g id="node2" class="node">
<title>TopFunc</title>
<ellipse fill="none" stroke="#000000" cx="98.2878" cy="-206.3503" rx="45.011" ry="26.7407"/>
<text text-anchor="middle" x="98.2878" y="-210.1503" font-family="Times,serif" font-size="14.00" fill="#000000">TopFunc</text>
<text text-anchor="middle" x="98.2878" y="-195.1503" font-family="Times,serif" font-size="14.00" fill="#000000">16.60%</text>
</g>
<!-- minimal35114&#45;&gt;TopFunc -->
<g id="edge1" class="edge">
<title>minimal35114&#45;&gt;TopFunc</title>
<path fill="none" stroke="#000000" d="M98.2878,-269.0461C98.2878,-260.6781 98.2878,-251.8136 98.2878,-243.4672"/>
<polygon fill="#000000" stroke="#000000" points="101.7879,-243.2485 98.2878,-233.2486 94.7879,-243.2486 101.7879,-243.2485"/>
</g>
<!-- FuncA -->
<g id="node3" class="node">
<title>FuncA</title>
<ellipse fill="none" stroke="#000000" cx="66.2878" cy="-116.6102" rx="37.4533" ry="26.7407"/>
<text text-anchor="middle" x="66.2878" y="-120.4102" font-family="Times,serif" font-size="14.00" fill="#000000">FuncA</text>
<text text-anchor="middle" x="66.2878" y="-105.4102" font-family="Times,serif" font-size="14.00" fill="#000000">9.86%</text>
</g>
<!-- TopFunc&#45;&gt;FuncA -->
<g id="edge2" class="edge">
<title>TopFunc&#45;&gt;FuncA</title>
<path fill="none" stroke="#000000" d="M88.8599,-179.9107C85.8001,-171.3299 82.3522,-161.6606 79.0893,-152.5102"/>
<polygon fill="#000000" stroke="#000000" points="82.3039,-151.1043 75.6484,-142.8608 75.7105,-153.4555 82.3039,-151.1043"/>
</g>
<!-- FuncB -->
<g id="node4" class="node">
<title>FuncB</title>
<ellipse fill="none" stroke="#000000" cx="98.2878" cy="-26.8701" rx="37.4533" ry="26.7407"/>
<text text-anchor="middle" x="98.2878" y="-30.6701" font-family="Times,serif" font-size="14.00" fill="#000000">FuncB</text>
<text text-anchor="middle" x="98.2878" y="-15.6701" font-family="Times,serif" font-size="14.00" fill="#000000">6.57%</text>
</g>
<!-- TopFunc&#45;&gt;FuncB -->
<g id="edge3" class="edge">
<title>TopFunc&#45;&gt;FuncB</title>
<path fill="none" stroke="#000000" d="M105.5912,-179.6443C108.2694,-168.5499 110.9674,-155.4847 112.2878,-143.4802 114.8992,-119.7389 114.8992,-113.4814 112.2878,-89.7401 111.33,-81.032 109.6473,-71.7657 107.773,-63.0985"/>
<polygon fill="#000000" stroke="#000000" points="111.1652,-62.2319 105.5168,-53.2683 104.3426,-63.7979 111.1652,-62.2319"/>
</g>
<!-- FuncA&#45;&gt;FuncB -->
<g id="edge4" class="edge">
<title>FuncA&#45;&gt;FuncB</title>
<path fill="none" stroke="#000000" d="M75.7158,-90.1706C78.7756,-81.5897 82.2235,-71.9205 85.4864,-62.7701"/>
<polygon fill="#000000" stroke="#000000" points="88.8652,-63.7154 88.9272,-53.1207 82.2718,-61.3642 88.8652,-63.7154"/>
</g>
<!-- __before_init_node__ -->
<g id="node5" class="node">
<title>__before_init_node__</title>
<ellipse fill="none" stroke="#000000" cx="312.2878" cy="-306.697" rx="97.6615" ry="37.4533"/>
<text text-anchor="middle" x="312.2878" y="-317.997" font-family="Times,serif" font-size="14.00" fill="#000000">Memory Allocated</text>
<text text-anchor="middle" x="312.2878" y="-302.997" font-family="Times,serif" font-size="14.00" fill="#000000">Before MallocTag Init</text>
<text text-anchor="middle" x="312.2878" y="-287.997" font-family="Times,serif" font-size="14.00" fill="#000000">72kB</text>
</g>
<!-- __malloctag_self_memory__ -->
<g id="node6" class="node">
<title>__malloctag_self_memory__</title>
<ellipse fill="none" stroke="#000000" cx="516.2878" cy="-306.697" rx="88.2768" ry="37.4533"/>
<text text-anchor="middle" x="516.2878" y="-317.997" font-family="Times,serif" font-size="14.00" fill="#000000">Memory Allocated</text>
<text text-anchor="middle" x="516.2878" y="-302.997" font-family="Times,serif" font-size="14.00" fill="#000000">By MallocTag itself</text>
<text text-anchor="middle" x="516.2878" y="-287.997" font-family="Times,serif" font-size="14.00" fill="#000000">53kB</text>
</g>
</g>
</svg>
