<?xml version="1.0" encoding="UTF-8" standalone="no"?>
<!DOCTYPE svg PUBLIC "-//W3C//DTD SVG 1.1//EN"
 "http://www.w3.org/Graphics/SVG/1.1/DTD/svg11.dtd">
<!-- Generated by graphviz version 2.40.1 (0)
 -->
<!-- Title: MallocTree Pages: 1 -->
<svg width="530pt" height="612pt"
 viewBox="0.00 0.00 530.00 612.42" xmlns="http://www.w3.org/2000/svg" xmlns:xlink="http://www.w3.org/1999/xlink">
<g id="graph0" class="graph" transform="scale(1 1) rotate(0) translate(4 608.4163)">
<title>MallocTree</title>
<polygon fill="#ffffff" stroke="transparent" points="-4,4 -4,-608.4163 526,-608.4163 526,4 -4,4"/>
<text text-anchor="middle" x="261" y="-97.8" font-family="Times,serif" font-size="14.00" fill="#000000">Memory allocated before MallocTag initialization = 72kB</text>
<text text-anchor="middle" x="261" y="-82.8" font-family="Times,serif" font-size="14.00" fill="#000000">Memory allocated by MallocTag itself =65kB</text>
<text text-anchor="middle" x="261" y="-67.8" font-family="Times,serif" font-size="14.00" fill="#000000">Total memory tracked by MallocTag across all threads =30MB</text>
<text text-anchor="middle" x="261" y="-52.8" font-family="Times,serif" font-size="14.00" fill="#000000">VmSizeNow = 30MB</text>
<text text-anchor="middle" x="261" y="-37.8" font-family="Times,serif" font-size="14.00" fill="#000000">Memory profiling session start timestamp = 2023&#45;09&#45;18 @ 18:44:27 CEST</text>
<text text-anchor="middle" x="261" y="-22.8" font-family="Times,serif" font-size="14.00" fill="#000000">This snapshot timestamp = 2023&#45;09&#45;18 @ 18:44:27 CEST</text>
<text text-anchor="middle" x="261" y="-7.8" font-family="Times,serif" font-size="14.00" fill="#000000">PID = 1673147</text>
<g id="clust1" class="cluster">
<title>cluster_TID1673147</title>
<polygon fill="none" stroke="#000000" points="8,-121 8,-596.4163 514,-596.4163 514,-121 8,-121"/>
<text text-anchor="middle" x="261" y="-158.8" font-family="Times,serif" font-size="14.00" fill="#000000">TID=1673147</text>
<text text-anchor="middle" x="261" y="-143.8" font-family="Times,serif" font-size="14.00" fill="#000000">nPushNodeFailures=0</text>
<text text-anchor="middle" x="261" y="-128.8" font-family="Times,serif" font-size="14.00" fill="#000000">nTreeNodesInUse/Max=6/256</text>
</g>
<!-- 1673147_minimal -->
<g id="node1" class="node">
<title>1673147_minimal</title>
<polygon fill="#fff5f0" stroke="#000000" points="209.5,-588.4163 108.5,-588.4163 108.5,-530.4163 209.5,-530.4163 209.5,-588.4163"/>
<text text-anchor="middle" x="159" y="-577.2163" font-family="Times,serif" font-size="9.00" fill="#000000">thread=minimal</text>
<text text-anchor="middle" x="159" y="-567.2163" font-family="Times,serif" font-size="9.00" fill="#000000">TID=1673147</text>
<text text-anchor="middle" x="159" y="-557.2163" font-family="Times,serif" font-size="9.00" fill="#000000">total=10MB (100.00%)</text>
<text text-anchor="middle" x="159" y="-547.2163" font-family="Times,serif" font-size="9.00" fill="#000000">self=1kB (0.01%)</text>
<text text-anchor="middle" x="159" y="-537.2163" font-family="Times,serif" font-size="9.00" fill="#000000">num_malloc_self=1</text>
</g>
<!-- 1673147_TopFunc -->
<g id="node2" class="node">
<title>1673147_TopFunc</title>
<ellipse fill="#fff5f0" stroke="#000000" cx="159" cy="-460.4752" rx="67.7647" ry="33.8824"/>
<text text-anchor="middle" x="159" y="-473.2752" font-family="Times,serif" font-size="9.00" fill="#000000">scope=TopFunc</text>
<text text-anchor="middle" x="159" y="-463.2752" font-family="Times,serif" font-size="9.00" fill="#000000">total=10MB (99.98%)</text>
<text text-anchor="middle" x="159" y="-453.2752" font-family="Times,serif" font-size="9.00" fill="#000000">self=5B (0.00%)</text>
<text text-anchor="middle" x="159" y="-443.2752" font-family="Times,serif" font-size="9.00" fill="#000000">num_malloc_self=1</text>
</g>
<!-- 1673147_minimal&#45;&gt;1673147_TopFunc -->
<g id="edge1" class="edge">
<title>1673147_minimal&#45;&gt;1673147_TopFunc</title>
<path fill="none" stroke="#000000" d="M159,-530.2658C159,-522.2356 159,-513.3409 159,-504.6652"/>
<polygon fill="#000000" stroke="#000000" points="162.5001,-504.6463 159,-494.6463 155.5001,-504.6464 162.5001,-504.6463"/>
</g>
<!-- 1673147_FuncA -->
<g id="node3" class="node">
<title>1673147_FuncA</title>
<ellipse fill="#fff5f0" stroke="#000000" cx="78" cy="-338.2082" rx="62.4516" ry="48.1667"/>
<text text-anchor="middle" x="78" y="-361.0082" font-family="Times,serif" font-size="9.00" fill="#000000">scope=FuncA</text>
<text text-anchor="middle" x="78" y="-351.0082" font-family="Times,serif" font-size="9.00" fill="#000000">total=800B (0.00%)</text>
<text text-anchor="middle" x="78" y="-341.0082" font-family="Times,serif" font-size="9.00" fill="#000000">self=300B (0.00%)</text>
<text text-anchor="middle" x="78" y="-331.0082" font-family="Times,serif" font-size="9.00" fill="#000000">num_malloc_self=1</text>
<text text-anchor="middle" x="78" y="-321.0082" font-family="Times,serif" font-size="9.00" fill="#000000">num_realloc_self=1</text>
<text text-anchor="middle" x="78" y="-311.0082" font-family="Times,serif" font-size="9.00" fill="#000000">num_free_self=1</text>
</g>
<!-- 1673147_TopFunc&#45;&gt;1673147_FuncA -->
<g id="edge2" class="edge">
<title>1673147_TopFunc&#45;&gt;1673147_FuncA</title>
<path fill="none" stroke="#000000" d="M137.5061,-428.0309C129.7399,-416.3079 120.7678,-402.7648 112.1837,-389.8075"/>
<polygon fill="#000000" stroke="#000000" points="115.0561,-387.8059 106.6154,-381.4023 109.2205,-391.6719 115.0561,-387.8059"/>
</g>
<!-- 1673147_FuncB -->
<g id="node4" class="node">
<title>1673147_FuncB</title>
<ellipse fill="#fff5f0" stroke="#000000" cx="125" cy="-215.9411" rx="74.9067" ry="33.8824"/>
<text text-anchor="middle" x="125" y="-228.7411" font-family="Times,serif" font-size="9.00" fill="#000000">scope=FuncB</text>
<text text-anchor="middle" x="125" y="-218.7411" font-family="Times,serif" font-size="9.00" fill="#000000">total=self=500B (0.00%)</text>
<text text-anchor="middle" x="125" y="-208.7411" font-family="Times,serif" font-size="9.00" fill="#000000">num_malloc_self=1</text>
<text text-anchor="middle" x="125" y="-198.7411" font-family="Times,serif" font-size="9.00" fill="#000000">num_free_self=1</text>
</g>
<!-- 1673147_TopFunc&#45;&gt;1673147_FuncB -->
<g id="edge3" class="edge">
<title>1673147_TopFunc&#45;&gt;1673147_FuncB</title>
<path fill="none" stroke="#000000" d="M159.7801,-426.3357C159.9546,-390.8892 158.4473,-333.9965 149,-285.8823 147.2748,-277.0958 144.708,-267.9052 141.8864,-259.183"/>
<polygon fill="#000000" stroke="#000000" points="145.1549,-257.9231 138.6236,-249.5808 138.527,-260.1752 145.1549,-257.9231"/>
</g>
<!-- 1673147_FuncC -->
<g id="node5" class="node">
<title>1673147_FuncC</title>
<ellipse fill="#cb181d" stroke="#000000" cx="342" cy="-338.2082" rx="164.0976" ry="52.1524"/>
<text text-anchor="middle" x="342" y="-355.2082" font-family="Times,serif" font-size="20.00" fill="#000000">scope=FuncC</text>
<text text-anchor="middle" x="342" y="-333.2082" font-family="Times,serif" font-size="20.00" fill="#000000">total=self=10MB (99.97%)</text>
<text text-anchor="middle" x="342" y="-311.2082" font-family="Times,serif" font-size="20.00" fill="#000000">num_malloc_self=1</text>
</g>
<!-- 1673147_TopFunc&#45;&gt;1673147_FuncC -->
<g id="edge4" class="edge">
<title>1673147_TopFunc&#45;&gt;1673147_FuncC</title>
<path fill="none" stroke="#000000" d="M200.0688,-433.0361C218.5819,-420.667 241.1006,-405.6217 262.6964,-391.193"/>
<polygon fill="#000000" stroke="#000000" points="264.8657,-393.953 271.2362,-385.4873 260.9769,-388.1325 264.8657,-393.953"/>
</g>
<!-- 1673147_FuncA&#45;&gt;1673147_FuncB -->
<g id="edge5" class="edge">
<title>1673147_FuncA&#45;&gt;1673147_FuncB</title>
<path fill="none" stroke="#000000" d="M95.7687,-291.9842C99.9084,-281.215 104.3009,-269.7883 108.3884,-259.1551"/>
<polygon fill="#000000" stroke="#000000" points="111.7192,-260.2445 112.0404,-249.6545 105.1853,-257.7328 111.7192,-260.2445"/>
</g>
</g>
</svg>
