<?xml version="1.0" encoding="UTF-8" standalone="no"?>
<!DOCTYPE svg PUBLIC "-//W3C//DTD SVG 1.1//EN"
 "http://www.w3.org/Graphics/SVG/1.1/DTD/svg11.dtd">
<!-- Generated by graphviz version 2.40.1 (0)
 -->
<!-- Title: MallocTree Pages: 1 -->
<svg width="490pt" height="627pt"
 viewBox="0.00 0.00 490.00 627.39" xmlns="http://www.w3.org/2000/svg" xmlns:xlink="http://www.w3.org/1999/xlink">
<g id="graph0" class="graph" transform="scale(1 1) rotate(0) translate(4 623.3869)">
<title>MallocTree</title>
<polygon fill="#ffffff" stroke="transparent" points="-4,4 -4,-623.3869 486,-623.3869 486,4 -4,4"/>
<text text-anchor="middle" x="241" y="-52.8" font-family="Times,serif" font-size="14.00" fill="#000000">Memory allocated before MallocTag initialization = 72kB</text>
<text text-anchor="middle" x="241" y="-37.8" font-family="Times,serif" font-size="14.00" fill="#000000">Memory allocated by MallocTag itself =61kB</text>
<text text-anchor="middle" x="241" y="-22.8" font-family="Times,serif" font-size="14.00" fill="#000000">Total memory tracked by MallocTag across all threads =4kB</text>
<text text-anchor="middle" x="241" y="-7.8" font-family="Times,serif" font-size="14.00" fill="#000000">Start time of memory profiling session: Sep 14 2023 (Thu) @ 22:22:30 PID=886032</text>
<g id="clust1" class="cluster">
<title>cluster_TID886032</title>
<polygon fill="none" stroke="#000000" points="30,-76 30,-611.3869 452,-611.3869 452,-76 30,-76"/>
<text text-anchor="middle" x="241" y="-98.8" font-family="Times,serif" font-size="14.00" fill="#000000">nPushNodeFailures=0</text>
<text text-anchor="middle" x="241" y="-83.8" font-family="Times,serif" font-size="14.00" fill="#000000">nTreeNodesInUse/Max=6/256</text>
</g>
<!-- 886032_minimal -->
<g id="node1" class="node">
<title>886032_minimal</title>
<polygon fill="#fb6a4a" stroke="#000000" points="282,-603.3869 128,-603.3869 128,-487.3869 282,-487.3869 282,-603.3869"/>
<text text-anchor="middle" x="205" y="-586.5869" font-family="Times,serif" font-size="16.00" fill="#000000">thread=minimal</text>
<text text-anchor="middle" x="205" y="-568.5869" font-family="Times,serif" font-size="16.00" fill="#000000">TID=886032</text>
<text text-anchor="middle" x="205" y="-550.5869" font-family="Times,serif" font-size="16.00" fill="#000000">total=4kB (100.00%)</text>
<text text-anchor="middle" x="205" y="-532.5869" font-family="Times,serif" font-size="16.00" fill="#000000">self=2kB (52.12%)</text>
<text text-anchor="middle" x="205" y="-514.5869" font-family="Times,serif" font-size="16.00" fill="#000000">num_malloc_self=3</text>
<text text-anchor="middle" x="205" y="-496.5869" font-family="Times,serif" font-size="16.00" fill="#000000">num_free_self=2</text>
</g>
<!-- 886032_TopFunc -->
<g id="node2" class="node">
<title>886032_TopFunc</title>
<ellipse fill="#fff5f0" stroke="#000000" cx="205" cy="-417.4457" rx="62.4516" ry="33.8824"/>
<text text-anchor="middle" x="205" y="-430.2457" font-family="Times,serif" font-size="9.00" fill="#000000">scope=TopFunc</text>
<text text-anchor="middle" x="205" y="-420.2457" font-family="Times,serif" font-size="9.00" fill="#000000">total=2kB (47.87%)</text>
<text text-anchor="middle" x="205" y="-410.2457" font-family="Times,serif" font-size="9.00" fill="#000000">self=5B (0.10%)</text>
<text text-anchor="middle" x="205" y="-400.2457" font-family="Times,serif" font-size="9.00" fill="#000000">num_malloc_self=1</text>
</g>
<!-- 886032_minimal&#45;&gt;886032_TopFunc -->
<g id="edge1" class="edge">
<title>886032_minimal&#45;&gt;886032_TopFunc</title>
<path fill="none" stroke="#000000" d="M205,-487.0323C205,-478.5059 205,-469.8454 205,-461.6629"/>
<polygon fill="#000000" stroke="#000000" points="208.5001,-461.6003 205,-451.6003 201.5001,-461.6003 208.5001,-461.6003"/>
</g>
<!-- 886032_FuncA -->
<g id="node3" class="node">
<title>886032_FuncA</title>
<ellipse fill="#fee0d2" stroke="#000000" cx="112" cy="-295.1787" rx="73.5782" ry="52.1524"/>
<text text-anchor="middle" x="112" y="-320.1787" font-family="Times,serif" font-size="10.00" fill="#000000">scope=FuncA</text>
<text text-anchor="middle" x="112" y="-309.1787" font-family="Times,serif" font-size="10.00" fill="#000000">total=800B (16.44%)</text>
<text text-anchor="middle" x="112" y="-298.1787" font-family="Times,serif" font-size="10.00" fill="#000000">self=300B (6.16%)</text>
<text text-anchor="middle" x="112" y="-287.1787" font-family="Times,serif" font-size="10.00" fill="#000000">num_malloc_self=1</text>
<text text-anchor="middle" x="112" y="-276.1787" font-family="Times,serif" font-size="10.00" fill="#000000">num_realloc_self=1</text>
<text text-anchor="middle" x="112" y="-265.1787" font-family="Times,serif" font-size="10.00" fill="#000000">num_free_self=1</text>
</g>
<!-- 886032_TopFunc&#45;&gt;886032_FuncA -->
<g id="edge2" class="edge">
<title>886032_TopFunc&#45;&gt;886032_FuncA</title>
<path fill="none" stroke="#000000" d="M181.0502,-385.9589C172.5737,-374.8149 162.7782,-361.9367 153.2772,-349.4458"/>
<polygon fill="#000000" stroke="#000000" points="155.9328,-347.1558 147.093,-341.3155 150.3614,-351.3937 155.9328,-347.1558"/>
</g>
<!-- 886032_FuncB -->
<g id="node4" class="node">
<title>886032_FuncB</title>
<ellipse fill="#fcbba1" stroke="#000000" cx="171" cy="-164.4264" rx="98.9899" ry="42.3529"/>
<text text-anchor="middle" x="171" y="-180.8264" font-family="Times,serif" font-size="12.00" fill="#000000">scope=FuncB</text>
<text text-anchor="middle" x="171" y="-167.8264" font-family="Times,serif" font-size="12.00" fill="#000000">total=self=500B (10.27%)</text>
<text text-anchor="middle" x="171" y="-154.8264" font-family="Times,serif" font-size="12.00" fill="#000000">num_malloc_self=1</text>
<text text-anchor="middle" x="171" y="-141.8264" font-family="Times,serif" font-size="12.00" fill="#000000">num_free_self=1</text>
</g>
<!-- 886032_TopFunc&#45;&gt;886032_FuncB -->
<g id="edge3" class="edge">
<title>886032_TopFunc&#45;&gt;886032_FuncB</title>
<path fill="none" stroke="#000000" d="M205.4492,-383.3684C205.3571,-347.9719 203.638,-291.1189 195,-242.8528 193.4508,-234.1967 191.2524,-225.1527 188.8081,-216.4119"/>
<polygon fill="#000000" stroke="#000000" points="192.1358,-215.3214 185.9654,-206.7088 185.4181,-217.2895 192.1358,-215.3214"/>
</g>
<!-- 886032_FuncC -->
<g id="node5" class="node">
<title>886032_FuncC</title>
<ellipse fill="#fc9272" stroke="#000000" cx="334" cy="-295.1787" rx="109.7032" ry="48.1667"/>
<text text-anchor="middle" x="334" y="-313.9787" font-family="Times,serif" font-size="14.00" fill="#000000">scope=FuncC</text>
<text text-anchor="middle" x="334" y="-298.9787" font-family="Times,serif" font-size="14.00" fill="#000000">total=self=1kB (21.04%)</text>
<text text-anchor="middle" x="334" y="-283.9787" font-family="Times,serif" font-size="14.00" fill="#000000">num_malloc_self=1</text>
<text text-anchor="middle" x="334" y="-268.9787" font-family="Times,serif" font-size="14.00" fill="#000000">num_free_self=1</text>
</g>
<!-- 886032_TopFunc&#45;&gt;886032_FuncC -->
<g id="edge4" class="edge">
<title>886032_TopFunc&#45;&gt;886032_FuncC</title>
<path fill="none" stroke="#000000" d="M236.2273,-387.8483C249.556,-375.2153 265.4951,-360.1081 280.5974,-345.794"/>
<polygon fill="#000000" stroke="#000000" points="283.0786,-348.2646 287.9289,-338.8452 278.2632,-343.1841 283.0786,-348.2646"/>
</g>
<!-- 886032_FuncA&#45;&gt;886032_FuncB -->
<g id="edge5" class="edge">
<title>886032_FuncA&#45;&gt;886032_FuncB</title>
<path fill="none" stroke="#000000" d="M134.6422,-245.0004C139.0257,-235.2859 143.6231,-225.0975 148.0174,-215.3592"/>
<polygon fill="#000000" stroke="#000000" points="151.2318,-216.7451 152.1546,-206.1905 144.8513,-213.8659 151.2318,-216.7451"/>
</g>
</g>
</svg>
