<?xml version="1.0" encoding="UTF-8" standalone="no"?>
<!DOCTYPE svg PUBLIC "-//W3C//DTD SVG 1.1//EN"
 "http://www.w3.org/Graphics/SVG/1.1/DTD/svg11.dtd">
<!-- Generated by graphviz version 2.40.1 (0)
 -->
<!-- Title: MallocTree_TID3666447 Pages: 1 -->
<svg width="473pt" height="388pt"
 viewBox="0.00 0.00 473.35 387.65" xmlns="http://www.w3.org/2000/svg" xmlns:xlink="http://www.w3.org/1999/xlink">
<g id="graph0" class="graph" transform="scale(1 1) rotate(0) translate(4 383.6468)">
<title>MallocTree_TID3666447</title>
<polygon fill="#ffffff" stroke="transparent" points="-4,4 -4,-383.6468 469.3539,-383.6468 469.3539,4 -4,4"/>
<!-- minimal -->
<g id="node1" class="node">
<title>minimal</title>
<polygon fill="#fb6a4a" stroke="#000000" points="284.7523,-379.6468 150.7523,-379.6468 150.7523,-311.6468 284.7523,-311.6468 284.7523,-379.6468"/>
<text text-anchor="middle" x="217.7523" y="-364.4468" font-family="Times,serif" font-size="14.00" fill="#000000">thread=minimal</text>
<text text-anchor="middle" x="217.7523" y="-349.4468" font-family="Times,serif" font-size="14.00" fill="#000000">TID=3666447</text>
<text text-anchor="middle" x="217.7523" y="-334.4468" font-family="Times,serif" font-size="14.00" fill="#000000">total=4kB (100.00%)</text>
<text text-anchor="middle" x="217.7523" y="-319.4468" font-family="Times,serif" font-size="14.00" fill="#000000">self=2kB (54.36%)</text>
</g>
<!-- TopFunc -->
<g id="node2" class="node">
<title>TopFunc</title>
<ellipse fill="#fff5f0" stroke="#000000" cx="217.7523" cy="-238.1701" rx="89.6056" ry="37.4533"/>
<text text-anchor="middle" x="217.7523" y="-249.4701" font-family="Times,serif" font-size="14.00" fill="#000000">scope=TopFunc</text>
<text text-anchor="middle" x="217.7523" y="-234.4701" font-family="Times,serif" font-size="14.00" fill="#000000">total=2kB (45.63%)</text>
<text text-anchor="middle" x="217.7523" y="-219.4701" font-family="Times,serif" font-size="14.00" fill="#000000">self=5B (0.10%)</text>
</g>
<!-- minimal&#45;&gt;TopFunc -->
<g id="edge1" class="edge">
<title>minimal&#45;&gt;TopFunc</title>
<path fill="none" stroke="#000000" d="M217.7523,-311.6405C217.7523,-303.4189 217.7523,-294.4817 217.7523,-285.7632"/>
<polygon fill="#000000" stroke="#000000" points="221.2524,-285.6847 217.7523,-275.6848 214.2524,-285.6848 221.2524,-285.6847"/>
</g>
<!-- FuncA -->
<g id="node3" class="node">
<title>FuncA</title>
<ellipse fill="#fff5f0" stroke="#000000" cx="94.7523" cy="-127.2168" rx="94.5053" ry="37.4533"/>
<text text-anchor="middle" x="94.7523" y="-138.5168" font-family="Times,serif" font-size="14.00" fill="#000000">scope=FuncA</text>
<text text-anchor="middle" x="94.7523" y="-123.5168" font-family="Times,serif" font-size="14.00" fill="#000000">total=600B (12.86%)</text>
<text text-anchor="middle" x="94.7523" y="-108.5168" font-family="Times,serif" font-size="14.00" fill="#000000">self=100B (2.14%)</text>
</g>
<!-- TopFunc&#45;&gt;FuncA -->
<g id="edge2" class="edge">
<title>TopFunc&#45;&gt;FuncA</title>
<path fill="none" stroke="#000000" d="M179.8446,-203.9751C167.4534,-192.7974 153.556,-180.2612 140.642,-168.612"/>
<polygon fill="#000000" stroke="#000000" points="142.9406,-165.9719 133.1709,-161.8726 138.2519,-171.1696 142.9406,-165.9719"/>
</g>
<!-- FuncB -->
<g id="node4" class="node">
<title>FuncB</title>
<ellipse fill="#fcbba1" stroke="#000000" cx="155.7523" cy="-26.8701" rx="113.6886" ry="26.7407"/>
<text text-anchor="middle" x="155.7523" y="-30.6701" font-family="Times,serif" font-size="14.00" fill="#000000">scope=FuncB</text>
<text text-anchor="middle" x="155.7523" y="-15.6701" font-family="Times,serif" font-size="14.00" fill="#000000">total=self=500B (10.71%)</text>
</g>
<!-- TopFunc&#45;&gt;FuncB -->
<g id="edge3" class="edge">
<title>TopFunc&#45;&gt;FuncB</title>
<path fill="none" stroke="#000000" d="M217.7618,-200.3951C216.6401,-169.6705 212.4263,-125.6759 198.7523,-89.7401 195.0841,-80.0999 189.6593,-70.4977 183.8889,-61.8053"/>
<polygon fill="#000000" stroke="#000000" points="186.6494,-59.645 178.0556,-53.4484 180.9094,-63.6517 186.6494,-59.645"/>
</g>
<!-- FuncC -->
<g id="node5" class="node">
<title>FuncC</title>
<ellipse fill="#fc9272" stroke="#000000" cx="355.7523" cy="-127.2168" rx="109.7032" ry="26.7407"/>
<text text-anchor="middle" x="355.7523" y="-131.0168" font-family="Times,serif" font-size="14.00" fill="#000000">scope=FuncC</text>
<text text-anchor="middle" x="355.7523" y="-116.0168" font-family="Times,serif" font-size="14.00" fill="#000000">total=self=1kB (21.95%)</text>
</g>
<!-- TopFunc&#45;&gt;FuncC -->
<g id="edge4" class="edge">
<title>TopFunc&#45;&gt;FuncC</title>
<path fill="none" stroke="#000000" d="M259.1569,-204.8804C277.0573,-190.4883 297.9244,-173.711 315.6739,-159.4402"/>
<polygon fill="#000000" stroke="#000000" points="317.9876,-162.071 323.5879,-153.0773 313.6014,-156.6156 317.9876,-162.071"/>
</g>
<!-- FuncA&#45;&gt;FuncB -->
<g id="edge5" class="edge">
<title>FuncA&#45;&gt;FuncB</title>
<path fill="none" stroke="#000000" d="M116.9473,-90.7054C122.575,-81.4477 128.611,-71.5183 134.2059,-62.3144"/>
<polygon fill="#000000" stroke="#000000" points="137.2036,-64.1212 139.4073,-53.758 131.222,-60.485 137.2036,-64.1212"/>
</g>
</g>
</svg>
