<?xml version="1.0" encoding="UTF-8" standalone="no"?>
<!DOCTYPE svg PUBLIC "-//W3C//DTD SVG 1.1//EN"
 "http://www.w3.org/Graphics/SVG/1.1/DTD/svg11.dtd">
<!-- Generated by graphviz version 2.40.1 (0)
 -->
<!-- Title: MallocTree Pages: 1 -->
<svg width="589pt" height="352pt"
 viewBox="0.00 0.00 588.66 352.17" xmlns="http://www.w3.org/2000/svg" xmlns:xlink="http://www.w3.org/1999/xlink">
<g id="graph0" class="graph" transform="scale(1 1) rotate(0) translate(4 348.1737)">
<title>MallocTree</title>
<polygon fill="#ffffff" stroke="transparent" points="-4,4 -4,-348.1737 584.6554,-348.1737 584.6554,4 -4,4"/>
<!-- multithread -->
<g id="node1" class="node">
<title>multithread</title>
<ellipse fill="none" stroke="#000000" cx="86.267" cy="-306.697" rx="86.0347" ry="37.4533"/>
<text text-anchor="middle" x="86.267" y="-317.997" font-family="Times,serif" font-size="14.00" fill="#000000">thread=multithread</text>
<text text-anchor="middle" x="86.267" y="-302.997" font-family="Times,serif" font-size="14.00" fill="#000000">100.00%</text>
<text text-anchor="middle" x="86.267" y="-287.997" font-family="Times,serif" font-size="14.00" fill="#000000">3kB</text>
</g>
<!-- TopFunc -->
<g id="node2" class="node">
<title>TopFunc</title>
<ellipse fill="none" stroke="#000000" cx="86.267" cy="-206.3503" rx="45.011" ry="26.7407"/>
<text text-anchor="middle" x="86.267" y="-210.1503" font-family="Times,serif" font-size="14.00" fill="#000000">TopFunc</text>
<text text-anchor="middle" x="86.267" y="-195.1503" font-family="Times,serif" font-size="14.00" fill="#000000">16.60%</text>
</g>
<!-- multithread&#45;&gt;TopFunc -->
<g id="edge1" class="edge">
<title>multithread&#45;&gt;TopFunc</title>
<path fill="none" stroke="#000000" d="M86.267,-269.0461C86.267,-260.6781 86.267,-251.8136 86.267,-243.4672"/>
<polygon fill="#000000" stroke="#000000" points="89.7671,-243.2485 86.267,-233.2486 82.7671,-243.2486 89.7671,-243.2485"/>
</g>
<!-- FuncA -->
<g id="node3" class="node">
<title>FuncA</title>
<ellipse fill="none" stroke="#000000" cx="54.267" cy="-116.6102" rx="37.4533" ry="26.7407"/>
<text text-anchor="middle" x="54.267" y="-120.4102" font-family="Times,serif" font-size="14.00" fill="#000000">FuncA</text>
<text text-anchor="middle" x="54.267" y="-105.4102" font-family="Times,serif" font-size="14.00" fill="#000000">9.86%</text>
</g>
<!-- TopFunc&#45;&gt;FuncA -->
<g id="edge2" class="edge">
<title>TopFunc&#45;&gt;FuncA</title>
<path fill="none" stroke="#000000" d="M76.839,-179.9107C73.7793,-171.3299 70.3313,-161.6606 67.0685,-152.5102"/>
<polygon fill="#000000" stroke="#000000" points="70.2831,-151.1043 63.6276,-142.8608 63.6897,-153.4555 70.2831,-151.1043"/>
</g>
<!-- FuncB -->
<g id="node4" class="node">
<title>FuncB</title>
<ellipse fill="none" stroke="#000000" cx="86.267" cy="-26.8701" rx="37.4533" ry="26.7407"/>
<text text-anchor="middle" x="86.267" y="-30.6701" font-family="Times,serif" font-size="14.00" fill="#000000">FuncB</text>
<text text-anchor="middle" x="86.267" y="-15.6701" font-family="Times,serif" font-size="14.00" fill="#000000">6.57%</text>
</g>
<!-- TopFunc&#45;&gt;FuncB -->
<g id="edge3" class="edge">
<title>TopFunc&#45;&gt;FuncB</title>
<path fill="none" stroke="#000000" d="M93.5703,-179.6443C96.2486,-168.5499 98.9466,-155.4847 100.267,-143.4802 102.8784,-119.7389 102.8784,-113.4814 100.267,-89.7401 99.3092,-81.032 97.6264,-71.7657 95.7522,-63.0985"/>
<polygon fill="#000000" stroke="#000000" points="99.1444,-62.2319 93.4959,-53.2683 92.3218,-63.7979 99.1444,-62.2319"/>
</g>
<!-- FuncA&#45;&gt;FuncB -->
<g id="edge4" class="edge">
<title>FuncA&#45;&gt;FuncB</title>
<path fill="none" stroke="#000000" d="M63.695,-90.1706C66.7548,-81.5897 70.2027,-71.9205 73.4656,-62.7701"/>
<polygon fill="#000000" stroke="#000000" points="76.8443,-63.7154 76.9064,-53.1207 70.251,-61.3642 76.8443,-63.7154"/>
</g>
<!-- __before_init_node__ -->
<g id="node5" class="node">
<title>__before_init_node__</title>
<ellipse fill="none" stroke="#000000" cx="288.267" cy="-306.697" rx="97.6615" ry="37.4533"/>
<text text-anchor="middle" x="288.267" y="-317.997" font-family="Times,serif" font-size="14.00" fill="#000000">Memory Allocated</text>
<text text-anchor="middle" x="288.267" y="-302.997" font-family="Times,serif" font-size="14.00" fill="#000000">Before MallocTag Init</text>
<text text-anchor="middle" x="288.267" y="-287.997" font-family="Times,serif" font-size="14.00" fill="#000000">72kB</text>
</g>
<!-- __malloctag_self_memory__ -->
<g id="node6" class="node">
<title>__malloctag_self_memory__</title>
<ellipse fill="none" stroke="#000000" cx="492.267" cy="-306.697" rx="88.2768" ry="37.4533"/>
<text text-anchor="middle" x="492.267" y="-317.997" font-family="Times,serif" font-size="14.00" fill="#000000">Memory Allocated</text>
<text text-anchor="middle" x="492.267" y="-302.997" font-family="Times,serif" font-size="14.00" fill="#000000">By MallocTag itself</text>
<text text-anchor="middle" x="492.267" y="-287.997" font-family="Times,serif" font-size="14.00" fill="#000000">51kB</text>
</g>
</g>
</svg>
