<?xml version="1.0" encoding="UTF-8" standalone="no"?>
<!DOCTYPE svg PUBLIC "-//W3C//DTD SVG 1.1//EN"
 "http://www.w3.org/Graphics/SVG/1.1/DTD/svg11.dtd">
<!-- Generated by graphviz version 2.40.1 (0)
 -->
<!-- Title: MallocTree_TID3665933 Pages: 1 -->
<svg width="259pt" height="409pt"
 viewBox="0.00 0.00 258.50 408.86" xmlns="http://www.w3.org/2000/svg" xmlns:xlink="http://www.w3.org/1999/xlink">
<g id="page0,1_graph0" class="graph" transform="scale(1 1) rotate(0) translate(4 404.86)">
<title>MallocTree_TID3665933</title>
<polygon fill="#ffffff" stroke="transparent" points="-4,4 -4,-404.86 254.5046,-404.86 254.5046,4 -4,4"/>
<!-- exampleThr/3 -->
<g id="node1" class="node">
<title>exampleThr/3</title>
<polygon fill="#fee0d2" stroke="#000000" points="225.7523,-400.86 85.7523,-400.86 85.7523,-332.86 225.7523,-332.86 225.7523,-400.86"/>
<text text-anchor="middle" x="155.7523" y="-385.66" font-family="Times,serif" font-size="14.00" fill="#000000">thread=exampleThr/3</text>
<text text-anchor="middle" x="155.7523" y="-370.66" font-family="Times,serif" font-size="14.00" fill="#000000">TID=3665933</text>
<text text-anchor="middle" x="155.7523" y="-355.66" font-family="Times,serif" font-size="14.00" fill="#000000">total=536B (100.00%)</text>
<text text-anchor="middle" x="155.7523" y="-340.66" font-family="Times,serif" font-size="14.00" fill="#000000">self=31B (5.78%)</text>
</g>
<!-- TopFunc -->
<g id="node2" class="node">
<title>TopFunc</title>
<ellipse fill="#fff5f0" stroke="#000000" cx="155.7523" cy="-259.3833" rx="94.5053" ry="37.4533"/>
<text text-anchor="middle" x="155.7523" y="-270.6833" font-family="Times,serif" font-size="14.00" fill="#000000">scope=TopFunc</text>
<text text-anchor="middle" x="155.7523" y="-255.6833" font-family="Times,serif" font-size="14.00" fill="#000000">total=505B (94.21%)</text>
<text text-anchor="middle" x="155.7523" y="-240.6833" font-family="Times,serif" font-size="14.00" fill="#000000">self=5B (0.93%)</text>
</g>
<!-- exampleThr/3&#45;&gt;TopFunc -->
<g id="edge1" class="edge">
<title>exampleThr/3&#45;&gt;TopFunc</title>
<path fill="none" stroke="#000000" d="M155.7523,-332.8537C155.7523,-324.6321 155.7523,-315.6949 155.7523,-306.9764"/>
<polygon fill="#000000" stroke="#000000" points="159.2524,-306.8979 155.7523,-296.898 152.2524,-306.898 159.2524,-306.8979"/>
</g>
<!-- FuncA -->
<g id="node3" class="node">
<title>FuncA</title>
<ellipse fill="#fcbba1" stroke="#000000" cx="94.7523" cy="-148.43" rx="94.5053" ry="37.4533"/>
<text text-anchor="middle" x="94.7523" y="-159.73" font-family="Times,serif" font-size="14.00" fill="#000000">scope=FuncA</text>
<text text-anchor="middle" x="94.7523" y="-144.73" font-family="Times,serif" font-size="14.00" fill="#000000">total=300B (55.97%)</text>
<text text-anchor="middle" x="94.7523" y="-129.73" font-family="Times,serif" font-size="14.00" fill="#000000">self=100B (18.65%)</text>
</g>
<!-- TopFunc&#45;&gt;FuncA -->
<g id="edge2" class="edge">
<title>TopFunc&#45;&gt;FuncA</title>
<path fill="none" stroke="#000000" d="M135.6096,-222.7455C130.6129,-213.657 125.1953,-203.803 119.9888,-194.3329"/>
<polygon fill="#000000" stroke="#000000" points="122.9671,-192.4851 115.0823,-185.4084 116.833,-195.8576 122.9671,-192.4851"/>
</g>
<!-- FuncB -->
<g id="node4" class="node">
<title>FuncB</title>
<ellipse fill="#fc9272" stroke="#000000" cx="155.7523" cy="-37.4767" rx="94.5053" ry="37.4533"/>
<text text-anchor="middle" x="155.7523" y="-48.7767" font-family="Times,serif" font-size="14.00" fill="#000000">scope=FuncB</text>
<text text-anchor="middle" x="155.7523" y="-33.7767" font-family="Times,serif" font-size="14.00" fill="#000000">total=200B (37.31%)</text>
<text text-anchor="middle" x="155.7523" y="-18.7767" font-family="Times,serif" font-size="14.00" fill="#000000">self=200B (37.31%)</text>
</g>
<!-- TopFunc&#45;&gt;FuncB -->
<g id="edge3" class="edge">
<title>TopFunc&#45;&gt;FuncB</title>
<path fill="none" stroke="#000000" d="M181.9289,-223.3374C188.7823,-211.9249 195.233,-198.8881 198.7523,-185.9066 207.4688,-153.7546 207.4688,-143.1053 198.7523,-110.9533 196.1128,-101.2173 191.8244,-91.45 186.954,-82.3603"/>
<polygon fill="#000000" stroke="#000000" points="189.9143,-80.4857 181.9289,-73.5226 183.8292,-83.9456 189.9143,-80.4857"/>
</g>
<!-- FuncA&#45;&gt;FuncB -->
<g id="edge4" class="edge">
<title>FuncA&#45;&gt;FuncB</title>
<path fill="none" stroke="#000000" d="M114.895,-111.7922C119.8917,-102.7037 125.3093,-92.8497 130.5158,-83.3796"/>
<polygon fill="#000000" stroke="#000000" points="133.6716,-84.9042 135.4223,-74.455 127.5375,-81.5318 133.6716,-84.9042"/>
</g>
</g>
</svg>
