<?xml version="1.0" encoding="UTF-8" standalone="no"?>
<!DOCTYPE svg PUBLIC "-//W3C//DTD SVG 1.1//EN"
 "http://www.w3.org/Graphics/SVG/1.1/DTD/svg11.dtd">
<!-- Generated by graphviz version 2.40.1 (0)
 -->
<!-- Title: MallocTree3 Pages: 1 -->
<svg width="265pt" height="352pt"
 viewBox="0.00 0.00 265.39 352.17" xmlns="http://www.w3.org/2000/svg" xmlns:xlink="http://www.w3.org/1999/xlink">
<g id="page0,1_graph0" class="graph" transform="scale(1 1) rotate(0) translate(4 348.1737)">
<title>MallocTree3</title>
<polygon fill="#ffffff" stroke="transparent" points="-4,4 -4,-348.1737 261.3869,-348.1737 261.3869,4 -4,4"/>
<!-- exampleThr/23600441 -->
<g id="node1" class="node">
<title>exampleThr/23600441</title>
<ellipse fill="none" stroke="#000000" cx="128.6934" cy="-306.697" rx="128.8872" ry="37.4533"/>
<text text-anchor="middle" x="128.6934" y="-317.997" font-family="Times,serif" font-size="14.00" fill="#000000">thread=exampleThr/23600441</text>
<text text-anchor="middle" x="128.6934" y="-302.997" font-family="Times,serif" font-size="14.00" fill="#000000">100.00%</text>
<text text-anchor="middle" x="128.6934" y="-287.997" font-family="Times,serif" font-size="14.00" fill="#000000">536B</text>
</g>
<!-- TopFunc -->
<g id="node2" class="node">
<title>TopFunc</title>
<ellipse fill="none" stroke="#000000" cx="128.6934" cy="-206.3503" rx="45.011" ry="26.7407"/>
<text text-anchor="middle" x="128.6934" y="-210.1503" font-family="Times,serif" font-size="14.00" fill="#000000">TopFunc</text>
<text text-anchor="middle" x="128.6934" y="-195.1503" font-family="Times,serif" font-size="14.00" fill="#000000">94.21%</text>
</g>
<!-- exampleThr/23600441&#45;&gt;TopFunc -->
<g id="edge1" class="edge">
<title>exampleThr/23600441&#45;&gt;TopFunc</title>
<path fill="none" stroke="#000000" d="M128.6934,-269.0461C128.6934,-260.6781 128.6934,-251.8136 128.6934,-243.4672"/>
<polygon fill="#000000" stroke="#000000" points="132.1935,-243.2485 128.6934,-233.2486 125.1935,-243.2486 132.1935,-243.2485"/>
</g>
<!-- FuncA -->
<g id="node3" class="node">
<title>FuncA</title>
<ellipse fill="none" stroke="#000000" cx="93.6934" cy="-116.6102" rx="41.9398" ry="26.7407"/>
<text text-anchor="middle" x="93.6934" y="-120.4102" font-family="Times,serif" font-size="14.00" fill="#000000">FuncA</text>
<text text-anchor="middle" x="93.6934" y="-105.4102" font-family="Times,serif" font-size="14.00" fill="#000000">55.97%</text>
</g>
<!-- TopFunc&#45;&gt;FuncA -->
<g id="edge2" class="edge">
<title>TopFunc&#45;&gt;FuncA</title>
<path fill="none" stroke="#000000" d="M118.3816,-179.9107C114.9993,-171.2386 111.1835,-161.4548 107.5812,-152.2184"/>
<polygon fill="#000000" stroke="#000000" points="110.826,-150.9056 103.9316,-142.8608 104.3044,-153.4491 110.826,-150.9056"/>
</g>
<!-- FuncB -->
<g id="node4" class="node">
<title>FuncB</title>
<ellipse fill="none" stroke="#000000" cx="128.6934" cy="-26.8701" rx="41.9398" ry="26.7407"/>
<text text-anchor="middle" x="128.6934" y="-30.6701" font-family="Times,serif" font-size="14.00" fill="#000000">FuncB</text>
<text text-anchor="middle" x="128.6934" y="-15.6701" font-family="Times,serif" font-size="14.00" fill="#000000">37.31%</text>
</g>
<!-- TopFunc&#45;&gt;FuncB -->
<g id="edge3" class="edge">
<title>TopFunc&#45;&gt;FuncB</title>
<path fill="none" stroke="#000000" d="M137.0374,-179.7096C140.0979,-168.6252 143.1817,-155.5498 144.6934,-143.4802 147.6618,-119.7809 147.6618,-113.4394 144.6934,-89.7401 143.6069,-81.0651 141.7082,-71.8705 139.5897,-63.269"/>
<polygon fill="#000000" stroke="#000000" points="142.954,-62.2996 137.0374,-53.5107 136.1818,-64.0709 142.954,-62.2996"/>
</g>
<!-- FuncA&#45;&gt;FuncB -->
<g id="edge4" class="edge">
<title>FuncA&#45;&gt;FuncB</title>
<path fill="none" stroke="#000000" d="M104.0053,-90.1706C107.3875,-81.4985 111.2034,-71.7146 114.8057,-62.4783"/>
<polygon fill="#000000" stroke="#000000" points="118.0824,-63.709 118.4553,-53.1207 111.5609,-61.1654 118.0824,-63.709"/>
</g>
</g>
</svg>
