<?xml version="1.0" encoding="UTF-8" standalone="no"?>
<!DOCTYPE svg PUBLIC "-//W3C//DTD SVG 1.1//EN"
 "http://www.w3.org/Graphics/SVG/1.1/DTD/svg11.dtd">
<!-- Generated by graphviz version 2.40.1 (0)
 -->
<!-- Title: MallocTree Pages: 1 -->
<svg width="1470pt" height="768pt"
 viewBox="0.00 0.00 1470.00 768.00" xmlns="http://www.w3.org/2000/svg" xmlns:xlink="http://www.w3.org/1999/xlink">
<g id="graph0" class="graph" transform="scale(1 1) rotate(0) translate(4 763.997)">
<title>MallocTree</title>
<polygon fill="#ffffff" stroke="transparent" points="-4,4 -4,-763.997 1466,-763.997 1466,4 -4,4"/>
<text text-anchor="middle" x="731" y="-52.8" font-family="Times,serif" font-size="14.00" fill="#000000">Memory allocated before MallocTag initialization = 72kB</text>
<text text-anchor="middle" x="731" y="-37.8" font-family="Times,serif" font-size="14.00" fill="#000000">Memory allocated by MallocTag itself =307kB</text>
<text text-anchor="middle" x="731" y="-22.8" font-family="Times,serif" font-size="14.00" fill="#000000">Total memory tracked by MallocTag across all threads =831kB</text>
<text text-anchor="middle" x="731" y="-7.8" font-family="Times,serif" font-size="14.00" fill="#000000">Start time of memory profiling session: Sep 14 2023 (Thu) @ 22:23:01 PID=886074</text>
<g id="clust1" class="cluster">
<title>cluster_TID886074</title>
<polygon fill="none" stroke="#000000" points="8,-557.997 8,-751.997 248,-751.997 248,-557.997 8,-557.997"/>
<text text-anchor="middle" x="128" y="-580.797" font-family="Times,serif" font-size="14.00" fill="#000000">nPushNodeFailures=0</text>
<text text-anchor="middle" x="128" y="-565.797" font-family="Times,serif" font-size="14.00" fill="#000000">nTreeNodesInUse/Max=1/256</text>
</g>
<g id="clust2" class="cluster">
<title>cluster_TID886075</title>
<polygon fill="none" stroke="#000000" points="256,-76 256,-715.997 534,-715.997 534,-76 256,-76"/>
<text text-anchor="middle" x="395" y="-98.8" font-family="Times,serif" font-size="14.00" fill="#000000">nPushNodeFailures=0</text>
<text text-anchor="middle" x="395" y="-83.8" font-family="Times,serif" font-size="14.00" fill="#000000">nTreeNodesInUse/Max=5/256</text>
</g>
<g id="clust3" class="cluster">
<title>cluster_TID886076</title>
<polygon fill="none" stroke="#000000" points="542,-76 542,-715.997 832,-715.997 832,-76 542,-76"/>
<text text-anchor="middle" x="687" y="-98.8" font-family="Times,serif" font-size="14.00" fill="#000000">nPushNodeFailures=0</text>
<text text-anchor="middle" x="687" y="-83.8" font-family="Times,serif" font-size="14.00" fill="#000000">nTreeNodesInUse/Max=5/256</text>
</g>
<g id="clust4" class="cluster">
<title>cluster_TID886077</title>
<polygon fill="none" stroke="#000000" points="840,-568.997 840,-740.997 1100,-740.997 1100,-568.997 840,-568.997"/>
<text text-anchor="middle" x="970" y="-591.797" font-family="Times,serif" font-size="14.00" fill="#000000">nPushNodeFailures=0</text>
<text text-anchor="middle" x="970" y="-576.797" font-family="Times,serif" font-size="14.00" fill="#000000">nTreeNodesInUse/Max=1/256</text>
</g>
<g id="clust5" class="cluster">
<title>cluster_TID886078</title>
<polygon fill="none" stroke="#000000" points="1108,-243.1371 1108,-715.997 1454,-715.997 1454,-243.1371 1108,-243.1371"/>
<text text-anchor="middle" x="1281" y="-265.9371" font-family="Times,serif" font-size="14.00" fill="#000000">nPushNodeFailures=0</text>
<text text-anchor="middle" x="1281" y="-250.9371" font-family="Times,serif" font-size="14.00" fill="#000000">nTreeNodesInUse/Max=3/256</text>
</g>
<!-- 886074_multithread -->
<g id="node1" class="node">
<title>886074_multithread</title>
<polygon fill="#cb181d" stroke="#000000" points="240,-743.997 16,-743.997 16,-603.997 240,-603.997 240,-743.997"/>
<text text-anchor="middle" x="128" y="-723.997" font-family="Times,serif" font-size="20.00" fill="#000000">thread=multithread</text>
<text text-anchor="middle" x="128" y="-701.997" font-family="Times,serif" font-size="20.00" fill="#000000">TID=886074</text>
<text text-anchor="middle" x="128" y="-679.997" font-family="Times,serif" font-size="20.00" fill="#000000">total=self=3kB (100.00%)</text>
<text text-anchor="middle" x="128" y="-657.997" font-family="Times,serif" font-size="20.00" fill="#000000">num_malloc_self=10</text>
<text text-anchor="middle" x="128" y="-635.997" font-family="Times,serif" font-size="20.00" fill="#000000">num_calloc_self=3</text>
<text text-anchor="middle" x="128" y="-613.997" font-family="Times,serif" font-size="20.00" fill="#000000">num_free_self=21</text>
</g>
<!-- 886075_exampleThr/0 -->
<g id="node2" class="node">
<title>886075_exampleThr/0</title>
<polygon fill="#fff5f0" stroke="#000000" points="423.5,-707.997 322.5,-707.997 322.5,-639.997 423.5,-639.997 423.5,-707.997"/>
<text text-anchor="middle" x="373" y="-696.797" font-family="Times,serif" font-size="9.00" fill="#000000">thread=exampleThr/0</text>
<text text-anchor="middle" x="373" y="-686.797" font-family="Times,serif" font-size="9.00" fill="#000000">TID=886075</text>
<text text-anchor="middle" x="373" y="-676.797" font-family="Times,serif" font-size="9.00" fill="#000000">total=144kB (100.00%)</text>
<text text-anchor="middle" x="373" y="-666.797" font-family="Times,serif" font-size="9.00" fill="#000000">self=31B (0.02%)</text>
<text text-anchor="middle" x="373" y="-656.797" font-family="Times,serif" font-size="9.00" fill="#000000">num_malloc_self=1</text>
<text text-anchor="middle" x="373" y="-646.797" font-family="Times,serif" font-size="9.00" fill="#000000">num_free_self=3</text>
</g>
<!-- 886075_ThreadMain -->
<g id="node3" class="node">
<title>886075_ThreadMain</title>
<ellipse fill="#fff5f0" stroke="#000000" cx="373" cy="-505.4493" rx="68.6788" ry="33.8824"/>
<text text-anchor="middle" x="373" y="-518.2493" font-family="Times,serif" font-size="9.00" fill="#000000">scope=ThreadMain</text>
<text text-anchor="middle" x="373" y="-508.2493" font-family="Times,serif" font-size="9.00" fill="#000000">total=144kB (99.97%)</text>
<text text-anchor="middle" x="373" y="-498.2493" font-family="Times,serif" font-size="9.00" fill="#000000">self=5B (0.00%)</text>
<text text-anchor="middle" x="373" y="-488.2493" font-family="Times,serif" font-size="9.00" fill="#000000">num_malloc_self=1</text>
</g>
<!-- 886075_exampleThr/0&#45;&gt;886075_ThreadMain -->
<g id="edge1" class="edge">
<title>886075_exampleThr/0&#45;&gt;886075_ThreadMain</title>
<path fill="none" stroke="#000000" d="M373,-639.8889C373,-613.845 373,-577.7511 373,-549.5191"/>
<polygon fill="#000000" stroke="#000000" points="376.5001,-549.5067 373,-539.5067 369.5001,-549.5068 376.5001,-549.5067"/>
</g>
<!-- 886075_FuncA -->
<g id="node4" class="node">
<title>886075_FuncA</title>
<ellipse fill="#fff5f0" stroke="#000000" cx="351" cy="-357.0193" rx="65.1077" ry="33.8824"/>
<text text-anchor="middle" x="351" y="-369.8193" font-family="Times,serif" font-size="9.00" fill="#000000">scope=FuncA</text>
<text text-anchor="middle" x="351" y="-359.8193" font-family="Times,serif" font-size="9.00" fill="#000000">total=72kB (50.02%)</text>
<text text-anchor="middle" x="351" y="-349.8193" font-family="Times,serif" font-size="9.00" fill="#000000">self=100B (0.06%)</text>
<text text-anchor="middle" x="351" y="-339.8193" font-family="Times,serif" font-size="9.00" fill="#000000">num_malloc_self=1</text>
</g>
<!-- 886075_ThreadMain&#45;&gt;886075_FuncA -->
<g id="edge2" class="edge">
<title>886075_ThreadMain&#45;&gt;886075_FuncA</title>
<path fill="none" stroke="#000000" d="M367.9528,-471.3965C364.8505,-450.4659 360.8442,-423.4366 357.5053,-400.9092"/>
<polygon fill="#000000" stroke="#000000" points="360.9522,-400.2925 356.0238,-390.9137 354.0278,-401.3188 360.9522,-400.2925"/>
</g>
<!-- 886075_FuncB -->
<g id="node5" class="node">
<title>886075_FuncB</title>
<ellipse fill="#fb6a4a" stroke="#000000" cx="395" cy="-178.5685" rx="130.6298" ry="56.6372"/>
<text text-anchor="middle" x="395" y="-201.7685" font-family="Times,serif" font-size="16.00" fill="#000000">scope=FuncB</text>
<text text-anchor="middle" x="395" y="-183.7685" font-family="Times,serif" font-size="16.00" fill="#000000">total=self=72kB (49.95%)</text>
<text text-anchor="middle" x="395" y="-165.7685" font-family="Times,serif" font-size="16.00" fill="#000000">num_malloc_self=1000</text>
<text text-anchor="middle" x="395" y="-147.7685" font-family="Times,serif" font-size="16.00" fill="#000000">num_free_self=1000</text>
</g>
<!-- 886075_ThreadMain&#45;&gt;886075_FuncB -->
<g id="edge3" class="edge">
<title>886075_ThreadMain&#45;&gt;886075_FuncB</title>
<path fill="none" stroke="#000000" d="M399.3972,-473.873C409.4948,-459.8053 419.8235,-442.464 425,-424.9016 446.9473,-350.4401 442.8098,-324.0819 424.8295,-244.0699"/>
<polygon fill="#000000" stroke="#000000" points="428.1819,-243.0254 422.5689,-234.0395 421.3532,-244.5644 428.1819,-243.0254"/>
</g>
<!-- 886075_FuncA&#45;&gt;886075_FuncB -->
<g id="edge4" class="edge">
<title>886075_FuncA&#45;&gt;886075_FuncB</title>
<path fill="none" stroke="#000000" d="M359.3796,-323.0341C364.8185,-300.9754 372.0885,-271.4905 378.6422,-244.911"/>
<polygon fill="#000000" stroke="#000000" points="382.1177,-245.4351 381.1135,-234.8879 375.3212,-243.7592 382.1177,-245.4351"/>
</g>
<!-- 886076_exampleThr/1 -->
<g id="node6" class="node">
<title>886076_exampleThr/1</title>
<polygon fill="#fff5f0" stroke="#000000" points="747.5,-707.997 646.5,-707.997 646.5,-639.997 747.5,-639.997 747.5,-707.997"/>
<text text-anchor="middle" x="697" y="-696.797" font-family="Times,serif" font-size="9.00" fill="#000000">thread=exampleThr/1</text>
<text text-anchor="middle" x="697" y="-686.797" font-family="Times,serif" font-size="9.00" fill="#000000">TID=886076</text>
<text text-anchor="middle" x="697" y="-676.797" font-family="Times,serif" font-size="9.00" fill="#000000">total=289kB (100.00%)</text>
<text text-anchor="middle" x="697" y="-666.797" font-family="Times,serif" font-size="9.00" fill="#000000">self=31B (0.01%)</text>
<text text-anchor="middle" x="697" y="-656.797" font-family="Times,serif" font-size="9.00" fill="#000000">num_malloc_self=1</text>
<text text-anchor="middle" x="697" y="-646.797" font-family="Times,serif" font-size="9.00" fill="#000000">num_free_self=3</text>
</g>
<!-- 886076_ThreadMain -->
<g id="node7" class="node">
<title>886076_ThreadMain</title>
<ellipse fill="#fff5f0" stroke="#000000" cx="697" cy="-505.4493" rx="68.6788" ry="33.8824"/>
<text text-anchor="middle" x="697" y="-518.2493" font-family="Times,serif" font-size="9.00" fill="#000000">scope=ThreadMain</text>
<text text-anchor="middle" x="697" y="-508.2493" font-family="Times,serif" font-size="9.00" fill="#000000">total=289kB (99.98%)</text>
<text text-anchor="middle" x="697" y="-498.2493" font-family="Times,serif" font-size="9.00" fill="#000000">self=5B (0.00%)</text>
<text text-anchor="middle" x="697" y="-488.2493" font-family="Times,serif" font-size="9.00" fill="#000000">num_malloc_self=1</text>
</g>
<!-- 886076_exampleThr/1&#45;&gt;886076_ThreadMain -->
<g id="edge5" class="edge">
<title>886076_exampleThr/1&#45;&gt;886076_ThreadMain</title>
<path fill="none" stroke="#000000" d="M697,-639.8889C697,-613.845 697,-577.7511 697,-549.5191"/>
<polygon fill="#000000" stroke="#000000" points="700.5001,-549.5067 697,-539.5067 693.5001,-549.5068 700.5001,-549.5067"/>
</g>
<!-- 886076_FuncA -->
<g id="node8" class="node">
<title>886076_FuncA</title>
<ellipse fill="#fff5f0" stroke="#000000" cx="653" cy="-357.0193" rx="68.6788" ry="33.8824"/>
<text text-anchor="middle" x="653" y="-369.8193" font-family="Times,serif" font-size="9.00" fill="#000000">scope=FuncA</text>
<text text-anchor="middle" x="653" y="-359.8193" font-family="Times,serif" font-size="9.00" fill="#000000">total=145kB (50.18%)</text>
<text text-anchor="middle" x="653" y="-349.8193" font-family="Times,serif" font-size="9.00" fill="#000000">self=1kB (0.38%)</text>
<text text-anchor="middle" x="653" y="-339.8193" font-family="Times,serif" font-size="9.00" fill="#000000">num_malloc_self=1</text>
</g>
<!-- 886076_ThreadMain&#45;&gt;886076_FuncA -->
<g id="edge6" class="edge">
<title>886076_ThreadMain&#45;&gt;886076_FuncA</title>
<path fill="none" stroke="#000000" d="M687.0157,-471.7683C680.7652,-450.6826 672.648,-423.2999 665.9107,-400.5723"/>
<polygon fill="#000000" stroke="#000000" points="669.2187,-399.4165 663.0208,-390.8237 662.5073,-401.4061 669.2187,-399.4165"/>
</g>
<!-- 886076_FuncB -->
<g id="node9" class="node">
<title>886076_FuncB</title>
<ellipse fill="#fb6a4a" stroke="#000000" cx="687" cy="-178.5685" rx="137.3577" ry="56.6372"/>
<text text-anchor="middle" x="687" y="-201.7685" font-family="Times,serif" font-size="16.00" fill="#000000">scope=FuncB</text>
<text text-anchor="middle" x="687" y="-183.7685" font-family="Times,serif" font-size="16.00" fill="#000000">total=self=144kB (49.79%)</text>
<text text-anchor="middle" x="687" y="-165.7685" font-family="Times,serif" font-size="16.00" fill="#000000">num_malloc_self=2000</text>
<text text-anchor="middle" x="687" y="-147.7685" font-family="Times,serif" font-size="16.00" fill="#000000">num_free_self=2000</text>
</g>
<!-- 886076_ThreadMain&#45;&gt;886076_FuncB -->
<g id="edge7" class="edge">
<title>886076_ThreadMain&#45;&gt;886076_FuncB</title>
<path fill="none" stroke="#000000" d="M714.5106,-472.3146C721.0667,-458.1271 727.7177,-441.1176 731,-424.9016 747.0264,-345.723 754.8026,-320.3351 731,-243.1371 730.8988,-242.809 730.7954,-242.481 730.6896,-242.1533"/>
<polygon fill="#000000" stroke="#000000" points="733.9171,-240.7952 727.0443,-232.7319 727.3887,-243.3212 733.9171,-240.7952"/>
</g>
<!-- 886076_FuncA&#45;&gt;886076_FuncB -->
<g id="edge8" class="edge">
<title>886076_FuncA&#45;&gt;886076_FuncB</title>
<path fill="none" stroke="#000000" d="M659.4752,-323.0341C663.6609,-301.0651 669.25,-271.7301 674.2981,-245.2353"/>
<polygon fill="#000000" stroke="#000000" points="677.7687,-245.7196 676.2022,-235.2412 670.8924,-244.4094 677.7687,-245.7196"/>
</g>
<!-- 886077_NonInstrumented -->
<g id="node10" class="node">
<title>886077_NonInstrumented</title>
<polygon fill="#cb181d" stroke="#000000" points="1091.5,-732.997 848.5,-732.997 848.5,-614.997 1091.5,-614.997 1091.5,-732.997"/>
<text text-anchor="middle" x="970" y="-712.997" font-family="Times,serif" font-size="20.00" fill="#000000">thread=NonInstrumented</text>
<text text-anchor="middle" x="970" y="-690.997" font-family="Times,serif" font-size="20.00" fill="#000000">TID=886077</text>
<text text-anchor="middle" x="970" y="-668.997" font-family="Times,serif" font-size="20.00" fill="#000000">total=self=156kB (100.00%)</text>
<text text-anchor="middle" x="970" y="-646.997" font-family="Times,serif" font-size="20.00" fill="#000000">num_malloc_self=1101</text>
<text text-anchor="middle" x="970" y="-624.997" font-family="Times,serif" font-size="20.00" fill="#000000">num_free_self=1103</text>
</g>
<!-- 886078_exampleThr/2 -->
<g id="node11" class="node">
<title>886078_exampleThr/2</title>
<polygon fill="#fff5f0" stroke="#000000" points="1331.5,-707.997 1230.5,-707.997 1230.5,-639.997 1331.5,-639.997 1331.5,-707.997"/>
<text text-anchor="middle" x="1281" y="-696.797" font-family="Times,serif" font-size="9.00" fill="#000000">thread=exampleThr/2</text>
<text text-anchor="middle" x="1281" y="-686.797" font-family="Times,serif" font-size="9.00" fill="#000000">TID=886078</text>
<text text-anchor="middle" x="1281" y="-676.797" font-family="Times,serif" font-size="9.00" fill="#000000">total=237kB (100.00%)</text>
<text text-anchor="middle" x="1281" y="-666.797" font-family="Times,serif" font-size="9.00" fill="#000000">self=31B (0.01%)</text>
<text text-anchor="middle" x="1281" y="-656.797" font-family="Times,serif" font-size="9.00" fill="#000000">num_malloc_self=1</text>
<text text-anchor="middle" x="1281" y="-646.797" font-family="Times,serif" font-size="9.00" fill="#000000">num_free_self=3</text>
</g>
<!-- 886078_ThreadMain2 -->
<g id="node12" class="node">
<title>886078_ThreadMain2</title>
<ellipse fill="#fee0d2" stroke="#000000" cx="1281" cy="-505.4493" rx="77.1494" ry="44.5955"/>
<text text-anchor="middle" x="1281" y="-524.9493" font-family="Times,serif" font-size="10.00" fill="#000000">scope=ThreadMain2</text>
<text text-anchor="middle" x="1281" y="-513.9493" font-family="Times,serif" font-size="10.00" fill="#000000">total=237kB (99.98%)</text>
<text text-anchor="middle" x="1281" y="-502.9493" font-family="Times,serif" font-size="10.00" fill="#000000">self=21kB (9.08%)</text>
<text text-anchor="middle" x="1281" y="-491.9493" font-family="Times,serif" font-size="10.00" fill="#000000">num_malloc_self=300</text>
<text text-anchor="middle" x="1281" y="-480.9493" font-family="Times,serif" font-size="10.00" fill="#000000">num_free_self=300</text>
</g>
<!-- 886078_exampleThr/2&#45;&gt;886078_ThreadMain2 -->
<g id="edge9" class="edge">
<title>886078_exampleThr/2&#45;&gt;886078_ThreadMain2</title>
<path fill="none" stroke="#000000" d="M1281,-639.8889C1281,-617.0456 1281,-586.4707 1281,-560.2507"/>
<polygon fill="#000000" stroke="#000000" points="1284.5001,-560.0675 1281,-550.0675 1277.5001,-560.0676 1284.5001,-560.0675"/>
</g>
<!-- 886078_FuncB -->
<g id="node13" class="node">
<title>886078_FuncB</title>
<ellipse fill="#cb181d" stroke="#000000" cx="1281" cy="-357.0193" rx="164.5121" ry="67.7647"/>
<text text-anchor="middle" x="1281" y="-385.0193" font-family="Times,serif" font-size="20.00" fill="#000000">scope=FuncB</text>
<text text-anchor="middle" x="1281" y="-363.0193" font-family="Times,serif" font-size="20.00" fill="#000000">total=self=216kB (90.89%)</text>
<text text-anchor="middle" x="1281" y="-341.0193" font-family="Times,serif" font-size="20.00" fill="#000000">num_malloc_self=3000</text>
<text text-anchor="middle" x="1281" y="-319.0193" font-family="Times,serif" font-size="20.00" fill="#000000">num_free_self=3000</text>
</g>
<!-- 886078_ThreadMain2&#45;&gt;886078_FuncB -->
<g id="edge10" class="edge">
<title>886078_ThreadMain2&#45;&gt;886078_FuncB</title>
<path fill="none" stroke="#000000" d="M1281,-460.5126C1281,-452.4787 1281,-443.8996 1281,-435.2475"/>
<polygon fill="#000000" stroke="#000000" points="1284.5001,-435.0855 1281,-425.0856 1277.5001,-435.0856 1284.5001,-435.0855"/>
</g>
</g>
</svg>
