<?xml version="1.0" encoding="UTF-8" standalone="no"?>
<!DOCTYPE svg PUBLIC "-//W3C//DTD SVG 1.1//EN"
 "http://www.w3.org/Graphics/SVG/1.1/DTD/svg11.dtd">
<!-- Generated by graphviz version 2.40.1 (0)
 -->
<!-- Title: MallocTree_TID3670926 Pages: 1 -->
<svg width="289pt" height="466pt"
 viewBox="0.00 0.00 288.79 466.29" xmlns="http://www.w3.org/2000/svg" xmlns:xlink="http://www.w3.org/1999/xlink">
<g id="page0,1_graph0" class="graph" transform="scale(1 1) rotate(0) translate(4 462.2864)">
<title>MallocTree_TID3670926</title>
<polygon fill="#ffffff" stroke="transparent" points="-4,4 -4,-462.2864 284.7889,-462.2864 284.7889,4 -4,4"/>
<!-- exampleThr/4 -->
<g id="node1" class="node">
<title>exampleThr/4</title>
<polygon fill="#fff5f0" stroke="#000000" points="235.4949,-458.2864 88.4949,-458.2864 88.4949,-375.2864 235.4949,-375.2864 235.4949,-458.2864"/>
<text text-anchor="middle" x="161.9949" y="-443.0864" font-family="Times,serif" font-size="14.00" fill="#000000">thread=exampleThr/4</text>
<text text-anchor="middle" x="161.9949" y="-428.0864" font-family="Times,serif" font-size="14.00" fill="#000000">TID=3670926</text>
<text text-anchor="middle" x="161.9949" y="-413.0864" font-family="Times,serif" font-size="14.00" fill="#000000">total=724kB (100.00%)</text>
<text text-anchor="middle" x="161.9949" y="-398.0864" font-family="Times,serif" font-size="14.00" fill="#000000">self=31B (0.00%)</text>
<text text-anchor="middle" x="161.9949" y="-383.0864" font-family="Times,serif" font-size="14.00" fill="#000000">num_alloc=1</text>
</g>
<!-- TopFunc -->
<g id="node2" class="node">
<title>TopFunc</title>
<ellipse fill="#fff5f0" stroke="#000000" cx="161.9949" cy="-291.2031" rx="98.9899" ry="48.1667"/>
<text text-anchor="middle" x="161.9949" y="-310.0031" font-family="Times,serif" font-size="14.00" fill="#000000">scope=TopFunc</text>
<text text-anchor="middle" x="161.9949" y="-295.0031" font-family="Times,serif" font-size="14.00" fill="#000000">total=724kB (99.99%)</text>
<text text-anchor="middle" x="161.9949" y="-280.0031" font-family="Times,serif" font-size="14.00" fill="#000000">self=5B (0.00%)</text>
<text text-anchor="middle" x="161.9949" y="-265.0031" font-family="Times,serif" font-size="14.00" fill="#000000">num_alloc=1</text>
</g>
<!-- exampleThr/4&#45;&gt;TopFunc -->
<g id="edge1" class="edge">
<title>exampleThr/4&#45;&gt;TopFunc</title>
<path fill="none" stroke="#000000" d="M161.9949,-374.969C161.9949,-366.7635 161.9949,-358.0181 161.9949,-349.3894"/>
<polygon fill="#000000" stroke="#000000" points="165.495,-349.3528 161.9949,-339.3528 158.495,-349.3529 165.495,-349.3528"/>
</g>
<!-- FuncA -->
<g id="node3" class="node">
<title>FuncA</title>
<ellipse fill="#fff5f0" stroke="#000000" cx="98.9949" cy="-159.0366" rx="98.9899" ry="48.1667"/>
<text text-anchor="middle" x="98.9949" y="-177.8366" font-family="Times,serif" font-size="14.00" fill="#000000">scope=FuncA</text>
<text text-anchor="middle" x="98.9949" y="-162.8366" font-family="Times,serif" font-size="14.00" fill="#000000">total=364kB (50.28%)</text>
<text text-anchor="middle" x="98.9949" y="-147.8366" font-family="Times,serif" font-size="14.00" fill="#000000">self=4kB (0.57%)</text>
<text text-anchor="middle" x="98.9949" y="-132.8366" font-family="Times,serif" font-size="14.00" fill="#000000">num_alloc=1</text>
</g>
<!-- TopFunc&#45;&gt;FuncA -->
<g id="edge2" class="edge">
<title>TopFunc&#45;&gt;FuncA</title>
<path fill="none" stroke="#000000" d="M139.6061,-244.234C135.157,-234.9003 130.4426,-225.0101 125.8619,-215.4002"/>
<polygon fill="#000000" stroke="#000000" points="128.9863,-213.8207 121.5239,-206.2997 122.6675,-216.8327 128.9863,-213.8207"/>
</g>
<!-- FuncB -->
<g id="node4" class="node">
<title>FuncB</title>
<ellipse fill="#fb6a4a" stroke="#000000" cx="161.9949" cy="-37.4767" rx="118.5882" ry="37.4533"/>
<text text-anchor="middle" x="161.9949" y="-48.7767" font-family="Times,serif" font-size="14.00" fill="#000000">scope=FuncB</text>
<text text-anchor="middle" x="161.9949" y="-33.7767" font-family="Times,serif" font-size="14.00" fill="#000000">total=self=360kB (49.70%)</text>
<text text-anchor="middle" x="161.9949" y="-18.7767" font-family="Times,serif" font-size="14.00" fill="#000000">num_alloc=5000</text>
</g>
<!-- TopFunc&#45;&gt;FuncB -->
<g id="edge3" class="edge">
<title>TopFunc&#45;&gt;FuncB</title>
<path fill="none" stroke="#000000" d="M191.7575,-245.2828C198.0301,-233.3225 203.7329,-220.1282 206.9949,-207.1198 217.3909,-165.6628 218.5911,-152.0908 206.9949,-110.9533 204.2859,-101.343 199.9302,-91.7488 194.9707,-82.8159"/>
<polygon fill="#000000" stroke="#000000" points="197.9421,-80.9642 189.8486,-74.1271 191.9119,-84.5191 197.9421,-80.9642"/>
</g>
<!-- FuncA&#45;&gt;FuncB -->
<g id="edge4" class="edge">
<title>FuncA&#45;&gt;FuncB</title>
<path fill="none" stroke="#000000" d="M123.1722,-112.386C128.0129,-103.0459 133.0977,-93.2345 137.9344,-83.902"/>
<polygon fill="#000000" stroke="#000000" points="141.1761,-85.2534 142.6701,-74.7644 134.9612,-82.0324 141.1761,-85.2534"/>
</g>
</g>
</svg>
