<?xml version="1.0" encoding="UTF-8" standalone="no"?>
<!DOCTYPE svg PUBLIC "-//W3C//DTD SVG 1.1//EN"
 "http://www.w3.org/Graphics/SVG/1.1/DTD/svg11.dtd">
<!-- Generated by graphviz version 2.40.1 (0)
 -->
<!-- Title: MallocTree_TID3670922 Pages: 1 -->
<svg width="278pt" height="466pt"
 viewBox="0.00 0.00 277.60 466.29" xmlns="http://www.w3.org/2000/svg" xmlns:xlink="http://www.w3.org/1999/xlink">
<g id="page0,1_graph0" class="graph" transform="scale(1 1) rotate(0) translate(4 462.2864)">
<title>MallocTree_TID3670922</title>
<polygon fill="#ffffff" stroke="transparent" points="-4,4 -4,-462.2864 273.5965,-462.2864 273.5965,4 -4,4"/>
<!-- exampleThr/0 -->
<g id="node1" class="node">
<title>exampleThr/0</title>
<polygon fill="#fff5f0" stroke="#000000" points="229.2523,-458.2864 82.2523,-458.2864 82.2523,-375.2864 229.2523,-375.2864 229.2523,-458.2864"/>
<text text-anchor="middle" x="155.7523" y="-443.0864" font-family="Times,serif" font-size="14.00" fill="#000000">thread=exampleThr/0</text>
<text text-anchor="middle" x="155.7523" y="-428.0864" font-family="Times,serif" font-size="14.00" fill="#000000">TID=3670922</text>
<text text-anchor="middle" x="155.7523" y="-413.0864" font-family="Times,serif" font-size="14.00" fill="#000000">total=144kB (100.00%)</text>
<text text-anchor="middle" x="155.7523" y="-398.0864" font-family="Times,serif" font-size="14.00" fill="#000000">self=31B (0.02%)</text>
<text text-anchor="middle" x="155.7523" y="-383.0864" font-family="Times,serif" font-size="14.00" fill="#000000">num_alloc=1</text>
</g>
<!-- TopFunc -->
<g id="node2" class="node">
<title>TopFunc</title>
<ellipse fill="#fff5f0" stroke="#000000" cx="155.7523" cy="-291.2031" rx="98.9899" ry="48.1667"/>
<text text-anchor="middle" x="155.7523" y="-310.0031" font-family="Times,serif" font-size="14.00" fill="#000000">scope=TopFunc</text>
<text text-anchor="middle" x="155.7523" y="-295.0031" font-family="Times,serif" font-size="14.00" fill="#000000">total=144kB (99.97%)</text>
<text text-anchor="middle" x="155.7523" y="-280.0031" font-family="Times,serif" font-size="14.00" fill="#000000">self=5B (0.00%)</text>
<text text-anchor="middle" x="155.7523" y="-265.0031" font-family="Times,serif" font-size="14.00" fill="#000000">num_alloc=1</text>
</g>
<!-- exampleThr/0&#45;&gt;TopFunc -->
<g id="edge1" class="edge">
<title>exampleThr/0&#45;&gt;TopFunc</title>
<path fill="none" stroke="#000000" d="M155.7523,-374.969C155.7523,-366.7635 155.7523,-358.0181 155.7523,-349.3894"/>
<polygon fill="#000000" stroke="#000000" points="159.2524,-349.3528 155.7523,-339.3528 152.2524,-349.3529 159.2524,-349.3528"/>
</g>
<!-- FuncA -->
<g id="node3" class="node">
<title>FuncA</title>
<ellipse fill="#fff5f0" stroke="#000000" cx="94.7523" cy="-159.0366" rx="94.5053" ry="48.1667"/>
<text text-anchor="middle" x="94.7523" y="-177.8366" font-family="Times,serif" font-size="14.00" fill="#000000">scope=FuncA</text>
<text text-anchor="middle" x="94.7523" y="-162.8366" font-family="Times,serif" font-size="14.00" fill="#000000">total=72kB (50.02%)</text>
<text text-anchor="middle" x="94.7523" y="-147.8366" font-family="Times,serif" font-size="14.00" fill="#000000">self=100B (0.06%)</text>
<text text-anchor="middle" x="94.7523" y="-132.8366" font-family="Times,serif" font-size="14.00" fill="#000000">num_alloc=1</text>
</g>
<!-- TopFunc&#45;&gt;FuncA -->
<g id="edge2" class="edge">
<title>TopFunc&#45;&gt;FuncA</title>
<path fill="none" stroke="#000000" d="M134.0742,-244.234C129.7145,-234.7879 125.0916,-224.7717 120.606,-215.0529"/>
<polygon fill="#000000" stroke="#000000" points="123.7291,-213.4673 116.3606,-205.8544 117.3734,-216.4008 123.7291,-213.4673"/>
</g>
<!-- FuncB -->
<g id="node4" class="node">
<title>FuncB</title>
<ellipse fill="#fb6a4a" stroke="#000000" cx="155.7523" cy="-37.4767" rx="113.6886" ry="37.4533"/>
<text text-anchor="middle" x="155.7523" y="-48.7767" font-family="Times,serif" font-size="14.00" fill="#000000">scope=FuncB</text>
<text text-anchor="middle" x="155.7523" y="-33.7767" font-family="Times,serif" font-size="14.00" fill="#000000">total=self=72kB (49.95%)</text>
<text text-anchor="middle" x="155.7523" y="-18.7767" font-family="Times,serif" font-size="14.00" fill="#000000">num_alloc=1000</text>
</g>
<!-- TopFunc&#45;&gt;FuncB -->
<g id="edge3" class="edge">
<title>TopFunc&#45;&gt;FuncB</title>
<path fill="none" stroke="#000000" d="M184.2021,-245.147C190.1956,-233.19 195.6424,-220.0313 198.7523,-207.1198 208.7608,-165.5675 209.9358,-152.2049 198.7523,-110.9533 196.1977,-101.5304 192.0986,-92.0783 187.4221,-83.2395"/>
<polygon fill="#000000" stroke="#000000" points="190.3338,-81.2767 182.3802,-74.2774 184.233,-84.709 190.3338,-81.2767"/>
</g>
<!-- FuncA&#45;&gt;FuncB -->
<g id="edge4" class="edge">
<title>FuncA&#45;&gt;FuncB</title>
<path fill="none" stroke="#000000" d="M118.162,-112.386C122.849,-103.0459 127.7725,-93.2345 132.4556,-83.902"/>
<polygon fill="#000000" stroke="#000000" points="135.684,-85.272 137.0409,-74.7644 129.4276,-82.1324 135.684,-85.272"/>
</g>
</g>
</svg>
