<?xml version="1.0" encoding="UTF-8" standalone="no"?>
<!DOCTYPE svg PUBLIC "-//W3C//DTD SVG 1.1//EN"
 "http://www.w3.org/Graphics/SVG/1.1/DTD/svg11.dtd">
<!-- Generated by graphviz version 2.40.1 (0)
 -->
<!-- Title: MallocTree Pages: 1 -->
<svg width="1760pt" height="466pt"
 viewBox="0.00 0.00 1760.29 466.29" xmlns="http://www.w3.org/2000/svg" xmlns:xlink="http://www.w3.org/1999/xlink">
<g id="graph0" class="graph" transform="scale(1 1) rotate(0) translate(4 462.2864)">
<title>MallocTree</title>
<polygon fill="#ffffff" stroke="transparent" points="-4,4 -4,-462.2864 1756.2939,-462.2864 1756.2939,4 -4,4"/>
<!-- 3674586_multithread -->
<g id="node1" class="node">
<title>3674586_multithread</title>
<polygon fill="#cb181d" stroke="#000000" points="161,-450.7864 0,-450.7864 0,-382.7864 161,-382.7864 161,-450.7864"/>
<text text-anchor="middle" x="80.5" y="-435.5864" font-family="Times,serif" font-size="14.00" fill="#000000">thread=multithread</text>
<text text-anchor="middle" x="80.5" y="-420.5864" font-family="Times,serif" font-size="14.00" fill="#000000">TID=3674586</text>
<text text-anchor="middle" x="80.5" y="-405.5864" font-family="Times,serif" font-size="14.00" fill="#000000">total=self=2kB (100.00%)</text>
<text text-anchor="middle" x="80.5" y="-390.5864" font-family="Times,serif" font-size="14.00" fill="#000000">num_alloc_self=12</text>
</g>
<!-- 3674588_exampleThr/1 -->
<g id="node2" class="node">
<title>3674588_exampleThr/1</title>
<polygon fill="#fff5f0" stroke="#000000" points="326,-458.2864 179,-458.2864 179,-375.2864 326,-375.2864 326,-458.2864"/>
<text text-anchor="middle" x="252.5" y="-443.0864" font-family="Times,serif" font-size="14.00" fill="#000000">thread=exampleThr/1</text>
<text text-anchor="middle" x="252.5" y="-428.0864" font-family="Times,serif" font-size="14.00" fill="#000000">TID=3674588</text>
<text text-anchor="middle" x="252.5" y="-413.0864" font-family="Times,serif" font-size="14.00" fill="#000000">total=289kB (100.00%)</text>
<text text-anchor="middle" x="252.5" y="-398.0864" font-family="Times,serif" font-size="14.00" fill="#000000">self=31B (0.01%)</text>
<text text-anchor="middle" x="252.5" y="-383.0864" font-family="Times,serif" font-size="14.00" fill="#000000">num_alloc_self=1</text>
</g>
<!-- 3674588_TopFunc -->
<g id="node3" class="node">
<title>3674588_TopFunc</title>
<ellipse fill="#fff5f0" stroke="#000000" cx="252.5" cy="-291.2031" rx="98.9899" ry="48.1667"/>
<text text-anchor="middle" x="252.5" y="-310.0031" font-family="Times,serif" font-size="14.00" fill="#000000">scope=TopFunc</text>
<text text-anchor="middle" x="252.5" y="-295.0031" font-family="Times,serif" font-size="14.00" fill="#000000">total=289kB (99.98%)</text>
<text text-anchor="middle" x="252.5" y="-280.0031" font-family="Times,serif" font-size="14.00" fill="#000000">self=5B (0.00%)</text>
<text text-anchor="middle" x="252.5" y="-265.0031" font-family="Times,serif" font-size="14.00" fill="#000000">num_alloc_self=1</text>
</g>
<!-- 3674588_exampleThr/1&#45;&gt;3674588_TopFunc -->
<g id="edge1" class="edge">
<title>3674588_exampleThr/1&#45;&gt;3674588_TopFunc</title>
<path fill="none" stroke="#000000" d="M252.5,-374.969C252.5,-366.7635 252.5,-358.0181 252.5,-349.3894"/>
<polygon fill="#000000" stroke="#000000" points="256.0001,-349.3528 252.5,-339.3528 249.0001,-349.3529 256.0001,-349.3528"/>
</g>
<!-- 3674588_FuncA -->
<g id="node4" class="node">
<title>3674588_FuncA</title>
<ellipse fill="#fff5f0" stroke="#000000" cx="188.5" cy="-159.0366" rx="98.9899" ry="48.1667"/>
<text text-anchor="middle" x="188.5" y="-177.8366" font-family="Times,serif" font-size="14.00" fill="#000000">scope=FuncA</text>
<text text-anchor="middle" x="188.5" y="-162.8366" font-family="Times,serif" font-size="14.00" fill="#000000">total=145kB (50.18%)</text>
<text text-anchor="middle" x="188.5" y="-147.8366" font-family="Times,serif" font-size="14.00" fill="#000000">self=1kB (0.38%)</text>
<text text-anchor="middle" x="188.5" y="-132.8366" font-family="Times,serif" font-size="14.00" fill="#000000">num_alloc_self=1</text>
</g>
<!-- 3674588_TopFunc&#45;&gt;3674588_FuncA -->
<g id="edge2" class="edge">
<title>3674588_TopFunc&#45;&gt;3674588_FuncA</title>
<path fill="none" stroke="#000000" d="M229.7558,-244.234C225.1816,-234.7879 220.3314,-224.7717 215.6252,-215.0529"/>
<polygon fill="#000000" stroke="#000000" points="218.6794,-213.3293 211.171,-205.8544 212.3792,-216.3802 218.6794,-213.3293"/>
</g>
<!-- 3674588_FuncB -->
<g id="node5" class="node">
<title>3674588_FuncB</title>
<ellipse fill="#fb6a4a" stroke="#000000" cx="247.5" cy="-37.4767" rx="118.5882" ry="37.4533"/>
<text text-anchor="middle" x="247.5" y="-48.7767" font-family="Times,serif" font-size="14.00" fill="#000000">scope=FuncB</text>
<text text-anchor="middle" x="247.5" y="-33.7767" font-family="Times,serif" font-size="14.00" fill="#000000">total=self=144kB (49.79%)</text>
<text text-anchor="middle" x="247.5" y="-18.7767" font-family="Times,serif" font-size="14.00" fill="#000000">num_alloc_self=2000</text>
</g>
<!-- 3674588_TopFunc&#45;&gt;3674588_FuncB -->
<g id="edge3" class="edge">
<title>3674588_TopFunc&#45;&gt;3674588_FuncB</title>
<path fill="none" stroke="#000000" d="M281.6063,-245.2143C287.7394,-233.2557 293.3141,-220.0793 296.5,-207.1198 306.7033,-165.6149 308.8886,-151.8592 296.5,-110.9533 293.5026,-101.056 288.6834,-91.2738 283.2105,-82.2329"/>
<polygon fill="#000000" stroke="#000000" points="286.1508,-80.3342 277.8011,-73.8124 280.2613,-84.1177 286.1508,-80.3342"/>
</g>
<!-- 3674588_FuncA&#45;&gt;3674588_FuncB -->
<g id="edge4" class="edge">
<title>3674588_FuncA&#45;&gt;3674588_FuncB</title>
<path fill="none" stroke="#000000" d="M211.3109,-112.0383C215.8345,-102.7183 220.5796,-92.9418 225.0896,-83.6496"/>
<polygon fill="#000000" stroke="#000000" points="228.2867,-85.0782 229.5044,-74.5536 221.9892,-82.0217 228.2867,-85.0782"/>
</g>
<!-- 3674587_exampleThr/0 -->
<g id="node6" class="node">
<title>3674587_exampleThr/0</title>
<polygon fill="#fff5f0" stroke="#000000" points="604,-458.2864 457,-458.2864 457,-375.2864 604,-375.2864 604,-458.2864"/>
<text text-anchor="middle" x="530.5" y="-443.0864" font-family="Times,serif" font-size="14.00" fill="#000000">thread=exampleThr/0</text>
<text text-anchor="middle" x="530.5" y="-428.0864" font-family="Times,serif" font-size="14.00" fill="#000000">TID=3674587</text>
<text text-anchor="middle" x="530.5" y="-413.0864" font-family="Times,serif" font-size="14.00" fill="#000000">total=144kB (100.00%)</text>
<text text-anchor="middle" x="530.5" y="-398.0864" font-family="Times,serif" font-size="14.00" fill="#000000">self=31B (0.02%)</text>
<text text-anchor="middle" x="530.5" y="-383.0864" font-family="Times,serif" font-size="14.00" fill="#000000">num_alloc_self=1</text>
</g>
<!-- 3674587_TopFunc -->
<g id="node7" class="node">
<title>3674587_TopFunc</title>
<ellipse fill="#fff5f0" stroke="#000000" cx="530.5" cy="-291.2031" rx="98.9899" ry="48.1667"/>
<text text-anchor="middle" x="530.5" y="-310.0031" font-family="Times,serif" font-size="14.00" fill="#000000">scope=TopFunc</text>
<text text-anchor="middle" x="530.5" y="-295.0031" font-family="Times,serif" font-size="14.00" fill="#000000">total=144kB (99.97%)</text>
<text text-anchor="middle" x="530.5" y="-280.0031" font-family="Times,serif" font-size="14.00" fill="#000000">self=5B (0.00%)</text>
<text text-anchor="middle" x="530.5" y="-265.0031" font-family="Times,serif" font-size="14.00" fill="#000000">num_alloc_self=1</text>
</g>
<!-- 3674587_exampleThr/0&#45;&gt;3674587_TopFunc -->
<g id="edge5" class="edge">
<title>3674587_exampleThr/0&#45;&gt;3674587_TopFunc</title>
<path fill="none" stroke="#000000" d="M530.5,-374.969C530.5,-366.7635 530.5,-358.0181 530.5,-349.3894"/>
<polygon fill="#000000" stroke="#000000" points="534.0001,-349.3528 530.5,-339.3528 527.0001,-349.3529 534.0001,-349.3528"/>
</g>
<!-- 3674587_FuncA -->
<g id="node8" class="node">
<title>3674587_FuncA</title>
<ellipse fill="#fff5f0" stroke="#000000" cx="468.5" cy="-159.0366" rx="94.5053" ry="48.1667"/>
<text text-anchor="middle" x="468.5" y="-177.8366" font-family="Times,serif" font-size="14.00" fill="#000000">scope=FuncA</text>
<text text-anchor="middle" x="468.5" y="-162.8366" font-family="Times,serif" font-size="14.00" fill="#000000">total=72kB (50.02%)</text>
<text text-anchor="middle" x="468.5" y="-147.8366" font-family="Times,serif" font-size="14.00" fill="#000000">self=100B (0.06%)</text>
<text text-anchor="middle" x="468.5" y="-132.8366" font-family="Times,serif" font-size="14.00" fill="#000000">num_alloc_self=1</text>
</g>
<!-- 3674587_TopFunc&#45;&gt;3674587_FuncA -->
<g id="edge6" class="edge">
<title>3674587_TopFunc&#45;&gt;3674587_FuncA</title>
<path fill="none" stroke="#000000" d="M508.4665,-244.234C504.0353,-234.7879 499.3367,-224.7717 494.7776,-215.0529"/>
<polygon fill="#000000" stroke="#000000" points="497.8782,-213.4213 490.4625,-205.8544 491.5409,-216.3943 497.8782,-213.4213"/>
</g>
<!-- 3674587_FuncB -->
<g id="node9" class="node">
<title>3674587_FuncB</title>
<ellipse fill="#fb6a4a" stroke="#000000" cx="544.5" cy="-37.4767" rx="113.6886" ry="37.4533"/>
<text text-anchor="middle" x="544.5" y="-48.7767" font-family="Times,serif" font-size="14.00" fill="#000000">scope=FuncB</text>
<text text-anchor="middle" x="544.5" y="-33.7767" font-family="Times,serif" font-size="14.00" fill="#000000">total=self=72kB (49.95%)</text>
<text text-anchor="middle" x="544.5" y="-18.7767" font-family="Times,serif" font-size="14.00" fill="#000000">num_alloc_self=1000</text>
</g>
<!-- 3674587_TopFunc&#45;&gt;3674587_FuncB -->
<g id="edge7" class="edge">
<title>3674587_TopFunc&#45;&gt;3674587_FuncB</title>
<path fill="none" stroke="#000000" d="M558.5096,-244.6375C564.278,-232.8011 569.5033,-219.8253 572.5,-207.1198 582.3116,-165.5206 580.2377,-152.9877 572.5,-110.9533 570.8839,-102.1742 568.2666,-93.086 565.2649,-84.4194"/>
<polygon fill="#000000" stroke="#000000" points="568.4829,-83.0293 561.7455,-74.8527 561.9134,-85.4462 568.4829,-83.0293"/>
</g>
<!-- 3674587_FuncA&#45;&gt;3674587_FuncB -->
<g id="edge8" class="edge">
<title>3674587_FuncA&#45;&gt;3674587_FuncB</title>
<path fill="none" stroke="#000000" d="M497.2323,-113.08C503.4095,-103.1998 509.9346,-92.763 516.0991,-82.9031"/>
<polygon fill="#000000" stroke="#000000" points="519.0721,-84.75 521.4057,-74.4153 513.1367,-81.0391 519.0721,-84.75"/>
</g>
<!-- 3674589_exampleThr/2 -->
<g id="node10" class="node">
<title>3674589_exampleThr/2</title>
<polygon fill="#fff5f0" stroke="#000000" points="926,-458.2864 779,-458.2864 779,-375.2864 926,-375.2864 926,-458.2864"/>
<text text-anchor="middle" x="852.5" y="-443.0864" font-family="Times,serif" font-size="14.00" fill="#000000">thread=exampleThr/2</text>
<text text-anchor="middle" x="852.5" y="-428.0864" font-family="Times,serif" font-size="14.00" fill="#000000">TID=3674589</text>
<text text-anchor="middle" x="852.5" y="-413.0864" font-family="Times,serif" font-size="14.00" fill="#000000">total=434kB (100.00%)</text>
<text text-anchor="middle" x="852.5" y="-398.0864" font-family="Times,serif" font-size="14.00" fill="#000000">self=31B (0.00%)</text>
<text text-anchor="middle" x="852.5" y="-383.0864" font-family="Times,serif" font-size="14.00" fill="#000000">num_alloc_self=1</text>
</g>
<!-- 3674589_TopFunc -->
<g id="node11" class="node">
<title>3674589_TopFunc</title>
<ellipse fill="#fff5f0" stroke="#000000" cx="852.5" cy="-291.2031" rx="98.9899" ry="48.1667"/>
<text text-anchor="middle" x="852.5" y="-310.0031" font-family="Times,serif" font-size="14.00" fill="#000000">scope=TopFunc</text>
<text text-anchor="middle" x="852.5" y="-295.0031" font-family="Times,serif" font-size="14.00" fill="#000000">total=434kB (99.99%)</text>
<text text-anchor="middle" x="852.5" y="-280.0031" font-family="Times,serif" font-size="14.00" fill="#000000">self=5B (0.00%)</text>
<text text-anchor="middle" x="852.5" y="-265.0031" font-family="Times,serif" font-size="14.00" fill="#000000">num_alloc_self=1</text>
</g>
<!-- 3674589_exampleThr/2&#45;&gt;3674589_TopFunc -->
<g id="edge9" class="edge">
<title>3674589_exampleThr/2&#45;&gt;3674589_TopFunc</title>
<path fill="none" stroke="#000000" d="M852.5,-374.969C852.5,-366.7635 852.5,-358.0181 852.5,-349.3894"/>
<polygon fill="#000000" stroke="#000000" points="856.0001,-349.3528 852.5,-339.3528 849.0001,-349.3529 856.0001,-349.3528"/>
</g>
<!-- 3674589_FuncA -->
<g id="node12" class="node">
<title>3674589_FuncA</title>
<ellipse fill="#fff5f0" stroke="#000000" cx="733.5" cy="-159.0366" rx="98.9899" ry="48.1667"/>
<text text-anchor="middle" x="733.5" y="-177.8366" font-family="Times,serif" font-size="14.00" fill="#000000">scope=FuncA</text>
<text text-anchor="middle" x="733.5" y="-162.8366" font-family="Times,serif" font-size="14.00" fill="#000000">total=218kB (50.24%)</text>
<text text-anchor="middle" x="733.5" y="-147.8366" font-family="Times,serif" font-size="14.00" fill="#000000">self=2kB (0.49%)</text>
<text text-anchor="middle" x="733.5" y="-132.8366" font-family="Times,serif" font-size="14.00" fill="#000000">num_alloc_self=1</text>
</g>
<!-- 3674589_TopFunc&#45;&gt;3674589_FuncA -->
<g id="edge10" class="edge">
<title>3674589_TopFunc&#45;&gt;3674589_FuncA</title>
<path fill="none" stroke="#000000" d="M812.5437,-246.8259C802.2415,-235.3838 791.0598,-222.965 780.4379,-211.1678"/>
<polygon fill="#000000" stroke="#000000" points="782.8457,-208.6113 773.5534,-203.5216 777.6436,-213.2951 782.8457,-208.6113"/>
</g>
<!-- 3674589_FuncB -->
<g id="node13" class="node">
<title>3674589_FuncB</title>
<ellipse fill="#fb6a4a" stroke="#000000" cx="827.5" cy="-37.4767" rx="118.5882" ry="37.4533"/>
<text text-anchor="middle" x="827.5" y="-48.7767" font-family="Times,serif" font-size="14.00" fill="#000000">scope=FuncB</text>
<text text-anchor="middle" x="827.5" y="-33.7767" font-family="Times,serif" font-size="14.00" fill="#000000">total=self=216kB (49.74%)</text>
<text text-anchor="middle" x="827.5" y="-18.7767" font-family="Times,serif" font-size="14.00" fill="#000000">num_alloc_self=3000</text>
</g>
<!-- 3674589_TopFunc&#45;&gt;3674589_FuncB -->
<g id="edge11" class="edge">
<title>3674589_TopFunc&#45;&gt;3674589_FuncB</title>
<path fill="none" stroke="#000000" d="M851.2195,-242.8503C849.8517,-206.4681 847.0724,-155.4384 841.5,-110.9533 840.4443,-102.5256 839.0142,-93.608 837.4699,-85.001"/>
<polygon fill="#000000" stroke="#000000" points="840.8951,-84.2761 835.6201,-75.0878 834.0139,-85.5602 840.8951,-84.2761"/>
</g>
<!-- 3674589_FuncA&#45;&gt;3674589_FuncB -->
<g id="edge12" class="edge">
<title>3674589_FuncA&#45;&gt;3674589_FuncB</title>
<path fill="none" stroke="#000000" d="M768.5021,-113.7722C776.4925,-103.439 784.9788,-92.4647 792.9501,-82.1562"/>
<polygon fill="#000000" stroke="#000000" points="795.8648,-84.1086 799.2133,-74.0568 790.3272,-79.8265 795.8648,-84.1086"/>
</g>
<!-- 3674590_exampleThr/3 -->
<g id="node14" class="node">
<title>3674590_exampleThr/3</title>
<polygon fill="#fff5f0" stroke="#000000" points="1154,-458.2864 1007,-458.2864 1007,-375.2864 1154,-375.2864 1154,-458.2864"/>
<text text-anchor="middle" x="1080.5" y="-443.0864" font-family="Times,serif" font-size="14.00" fill="#000000">thread=exampleThr/3</text>
<text text-anchor="middle" x="1080.5" y="-428.0864" font-family="Times,serif" font-size="14.00" fill="#000000">TID=3674590</text>
<text text-anchor="middle" x="1080.5" y="-413.0864" font-family="Times,serif" font-size="14.00" fill="#000000">total=579kB (100.00%)</text>
<text text-anchor="middle" x="1080.5" y="-398.0864" font-family="Times,serif" font-size="14.00" fill="#000000">self=31B (0.00%)</text>
<text text-anchor="middle" x="1080.5" y="-383.0864" font-family="Times,serif" font-size="14.00" fill="#000000">num_alloc_self=1</text>
</g>
<!-- 3674590_TopFunc -->
<g id="node15" class="node">
<title>3674590_TopFunc</title>
<ellipse fill="#fff5f0" stroke="#000000" cx="1080.5" cy="-291.2031" rx="98.9899" ry="48.1667"/>
<text text-anchor="middle" x="1080.5" y="-310.0031" font-family="Times,serif" font-size="14.00" fill="#000000">scope=TopFunc</text>
<text text-anchor="middle" x="1080.5" y="-295.0031" font-family="Times,serif" font-size="14.00" fill="#000000">total=579kB (99.99%)</text>
<text text-anchor="middle" x="1080.5" y="-280.0031" font-family="Times,serif" font-size="14.00" fill="#000000">self=5B (0.00%)</text>
<text text-anchor="middle" x="1080.5" y="-265.0031" font-family="Times,serif" font-size="14.00" fill="#000000">num_alloc_self=1</text>
</g>
<!-- 3674590_exampleThr/3&#45;&gt;3674590_TopFunc -->
<g id="edge13" class="edge">
<title>3674590_exampleThr/3&#45;&gt;3674590_TopFunc</title>
<path fill="none" stroke="#000000" d="M1080.5,-374.969C1080.5,-366.7635 1080.5,-358.0181 1080.5,-349.3894"/>
<polygon fill="#000000" stroke="#000000" points="1084.0001,-349.3528 1080.5,-339.3528 1077.0001,-349.3529 1084.0001,-349.3528"/>
</g>
<!-- 3674590_FuncA -->
<g id="node16" class="node">
<title>3674590_FuncA</title>
<ellipse fill="#fff5f0" stroke="#000000" cx="996.5" cy="-159.0366" rx="98.9899" ry="48.1667"/>
<text text-anchor="middle" x="996.5" y="-177.8366" font-family="Times,serif" font-size="14.00" fill="#000000">scope=FuncA</text>
<text text-anchor="middle" x="996.5" y="-162.8366" font-family="Times,serif" font-size="14.00" fill="#000000">total=291kB (50.27%)</text>
<text text-anchor="middle" x="996.5" y="-147.8366" font-family="Times,serif" font-size="14.00" fill="#000000">self=3kB (0.54%)</text>
<text text-anchor="middle" x="996.5" y="-132.8366" font-family="Times,serif" font-size="14.00" fill="#000000">num_alloc_self=1</text>
</g>
<!-- 3674590_TopFunc&#45;&gt;3674590_FuncA -->
<g id="edge14" class="edge">
<title>3674590_TopFunc&#45;&gt;3674590_FuncA</title>
<path fill="none" stroke="#000000" d="M1051.1209,-244.9777C1044.6896,-234.8586 1037.823,-224.0546 1031.2056,-213.6428"/>
<polygon fill="#000000" stroke="#000000" points="1034.0386,-211.575 1025.7207,-205.0127 1028.1308,-215.3298 1034.0386,-211.575"/>
</g>
<!-- 3674590_FuncB -->
<g id="node17" class="node">
<title>3674590_FuncB</title>
<ellipse fill="#fb6a4a" stroke="#000000" cx="1103.5" cy="-37.4767" rx="118.5882" ry="37.4533"/>
<text text-anchor="middle" x="1103.5" y="-48.7767" font-family="Times,serif" font-size="14.00" fill="#000000">scope=FuncB</text>
<text text-anchor="middle" x="1103.5" y="-33.7767" font-family="Times,serif" font-size="14.00" fill="#000000">total=self=288kB (49.72%)</text>
<text text-anchor="middle" x="1103.5" y="-18.7767" font-family="Times,serif" font-size="14.00" fill="#000000">num_alloc_self=4000</text>
</g>
<!-- 3674590_TopFunc&#45;&gt;3674590_FuncB -->
<g id="edge15" class="edge">
<title>3674590_TopFunc&#45;&gt;3674590_FuncB</title>
<path fill="none" stroke="#000000" d="M1096.5473,-243.6761C1099.8423,-231.8689 1102.8171,-219.1473 1104.5,-207.1198 1110.2144,-166.2797 1109.3789,-119.3665 1107.4487,-85.2403"/>
<polygon fill="#000000" stroke="#000000" points="1110.9311,-84.8458 1106.8206,-75.0809 1103.9445,-85.2778 1110.9311,-84.8458"/>
</g>
<!-- 3674590_FuncA&#45;&gt;3674590_FuncB -->
<g id="edge16" class="edge">
<title>3674590_FuncA&#45;&gt;3674590_FuncB</title>
<path fill="none" stroke="#000000" d="M1035.4321,-114.8068C1044.9526,-103.9908 1055.1393,-92.418 1064.6557,-81.6067"/>
<polygon fill="#000000" stroke="#000000" points="1067.4674,-83.7096 1071.4474,-73.8907 1062.213,-79.0845 1067.4674,-83.7096"/>
</g>
<!-- 3674591_exampleThr/4 -->
<g id="node18" class="node">
<title>3674591_exampleThr/4</title>
<polygon fill="#fff5f0" stroke="#000000" points="1376,-458.2864 1229,-458.2864 1229,-375.2864 1376,-375.2864 1376,-458.2864"/>
<text text-anchor="middle" x="1302.5" y="-443.0864" font-family="Times,serif" font-size="14.00" fill="#000000">thread=exampleThr/4</text>
<text text-anchor="middle" x="1302.5" y="-428.0864" font-family="Times,serif" font-size="14.00" fill="#000000">TID=3674591</text>
<text text-anchor="middle" x="1302.5" y="-413.0864" font-family="Times,serif" font-size="14.00" fill="#000000">total=724kB (100.00%)</text>
<text text-anchor="middle" x="1302.5" y="-398.0864" font-family="Times,serif" font-size="14.00" fill="#000000">self=31B (0.00%)</text>
<text text-anchor="middle" x="1302.5" y="-383.0864" font-family="Times,serif" font-size="14.00" fill="#000000">num_alloc_self=1</text>
</g>
<!-- 3674591_TopFunc -->
<g id="node19" class="node">
<title>3674591_TopFunc</title>
<ellipse fill="#fff5f0" stroke="#000000" cx="1302.5" cy="-291.2031" rx="98.9899" ry="48.1667"/>
<text text-anchor="middle" x="1302.5" y="-310.0031" font-family="Times,serif" font-size="14.00" fill="#000000">scope=TopFunc</text>
<text text-anchor="middle" x="1302.5" y="-295.0031" font-family="Times,serif" font-size="14.00" fill="#000000">total=724kB (99.99%)</text>
<text text-anchor="middle" x="1302.5" y="-280.0031" font-family="Times,serif" font-size="14.00" fill="#000000">self=5B (0.00%)</text>
<text text-anchor="middle" x="1302.5" y="-265.0031" font-family="Times,serif" font-size="14.00" fill="#000000">num_alloc_self=1</text>
</g>
<!-- 3674591_exampleThr/4&#45;&gt;3674591_TopFunc -->
<g id="edge17" class="edge">
<title>3674591_exampleThr/4&#45;&gt;3674591_TopFunc</title>
<path fill="none" stroke="#000000" d="M1302.5,-374.969C1302.5,-366.7635 1302.5,-358.0181 1302.5,-349.3894"/>
<polygon fill="#000000" stroke="#000000" points="1306.0001,-349.3528 1302.5,-339.3528 1299.0001,-349.3529 1306.0001,-349.3528"/>
</g>
<!-- 3674591_FuncA -->
<g id="node20" class="node">
<title>3674591_FuncA</title>
<ellipse fill="#fff5f0" stroke="#000000" cx="1255.5" cy="-159.0366" rx="98.9899" ry="48.1667"/>
<text text-anchor="middle" x="1255.5" y="-177.8366" font-family="Times,serif" font-size="14.00" fill="#000000">scope=FuncA</text>
<text text-anchor="middle" x="1255.5" y="-162.8366" font-family="Times,serif" font-size="14.00" fill="#000000">total=364kB (50.28%)</text>
<text text-anchor="middle" x="1255.5" y="-147.8366" font-family="Times,serif" font-size="14.00" fill="#000000">self=4kB (0.57%)</text>
<text text-anchor="middle" x="1255.5" y="-132.8366" font-family="Times,serif" font-size="14.00" fill="#000000">num_alloc_self=1</text>
</g>
<!-- 3674591_TopFunc&#45;&gt;3674591_FuncA -->
<g id="edge18" class="edge">
<title>3674591_TopFunc&#45;&gt;3674591_FuncA</title>
<path fill="none" stroke="#000000" d="M1285.5319,-243.488C1282.4037,-234.6914 1279.1078,-225.4231 1275.891,-216.3772"/>
<polygon fill="#000000" stroke="#000000" points="1279.0915,-214.931 1272.4432,-206.6817 1272.4961,-217.2764 1279.0915,-214.931"/>
</g>
<!-- 3674591_FuncB -->
<g id="node21" class="node">
<title>3674591_FuncB</title>
<ellipse fill="#fb6a4a" stroke="#000000" cx="1370.5" cy="-37.4767" rx="118.5882" ry="37.4533"/>
<text text-anchor="middle" x="1370.5" y="-48.7767" font-family="Times,serif" font-size="14.00" fill="#000000">scope=FuncB</text>
<text text-anchor="middle" x="1370.5" y="-33.7767" font-family="Times,serif" font-size="14.00" fill="#000000">total=self=360kB (49.70%)</text>
<text text-anchor="middle" x="1370.5" y="-18.7767" font-family="Times,serif" font-size="14.00" fill="#000000">num_alloc_self=5000</text>
</g>
<!-- 3674591_TopFunc&#45;&gt;3674591_FuncB -->
<g id="edge19" class="edge">
<title>3674591_TopFunc&#45;&gt;3674591_FuncB</title>
<path fill="none" stroke="#000000" d="M1342.0063,-246.8342C1350.643,-234.7361 1358.646,-221.089 1363.5,-207.1198 1377.1783,-167.7555 1377.8839,-120.1317 1375.7734,-85.3761"/>
<polygon fill="#000000" stroke="#000000" points="1379.2382,-84.7537 1375.0393,-75.0264 1372.2557,-85.2491 1379.2382,-84.7537"/>
</g>
<!-- 3674591_FuncA&#45;&gt;3674591_FuncB -->
<g id="edge20" class="edge">
<title>3674591_FuncA&#45;&gt;3674591_FuncB</title>
<path fill="none" stroke="#000000" d="M1297.0176,-115.1507C1307.4723,-104.0996 1318.6928,-92.2391 1329.1398,-81.1962"/>
<polygon fill="#000000" stroke="#000000" points="1331.9,-83.3714 1336.2298,-73.7017 1326.8149,-78.5608 1331.9,-83.3714"/>
</g>
<!-- 3674592_exampleThr/5 -->
<g id="node22" class="node">
<title>3674592_exampleThr/5</title>
<polygon fill="#fff5f0" stroke="#000000" points="1595,-458.2864 1448,-458.2864 1448,-375.2864 1595,-375.2864 1595,-458.2864"/>
<text text-anchor="middle" x="1521.5" y="-443.0864" font-family="Times,serif" font-size="14.00" fill="#000000">thread=exampleThr/5</text>
<text text-anchor="middle" x="1521.5" y="-428.0864" font-family="Times,serif" font-size="14.00" fill="#000000">TID=3674592</text>
<text text-anchor="middle" x="1521.5" y="-413.0864" font-family="Times,serif" font-size="14.00" fill="#000000">total=869kB (100.00%)</text>
<text text-anchor="middle" x="1521.5" y="-398.0864" font-family="Times,serif" font-size="14.00" fill="#000000">self=31B (0.00%)</text>
<text text-anchor="middle" x="1521.5" y="-383.0864" font-family="Times,serif" font-size="14.00" fill="#000000">num_alloc_self=1</text>
</g>
<!-- 3674592_TopFunc -->
<g id="node23" class="node">
<title>3674592_TopFunc</title>
<ellipse fill="#fff5f0" stroke="#000000" cx="1521.5" cy="-291.2031" rx="98.9899" ry="48.1667"/>
<text text-anchor="middle" x="1521.5" y="-310.0031" font-family="Times,serif" font-size="14.00" fill="#000000">scope=TopFunc</text>
<text text-anchor="middle" x="1521.5" y="-295.0031" font-family="Times,serif" font-size="14.00" fill="#000000">total=869kB (99.99%)</text>
<text text-anchor="middle" x="1521.5" y="-280.0031" font-family="Times,serif" font-size="14.00" fill="#000000">self=5B (0.00%)</text>
<text text-anchor="middle" x="1521.5" y="-265.0031" font-family="Times,serif" font-size="14.00" fill="#000000">num_alloc_self=1</text>
</g>
<!-- 3674592_exampleThr/5&#45;&gt;3674592_TopFunc -->
<g id="edge21" class="edge">
<title>3674592_exampleThr/5&#45;&gt;3674592_TopFunc</title>
<path fill="none" stroke="#000000" d="M1521.5,-374.969C1521.5,-366.7635 1521.5,-358.0181 1521.5,-349.3894"/>
<polygon fill="#000000" stroke="#000000" points="1525.0001,-349.3528 1521.5,-339.3528 1518.0001,-349.3529 1525.0001,-349.3528"/>
</g>
<!-- 3674592_FuncA -->
<g id="node24" class="node">
<title>3674592_FuncA</title>
<ellipse fill="#fff5f0" stroke="#000000" cx="1513.5" cy="-159.0366" rx="98.9899" ry="48.1667"/>
<text text-anchor="middle" x="1513.5" y="-177.8366" font-family="Times,serif" font-size="14.00" fill="#000000">scope=FuncA</text>
<text text-anchor="middle" x="1513.5" y="-162.8366" font-family="Times,serif" font-size="14.00" fill="#000000">total=437kB (50.29%)</text>
<text text-anchor="middle" x="1513.5" y="-147.8366" font-family="Times,serif" font-size="14.00" fill="#000000">self=5kB (0.60%)</text>
<text text-anchor="middle" x="1513.5" y="-132.8366" font-family="Times,serif" font-size="14.00" fill="#000000">num_alloc_self=1</text>
</g>
<!-- 3674592_TopFunc&#45;&gt;3674592_FuncA -->
<g id="edge22" class="edge">
<title>3674592_TopFunc&#45;&gt;3674592_FuncA</title>
<path fill="none" stroke="#000000" d="M1518.5892,-243.1141C1518.0818,-234.7323 1517.5492,-225.9324 1517.0274,-217.3122"/>
<polygon fill="#000000" stroke="#000000" points="1520.5199,-217.0815 1516.4221,-207.3113 1513.5327,-217.5045 1520.5199,-217.0815"/>
</g>
<!-- 3674592_FuncB -->
<g id="node25" class="node">
<title>3674592_FuncB</title>
<ellipse fill="#fb6a4a" stroke="#000000" cx="1633.5" cy="-37.4767" rx="118.5882" ry="37.4533"/>
<text text-anchor="middle" x="1633.5" y="-48.7767" font-family="Times,serif" font-size="14.00" fill="#000000">scope=FuncB</text>
<text text-anchor="middle" x="1633.5" y="-33.7767" font-family="Times,serif" font-size="14.00" fill="#000000">total=self=432kB (49.69%)</text>
<text text-anchor="middle" x="1633.5" y="-18.7767" font-family="Times,serif" font-size="14.00" fill="#000000">num_alloc_self=6000</text>
</g>
<!-- 3674592_TopFunc&#45;&gt;3674592_FuncB -->
<g id="edge23" class="edge">
<title>3674592_TopFunc&#45;&gt;3674592_FuncB</title>
<path fill="none" stroke="#000000" d="M1582.469,-253.0755C1597.7922,-240.3997 1612.4399,-224.906 1621.5,-207.1198 1640.7111,-169.4062 1642.17,-120.7364 1639.7339,-85.2057"/>
<polygon fill="#000000" stroke="#000000" points="1643.2105,-84.7747 1638.912,-75.091 1636.2335,-85.3417 1643.2105,-84.7747"/>
</g>
<!-- 3674592_FuncA&#45;&gt;3674592_FuncB -->
<g id="edge24" class="edge">
<title>3674592_FuncA&#45;&gt;3674592_FuncB</title>
<path fill="none" stroke="#000000" d="M1556.4838,-115.494C1567.6276,-104.2054 1579.6251,-92.0519 1590.7565,-80.7758"/>
<polygon fill="#000000" stroke="#000000" points="1593.3942,-83.0859 1597.9287,-73.5104 1588.4126,-78.1682 1593.3942,-83.0859"/>
</g>
</g>
</svg>
