<?xml version="1.0" encoding="UTF-8" standalone="no"?>
<!DOCTYPE svg PUBLIC "-//W3C//DTD SVG 1.1//EN"
 "http://www.w3.org/Graphics/SVG/1.1/DTD/svg11.dtd">
<!-- Generated by graphviz version 2.40.1 (0)
 -->
<!-- Title: MallocTree Pages: 1 -->
<svg width="1470pt" height="768pt"
 viewBox="0.00 0.00 1470.00 768.00" xmlns="http://www.w3.org/2000/svg" xmlns:xlink="http://www.w3.org/1999/xlink">
<g id="graph0" class="graph" transform="scale(1 1) rotate(0) translate(4 763.997)">
<title>MallocTree</title>
<polygon fill="#ffffff" stroke="transparent" points="-4,4 -4,-763.997 1466,-763.997 1466,4 -4,4"/>
<text text-anchor="middle" x="731" y="-52.8" font-family="Times,serif" font-size="14.00" fill="#000000">Memory allocated before MallocTag initialization = 72kB</text>
<text text-anchor="middle" x="731" y="-37.8" font-family="Times,serif" font-size="14.00" fill="#000000">Memory allocated by MallocTag itself =307kB</text>
<text text-anchor="middle" x="731" y="-22.8" font-family="Times,serif" font-size="14.00" fill="#000000">Total memory tracked by MallocTag across all threads =831kB</text>
<text text-anchor="middle" x="731" y="-7.8" font-family="Times,serif" font-size="14.00" fill="#000000">Start time of memory profiling: Aug 02 1970 (Sun) @ 04:44:53</text>
<g id="clust1" class="cluster">
<title>cluster_TID839581</title>
<polygon fill="none" stroke="#000000" points="8,-557.997 8,-751.997 248,-751.997 248,-557.997 8,-557.997"/>
<text text-anchor="middle" x="128" y="-580.797" font-family="Times,serif" font-size="14.00" fill="#000000">nPushNodeFailures=0</text>
<text text-anchor="middle" x="128" y="-565.797" font-family="Times,serif" font-size="14.00" fill="#000000">nTreeNodesInUse/Max=1/256</text>
</g>
<g id="clust2" class="cluster">
<title>cluster_TID839583</title>
<polygon fill="none" stroke="#000000" points="256,-76 256,-715.997 546,-715.997 546,-76 256,-76"/>
<text text-anchor="middle" x="401" y="-98.8" font-family="Times,serif" font-size="14.00" fill="#000000">nPushNodeFailures=0</text>
<text text-anchor="middle" x="401" y="-83.8" font-family="Times,serif" font-size="14.00" fill="#000000">nTreeNodesInUse/Max=5/256</text>
</g>
<g id="clust3" class="cluster">
<title>cluster_TID839582</title>
<polygon fill="none" stroke="#000000" points="554,-76 554,-715.997 832,-715.997 832,-76 554,-76"/>
<text text-anchor="middle" x="693" y="-98.8" font-family="Times,serif" font-size="14.00" fill="#000000">nPushNodeFailures=0</text>
<text text-anchor="middle" x="693" y="-83.8" font-family="Times,serif" font-size="14.00" fill="#000000">nTreeNodesInUse/Max=5/256</text>
</g>
<g id="clust4" class="cluster">
<title>cluster_TID839584</title>
<polygon fill="none" stroke="#000000" points="840,-568.997 840,-740.997 1100,-740.997 1100,-568.997 840,-568.997"/>
<text text-anchor="middle" x="970" y="-591.797" font-family="Times,serif" font-size="14.00" fill="#000000">nPushNodeFailures=0</text>
<text text-anchor="middle" x="970" y="-576.797" font-family="Times,serif" font-size="14.00" fill="#000000">nTreeNodesInUse/Max=1/256</text>
</g>
<g id="clust5" class="cluster">
<title>cluster_TID839585</title>
<polygon fill="none" stroke="#000000" points="1108,-243.1371 1108,-715.997 1454,-715.997 1454,-243.1371 1108,-243.1371"/>
<text text-anchor="middle" x="1281" y="-265.9371" font-family="Times,serif" font-size="14.00" fill="#000000">nPushNodeFailures=0</text>
<text text-anchor="middle" x="1281" y="-250.9371" font-family="Times,serif" font-size="14.00" fill="#000000">nTreeNodesInUse/Max=3/256</text>
</g>
<!-- 839581_multithread -->
<g id="node1" class="node">
<title>839581_multithread</title>
<polygon fill="#cb181d" stroke="#000000" points="240,-743.997 16,-743.997 16,-603.997 240,-603.997 240,-743.997"/>
<text text-anchor="middle" x="128" y="-723.997" font-family="Times,serif" font-size="20.00" fill="#000000">thread=multithread</text>
<text text-anchor="middle" x="128" y="-701.997" font-family="Times,serif" font-size="20.00" fill="#000000">TID=839581</text>
<text text-anchor="middle" x="128" y="-679.997" font-family="Times,serif" font-size="20.00" fill="#000000">total=self=3kB (100.00%)</text>
<text text-anchor="middle" x="128" y="-657.997" font-family="Times,serif" font-size="20.00" fill="#000000">num_malloc_self=10</text>
<text text-anchor="middle" x="128" y="-635.997" font-family="Times,serif" font-size="20.00" fill="#000000">num_calloc_self=3</text>
<text text-anchor="middle" x="128" y="-613.997" font-family="Times,serif" font-size="20.00" fill="#000000">num_free_self=21</text>
</g>
<!-- 839583_exampleThr/1 -->
<g id="node2" class="node">
<title>839583_exampleThr/1</title>
<polygon fill="#fff5f0" stroke="#000000" points="461.5,-707.997 360.5,-707.997 360.5,-639.997 461.5,-639.997 461.5,-707.997"/>
<text text-anchor="middle" x="411" y="-696.797" font-family="Times,serif" font-size="9.00" fill="#000000">thread=exampleThr/1</text>
<text text-anchor="middle" x="411" y="-686.797" font-family="Times,serif" font-size="9.00" fill="#000000">TID=839583</text>
<text text-anchor="middle" x="411" y="-676.797" font-family="Times,serif" font-size="9.00" fill="#000000">total=289kB (100.00%)</text>
<text text-anchor="middle" x="411" y="-666.797" font-family="Times,serif" font-size="9.00" fill="#000000">self=31B (0.01%)</text>
<text text-anchor="middle" x="411" y="-656.797" font-family="Times,serif" font-size="9.00" fill="#000000">num_malloc_self=1</text>
<text text-anchor="middle" x="411" y="-646.797" font-family="Times,serif" font-size="9.00" fill="#000000">num_free_self=3</text>
</g>
<!-- 839583_ThreadMain -->
<g id="node3" class="node">
<title>839583_ThreadMain</title>
<ellipse fill="#fff5f0" stroke="#000000" cx="411" cy="-505.4493" rx="68.6788" ry="33.8824"/>
<text text-anchor="middle" x="411" y="-518.2493" font-family="Times,serif" font-size="9.00" fill="#000000">scope=ThreadMain</text>
<text text-anchor="middle" x="411" y="-508.2493" font-family="Times,serif" font-size="9.00" fill="#000000">total=289kB (99.98%)</text>
<text text-anchor="middle" x="411" y="-498.2493" font-family="Times,serif" font-size="9.00" fill="#000000">self=5B (0.00%)</text>
<text text-anchor="middle" x="411" y="-488.2493" font-family="Times,serif" font-size="9.00" fill="#000000">num_malloc_self=1</text>
</g>
<!-- 839583_exampleThr/1&#45;&gt;839583_ThreadMain -->
<g id="edge1" class="edge">
<title>839583_exampleThr/1&#45;&gt;839583_ThreadMain</title>
<path fill="none" stroke="#000000" d="M411,-639.8889C411,-613.845 411,-577.7511 411,-549.5191"/>
<polygon fill="#000000" stroke="#000000" points="414.5001,-549.5067 411,-539.5067 407.5001,-549.5068 414.5001,-549.5067"/>
</g>
<!-- 839583_FuncA -->
<g id="node4" class="node">
<title>839583_FuncA</title>
<ellipse fill="#fff5f0" stroke="#000000" cx="367" cy="-357.0193" rx="68.6788" ry="33.8824"/>
<text text-anchor="middle" x="367" y="-369.8193" font-family="Times,serif" font-size="9.00" fill="#000000">scope=FuncA</text>
<text text-anchor="middle" x="367" y="-359.8193" font-family="Times,serif" font-size="9.00" fill="#000000">total=145kB (50.18%)</text>
<text text-anchor="middle" x="367" y="-349.8193" font-family="Times,serif" font-size="9.00" fill="#000000">self=1kB (0.38%)</text>
<text text-anchor="middle" x="367" y="-339.8193" font-family="Times,serif" font-size="9.00" fill="#000000">num_malloc_self=1</text>
</g>
<!-- 839583_ThreadMain&#45;&gt;839583_FuncA -->
<g id="edge2" class="edge">
<title>839583_ThreadMain&#45;&gt;839583_FuncA</title>
<path fill="none" stroke="#000000" d="M401.0157,-471.7683C394.7652,-450.6826 386.648,-423.2999 379.9107,-400.5723"/>
<polygon fill="#000000" stroke="#000000" points="383.2187,-399.4165 377.0208,-390.8237 376.5073,-401.4061 383.2187,-399.4165"/>
</g>
<!-- 839583_FuncB -->
<g id="node5" class="node">
<title>839583_FuncB</title>
<ellipse fill="#fb6a4a" stroke="#000000" cx="401" cy="-178.5685" rx="137.3577" ry="56.6372"/>
<text text-anchor="middle" x="401" y="-201.7685" font-family="Times,serif" font-size="16.00" fill="#000000">scope=FuncB</text>
<text text-anchor="middle" x="401" y="-183.7685" font-family="Times,serif" font-size="16.00" fill="#000000">total=self=144kB (49.79%)</text>
<text text-anchor="middle" x="401" y="-165.7685" font-family="Times,serif" font-size="16.00" fill="#000000">num_malloc_self=2000</text>
<text text-anchor="middle" x="401" y="-147.7685" font-family="Times,serif" font-size="16.00" fill="#000000">num_free_self=2000</text>
</g>
<!-- 839583_ThreadMain&#45;&gt;839583_FuncB -->
<g id="edge3" class="edge">
<title>839583_ThreadMain&#45;&gt;839583_FuncB</title>
<path fill="none" stroke="#000000" d="M428.5106,-472.3146C435.0667,-458.1271 441.7177,-441.1176 445,-424.9016 461.0264,-345.723 468.8026,-320.3351 445,-243.1371 444.8988,-242.809 444.7954,-242.481 444.6896,-242.1533"/>
<polygon fill="#000000" stroke="#000000" points="447.9171,-240.7952 441.0443,-232.7319 441.3887,-243.3212 447.9171,-240.7952"/>
</g>
<!-- 839583_FuncA&#45;&gt;839583_FuncB -->
<g id="edge4" class="edge">
<title>839583_FuncA&#45;&gt;839583_FuncB</title>
<path fill="none" stroke="#000000" d="M373.4752,-323.0341C377.6609,-301.0651 383.25,-271.7301 388.2981,-245.2353"/>
<polygon fill="#000000" stroke="#000000" points="391.7687,-245.7196 390.2022,-235.2412 384.8924,-244.4094 391.7687,-245.7196"/>
</g>
<!-- 839582_exampleThr/0 -->
<g id="node6" class="node">
<title>839582_exampleThr/0</title>
<polygon fill="#fff5f0" stroke="#000000" points="721.5,-707.997 620.5,-707.997 620.5,-639.997 721.5,-639.997 721.5,-707.997"/>
<text text-anchor="middle" x="671" y="-696.797" font-family="Times,serif" font-size="9.00" fill="#000000">thread=exampleThr/0</text>
<text text-anchor="middle" x="671" y="-686.797" font-family="Times,serif" font-size="9.00" fill="#000000">TID=839582</text>
<text text-anchor="middle" x="671" y="-676.797" font-family="Times,serif" font-size="9.00" fill="#000000">total=144kB (100.00%)</text>
<text text-anchor="middle" x="671" y="-666.797" font-family="Times,serif" font-size="9.00" fill="#000000">self=31B (0.02%)</text>
<text text-anchor="middle" x="671" y="-656.797" font-family="Times,serif" font-size="9.00" fill="#000000">num_malloc_self=1</text>
<text text-anchor="middle" x="671" y="-646.797" font-family="Times,serif" font-size="9.00" fill="#000000">num_free_self=3</text>
</g>
<!-- 839582_ThreadMain -->
<g id="node7" class="node">
<title>839582_ThreadMain</title>
<ellipse fill="#fff5f0" stroke="#000000" cx="671" cy="-505.4493" rx="68.6788" ry="33.8824"/>
<text text-anchor="middle" x="671" y="-518.2493" font-family="Times,serif" font-size="9.00" fill="#000000">scope=ThreadMain</text>
<text text-anchor="middle" x="671" y="-508.2493" font-family="Times,serif" font-size="9.00" fill="#000000">total=144kB (99.97%)</text>
<text text-anchor="middle" x="671" y="-498.2493" font-family="Times,serif" font-size="9.00" fill="#000000">self=5B (0.00%)</text>
<text text-anchor="middle" x="671" y="-488.2493" font-family="Times,serif" font-size="9.00" fill="#000000">num_malloc_self=1</text>
</g>
<!-- 839582_exampleThr/0&#45;&gt;839582_ThreadMain -->
<g id="edge5" class="edge">
<title>839582_exampleThr/0&#45;&gt;839582_ThreadMain</title>
<path fill="none" stroke="#000000" d="M671,-639.8889C671,-613.845 671,-577.7511 671,-549.5191"/>
<polygon fill="#000000" stroke="#000000" points="674.5001,-549.5067 671,-539.5067 667.5001,-549.5068 674.5001,-549.5067"/>
</g>
<!-- 839582_FuncA -->
<g id="node8" class="node">
<title>839582_FuncA</title>
<ellipse fill="#fff5f0" stroke="#000000" cx="649" cy="-357.0193" rx="65.1077" ry="33.8824"/>
<text text-anchor="middle" x="649" y="-369.8193" font-family="Times,serif" font-size="9.00" fill="#000000">scope=FuncA</text>
<text text-anchor="middle" x="649" y="-359.8193" font-family="Times,serif" font-size="9.00" fill="#000000">total=72kB (50.02%)</text>
<text text-anchor="middle" x="649" y="-349.8193" font-family="Times,serif" font-size="9.00" fill="#000000">self=100B (0.06%)</text>
<text text-anchor="middle" x="649" y="-339.8193" font-family="Times,serif" font-size="9.00" fill="#000000">num_malloc_self=1</text>
</g>
<!-- 839582_ThreadMain&#45;&gt;839582_FuncA -->
<g id="edge6" class="edge">
<title>839582_ThreadMain&#45;&gt;839582_FuncA</title>
<path fill="none" stroke="#000000" d="M665.9528,-471.3965C662.8505,-450.4659 658.8442,-423.4366 655.5053,-400.9092"/>
<polygon fill="#000000" stroke="#000000" points="658.9522,-400.2925 654.0238,-390.9137 652.0278,-401.3188 658.9522,-400.2925"/>
</g>
<!-- 839582_FuncB -->
<g id="node9" class="node">
<title>839582_FuncB</title>
<ellipse fill="#fb6a4a" stroke="#000000" cx="693" cy="-178.5685" rx="130.6298" ry="56.6372"/>
<text text-anchor="middle" x="693" y="-201.7685" font-family="Times,serif" font-size="16.00" fill="#000000">scope=FuncB</text>
<text text-anchor="middle" x="693" y="-183.7685" font-family="Times,serif" font-size="16.00" fill="#000000">total=self=72kB (49.95%)</text>
<text text-anchor="middle" x="693" y="-165.7685" font-family="Times,serif" font-size="16.00" fill="#000000">num_malloc_self=1000</text>
<text text-anchor="middle" x="693" y="-147.7685" font-family="Times,serif" font-size="16.00" fill="#000000">num_free_self=1000</text>
</g>
<!-- 839582_ThreadMain&#45;&gt;839582_FuncB -->
<g id="edge7" class="edge">
<title>839582_ThreadMain&#45;&gt;839582_FuncB</title>
<path fill="none" stroke="#000000" d="M697.3972,-473.873C707.4948,-459.8053 717.8235,-442.464 723,-424.9016 744.9473,-350.4401 740.8098,-324.0819 722.8295,-244.0699"/>
<polygon fill="#000000" stroke="#000000" points="726.1819,-243.0254 720.5689,-234.0395 719.3532,-244.5644 726.1819,-243.0254"/>
</g>
<!-- 839582_FuncA&#45;&gt;839582_FuncB -->
<g id="edge8" class="edge">
<title>839582_FuncA&#45;&gt;839582_FuncB</title>
<path fill="none" stroke="#000000" d="M657.3796,-323.0341C662.8185,-300.9754 670.0885,-271.4905 676.6422,-244.911"/>
<polygon fill="#000000" stroke="#000000" points="680.1177,-245.4351 679.1135,-234.8879 673.3212,-243.7592 680.1177,-245.4351"/>
</g>
<!-- 839584_NonInstrumented -->
<g id="node10" class="node">
<title>839584_NonInstrumented</title>
<polygon fill="#cb181d" stroke="#000000" points="1091.5,-732.997 848.5,-732.997 848.5,-614.997 1091.5,-614.997 1091.5,-732.997"/>
<text text-anchor="middle" x="970" y="-712.997" font-family="Times,serif" font-size="20.00" fill="#000000">thread=NonInstrumented</text>
<text text-anchor="middle" x="970" y="-690.997" font-family="Times,serif" font-size="20.00" fill="#000000">TID=839584</text>
<text text-anchor="middle" x="970" y="-668.997" font-family="Times,serif" font-size="20.00" fill="#000000">total=self=156kB (100.00%)</text>
<text text-anchor="middle" x="970" y="-646.997" font-family="Times,serif" font-size="20.00" fill="#000000">num_malloc_self=1101</text>
<text text-anchor="middle" x="970" y="-624.997" font-family="Times,serif" font-size="20.00" fill="#000000">num_free_self=1103</text>
</g>
<!-- 839585_exampleThr/2 -->
<g id="node11" class="node">
<title>839585_exampleThr/2</title>
<polygon fill="#fff5f0" stroke="#000000" points="1331.5,-707.997 1230.5,-707.997 1230.5,-639.997 1331.5,-639.997 1331.5,-707.997"/>
<text text-anchor="middle" x="1281" y="-696.797" font-family="Times,serif" font-size="9.00" fill="#000000">thread=exampleThr/2</text>
<text text-anchor="middle" x="1281" y="-686.797" font-family="Times,serif" font-size="9.00" fill="#000000">TID=839585</text>
<text text-anchor="middle" x="1281" y="-676.797" font-family="Times,serif" font-size="9.00" fill="#000000">total=237kB (100.00%)</text>
<text text-anchor="middle" x="1281" y="-666.797" font-family="Times,serif" font-size="9.00" fill="#000000">self=31B (0.01%)</text>
<text text-anchor="middle" x="1281" y="-656.797" font-family="Times,serif" font-size="9.00" fill="#000000">num_malloc_self=1</text>
<text text-anchor="middle" x="1281" y="-646.797" font-family="Times,serif" font-size="9.00" fill="#000000">num_free_self=3</text>
</g>
<!-- 839585_ThreadMain2 -->
<g id="node12" class="node">
<title>839585_ThreadMain2</title>
<ellipse fill="#fee0d2" stroke="#000000" cx="1281" cy="-505.4493" rx="77.1494" ry="44.5955"/>
<text text-anchor="middle" x="1281" y="-524.9493" font-family="Times,serif" font-size="10.00" fill="#000000">scope=ThreadMain2</text>
<text text-anchor="middle" x="1281" y="-513.9493" font-family="Times,serif" font-size="10.00" fill="#000000">total=237kB (99.98%)</text>
<text text-anchor="middle" x="1281" y="-502.9493" font-family="Times,serif" font-size="10.00" fill="#000000">self=21kB (9.08%)</text>
<text text-anchor="middle" x="1281" y="-491.9493" font-family="Times,serif" font-size="10.00" fill="#000000">num_malloc_self=300</text>
<text text-anchor="middle" x="1281" y="-480.9493" font-family="Times,serif" font-size="10.00" fill="#000000">num_free_self=300</text>
</g>
<!-- 839585_exampleThr/2&#45;&gt;839585_ThreadMain2 -->
<g id="edge9" class="edge">
<title>839585_exampleThr/2&#45;&gt;839585_ThreadMain2</title>
<path fill="none" stroke="#000000" d="M1281,-639.8889C1281,-617.0456 1281,-586.4707 1281,-560.2507"/>
<polygon fill="#000000" stroke="#000000" points="1284.5001,-560.0675 1281,-550.0675 1277.5001,-560.0676 1284.5001,-560.0675"/>
</g>
<!-- 839585_FuncB -->
<g id="node13" class="node">
<title>839585_FuncB</title>
<ellipse fill="#cb181d" stroke="#000000" cx="1281" cy="-357.0193" rx="164.5121" ry="67.7647"/>
<text text-anchor="middle" x="1281" y="-385.0193" font-family="Times,serif" font-size="20.00" fill="#000000">scope=FuncB</text>
<text text-anchor="middle" x="1281" y="-363.0193" font-family="Times,serif" font-size="20.00" fill="#000000">total=self=216kB (90.89%)</text>
<text text-anchor="middle" x="1281" y="-341.0193" font-family="Times,serif" font-size="20.00" fill="#000000">num_malloc_self=3000</text>
<text text-anchor="middle" x="1281" y="-319.0193" font-family="Times,serif" font-size="20.00" fill="#000000">num_free_self=3000</text>
</g>
<!-- 839585_ThreadMain2&#45;&gt;839585_FuncB -->
<g id="edge10" class="edge">
<title>839585_ThreadMain2&#45;&gt;839585_FuncB</title>
<path fill="none" stroke="#000000" d="M1281,-460.5126C1281,-452.4787 1281,-443.8996 1281,-435.2475"/>
<polygon fill="#000000" stroke="#000000" points="1284.5001,-435.0855 1281,-425.0856 1277.5001,-435.0856 1284.5001,-435.0855"/>
</g>
</g>
</svg>
