<?xml version="1.0" encoding="UTF-8" standalone="no"?>
<!DOCTYPE svg PUBLIC "-//W3C//DTD SVG 1.1//EN"
 "http://www.w3.org/Graphics/SVG/1.1/DTD/svg11.dtd">
<!-- Generated by graphviz version 2.40.1 (0)
 -->
<!-- Title: MallocTree Pages: 1 -->
<svg width="1470pt" height="738pt"
 viewBox="0.00 0.00 1470.00 738.00" xmlns="http://www.w3.org/2000/svg" xmlns:xlink="http://www.w3.org/1999/xlink">
<g id="graph0" class="graph" transform="scale(1 1) rotate(0) translate(4 733.997)">
<title>MallocTree</title>
<polygon fill="#ffffff" stroke="transparent" points="-4,4 -4,-733.997 1466,-733.997 1466,4 -4,4"/>
<text text-anchor="middle" x="731" y="-22.8" font-family="Times,serif" font-size="14.00" fill="#000000">Memory allocated before MallocTag initialization = 72kB</text>
<text text-anchor="middle" x="731" y="-7.8" font-family="Times,serif" font-size="14.00" fill="#000000">Memory allocated by MallocTag itself =307kB</text>
<g id="clust1" class="cluster">
<title>cluster_TID3789887</title>
<polygon fill="none" stroke="#000000" points="8,-527.997 8,-721.997 248,-721.997 248,-527.997 8,-527.997"/>
<text text-anchor="middle" x="128" y="-550.797" font-family="Times,serif" font-size="14.00" fill="#000000">nPushNodeFailures=0</text>
<text text-anchor="middle" x="128" y="-535.797" font-family="Times,serif" font-size="14.00" fill="#000000">nTreeNodesInUse/Max=1/256</text>
</g>
<g id="clust2" class="cluster">
<title>cluster_TID3789888</title>
<polygon fill="none" stroke="#000000" points="256,-46 256,-685.997 534,-685.997 534,-46 256,-46"/>
<text text-anchor="middle" x="395" y="-68.8" font-family="Times,serif" font-size="14.00" fill="#000000">nPushNodeFailures=0</text>
<text text-anchor="middle" x="395" y="-53.8" font-family="Times,serif" font-size="14.00" fill="#000000">nTreeNodesInUse/Max=5/256</text>
</g>
<g id="clust3" class="cluster">
<title>cluster_TID3789889</title>
<polygon fill="none" stroke="#000000" points="542,-46 542,-685.997 832,-685.997 832,-46 542,-46"/>
<text text-anchor="middle" x="687" y="-68.8" font-family="Times,serif" font-size="14.00" fill="#000000">nPushNodeFailures=0</text>
<text text-anchor="middle" x="687" y="-53.8" font-family="Times,serif" font-size="14.00" fill="#000000">nTreeNodesInUse/Max=5/256</text>
</g>
<g id="clust4" class="cluster">
<title>cluster_TID3789890</title>
<polygon fill="none" stroke="#000000" points="840,-538.997 840,-710.997 1100,-710.997 1100,-538.997 840,-538.997"/>
<text text-anchor="middle" x="970" y="-561.797" font-family="Times,serif" font-size="14.00" fill="#000000">nPushNodeFailures=0</text>
<text text-anchor="middle" x="970" y="-546.797" font-family="Times,serif" font-size="14.00" fill="#000000">nTreeNodesInUse/Max=1/256</text>
</g>
<g id="clust5" class="cluster">
<title>cluster_TID3789891</title>
<polygon fill="none" stroke="#000000" points="1108,-213.1371 1108,-685.997 1454,-685.997 1454,-213.1371 1108,-213.1371"/>
<text text-anchor="middle" x="1281" y="-235.9371" font-family="Times,serif" font-size="14.00" fill="#000000">nPushNodeFailures=0</text>
<text text-anchor="middle" x="1281" y="-220.9371" font-family="Times,serif" font-size="14.00" fill="#000000">nTreeNodesInUse/Max=3/256</text>
</g>
<!-- 3789887_multithread -->
<g id="node1" class="node">
<title>3789887_multithread</title>
<polygon fill="#cb181d" stroke="#000000" points="240,-713.997 16,-713.997 16,-573.997 240,-573.997 240,-713.997"/>
<text text-anchor="middle" x="128" y="-693.997" font-family="Times,serif" font-size="20.00" fill="#000000">thread=multithread</text>
<text text-anchor="middle" x="128" y="-671.997" font-family="Times,serif" font-size="20.00" fill="#000000">TID=3789887</text>
<text text-anchor="middle" x="128" y="-649.997" font-family="Times,serif" font-size="20.00" fill="#000000">total=self=3kB (100.00%)</text>
<text text-anchor="middle" x="128" y="-627.997" font-family="Times,serif" font-size="20.00" fill="#000000">num_malloc_self=10</text>
<text text-anchor="middle" x="128" y="-605.997" font-family="Times,serif" font-size="20.00" fill="#000000">num_calloc_self=3</text>
<text text-anchor="middle" x="128" y="-583.997" font-family="Times,serif" font-size="20.00" fill="#000000">num_free_self=21</text>
</g>
<!-- 3789888_exampleThr/0 -->
<g id="node2" class="node">
<title>3789888_exampleThr/0</title>
<polygon fill="#fff5f0" stroke="#000000" points="423.5,-677.997 322.5,-677.997 322.5,-609.997 423.5,-609.997 423.5,-677.997"/>
<text text-anchor="middle" x="373" y="-666.797" font-family="Times,serif" font-size="9.00" fill="#000000">thread=exampleThr/0</text>
<text text-anchor="middle" x="373" y="-656.797" font-family="Times,serif" font-size="9.00" fill="#000000">TID=3789888</text>
<text text-anchor="middle" x="373" y="-646.797" font-family="Times,serif" font-size="9.00" fill="#000000">total=144kB (100.00%)</text>
<text text-anchor="middle" x="373" y="-636.797" font-family="Times,serif" font-size="9.00" fill="#000000">self=31B (0.02%)</text>
<text text-anchor="middle" x="373" y="-626.797" font-family="Times,serif" font-size="9.00" fill="#000000">num_malloc_self=1</text>
<text text-anchor="middle" x="373" y="-616.797" font-family="Times,serif" font-size="9.00" fill="#000000">num_free_self=3</text>
</g>
<!-- 3789888_ThreadMain -->
<g id="node3" class="node">
<title>3789888_ThreadMain</title>
<ellipse fill="#fff5f0" stroke="#000000" cx="373" cy="-475.4493" rx="68.6788" ry="33.8824"/>
<text text-anchor="middle" x="373" y="-488.2493" font-family="Times,serif" font-size="9.00" fill="#000000">scope=ThreadMain</text>
<text text-anchor="middle" x="373" y="-478.2493" font-family="Times,serif" font-size="9.00" fill="#000000">total=144kB (99.97%)</text>
<text text-anchor="middle" x="373" y="-468.2493" font-family="Times,serif" font-size="9.00" fill="#000000">self=5B (0.00%)</text>
<text text-anchor="middle" x="373" y="-458.2493" font-family="Times,serif" font-size="9.00" fill="#000000">num_malloc_self=1</text>
</g>
<!-- 3789888_exampleThr/0&#45;&gt;3789888_ThreadMain -->
<g id="edge1" class="edge">
<title>3789888_exampleThr/0&#45;&gt;3789888_ThreadMain</title>
<path fill="none" stroke="#000000" d="M373,-609.8889C373,-583.845 373,-547.7511 373,-519.5191"/>
<polygon fill="#000000" stroke="#000000" points="376.5001,-519.5067 373,-509.5067 369.5001,-519.5068 376.5001,-519.5067"/>
</g>
<!-- 3789888_FuncA -->
<g id="node4" class="node">
<title>3789888_FuncA</title>
<ellipse fill="#fff5f0" stroke="#000000" cx="351" cy="-327.0193" rx="65.1077" ry="33.8824"/>
<text text-anchor="middle" x="351" y="-339.8193" font-family="Times,serif" font-size="9.00" fill="#000000">scope=FuncA</text>
<text text-anchor="middle" x="351" y="-329.8193" font-family="Times,serif" font-size="9.00" fill="#000000">total=72kB (50.02%)</text>
<text text-anchor="middle" x="351" y="-319.8193" font-family="Times,serif" font-size="9.00" fill="#000000">self=100B (0.06%)</text>
<text text-anchor="middle" x="351" y="-309.8193" font-family="Times,serif" font-size="9.00" fill="#000000">num_malloc_self=1</text>
</g>
<!-- 3789888_ThreadMain&#45;&gt;3789888_FuncA -->
<g id="edge2" class="edge">
<title>3789888_ThreadMain&#45;&gt;3789888_FuncA</title>
<path fill="none" stroke="#000000" d="M367.9528,-441.3965C364.8505,-420.4659 360.8442,-393.4366 357.5053,-370.9092"/>
<polygon fill="#000000" stroke="#000000" points="360.9522,-370.2925 356.0238,-360.9137 354.0278,-371.3188 360.9522,-370.2925"/>
</g>
<!-- 3789888_FuncB -->
<g id="node5" class="node">
<title>3789888_FuncB</title>
<ellipse fill="#fb6a4a" stroke="#000000" cx="395" cy="-148.5685" rx="130.6298" ry="56.6372"/>
<text text-anchor="middle" x="395" y="-171.7685" font-family="Times,serif" font-size="16.00" fill="#000000">scope=FuncB</text>
<text text-anchor="middle" x="395" y="-153.7685" font-family="Times,serif" font-size="16.00" fill="#000000">total=self=72kB (49.95%)</text>
<text text-anchor="middle" x="395" y="-135.7685" font-family="Times,serif" font-size="16.00" fill="#000000">num_malloc_self=1000</text>
<text text-anchor="middle" x="395" y="-117.7685" font-family="Times,serif" font-size="16.00" fill="#000000">num_free_self=1000</text>
</g>
<!-- 3789888_ThreadMain&#45;&gt;3789888_FuncB -->
<g id="edge3" class="edge">
<title>3789888_ThreadMain&#45;&gt;3789888_FuncB</title>
<path fill="none" stroke="#000000" d="M399.3972,-443.873C409.4948,-429.8053 419.8235,-412.464 425,-394.9016 446.9473,-320.4401 442.8098,-294.0819 424.8295,-214.0699"/>
<polygon fill="#000000" stroke="#000000" points="428.1819,-213.0254 422.5689,-204.0395 421.3532,-214.5644 428.1819,-213.0254"/>
</g>
<!-- 3789888_FuncA&#45;&gt;3789888_FuncB -->
<g id="edge4" class="edge">
<title>3789888_FuncA&#45;&gt;3789888_FuncB</title>
<path fill="none" stroke="#000000" d="M359.3796,-293.0341C364.8185,-270.9754 372.0885,-241.4905 378.6422,-214.911"/>
<polygon fill="#000000" stroke="#000000" points="382.1177,-215.4351 381.1135,-204.8879 375.3212,-213.7592 382.1177,-215.4351"/>
</g>
<!-- 3789889_exampleThr/1 -->
<g id="node6" class="node">
<title>3789889_exampleThr/1</title>
<polygon fill="#fff5f0" stroke="#000000" points="747.5,-677.997 646.5,-677.997 646.5,-609.997 747.5,-609.997 747.5,-677.997"/>
<text text-anchor="middle" x="697" y="-666.797" font-family="Times,serif" font-size="9.00" fill="#000000">thread=exampleThr/1</text>
<text text-anchor="middle" x="697" y="-656.797" font-family="Times,serif" font-size="9.00" fill="#000000">TID=3789889</text>
<text text-anchor="middle" x="697" y="-646.797" font-family="Times,serif" font-size="9.00" fill="#000000">total=289kB (100.00%)</text>
<text text-anchor="middle" x="697" y="-636.797" font-family="Times,serif" font-size="9.00" fill="#000000">self=31B (0.01%)</text>
<text text-anchor="middle" x="697" y="-626.797" font-family="Times,serif" font-size="9.00" fill="#000000">num_malloc_self=1</text>
<text text-anchor="middle" x="697" y="-616.797" font-family="Times,serif" font-size="9.00" fill="#000000">num_free_self=3</text>
</g>
<!-- 3789889_ThreadMain -->
<g id="node7" class="node">
<title>3789889_ThreadMain</title>
<ellipse fill="#fff5f0" stroke="#000000" cx="697" cy="-475.4493" rx="68.6788" ry="33.8824"/>
<text text-anchor="middle" x="697" y="-488.2493" font-family="Times,serif" font-size="9.00" fill="#000000">scope=ThreadMain</text>
<text text-anchor="middle" x="697" y="-478.2493" font-family="Times,serif" font-size="9.00" fill="#000000">total=289kB (99.98%)</text>
<text text-anchor="middle" x="697" y="-468.2493" font-family="Times,serif" font-size="9.00" fill="#000000">self=5B (0.00%)</text>
<text text-anchor="middle" x="697" y="-458.2493" font-family="Times,serif" font-size="9.00" fill="#000000">num_malloc_self=1</text>
</g>
<!-- 3789889_exampleThr/1&#45;&gt;3789889_ThreadMain -->
<g id="edge5" class="edge">
<title>3789889_exampleThr/1&#45;&gt;3789889_ThreadMain</title>
<path fill="none" stroke="#000000" d="M697,-609.8889C697,-583.845 697,-547.7511 697,-519.5191"/>
<polygon fill="#000000" stroke="#000000" points="700.5001,-519.5067 697,-509.5067 693.5001,-519.5068 700.5001,-519.5067"/>
</g>
<!-- 3789889_FuncA -->
<g id="node8" class="node">
<title>3789889_FuncA</title>
<ellipse fill="#fff5f0" stroke="#000000" cx="653" cy="-327.0193" rx="68.6788" ry="33.8824"/>
<text text-anchor="middle" x="653" y="-339.8193" font-family="Times,serif" font-size="9.00" fill="#000000">scope=FuncA</text>
<text text-anchor="middle" x="653" y="-329.8193" font-family="Times,serif" font-size="9.00" fill="#000000">total=145kB (50.18%)</text>
<text text-anchor="middle" x="653" y="-319.8193" font-family="Times,serif" font-size="9.00" fill="#000000">self=1kB (0.38%)</text>
<text text-anchor="middle" x="653" y="-309.8193" font-family="Times,serif" font-size="9.00" fill="#000000">num_malloc_self=1</text>
</g>
<!-- 3789889_ThreadMain&#45;&gt;3789889_FuncA -->
<g id="edge6" class="edge">
<title>3789889_ThreadMain&#45;&gt;3789889_FuncA</title>
<path fill="none" stroke="#000000" d="M687.0157,-441.7683C680.7652,-420.6826 672.648,-393.2999 665.9107,-370.5723"/>
<polygon fill="#000000" stroke="#000000" points="669.2187,-369.4165 663.0208,-360.8237 662.5073,-371.4061 669.2187,-369.4165"/>
</g>
<!-- 3789889_FuncB -->
<g id="node9" class="node">
<title>3789889_FuncB</title>
<ellipse fill="#fb6a4a" stroke="#000000" cx="687" cy="-148.5685" rx="137.3577" ry="56.6372"/>
<text text-anchor="middle" x="687" y="-171.7685" font-family="Times,serif" font-size="16.00" fill="#000000">scope=FuncB</text>
<text text-anchor="middle" x="687" y="-153.7685" font-family="Times,serif" font-size="16.00" fill="#000000">total=self=144kB (49.79%)</text>
<text text-anchor="middle" x="687" y="-135.7685" font-family="Times,serif" font-size="16.00" fill="#000000">num_malloc_self=2000</text>
<text text-anchor="middle" x="687" y="-117.7685" font-family="Times,serif" font-size="16.00" fill="#000000">num_free_self=2000</text>
</g>
<!-- 3789889_ThreadMain&#45;&gt;3789889_FuncB -->
<g id="edge7" class="edge">
<title>3789889_ThreadMain&#45;&gt;3789889_FuncB</title>
<path fill="none" stroke="#000000" d="M714.5106,-442.3146C721.0667,-428.1271 727.7177,-411.1176 731,-394.9016 747.0264,-315.723 754.8026,-290.3351 731,-213.1371 730.8988,-212.809 730.7954,-212.481 730.6896,-212.1533"/>
<polygon fill="#000000" stroke="#000000" points="733.9171,-210.7952 727.0443,-202.7319 727.3887,-213.3212 733.9171,-210.7952"/>
</g>
<!-- 3789889_FuncA&#45;&gt;3789889_FuncB -->
<g id="edge8" class="edge">
<title>3789889_FuncA&#45;&gt;3789889_FuncB</title>
<path fill="none" stroke="#000000" d="M659.4752,-293.0341C663.6609,-271.0651 669.25,-241.7301 674.2981,-215.2353"/>
<polygon fill="#000000" stroke="#000000" points="677.7687,-215.7196 676.2022,-205.2412 670.8924,-214.4094 677.7687,-215.7196"/>
</g>
<!-- 3789890_NonInstrumented -->
<g id="node10" class="node">
<title>3789890_NonInstrumented</title>
<polygon fill="#cb181d" stroke="#000000" points="1091.5,-702.997 848.5,-702.997 848.5,-584.997 1091.5,-584.997 1091.5,-702.997"/>
<text text-anchor="middle" x="970" y="-682.997" font-family="Times,serif" font-size="20.00" fill="#000000">thread=NonInstrumented</text>
<text text-anchor="middle" x="970" y="-660.997" font-family="Times,serif" font-size="20.00" fill="#000000">TID=3789890</text>
<text text-anchor="middle" x="970" y="-638.997" font-family="Times,serif" font-size="20.00" fill="#000000">total=self=156kB (100.00%)</text>
<text text-anchor="middle" x="970" y="-616.997" font-family="Times,serif" font-size="20.00" fill="#000000">num_malloc_self=1101</text>
<text text-anchor="middle" x="970" y="-594.997" font-family="Times,serif" font-size="20.00" fill="#000000">num_free_self=1103</text>
</g>
<!-- 3789891_exampleThr/2 -->
<g id="node11" class="node">
<title>3789891_exampleThr/2</title>
<polygon fill="#fff5f0" stroke="#000000" points="1331.5,-677.997 1230.5,-677.997 1230.5,-609.997 1331.5,-609.997 1331.5,-677.997"/>
<text text-anchor="middle" x="1281" y="-666.797" font-family="Times,serif" font-size="9.00" fill="#000000">thread=exampleThr/2</text>
<text text-anchor="middle" x="1281" y="-656.797" font-family="Times,serif" font-size="9.00" fill="#000000">TID=3789891</text>
<text text-anchor="middle" x="1281" y="-646.797" font-family="Times,serif" font-size="9.00" fill="#000000">total=237kB (100.00%)</text>
<text text-anchor="middle" x="1281" y="-636.797" font-family="Times,serif" font-size="9.00" fill="#000000">self=31B (0.01%)</text>
<text text-anchor="middle" x="1281" y="-626.797" font-family="Times,serif" font-size="9.00" fill="#000000">num_malloc_self=1</text>
<text text-anchor="middle" x="1281" y="-616.797" font-family="Times,serif" font-size="9.00" fill="#000000">num_free_self=3</text>
</g>
<!-- 3789891_ThreadMain2 -->
<g id="node12" class="node">
<title>3789891_ThreadMain2</title>
<ellipse fill="#fee0d2" stroke="#000000" cx="1281" cy="-475.4493" rx="77.1494" ry="44.5955"/>
<text text-anchor="middle" x="1281" y="-494.9493" font-family="Times,serif" font-size="10.00" fill="#000000">scope=ThreadMain2</text>
<text text-anchor="middle" x="1281" y="-483.9493" font-family="Times,serif" font-size="10.00" fill="#000000">total=237kB (99.98%)</text>
<text text-anchor="middle" x="1281" y="-472.9493" font-family="Times,serif" font-size="10.00" fill="#000000">self=21kB (9.08%)</text>
<text text-anchor="middle" x="1281" y="-461.9493" font-family="Times,serif" font-size="10.00" fill="#000000">num_malloc_self=300</text>
<text text-anchor="middle" x="1281" y="-450.9493" font-family="Times,serif" font-size="10.00" fill="#000000">num_free_self=300</text>
</g>
<!-- 3789891_exampleThr/2&#45;&gt;3789891_ThreadMain2 -->
<g id="edge9" class="edge">
<title>3789891_exampleThr/2&#45;&gt;3789891_ThreadMain2</title>
<path fill="none" stroke="#000000" d="M1281,-609.8889C1281,-587.0456 1281,-556.4707 1281,-530.2507"/>
<polygon fill="#000000" stroke="#000000" points="1284.5001,-530.0675 1281,-520.0675 1277.5001,-530.0676 1284.5001,-530.0675"/>
</g>
<!-- 3789891_FuncB -->
<g id="node13" class="node">
<title>3789891_FuncB</title>
<ellipse fill="#cb181d" stroke="#000000" cx="1281" cy="-327.0193" rx="164.5121" ry="67.7647"/>
<text text-anchor="middle" x="1281" y="-355.0193" font-family="Times,serif" font-size="20.00" fill="#000000">scope=FuncB</text>
<text text-anchor="middle" x="1281" y="-333.0193" font-family="Times,serif" font-size="20.00" fill="#000000">total=self=216kB (90.89%)</text>
<text text-anchor="middle" x="1281" y="-311.0193" font-family="Times,serif" font-size="20.00" fill="#000000">num_malloc_self=3000</text>
<text text-anchor="middle" x="1281" y="-289.0193" font-family="Times,serif" font-size="20.00" fill="#000000">num_free_self=3000</text>
</g>
<!-- 3789891_ThreadMain2&#45;&gt;3789891_FuncB -->
<g id="edge10" class="edge">
<title>3789891_ThreadMain2&#45;&gt;3789891_FuncB</title>
<path fill="none" stroke="#000000" d="M1281,-430.5126C1281,-422.4787 1281,-413.8996 1281,-405.2475"/>
<polygon fill="#000000" stroke="#000000" points="1284.5001,-405.0855 1281,-395.0856 1277.5001,-405.0856 1284.5001,-405.0855"/>
</g>
</g>
</svg>
