<?xml version="1.0" encoding="UTF-8" standalone="no"?>
<!DOCTYPE svg PUBLIC "-//W3C//DTD SVG 1.1//EN"
 "http://www.w3.org/Graphics/SVG/1.1/DTD/svg11.dtd">
<!-- Generated by graphviz version 2.40.1 (0)
 -->
<!-- Title: MallocTree Pages: 1 -->
<svg width="1470pt" height="622pt"
 viewBox="0.00 0.00 1470.00 621.87" xmlns="http://www.w3.org/2000/svg" xmlns:xlink="http://www.w3.org/1999/xlink">
<g id="graph0" class="graph" transform="scale(1 1) rotate(0) translate(4 617.8721)">
<title>MallocTree</title>
<polygon fill="#ffffff" stroke="transparent" points="-4,4 -4,-617.8721 1466,-617.8721 1466,4 -4,4"/>
<text text-anchor="middle" x="731" y="-22.8" font-family="Times,serif" font-size="14.00" fill="#000000">Memory allocated before MallocTag initialization = 72kB</text>
<text text-anchor="middle" x="731" y="-7.8" font-family="Times,serif" font-size="14.00" fill="#000000">Memory allocated by MallocTag itself =276kB</text>
<g id="clust1" class="cluster">
<title>cluster_TID3781339</title>
<polygon fill="none" stroke="#000000" points="8,-455.8721 8,-605.8721 248,-605.8721 248,-455.8721 8,-455.8721"/>
<text text-anchor="middle" x="128" y="-478.6721" font-family="Times,serif" font-size="14.00" fill="#000000">nPushNodeFailures=0</text>
<text text-anchor="middle" x="128" y="-463.6721" font-family="Times,serif" font-size="14.00" fill="#000000">nTreeNodesInUse/Max=1/256</text>
</g>
<g id="clust2" class="cluster">
<title>cluster_TID3781341</title>
<polygon fill="none" stroke="#000000" points="256,-46 256,-586.8721 546,-586.8721 546,-46 256,-46"/>
<text text-anchor="middle" x="401" y="-68.8" font-family="Times,serif" font-size="14.00" fill="#000000">nPushNodeFailures=0</text>
<text text-anchor="middle" x="401" y="-53.8" font-family="Times,serif" font-size="14.00" fill="#000000">nTreeNodesInUse/Max=5/256</text>
</g>
<g id="clust3" class="cluster">
<title>cluster_TID3781340</title>
<polygon fill="none" stroke="#000000" points="554,-46 554,-586.8721 832,-586.8721 832,-46 554,-46"/>
<text text-anchor="middle" x="693" y="-68.8" font-family="Times,serif" font-size="14.00" fill="#000000">nPushNodeFailures=0</text>
<text text-anchor="middle" x="693" y="-53.8" font-family="Times,serif" font-size="14.00" fill="#000000">nTreeNodesInUse/Max=5/256</text>
</g>
<g id="clust4" class="cluster">
<title>cluster_TID3781342</title>
<polygon fill="none" stroke="#000000" points="840,-455.8721 840,-605.8721 1100,-605.8721 1100,-455.8721 840,-455.8721"/>
<text text-anchor="middle" x="970" y="-478.6721" font-family="Times,serif" font-size="14.00" fill="#000000">nPushNodeFailures=0</text>
<text text-anchor="middle" x="970" y="-463.6721" font-family="Times,serif" font-size="14.00" fill="#000000">nTreeNodesInUse/Max=1/256</text>
</g>
<g id="clust5" class="cluster">
<title>cluster_TID3781343</title>
<polygon fill="none" stroke="#000000" points="1108,-187.6812 1108,-586.8721 1454,-586.8721 1454,-187.6812 1108,-187.6812"/>
<text text-anchor="middle" x="1281" y="-210.4812" font-family="Times,serif" font-size="14.00" fill="#000000">nPushNodeFailures=0</text>
<text text-anchor="middle" x="1281" y="-195.4812" font-family="Times,serif" font-size="14.00" fill="#000000">nTreeNodesInUse/Max=3/256</text>
</g>
<!-- 3781339_multithread -->
<g id="node1" class="node">
<title>3781339_multithread</title>
<polygon fill="#cb181d" stroke="#000000" points="240,-597.8721 16,-597.8721 16,-501.8721 240,-501.8721 240,-597.8721"/>
<text text-anchor="middle" x="128" y="-577.8721" font-family="Times,serif" font-size="20.00" fill="#000000">thread=multithread</text>
<text text-anchor="middle" x="128" y="-555.8721" font-family="Times,serif" font-size="20.00" fill="#000000">TID=3781339</text>
<text text-anchor="middle" x="128" y="-533.8721" font-family="Times,serif" font-size="20.00" fill="#000000">total=self=2kB (100.00%)</text>
<text text-anchor="middle" x="128" y="-511.8721" font-family="Times,serif" font-size="20.00" fill="#000000">num_alloc_self=10</text>
</g>
<!-- 3781341_exampleThr/1 -->
<g id="node2" class="node">
<title>3781341_exampleThr/1</title>
<polygon fill="#fff5f0" stroke="#000000" points="461.5,-578.8721 360.5,-578.8721 360.5,-520.8721 461.5,-520.8721 461.5,-578.8721"/>
<text text-anchor="middle" x="411" y="-567.6721" font-family="Times,serif" font-size="9.00" fill="#000000">thread=exampleThr/1</text>
<text text-anchor="middle" x="411" y="-557.6721" font-family="Times,serif" font-size="9.00" fill="#000000">TID=3781341</text>
<text text-anchor="middle" x="411" y="-547.6721" font-family="Times,serif" font-size="9.00" fill="#000000">total=289kB (100.00%)</text>
<text text-anchor="middle" x="411" y="-537.6721" font-family="Times,serif" font-size="9.00" fill="#000000">self=31B (0.01%)</text>
<text text-anchor="middle" x="411" y="-527.6721" font-family="Times,serif" font-size="9.00" fill="#000000">num_alloc_self=1</text>
</g>
<!-- 3781341_ThreadMain -->
<g id="node3" class="node">
<title>3781341_ThreadMain</title>
<ellipse fill="#fff5f0" stroke="#000000" cx="411" cy="-411.1026" rx="68.6788" ry="33.8824"/>
<text text-anchor="middle" x="411" y="-423.9026" font-family="Times,serif" font-size="9.00" fill="#000000">scope=ThreadMain</text>
<text text-anchor="middle" x="411" y="-413.9026" font-family="Times,serif" font-size="9.00" fill="#000000">total=289kB (99.98%)</text>
<text text-anchor="middle" x="411" y="-403.9026" font-family="Times,serif" font-size="9.00" fill="#000000">self=5B (0.00%)</text>
<text text-anchor="middle" x="411" y="-393.9026" font-family="Times,serif" font-size="9.00" fill="#000000">num_alloc_self=1</text>
</g>
<!-- 3781341_exampleThr/1&#45;&gt;3781341_ThreadMain -->
<g id="edge1" class="edge">
<title>3781341_exampleThr/1&#45;&gt;3781341_ThreadMain</title>
<path fill="none" stroke="#000000" d="M411,-520.7815C411,-501.7942 411,-476.6462 411,-455.2208"/>
<polygon fill="#000000" stroke="#000000" points="414.5001,-455.0453 411,-445.0453 407.5001,-455.0453 414.5001,-455.0453"/>
</g>
<!-- 3781341_FuncA -->
<g id="node4" class="node">
<title>3781341_FuncA</title>
<ellipse fill="#fff5f0" stroke="#000000" cx="367" cy="-286.0071" rx="68.6788" ry="33.8824"/>
<text text-anchor="middle" x="367" y="-298.8071" font-family="Times,serif" font-size="9.00" fill="#000000">scope=FuncA</text>
<text text-anchor="middle" x="367" y="-288.8071" font-family="Times,serif" font-size="9.00" fill="#000000">total=145kB (50.18%)</text>
<text text-anchor="middle" x="367" y="-278.8071" font-family="Times,serif" font-size="9.00" fill="#000000">self=1kB (0.38%)</text>
<text text-anchor="middle" x="367" y="-268.8071" font-family="Times,serif" font-size="9.00" fill="#000000">num_alloc_self=1</text>
</g>
<!-- 3781341_ThreadMain&#45;&gt;3781341_FuncA -->
<g id="edge2" class="edge">
<title>3781341_ThreadMain&#45;&gt;3781341_FuncA</title>
<path fill="none" stroke="#000000" d="M399.2088,-377.5793C393.9808,-362.7158 387.7646,-345.0425 382.1941,-329.2052"/>
<polygon fill="#000000" stroke="#000000" points="385.4436,-327.8951 378.8237,-319.623 378.8401,-330.2178 385.4436,-327.8951"/>
</g>
<!-- 3781341_FuncB -->
<g id="node5" class="node">
<title>3781341_FuncB</title>
<ellipse fill="#fb6a4a" stroke="#000000" cx="401" cy="-135.8406" rx="137.3577" ry="43.6818"/>
<text text-anchor="middle" x="401" y="-150.0406" font-family="Times,serif" font-size="16.00" fill="#000000">scope=FuncB</text>
<text text-anchor="middle" x="401" y="-132.0406" font-family="Times,serif" font-size="16.00" fill="#000000">total=self=144kB (49.79%)</text>
<text text-anchor="middle" x="401" y="-114.0406" font-family="Times,serif" font-size="16.00" fill="#000000">num_alloc_self=2000</text>
</g>
<!-- 3781341_ThreadMain&#45;&gt;3781341_FuncB -->
<g id="edge3" class="edge">
<title>3781341_ThreadMain&#45;&gt;3781341_FuncB</title>
<path fill="none" stroke="#000000" d="M430.1212,-378.1344C436.1274,-366.0275 441.9767,-351.9459 445,-338.333 459.5167,-272.9693 468.0777,-250.5348 445,-187.6812 444.9237,-187.4735 444.8462,-187.2659 444.7674,-187.0587"/>
<polygon fill="#000000" stroke="#000000" points="447.9006,-185.4967 440.475,-177.9395 441.5671,-188.4779 447.9006,-185.4967"/>
</g>
<!-- 3781341_FuncA&#45;&gt;3781341_FuncB -->
<g id="edge4" class="edge">
<title>3781341_FuncA&#45;&gt;3781341_FuncB</title>
<path fill="none" stroke="#000000" d="M374.7151,-251.932C378.874,-233.5638 384.1022,-210.4723 388.7984,-189.731"/>
<polygon fill="#000000" stroke="#000000" points="392.2593,-190.2947 391.054,-179.7687 385.4321,-188.7489 392.2593,-190.2947"/>
</g>
<!-- 3781340_exampleThr/0 -->
<g id="node6" class="node">
<title>3781340_exampleThr/0</title>
<polygon fill="#fff5f0" stroke="#000000" points="721.5,-578.8721 620.5,-578.8721 620.5,-520.8721 721.5,-520.8721 721.5,-578.8721"/>
<text text-anchor="middle" x="671" y="-567.6721" font-family="Times,serif" font-size="9.00" fill="#000000">thread=exampleThr/0</text>
<text text-anchor="middle" x="671" y="-557.6721" font-family="Times,serif" font-size="9.00" fill="#000000">TID=3781340</text>
<text text-anchor="middle" x="671" y="-547.6721" font-family="Times,serif" font-size="9.00" fill="#000000">total=144kB (100.00%)</text>
<text text-anchor="middle" x="671" y="-537.6721" font-family="Times,serif" font-size="9.00" fill="#000000">self=31B (0.02%)</text>
<text text-anchor="middle" x="671" y="-527.6721" font-family="Times,serif" font-size="9.00" fill="#000000">num_alloc_self=1</text>
</g>
<!-- 3781340_ThreadMain -->
<g id="node7" class="node">
<title>3781340_ThreadMain</title>
<ellipse fill="#fff5f0" stroke="#000000" cx="671" cy="-411.1026" rx="68.6788" ry="33.8824"/>
<text text-anchor="middle" x="671" y="-423.9026" font-family="Times,serif" font-size="9.00" fill="#000000">scope=ThreadMain</text>
<text text-anchor="middle" x="671" y="-413.9026" font-family="Times,serif" font-size="9.00" fill="#000000">total=144kB (99.97%)</text>
<text text-anchor="middle" x="671" y="-403.9026" font-family="Times,serif" font-size="9.00" fill="#000000">self=5B (0.00%)</text>
<text text-anchor="middle" x="671" y="-393.9026" font-family="Times,serif" font-size="9.00" fill="#000000">num_alloc_self=1</text>
</g>
<!-- 3781340_exampleThr/0&#45;&gt;3781340_ThreadMain -->
<g id="edge5" class="edge">
<title>3781340_exampleThr/0&#45;&gt;3781340_ThreadMain</title>
<path fill="none" stroke="#000000" d="M671,-520.7815C671,-501.7942 671,-476.6462 671,-455.2208"/>
<polygon fill="#000000" stroke="#000000" points="674.5001,-455.0453 671,-445.0453 667.5001,-455.0453 674.5001,-455.0453"/>
</g>
<!-- 3781340_FuncA -->
<g id="node8" class="node">
<title>3781340_FuncA</title>
<ellipse fill="#fff5f0" stroke="#000000" cx="649" cy="-286.0071" rx="65.1077" ry="33.8824"/>
<text text-anchor="middle" x="649" y="-298.8071" font-family="Times,serif" font-size="9.00" fill="#000000">scope=FuncA</text>
<text text-anchor="middle" x="649" y="-288.8071" font-family="Times,serif" font-size="9.00" fill="#000000">total=72kB (50.02%)</text>
<text text-anchor="middle" x="649" y="-278.8071" font-family="Times,serif" font-size="9.00" fill="#000000">self=100B (0.06%)</text>
<text text-anchor="middle" x="649" y="-268.8071" font-family="Times,serif" font-size="9.00" fill="#000000">num_alloc_self=1</text>
</g>
<!-- 3781340_ThreadMain&#45;&gt;3781340_FuncA -->
<g id="edge6" class="edge">
<title>3781340_ThreadMain&#45;&gt;3781340_FuncA</title>
<path fill="none" stroke="#000000" d="M665.0465,-377.25C662.4785,-362.6482 659.4421,-345.3828 656.7055,-329.8215"/>
<polygon fill="#000000" stroke="#000000" points="660.1375,-329.1294 654.9583,-319.8868 653.2433,-330.3419 660.1375,-329.1294"/>
</g>
<!-- 3781340_FuncB -->
<g id="node9" class="node">
<title>3781340_FuncB</title>
<ellipse fill="#fb6a4a" stroke="#000000" cx="693" cy="-135.8406" rx="130.6298" ry="43.6818"/>
<text text-anchor="middle" x="693" y="-150.0406" font-family="Times,serif" font-size="16.00" fill="#000000">scope=FuncB</text>
<text text-anchor="middle" x="693" y="-132.0406" font-family="Times,serif" font-size="16.00" fill="#000000">total=self=72kB (49.95%)</text>
<text text-anchor="middle" x="693" y="-114.0406" font-family="Times,serif" font-size="16.00" fill="#000000">num_alloc_self=1000</text>
</g>
<!-- 3781340_ThreadMain&#45;&gt;3781340_FuncB -->
<g id="edge7" class="edge">
<title>3781340_ThreadMain&#45;&gt;3781340_FuncB</title>
<path fill="none" stroke="#000000" d="M699.5639,-380.158C708.9278,-368.0312 718.165,-353.4152 723,-338.333 742.4818,-277.5616 740.5991,-254.5223 722.8249,-188.9579"/>
<polygon fill="#000000" stroke="#000000" points="726.1056,-187.6863 720.0878,-178.9664 719.3543,-189.5358 726.1056,-187.6863"/>
</g>
<!-- 3781340_FuncA&#45;&gt;3781340_FuncB -->
<g id="edge8" class="edge">
<title>3781340_FuncA&#45;&gt;3781340_FuncB</title>
<path fill="none" stroke="#000000" d="M658.8745,-252.3068C664.299,-233.7936 671.1539,-210.3988 677.2944,-189.442"/>
<polygon fill="#000000" stroke="#000000" points="680.6964,-190.2783 680.1495,-179.6976 673.9788,-188.31 680.6964,-190.2783"/>
</g>
<!-- 3781342_NonInstrumented -->
<g id="node10" class="node">
<title>3781342_NonInstrumented</title>
<polygon fill="#cb181d" stroke="#000000" points="1091.5,-597.8721 848.5,-597.8721 848.5,-501.8721 1091.5,-501.8721 1091.5,-597.8721"/>
<text text-anchor="middle" x="970" y="-577.8721" font-family="Times,serif" font-size="20.00" fill="#000000">thread=NonInstrumented</text>
<text text-anchor="middle" x="970" y="-555.8721" font-family="Times,serif" font-size="20.00" fill="#000000">TID=3781342</text>
<text text-anchor="middle" x="970" y="-533.8721" font-family="Times,serif" font-size="20.00" fill="#000000">total=self=156kB (100.00%)</text>
<text text-anchor="middle" x="970" y="-511.8721" font-family="Times,serif" font-size="20.00" fill="#000000">num_alloc_self=1101</text>
</g>
<!-- 3781343_exampleThr/2 -->
<g id="node11" class="node">
<title>3781343_exampleThr/2</title>
<polygon fill="#fff5f0" stroke="#000000" points="1331.5,-578.8721 1230.5,-578.8721 1230.5,-520.8721 1331.5,-520.8721 1331.5,-578.8721"/>
<text text-anchor="middle" x="1281" y="-567.6721" font-family="Times,serif" font-size="9.00" fill="#000000">thread=exampleThr/2</text>
<text text-anchor="middle" x="1281" y="-557.6721" font-family="Times,serif" font-size="9.00" fill="#000000">TID=3781343</text>
<text text-anchor="middle" x="1281" y="-547.6721" font-family="Times,serif" font-size="9.00" fill="#000000">total=237kB (100.00%)</text>
<text text-anchor="middle" x="1281" y="-537.6721" font-family="Times,serif" font-size="9.00" fill="#000000">self=31B (0.01%)</text>
<text text-anchor="middle" x="1281" y="-527.6721" font-family="Times,serif" font-size="9.00" fill="#000000">num_alloc_self=1</text>
</g>
<!-- 3781343_ThreadMain2 -->
<g id="node12" class="node">
<title>3781343_ThreadMain2</title>
<ellipse fill="#fee0d2" stroke="#000000" cx="1281" cy="-411.1026" rx="77.1494" ry="36.5405"/>
<text text-anchor="middle" x="1281" y="-425.1026" font-family="Times,serif" font-size="10.00" fill="#000000">scope=ThreadMain2</text>
<text text-anchor="middle" x="1281" y="-414.1026" font-family="Times,serif" font-size="10.00" fill="#000000">total=237kB (99.98%)</text>
<text text-anchor="middle" x="1281" y="-403.1026" font-family="Times,serif" font-size="10.00" fill="#000000">self=21kB (9.08%)</text>
<text text-anchor="middle" x="1281" y="-392.1026" font-family="Times,serif" font-size="10.00" fill="#000000">num_alloc_self=300</text>
</g>
<!-- 3781343_exampleThr/2&#45;&gt;3781343_ThreadMain2 -->
<g id="edge9" class="edge">
<title>3781343_exampleThr/2&#45;&gt;3781343_ThreadMain2</title>
<path fill="none" stroke="#000000" d="M1281,-520.7815C1281,-502.6964 1281,-479.0221 1281,-458.299"/>
<polygon fill="#000000" stroke="#000000" points="1284.5001,-458.0895 1281,-448.0895 1277.5001,-458.0895 1284.5001,-458.0895"/>
</g>
<!-- 3781343_FuncB -->
<g id="node13" class="node">
<title>3781343_FuncB</title>
<ellipse fill="#cb181d" stroke="#000000" cx="1281" cy="-286.0071" rx="164.5121" ry="52.1524"/>
<text text-anchor="middle" x="1281" y="-303.0071" font-family="Times,serif" font-size="20.00" fill="#000000">scope=FuncB</text>
<text text-anchor="middle" x="1281" y="-281.0071" font-family="Times,serif" font-size="20.00" fill="#000000">total=self=216kB (90.89%)</text>
<text text-anchor="middle" x="1281" y="-259.0071" font-family="Times,serif" font-size="20.00" fill="#000000">num_alloc_self=3000</text>
</g>
<!-- 3781343_ThreadMain2&#45;&gt;3781343_FuncB -->
<g id="edge10" class="edge">
<title>3781343_ThreadMain2&#45;&gt;3781343_FuncB</title>
<path fill="none" stroke="#000000" d="M1281,-374.2464C1281,-366.1655 1281,-357.3922 1281,-348.6171"/>
<polygon fill="#000000" stroke="#000000" points="1284.5001,-348.3567 1281,-338.3567 1277.5001,-348.3567 1284.5001,-348.3567"/>
</g>
</g>
</svg>
