<?xml version="1.0" encoding="UTF-8" standalone="no"?>
<!DOCTYPE svg PUBLIC "-//W3C//DTD SVG 1.1//EN"
 "http://www.w3.org/Graphics/SVG/1.1/DTD/svg11.dtd">
<!-- Generated by graphviz version 2.40.1 (0)
 -->
<!-- Title: MallocTree Pages: 1 -->
<svg width="1182pt" height="592pt"
 viewBox="0.00 0.00 1182.00 592.18" xmlns="http://www.w3.org/2000/svg" xmlns:xlink="http://www.w3.org/1999/xlink">
<g id="graph0" class="graph" transform="scale(1 1) rotate(0) translate(4 588.1798)">
<title>MallocTree</title>
<polygon fill="#ffffff" stroke="transparent" points="-4,4 -4,-588.1798 1178,-588.1798 1178,4 -4,4"/>
<text text-anchor="middle" x="587" y="-22.8" font-family="Times,serif" font-size="14.00" fill="#000000">Memory allocated before MallocTag initialization = 72kB</text>
<text text-anchor="middle" x="587" y="-7.8" font-family="Times,serif" font-size="14.00" fill="#000000">Memory allocated by MallocTag itself =276kB</text>
<g id="clust1" class="cluster">
<title>cluster_TID3761016</title>
<polygon fill="none" stroke="#000000" points="8,-446.6798 8,-568.6798 190,-568.6798 190,-446.6798 8,-446.6798"/>
<text text-anchor="middle" x="99" y="-469.4798" font-family="Times,serif" font-size="14.00" fill="#000000">nPushNodeFailures=0</text>
<text text-anchor="middle" x="99" y="-454.4798" font-family="Times,serif" font-size="14.00" fill="#000000">nTreeNodesInUse/Max=1/256</text>
</g>
<g id="clust2" class="cluster">
<title>cluster_TID3761017</title>
<polygon fill="none" stroke="#000000" points="198,-46 198,-576.1798 442,-576.1798 442,-46 198,-46"/>
<text text-anchor="middle" x="320" y="-68.8" font-family="Times,serif" font-size="14.00" fill="#000000">nPushNodeFailures=0</text>
<text text-anchor="middle" x="320" y="-53.8" font-family="Times,serif" font-size="14.00" fill="#000000">nTreeNodesInUse/Max=5/256</text>
</g>
<g id="clust3" class="cluster">
<title>cluster_TID3761018</title>
<polygon fill="none" stroke="#000000" points="450,-46 450,-576.1798 704,-576.1798 704,-46 450,-46"/>
<text text-anchor="middle" x="577" y="-68.8" font-family="Times,serif" font-size="14.00" fill="#000000">nPushNodeFailures=0</text>
<text text-anchor="middle" x="577" y="-53.8" font-family="Times,serif" font-size="14.00" fill="#000000">nTreeNodesInUse/Max=5/256</text>
</g>
<g id="clust4" class="cluster">
<title>cluster_TID3761019</title>
<polygon fill="none" stroke="#000000" points="712,-446.6798 712,-568.6798 904,-568.6798 904,-446.6798 712,-446.6798"/>
<text text-anchor="middle" x="808" y="-469.4798" font-family="Times,serif" font-size="14.00" fill="#000000">nPushNodeFailures=0</text>
<text text-anchor="middle" x="808" y="-454.4798" font-family="Times,serif" font-size="14.00" fill="#000000">nTreeNodesInUse/Max=1/256</text>
</g>
<g id="clust5" class="cluster">
<title>cluster_TID3761020</title>
<polygon fill="none" stroke="#000000" points="912,-174.9533 912,-576.1798 1166,-576.1798 1166,-174.9533 912,-174.9533"/>
<text text-anchor="middle" x="1039" y="-197.7533" font-family="Times,serif" font-size="14.00" fill="#000000">nPushNodeFailures=0</text>
<text text-anchor="middle" x="1039" y="-182.7533" font-family="Times,serif" font-size="14.00" fill="#000000">nTreeNodesInUse/Max=3/256</text>
</g>
<!-- 3761016_multithread -->
<g id="node1" class="node">
<title>3761016_multithread</title>
<polygon fill="#cb181d" stroke="#000000" points="179.5,-560.6798 18.5,-560.6798 18.5,-492.6798 179.5,-492.6798 179.5,-560.6798"/>
<text text-anchor="middle" x="99" y="-545.4798" font-family="Times,serif" font-size="14.00" fill="#000000">thread=multithread</text>
<text text-anchor="middle" x="99" y="-530.4798" font-family="Times,serif" font-size="14.00" fill="#000000">TID=3761016</text>
<text text-anchor="middle" x="99" y="-515.4798" font-family="Times,serif" font-size="14.00" fill="#000000">total=self=2kB (100.00%)</text>
<text text-anchor="middle" x="99" y="-500.4798" font-family="Times,serif" font-size="14.00" fill="#000000">num_alloc_self=10</text>
</g>
<!-- 3761017_exampleThr/0 -->
<g id="node2" class="node">
<title>3761017_exampleThr/0</title>
<polygon fill="#fff5f0" stroke="#000000" points="393.5,-568.1798 246.5,-568.1798 246.5,-485.1798 393.5,-485.1798 393.5,-568.1798"/>
<text text-anchor="middle" x="320" y="-552.9798" font-family="Times,serif" font-size="14.00" fill="#000000">thread=exampleThr/0</text>
<text text-anchor="middle" x="320" y="-537.9798" font-family="Times,serif" font-size="14.00" fill="#000000">TID=3761017</text>
<text text-anchor="middle" x="320" y="-522.9798" font-family="Times,serif" font-size="14.00" fill="#000000">total=144kB (100.00%)</text>
<text text-anchor="middle" x="320" y="-507.9798" font-family="Times,serif" font-size="14.00" fill="#000000">self=31B (0.02%)</text>
<text text-anchor="middle" x="320" y="-492.9798" font-family="Times,serif" font-size="14.00" fill="#000000">num_alloc_self=1</text>
</g>
<!-- 3761017_ThreadMain -->
<g id="node3" class="node">
<title>3761017_ThreadMain</title>
<ellipse fill="#fff5f0" stroke="#000000" cx="320" cy="-390.5965" rx="98.9899" ry="48.1667"/>
<text text-anchor="middle" x="320" y="-409.3965" font-family="Times,serif" font-size="14.00" fill="#000000">scope=ThreadMain</text>
<text text-anchor="middle" x="320" y="-394.3965" font-family="Times,serif" font-size="14.00" fill="#000000">total=144kB (99.97%)</text>
<text text-anchor="middle" x="320" y="-379.3965" font-family="Times,serif" font-size="14.00" fill="#000000">self=5B (0.00%)</text>
<text text-anchor="middle" x="320" y="-364.3965" font-family="Times,serif" font-size="14.00" fill="#000000">num_alloc_self=1</text>
</g>
<!-- 3761017_exampleThr/0&#45;&gt;3761017_ThreadMain -->
<g id="edge1" class="edge">
<title>3761017_exampleThr/0&#45;&gt;3761017_ThreadMain</title>
<path fill="none" stroke="#000000" d="M320,-485.1109C320,-473.7528 320,-461.2287 320,-449.1154"/>
<polygon fill="#000000" stroke="#000000" points="323.5001,-449.0714 320,-439.0714 316.5001,-449.0714 323.5001,-449.0714"/>
</g>
<!-- 3761017_FuncA -->
<g id="node4" class="node">
<title>3761017_FuncA</title>
<ellipse fill="#fff5f0" stroke="#000000" cx="310" cy="-258.43" rx="94.5053" ry="48.1667"/>
<text text-anchor="middle" x="310" y="-277.23" font-family="Times,serif" font-size="14.00" fill="#000000">scope=FuncA</text>
<text text-anchor="middle" x="310" y="-262.23" font-family="Times,serif" font-size="14.00" fill="#000000">total=72kB (50.02%)</text>
<text text-anchor="middle" x="310" y="-247.23" font-family="Times,serif" font-size="14.00" fill="#000000">self=100B (0.06%)</text>
<text text-anchor="middle" x="310" y="-232.23" font-family="Times,serif" font-size="14.00" fill="#000000">num_alloc_self=1</text>
</g>
<!-- 3761017_ThreadMain&#45;&gt;3761017_FuncA -->
<g id="edge2" class="edge">
<title>3761017_ThreadMain&#45;&gt;3761017_FuncA</title>
<path fill="none" stroke="#000000" d="M316.3615,-342.5075C315.7273,-334.1257 315.0615,-325.3258 314.4093,-316.7056"/>
<polygon fill="#000000" stroke="#000000" points="317.8971,-316.4121 313.6526,-306.7047 310.9171,-316.9403 317.8971,-316.4121"/>
</g>
<!-- 3761017_FuncB -->
<g id="node5" class="node">
<title>3761017_FuncB</title>
<ellipse fill="#fb6a4a" stroke="#000000" cx="320" cy="-129.4767" rx="113.6886" ry="37.4533"/>
<text text-anchor="middle" x="320" y="-140.7767" font-family="Times,serif" font-size="14.00" fill="#000000">scope=FuncB</text>
<text text-anchor="middle" x="320" y="-125.7767" font-family="Times,serif" font-size="14.00" fill="#000000">total=self=72kB (49.95%)</text>
<text text-anchor="middle" x="320" y="-110.7767" font-family="Times,serif" font-size="14.00" fill="#000000">num_alloc_self=1000</text>
</g>
<!-- 3761017_ThreadMain&#45;&gt;3761017_FuncB -->
<g id="edge3" class="edge">
<title>3761017_ThreadMain&#45;&gt;3761017_FuncB</title>
<path fill="none" stroke="#000000" d="M378.6427,-351.7816C392.8762,-339.1841 406.2236,-323.9029 414,-306.5132 437.8696,-253.1362 445.0639,-224.4902 414,-174.9533 411.4943,-170.9576 408.5272,-167.3044 405.2182,-163.9652"/>
<polygon fill="#000000" stroke="#000000" points="407.2926,-161.1283 397.4746,-157.1461 402.6663,-166.3817 407.2926,-161.1283"/>
</g>
<!-- 3761017_FuncA&#45;&gt;3761017_FuncB -->
<g id="edge4" class="edge">
<title>3761017_FuncA&#45;&gt;3761017_FuncB</title>
<path fill="none" stroke="#000000" d="M313.7521,-210.0456C314.5837,-199.3223 315.4644,-187.9645 316.2941,-177.2651"/>
<polygon fill="#000000" stroke="#000000" points="319.787,-177.4915 317.0707,-167.2508 312.8079,-176.9502 319.787,-177.4915"/>
</g>
<!-- 3761018_exampleThr/1 -->
<g id="node6" class="node">
<title>3761018_exampleThr/1</title>
<polygon fill="#fff5f0" stroke="#000000" points="655.5,-568.1798 508.5,-568.1798 508.5,-485.1798 655.5,-485.1798 655.5,-568.1798"/>
<text text-anchor="middle" x="582" y="-552.9798" font-family="Times,serif" font-size="14.00" fill="#000000">thread=exampleThr/1</text>
<text text-anchor="middle" x="582" y="-537.9798" font-family="Times,serif" font-size="14.00" fill="#000000">TID=3761018</text>
<text text-anchor="middle" x="582" y="-522.9798" font-family="Times,serif" font-size="14.00" fill="#000000">total=289kB (100.00%)</text>
<text text-anchor="middle" x="582" y="-507.9798" font-family="Times,serif" font-size="14.00" fill="#000000">self=31B (0.01%)</text>
<text text-anchor="middle" x="582" y="-492.9798" font-family="Times,serif" font-size="14.00" fill="#000000">num_alloc_self=1</text>
</g>
<!-- 3761018_ThreadMain -->
<g id="node7" class="node">
<title>3761018_ThreadMain</title>
<ellipse fill="#fff5f0" stroke="#000000" cx="582" cy="-390.5965" rx="98.9899" ry="48.1667"/>
<text text-anchor="middle" x="582" y="-409.3965" font-family="Times,serif" font-size="14.00" fill="#000000">scope=ThreadMain</text>
<text text-anchor="middle" x="582" y="-394.3965" font-family="Times,serif" font-size="14.00" fill="#000000">total=289kB (99.98%)</text>
<text text-anchor="middle" x="582" y="-379.3965" font-family="Times,serif" font-size="14.00" fill="#000000">self=5B (0.00%)</text>
<text text-anchor="middle" x="582" y="-364.3965" font-family="Times,serif" font-size="14.00" fill="#000000">num_alloc_self=1</text>
</g>
<!-- 3761018_exampleThr/1&#45;&gt;3761018_ThreadMain -->
<g id="edge5" class="edge">
<title>3761018_exampleThr/1&#45;&gt;3761018_ThreadMain</title>
<path fill="none" stroke="#000000" d="M582,-485.1109C582,-473.7528 582,-461.2287 582,-449.1154"/>
<polygon fill="#000000" stroke="#000000" points="585.5001,-449.0714 582,-439.0714 578.5001,-449.0714 585.5001,-449.0714"/>
</g>
<!-- 3761018_FuncA -->
<g id="node8" class="node">
<title>3761018_FuncA</title>
<ellipse fill="#fff5f0" stroke="#000000" cx="567" cy="-258.43" rx="98.9899" ry="48.1667"/>
<text text-anchor="middle" x="567" y="-277.23" font-family="Times,serif" font-size="14.00" fill="#000000">scope=FuncA</text>
<text text-anchor="middle" x="567" y="-262.23" font-family="Times,serif" font-size="14.00" fill="#000000">total=145kB (50.18%)</text>
<text text-anchor="middle" x="567" y="-247.23" font-family="Times,serif" font-size="14.00" fill="#000000">self=1kB (0.38%)</text>
<text text-anchor="middle" x="567" y="-232.23" font-family="Times,serif" font-size="14.00" fill="#000000">num_alloc_self=1</text>
</g>
<!-- 3761018_ThreadMain&#45;&gt;3761018_FuncA -->
<g id="edge6" class="edge">
<title>3761018_ThreadMain&#45;&gt;3761018_FuncA</title>
<path fill="none" stroke="#000000" d="M576.5422,-342.5075C575.5909,-334.1257 574.5922,-325.3258 573.6139,-316.7056"/>
<polygon fill="#000000" stroke="#000000" points="577.0843,-316.2462 572.4789,-306.7047 570.129,-317.0356 577.0843,-316.2462"/>
</g>
<!-- 3761018_FuncB -->
<g id="node9" class="node">
<title>3761018_FuncB</title>
<ellipse fill="#fb6a4a" stroke="#000000" cx="577" cy="-129.4767" rx="118.5882" ry="37.4533"/>
<text text-anchor="middle" x="577" y="-140.7767" font-family="Times,serif" font-size="14.00" fill="#000000">scope=FuncB</text>
<text text-anchor="middle" x="577" y="-125.7767" font-family="Times,serif" font-size="14.00" fill="#000000">total=self=144kB (49.79%)</text>
<text text-anchor="middle" x="577" y="-110.7767" font-family="Times,serif" font-size="14.00" fill="#000000">num_alloc_self=2000</text>
</g>
<!-- 3761018_ThreadMain&#45;&gt;3761018_FuncB -->
<g id="edge7" class="edge">
<title>3761018_ThreadMain&#45;&gt;3761018_FuncB</title>
<path fill="none" stroke="#000000" d="M640.5159,-351.2388C654.4158,-338.7248 667.4037,-323.6219 675,-306.5132 698.7276,-253.0729 706.4623,-224.2381 675,-174.9533 672.3633,-170.823 669.2442,-167.0621 665.7685,-163.6382"/>
<polygon fill="#000000" stroke="#000000" points="668.028,-160.965 658.1739,-157.0732 663.4503,-166.2607 668.028,-160.965"/>
</g>
<!-- 3761018_FuncA&#45;&gt;3761018_FuncB -->
<g id="edge8" class="edge">
<title>3761018_FuncA&#45;&gt;3761018_FuncB</title>
<path fill="none" stroke="#000000" d="M570.7521,-210.0456C571.5837,-199.3223 572.4644,-187.9645 573.2941,-177.2651"/>
<polygon fill="#000000" stroke="#000000" points="576.787,-177.4915 574.0707,-167.2508 569.8079,-176.9502 576.787,-177.4915"/>
</g>
<!-- 3761019_NonInstrumented -->
<g id="node10" class="node">
<title>3761019_NonInstrumented</title>
<polygon fill="#cb181d" stroke="#000000" points="895.5,-560.6798 720.5,-560.6798 720.5,-492.6798 895.5,-492.6798 895.5,-560.6798"/>
<text text-anchor="middle" x="808" y="-545.4798" font-family="Times,serif" font-size="14.00" fill="#000000">thread=NonInstrumented</text>
<text text-anchor="middle" x="808" y="-530.4798" font-family="Times,serif" font-size="14.00" fill="#000000">TID=3761019</text>
<text text-anchor="middle" x="808" y="-515.4798" font-family="Times,serif" font-size="14.00" fill="#000000">total=self=156kB (100.00%)</text>
<text text-anchor="middle" x="808" y="-500.4798" font-family="Times,serif" font-size="14.00" fill="#000000">num_alloc_self=1101</text>
</g>
<!-- 3761020_exampleThr/2 -->
<g id="node11" class="node">
<title>3761020_exampleThr/2</title>
<polygon fill="#fff5f0" stroke="#000000" points="1112.5,-568.1798 965.5,-568.1798 965.5,-485.1798 1112.5,-485.1798 1112.5,-568.1798"/>
<text text-anchor="middle" x="1039" y="-552.9798" font-family="Times,serif" font-size="14.00" fill="#000000">thread=exampleThr/2</text>
<text text-anchor="middle" x="1039" y="-537.9798" font-family="Times,serif" font-size="14.00" fill="#000000">TID=3761020</text>
<text text-anchor="middle" x="1039" y="-522.9798" font-family="Times,serif" font-size="14.00" fill="#000000">total=237kB (100.00%)</text>
<text text-anchor="middle" x="1039" y="-507.9798" font-family="Times,serif" font-size="14.00" fill="#000000">self=31B (0.01%)</text>
<text text-anchor="middle" x="1039" y="-492.9798" font-family="Times,serif" font-size="14.00" fill="#000000">num_alloc_self=1</text>
</g>
<!-- 3761020_ThreadMain2 -->
<g id="node12" class="node">
<title>3761020_ThreadMain2</title>
<ellipse fill="#fee0d2" stroke="#000000" cx="1039" cy="-390.5965" rx="98.9899" ry="48.1667"/>
<text text-anchor="middle" x="1039" y="-409.3965" font-family="Times,serif" font-size="14.00" fill="#000000">scope=ThreadMain2</text>
<text text-anchor="middle" x="1039" y="-394.3965" font-family="Times,serif" font-size="14.00" fill="#000000">total=237kB (99.98%)</text>
<text text-anchor="middle" x="1039" y="-379.3965" font-family="Times,serif" font-size="14.00" fill="#000000">self=21kB (9.08%)</text>
<text text-anchor="middle" x="1039" y="-364.3965" font-family="Times,serif" font-size="14.00" fill="#000000">num_alloc_self=300</text>
</g>
<!-- 3761020_exampleThr/2&#45;&gt;3761020_ThreadMain2 -->
<g id="edge9" class="edge">
<title>3761020_exampleThr/2&#45;&gt;3761020_ThreadMain2</title>
<path fill="none" stroke="#000000" d="M1039,-485.1109C1039,-473.7528 1039,-461.2287 1039,-449.1154"/>
<polygon fill="#000000" stroke="#000000" points="1042.5001,-449.0714 1039,-439.0714 1035.5001,-449.0714 1042.5001,-449.0714"/>
</g>
<!-- 3761020_FuncB -->
<g id="node13" class="node">
<title>3761020_FuncB</title>
<ellipse fill="#cb181d" stroke="#000000" cx="1039" cy="-258.43" rx="118.5882" ry="37.4533"/>
<text text-anchor="middle" x="1039" y="-269.73" font-family="Times,serif" font-size="14.00" fill="#000000">scope=FuncB</text>
<text text-anchor="middle" x="1039" y="-254.73" font-family="Times,serif" font-size="14.00" fill="#000000">total=self=216kB (90.89%)</text>
<text text-anchor="middle" x="1039" y="-239.73" font-family="Times,serif" font-size="14.00" fill="#000000">num_alloc_self=3000</text>
</g>
<!-- 3761020_ThreadMain2&#45;&gt;3761020_FuncB -->
<g id="edge10" class="edge">
<title>3761020_ThreadMain2&#45;&gt;3761020_FuncB</title>
<path fill="none" stroke="#000000" d="M1039,-342.5075C1039,-330.6336 1039,-317.9208 1039,-306.0684"/>
<polygon fill="#000000" stroke="#000000" points="1042.5001,-305.9169 1039,-295.917 1035.5001,-305.917 1042.5001,-305.9169"/>
</g>
</g>
</svg>
