<?xml version="1.0" encoding="UTF-8" standalone="no"?>
<!DOCTYPE svg PUBLIC "-//W3C//DTD SVG 1.1//EN"
 "http://www.w3.org/Graphics/SVG/1.1/DTD/svg11.dtd">
<!-- Generated by graphviz version 2.40.1 (0)
 -->
<!-- Title: MallocTree Pages: 1 -->
<svg width="1470pt" height="813pt"
 viewBox="0.00 0.00 1470.00 813.00" xmlns="http://www.w3.org/2000/svg" xmlns:xlink="http://www.w3.org/1999/xlink">
<g id="graph0" class="graph" transform="scale(1 1) rotate(0) translate(4 808.997)">
<title>MallocTree</title>
<polygon fill="#ffffff" stroke="transparent" points="-4,4 -4,-808.997 1466,-808.997 1466,4 -4,4"/>
<text text-anchor="middle" x="731" y="-97.8" font-family="Times,serif" font-size="14.00" fill="#000000">Memory allocated before MallocTag initialization = 20MB</text>
<text text-anchor="middle" x="731" y="-82.8" font-family="Times,serif" font-size="14.00" fill="#000000">Memory allocated by MallocTag itself =307kB</text>
<text text-anchor="middle" x="731" y="-67.8" font-family="Times,serif" font-size="14.00" fill="#000000">Total memory tracked by MallocTag across all threads =21MB</text>
<text text-anchor="middle" x="731" y="-52.8" font-family="Times,serif" font-size="14.00" fill="#000000">Memory profiling session start timestamp = 2023&#45;09&#45;15 @ 01:02:39 CEST</text>
<text text-anchor="middle" x="731" y="-37.8" font-family="Times,serif" font-size="14.00" fill="#000000">This snapshot timestamp = 2023&#45;09&#45;15 @ 01:02:39 CEST</text>
<text text-anchor="middle" x="731" y="-22.8" font-family="Times,serif" font-size="14.00" fill="#000000">PID =957736</text>
<text text-anchor="middle" x="731" y="-7.8" font-family="Times,serif" font-size="14.00" fill="#000000">VmSizeNow =241MB</text>
<g id="clust1" class="cluster">
<title>cluster_TID957736</title>
<polygon fill="none" stroke="#000000" points="8,-602.997 8,-796.997 248,-796.997 248,-602.997 8,-602.997"/>
<text text-anchor="middle" x="128" y="-625.797" font-family="Times,serif" font-size="14.00" fill="#000000">nPushNodeFailures=0</text>
<text text-anchor="middle" x="128" y="-610.797" font-family="Times,serif" font-size="14.00" fill="#000000">nTreeNodesInUse/Max=1/256</text>
</g>
<g id="clust2" class="cluster">
<title>cluster_TID957737</title>
<polygon fill="none" stroke="#000000" points="256,-121 256,-760.997 534,-760.997 534,-121 256,-121"/>
<text text-anchor="middle" x="395" y="-143.8" font-family="Times,serif" font-size="14.00" fill="#000000">nPushNodeFailures=0</text>
<text text-anchor="middle" x="395" y="-128.8" font-family="Times,serif" font-size="14.00" fill="#000000">nTreeNodesInUse/Max=5/256</text>
</g>
<g id="clust3" class="cluster">
<title>cluster_TID957738</title>
<polygon fill="none" stroke="#000000" points="542,-121 542,-760.997 832,-760.997 832,-121 542,-121"/>
<text text-anchor="middle" x="687" y="-143.8" font-family="Times,serif" font-size="14.00" fill="#000000">nPushNodeFailures=0</text>
<text text-anchor="middle" x="687" y="-128.8" font-family="Times,serif" font-size="14.00" fill="#000000">nTreeNodesInUse/Max=5/256</text>
</g>
<g id="clust4" class="cluster">
<title>cluster_TID957739</title>
<polygon fill="none" stroke="#000000" points="840,-613.997 840,-785.997 1100,-785.997 1100,-613.997 840,-613.997"/>
<text text-anchor="middle" x="970" y="-636.797" font-family="Times,serif" font-size="14.00" fill="#000000">nPushNodeFailures=0</text>
<text text-anchor="middle" x="970" y="-621.797" font-family="Times,serif" font-size="14.00" fill="#000000">nTreeNodesInUse/Max=1/256</text>
</g>
<g id="clust5" class="cluster">
<title>cluster_TID957740</title>
<polygon fill="none" stroke="#000000" points="1108,-288.1371 1108,-760.997 1454,-760.997 1454,-288.1371 1108,-288.1371"/>
<text text-anchor="middle" x="1281" y="-310.9371" font-family="Times,serif" font-size="14.00" fill="#000000">nPushNodeFailures=0</text>
<text text-anchor="middle" x="1281" y="-295.9371" font-family="Times,serif" font-size="14.00" fill="#000000">nTreeNodesInUse/Max=3/256</text>
</g>
<!-- 957736_multithread -->
<g id="node1" class="node">
<title>957736_multithread</title>
<polygon fill="#cb181d" stroke="#000000" points="240,-788.997 16,-788.997 16,-648.997 240,-648.997 240,-788.997"/>
<text text-anchor="middle" x="128" y="-768.997" font-family="Times,serif" font-size="20.00" fill="#000000">thread=multithread</text>
<text text-anchor="middle" x="128" y="-746.997" font-family="Times,serif" font-size="20.00" fill="#000000">TID=957736</text>
<text text-anchor="middle" x="128" y="-724.997" font-family="Times,serif" font-size="20.00" fill="#000000">total=self=2kB (100.00%)</text>
<text text-anchor="middle" x="128" y="-702.997" font-family="Times,serif" font-size="20.00" fill="#000000">num_malloc_self=8</text>
<text text-anchor="middle" x="128" y="-680.997" font-family="Times,serif" font-size="20.00" fill="#000000">num_calloc_self=3</text>
<text text-anchor="middle" x="128" y="-658.997" font-family="Times,serif" font-size="20.00" fill="#000000">num_free_self=19</text>
</g>
<!-- 957737_exampleThr/0 -->
<g id="node2" class="node">
<title>957737_exampleThr/0</title>
<polygon fill="#fff5f0" stroke="#000000" points="423.5,-752.997 322.5,-752.997 322.5,-684.997 423.5,-684.997 423.5,-752.997"/>
<text text-anchor="middle" x="373" y="-741.797" font-family="Times,serif" font-size="9.00" fill="#000000">thread=exampleThr/0</text>
<text text-anchor="middle" x="373" y="-731.797" font-family="Times,serif" font-size="9.00" fill="#000000">TID=957737</text>
<text text-anchor="middle" x="373" y="-721.797" font-family="Times,serif" font-size="9.00" fill="#000000">total=144kB (100.00%)</text>
<text text-anchor="middle" x="373" y="-711.797" font-family="Times,serif" font-size="9.00" fill="#000000">self=31B (0.02%)</text>
<text text-anchor="middle" x="373" y="-701.797" font-family="Times,serif" font-size="9.00" fill="#000000">num_malloc_self=1</text>
<text text-anchor="middle" x="373" y="-691.797" font-family="Times,serif" font-size="9.00" fill="#000000">num_free_self=3</text>
</g>
<!-- 957737_ThreadMain -->
<g id="node3" class="node">
<title>957737_ThreadMain</title>
<ellipse fill="#fff5f0" stroke="#000000" cx="373" cy="-550.4493" rx="68.6788" ry="33.8824"/>
<text text-anchor="middle" x="373" y="-563.2493" font-family="Times,serif" font-size="9.00" fill="#000000">scope=ThreadMain</text>
<text text-anchor="middle" x="373" y="-553.2493" font-family="Times,serif" font-size="9.00" fill="#000000">total=144kB (99.97%)</text>
<text text-anchor="middle" x="373" y="-543.2493" font-family="Times,serif" font-size="9.00" fill="#000000">self=5B (0.00%)</text>
<text text-anchor="middle" x="373" y="-533.2493" font-family="Times,serif" font-size="9.00" fill="#000000">num_malloc_self=1</text>
</g>
<!-- 957737_exampleThr/0&#45;&gt;957737_ThreadMain -->
<g id="edge1" class="edge">
<title>957737_exampleThr/0&#45;&gt;957737_ThreadMain</title>
<path fill="none" stroke="#000000" d="M373,-684.8889C373,-658.845 373,-622.7511 373,-594.5191"/>
<polygon fill="#000000" stroke="#000000" points="376.5001,-594.5067 373,-584.5067 369.5001,-594.5068 376.5001,-594.5067"/>
</g>
<!-- 957737_FuncA -->
<g id="node4" class="node">
<title>957737_FuncA</title>
<ellipse fill="#fff5f0" stroke="#000000" cx="351" cy="-402.0193" rx="65.1077" ry="33.8824"/>
<text text-anchor="middle" x="351" y="-414.8193" font-family="Times,serif" font-size="9.00" fill="#000000">scope=FuncA</text>
<text text-anchor="middle" x="351" y="-404.8193" font-family="Times,serif" font-size="9.00" fill="#000000">total=72kB (50.02%)</text>
<text text-anchor="middle" x="351" y="-394.8193" font-family="Times,serif" font-size="9.00" fill="#000000">self=100B (0.06%)</text>
<text text-anchor="middle" x="351" y="-384.8193" font-family="Times,serif" font-size="9.00" fill="#000000">num_malloc_self=1</text>
</g>
<!-- 957737_ThreadMain&#45;&gt;957737_FuncA -->
<g id="edge2" class="edge">
<title>957737_ThreadMain&#45;&gt;957737_FuncA</title>
<path fill="none" stroke="#000000" d="M367.9528,-516.3965C364.8505,-495.4659 360.8442,-468.4366 357.5053,-445.9092"/>
<polygon fill="#000000" stroke="#000000" points="360.9522,-445.2925 356.0238,-435.9137 354.0278,-446.3188 360.9522,-445.2925"/>
</g>
<!-- 957737_FuncB -->
<g id="node5" class="node">
<title>957737_FuncB</title>
<ellipse fill="#fb6a4a" stroke="#000000" cx="395" cy="-223.5685" rx="130.6298" ry="56.6372"/>
<text text-anchor="middle" x="395" y="-246.7685" font-family="Times,serif" font-size="16.00" fill="#000000">scope=FuncB</text>
<text text-anchor="middle" x="395" y="-228.7685" font-family="Times,serif" font-size="16.00" fill="#000000">total=self=72kB (49.95%)</text>
<text text-anchor="middle" x="395" y="-210.7685" font-family="Times,serif" font-size="16.00" fill="#000000">num_malloc_self=1000</text>
<text text-anchor="middle" x="395" y="-192.7685" font-family="Times,serif" font-size="16.00" fill="#000000">num_free_self=1000</text>
</g>
<!-- 957737_ThreadMain&#45;&gt;957737_FuncB -->
<g id="edge3" class="edge">
<title>957737_ThreadMain&#45;&gt;957737_FuncB</title>
<path fill="none" stroke="#000000" d="M399.3972,-518.873C409.4948,-504.8053 419.8235,-487.464 425,-469.9016 446.9473,-395.4401 442.8098,-369.0819 424.8295,-289.0699"/>
<polygon fill="#000000" stroke="#000000" points="428.1819,-288.0254 422.5689,-279.0395 421.3532,-289.5644 428.1819,-288.0254"/>
</g>
<!-- 957737_FuncA&#45;&gt;957737_FuncB -->
<g id="edge4" class="edge">
<title>957737_FuncA&#45;&gt;957737_FuncB</title>
<path fill="none" stroke="#000000" d="M359.3796,-368.0341C364.8185,-345.9754 372.0885,-316.4905 378.6422,-289.911"/>
<polygon fill="#000000" stroke="#000000" points="382.1177,-290.4351 381.1135,-279.8879 375.3212,-288.7592 382.1177,-290.4351"/>
</g>
<!-- 957738_exampleThr/1 -->
<g id="node6" class="node">
<title>957738_exampleThr/1</title>
<polygon fill="#fff5f0" stroke="#000000" points="747.5,-752.997 646.5,-752.997 646.5,-684.997 747.5,-684.997 747.5,-752.997"/>
<text text-anchor="middle" x="697" y="-741.797" font-family="Times,serif" font-size="9.00" fill="#000000">thread=exampleThr/1</text>
<text text-anchor="middle" x="697" y="-731.797" font-family="Times,serif" font-size="9.00" fill="#000000">TID=957738</text>
<text text-anchor="middle" x="697" y="-721.797" font-family="Times,serif" font-size="9.00" fill="#000000">total=289kB (100.00%)</text>
<text text-anchor="middle" x="697" y="-711.797" font-family="Times,serif" font-size="9.00" fill="#000000">self=31B (0.01%)</text>
<text text-anchor="middle" x="697" y="-701.797" font-family="Times,serif" font-size="9.00" fill="#000000">num_malloc_self=1</text>
<text text-anchor="middle" x="697" y="-691.797" font-family="Times,serif" font-size="9.00" fill="#000000">num_free_self=3</text>
</g>
<!-- 957738_ThreadMain -->
<g id="node7" class="node">
<title>957738_ThreadMain</title>
<ellipse fill="#fff5f0" stroke="#000000" cx="697" cy="-550.4493" rx="68.6788" ry="33.8824"/>
<text text-anchor="middle" x="697" y="-563.2493" font-family="Times,serif" font-size="9.00" fill="#000000">scope=ThreadMain</text>
<text text-anchor="middle" x="697" y="-553.2493" font-family="Times,serif" font-size="9.00" fill="#000000">total=289kB (99.98%)</text>
<text text-anchor="middle" x="697" y="-543.2493" font-family="Times,serif" font-size="9.00" fill="#000000">self=5B (0.00%)</text>
<text text-anchor="middle" x="697" y="-533.2493" font-family="Times,serif" font-size="9.00" fill="#000000">num_malloc_self=1</text>
</g>
<!-- 957738_exampleThr/1&#45;&gt;957738_ThreadMain -->
<g id="edge5" class="edge">
<title>957738_exampleThr/1&#45;&gt;957738_ThreadMain</title>
<path fill="none" stroke="#000000" d="M697,-684.8889C697,-658.845 697,-622.7511 697,-594.5191"/>
<polygon fill="#000000" stroke="#000000" points="700.5001,-594.5067 697,-584.5067 693.5001,-594.5068 700.5001,-594.5067"/>
</g>
<!-- 957738_FuncA -->
<g id="node8" class="node">
<title>957738_FuncA</title>
<ellipse fill="#fff5f0" stroke="#000000" cx="653" cy="-402.0193" rx="68.6788" ry="33.8824"/>
<text text-anchor="middle" x="653" y="-414.8193" font-family="Times,serif" font-size="9.00" fill="#000000">scope=FuncA</text>
<text text-anchor="middle" x="653" y="-404.8193" font-family="Times,serif" font-size="9.00" fill="#000000">total=145kB (50.18%)</text>
<text text-anchor="middle" x="653" y="-394.8193" font-family="Times,serif" font-size="9.00" fill="#000000">self=1kB (0.38%)</text>
<text text-anchor="middle" x="653" y="-384.8193" font-family="Times,serif" font-size="9.00" fill="#000000">num_malloc_self=1</text>
</g>
<!-- 957738_ThreadMain&#45;&gt;957738_FuncA -->
<g id="edge6" class="edge">
<title>957738_ThreadMain&#45;&gt;957738_FuncA</title>
<path fill="none" stroke="#000000" d="M687.0157,-516.7683C680.7652,-495.6826 672.648,-468.2999 665.9107,-445.5723"/>
<polygon fill="#000000" stroke="#000000" points="669.2187,-444.4165 663.0208,-435.8237 662.5073,-446.4061 669.2187,-444.4165"/>
</g>
<!-- 957738_FuncB -->
<g id="node9" class="node">
<title>957738_FuncB</title>
<ellipse fill="#fb6a4a" stroke="#000000" cx="687" cy="-223.5685" rx="137.3577" ry="56.6372"/>
<text text-anchor="middle" x="687" y="-246.7685" font-family="Times,serif" font-size="16.00" fill="#000000">scope=FuncB</text>
<text text-anchor="middle" x="687" y="-228.7685" font-family="Times,serif" font-size="16.00" fill="#000000">total=self=144kB (49.79%)</text>
<text text-anchor="middle" x="687" y="-210.7685" font-family="Times,serif" font-size="16.00" fill="#000000">num_malloc_self=2000</text>
<text text-anchor="middle" x="687" y="-192.7685" font-family="Times,serif" font-size="16.00" fill="#000000">num_free_self=2000</text>
</g>
<!-- 957738_ThreadMain&#45;&gt;957738_FuncB -->
<g id="edge7" class="edge">
<title>957738_ThreadMain&#45;&gt;957738_FuncB</title>
<path fill="none" stroke="#000000" d="M714.5106,-517.3146C721.0667,-503.1271 727.7177,-486.1176 731,-469.9016 747.0264,-390.723 754.8026,-365.3351 731,-288.1371 730.8988,-287.809 730.7954,-287.481 730.6896,-287.1533"/>
<polygon fill="#000000" stroke="#000000" points="733.9171,-285.7952 727.0443,-277.7319 727.3887,-288.3212 733.9171,-285.7952"/>
</g>
<!-- 957738_FuncA&#45;&gt;957738_FuncB -->
<g id="edge8" class="edge">
<title>957738_FuncA&#45;&gt;957738_FuncB</title>
<path fill="none" stroke="#000000" d="M659.4752,-368.0341C663.6609,-346.0651 669.25,-316.7301 674.2981,-290.2353"/>
<polygon fill="#000000" stroke="#000000" points="677.7687,-290.7196 676.2022,-280.2412 670.8924,-289.4094 677.7687,-290.7196"/>
</g>
<!-- 957739_NonInstrumented -->
<g id="node10" class="node">
<title>957739_NonInstrumented</title>
<polygon fill="#cb181d" stroke="#000000" points="1091.5,-777.997 848.5,-777.997 848.5,-659.997 1091.5,-659.997 1091.5,-777.997"/>
<text text-anchor="middle" x="970" y="-757.997" font-family="Times,serif" font-size="20.00" fill="#000000">thread=NonInstrumented</text>
<text text-anchor="middle" x="970" y="-735.997" font-family="Times,serif" font-size="20.00" fill="#000000">TID=957739</text>
<text text-anchor="middle" x="970" y="-713.997" font-family="Times,serif" font-size="20.00" fill="#000000">total=self=156kB (100.00%)</text>
<text text-anchor="middle" x="970" y="-691.997" font-family="Times,serif" font-size="20.00" fill="#000000">num_malloc_self=1101</text>
<text text-anchor="middle" x="970" y="-669.997" font-family="Times,serif" font-size="20.00" fill="#000000">num_free_self=1103</text>
</g>
<!-- 957740_exampleThr/2 -->
<g id="node11" class="node">
<title>957740_exampleThr/2</title>
<polygon fill="#fff5f0" stroke="#000000" points="1331.5,-752.997 1230.5,-752.997 1230.5,-684.997 1331.5,-684.997 1331.5,-752.997"/>
<text text-anchor="middle" x="1281" y="-741.797" font-family="Times,serif" font-size="9.00" fill="#000000">thread=exampleThr/2</text>
<text text-anchor="middle" x="1281" y="-731.797" font-family="Times,serif" font-size="9.00" fill="#000000">TID=957740</text>
<text text-anchor="middle" x="1281" y="-721.797" font-family="Times,serif" font-size="9.00" fill="#000000">total=237kB (100.00%)</text>
<text text-anchor="middle" x="1281" y="-711.797" font-family="Times,serif" font-size="9.00" fill="#000000">self=31B (0.01%)</text>
<text text-anchor="middle" x="1281" y="-701.797" font-family="Times,serif" font-size="9.00" fill="#000000">num_malloc_self=1</text>
<text text-anchor="middle" x="1281" y="-691.797" font-family="Times,serif" font-size="9.00" fill="#000000">num_free_self=3</text>
</g>
<!-- 957740_ThreadMain2 -->
<g id="node12" class="node">
<title>957740_ThreadMain2</title>
<ellipse fill="#fee0d2" stroke="#000000" cx="1281" cy="-550.4493" rx="77.1494" ry="44.5955"/>
<text text-anchor="middle" x="1281" y="-569.9493" font-family="Times,serif" font-size="10.00" fill="#000000">scope=ThreadMain2</text>
<text text-anchor="middle" x="1281" y="-558.9493" font-family="Times,serif" font-size="10.00" fill="#000000">total=237kB (99.98%)</text>
<text text-anchor="middle" x="1281" y="-547.9493" font-family="Times,serif" font-size="10.00" fill="#000000">self=21kB (9.08%)</text>
<text text-anchor="middle" x="1281" y="-536.9493" font-family="Times,serif" font-size="10.00" fill="#000000">num_malloc_self=300</text>
<text text-anchor="middle" x="1281" y="-525.9493" font-family="Times,serif" font-size="10.00" fill="#000000">num_free_self=300</text>
</g>
<!-- 957740_exampleThr/2&#45;&gt;957740_ThreadMain2 -->
<g id="edge9" class="edge">
<title>957740_exampleThr/2&#45;&gt;957740_ThreadMain2</title>
<path fill="none" stroke="#000000" d="M1281,-684.8889C1281,-662.0456 1281,-631.4707 1281,-605.2507"/>
<polygon fill="#000000" stroke="#000000" points="1284.5001,-605.0675 1281,-595.0675 1277.5001,-605.0676 1284.5001,-605.0675"/>
</g>
<!-- 957740_FuncB -->
<g id="node13" class="node">
<title>957740_FuncB</title>
<ellipse fill="#cb181d" stroke="#000000" cx="1281" cy="-402.0193" rx="164.5121" ry="67.7647"/>
<text text-anchor="middle" x="1281" y="-430.0193" font-family="Times,serif" font-size="20.00" fill="#000000">scope=FuncB</text>
<text text-anchor="middle" x="1281" y="-408.0193" font-family="Times,serif" font-size="20.00" fill="#000000">total=self=216kB (90.89%)</text>
<text text-anchor="middle" x="1281" y="-386.0193" font-family="Times,serif" font-size="20.00" fill="#000000">num_malloc_self=3000</text>
<text text-anchor="middle" x="1281" y="-364.0193" font-family="Times,serif" font-size="20.00" fill="#000000">num_free_self=3000</text>
</g>
<!-- 957740_ThreadMain2&#45;&gt;957740_FuncB -->
<g id="edge10" class="edge">
<title>957740_ThreadMain2&#45;&gt;957740_FuncB</title>
<path fill="none" stroke="#000000" d="M1281,-505.5126C1281,-497.4787 1281,-488.8996 1281,-480.2475"/>
<polygon fill="#000000" stroke="#000000" points="1284.5001,-480.0855 1281,-470.0856 1277.5001,-480.0856 1284.5001,-480.0855"/>
</g>
</g>
</svg>
