<?xml version="1.0" encoding="UTF-8" standalone="no"?>
<!DOCTYPE svg PUBLIC "-//W3C//DTD SVG 1.1//EN"
 "http://www.w3.org/Graphics/SVG/1.1/DTD/svg11.dtd">
<!-- Generated by graphviz version 2.40.1 (0)
 -->
<!-- Title: MallocTree Pages: 1 -->
<svg width="1366pt" height="774pt"
 viewBox="0.00 0.00 1366.00 774.00" xmlns="http://www.w3.org/2000/svg" xmlns:xlink="http://www.w3.org/1999/xlink">
<g id="graph0" class="graph" transform="scale(1 1) rotate(0) translate(4 770.0021)">
<title>MallocTree</title>
<polygon fill="#ffffff" stroke="transparent" points="-4,4 -4,-770.0021 1362,-770.0021 1362,4 -4,4"/>
<text text-anchor="middle" x="679" y="-112.8" font-family="Times,serif" font-size="14.00" fill="#000000">Memory allocated before MallocTag initialization = 476kB</text>
<text text-anchor="middle" x="679" y="-97.8" font-family="Times,serif" font-size="14.00" fill="#000000">Memory allocated by MallocTag itself =327kB</text>
<text text-anchor="middle" x="679" y="-82.8" font-family="Times,serif" font-size="14.00" fill="#000000">Total memory tracked by MallocTag across all threads =566MB</text>
<text text-anchor="middle" x="679" y="-67.8" font-family="Times,serif" font-size="14.00" fill="#000000">vmSizeNowBytes = 241MB</text>
<text text-anchor="middle" x="679" y="-52.8" font-family="Times,serif" font-size="14.00" fill="#000000">vmRSSNowBytes = 241MB</text>
<text text-anchor="middle" x="679" y="-37.8" font-family="Times,serif" font-size="14.00" fill="#000000">Memory profiling session start timestamp = 2023&#45;09&#45;21 @ 17:11:25 CEST</text>
<text text-anchor="middle" x="679" y="-22.8" font-family="Times,serif" font-size="14.00" fill="#000000">This snapshot timestamp = 2023&#45;09&#45;21 @ 17:11:25 CEST</text>
<text text-anchor="middle" x="679" y="-7.8" font-family="Times,serif" font-size="14.00" fill="#000000">PID = 2349999</text>
<g id="clust1" class="cluster">
<title>cluster_TID2349999</title>
<polygon fill="none" stroke="#000000" points="8,-549.0021 8,-758.0021 248,-758.0021 248,-549.0021 8,-549.0021"/>
<text text-anchor="middle" x="128" y="-586.8021" font-family="Times,serif" font-size="14.00" fill="#000000">TID=2349999</text>
<text text-anchor="middle" x="128" y="-571.8021" font-family="Times,serif" font-size="14.00" fill="#000000">nPushNodeFailures=0</text>
<text text-anchor="middle" x="128" y="-556.8021" font-family="Times,serif" font-size="14.00" fill="#000000">nTreeNodesInUse/Max=1/256</text>
</g>
<g id="clust2" class="cluster">
<title>cluster_TID2350000</title>
<polygon fill="none" stroke="#000000" points="256,-136 256,-722.0021 608,-722.0021 608,-136 256,-136"/>
<text text-anchor="middle" x="432" y="-173.8" font-family="Times,serif" font-size="14.00" fill="#000000">TID=2350000</text>
<text text-anchor="middle" x="432" y="-158.8" font-family="Times,serif" font-size="14.00" fill="#000000">nPushNodeFailures=0</text>
<text text-anchor="middle" x="432" y="-143.8" font-family="Times,serif" font-size="14.00" fill="#000000">nTreeNodesInUse/Max=5/256</text>
</g>
<g id="clust3" class="cluster">
<title>cluster_TID2350001</title>
<polygon fill="none" stroke="#000000" points="616,-136 616,-722.0021 954,-722.0021 954,-136 616,-136"/>
<text text-anchor="middle" x="785" y="-173.8" font-family="Times,serif" font-size="14.00" fill="#000000">TID=2350001</text>
<text text-anchor="middle" x="785" y="-158.8" font-family="Times,serif" font-size="14.00" fill="#000000">nPushNodeFailures=0</text>
<text text-anchor="middle" x="785" y="-143.8" font-family="Times,serif" font-size="14.00" fill="#000000">nTreeNodesInUse/Max=5/256</text>
</g>
<g id="clust4" class="cluster">
<title>cluster_TID2350002</title>
<polygon fill="none" stroke="#000000" points="962,-590.0021 962,-717.0021 1144,-717.0021 1144,-590.0021 962,-590.0021"/>
<text text-anchor="middle" x="1053" y="-627.8021" font-family="Times,serif" font-size="14.00" fill="#000000">TID=2350002</text>
<text text-anchor="middle" x="1053" y="-612.8021" font-family="Times,serif" font-size="14.00" fill="#000000">nPushNodeFailures=0</text>
<text text-anchor="middle" x="1053" y="-597.8021" font-family="Times,serif" font-size="14.00" fill="#000000">nTreeNodesInUse/Max=1/256</text>
</g>
<g id="clust5" class="cluster">
<title>cluster_TID2350003</title>
<polygon fill="none" stroke="#000000" points="1152,-272.8823 1152,-717.0021 1350,-717.0021 1350,-272.8823 1152,-272.8823"/>
<text text-anchor="middle" x="1251" y="-310.6823" font-family="Times,serif" font-size="14.00" fill="#000000">TID=2350003</text>
<text text-anchor="middle" x="1251" y="-295.6823" font-family="Times,serif" font-size="14.00" fill="#000000">nPushNodeFailures=0</text>
<text text-anchor="middle" x="1251" y="-280.6823" font-family="Times,serif" font-size="14.00" fill="#000000">nTreeNodesInUse/Max=3/256</text>
</g>
<!-- 2349999_multithread -->
<g id="node1" class="node">
<title>2349999_multithread</title>
<polygon fill="#cb181d" stroke="#000000" points="240,-750.0021 16,-750.0021 16,-610.0021 240,-610.0021 240,-750.0021"/>
<text text-anchor="middle" x="128" y="-730.0021" font-family="Times,serif" font-size="20.00" fill="#000000">thread=multithread</text>
<text text-anchor="middle" x="128" y="-708.0021" font-family="Times,serif" font-size="20.00" fill="#000000">TID=2349999</text>
<text text-anchor="middle" x="128" y="-686.0021" font-family="Times,serif" font-size="20.00" fill="#000000">total=self=2kB (100.00%)</text>
<text text-anchor="middle" x="128" y="-664.0021" font-family="Times,serif" font-size="20.00" fill="#000000">num_malloc_self=14</text>
<text text-anchor="middle" x="128" y="-642.0021" font-family="Times,serif" font-size="20.00" fill="#000000">num_calloc_self=3</text>
<text text-anchor="middle" x="128" y="-620.0021" font-family="Times,serif" font-size="20.00" fill="#000000">num_free_self=25</text>
</g>
<!-- 2350000_ExampleThr/0 -->
<g id="node2" class="node">
<title>2350000_ExampleThr/0</title>
<polygon fill="#fff5f0" stroke="#000000" points="514.5,-714.0021 417.5,-714.0021 417.5,-646.0021 514.5,-646.0021 514.5,-714.0021"/>
<text text-anchor="middle" x="466" y="-702.8021" font-family="Times,serif" font-size="9.00" fill="#000000">thread=ExampleThr/0</text>
<text text-anchor="middle" x="466" y="-692.8021" font-family="Times,serif" font-size="9.00" fill="#000000">TID=2350000</text>
<text text-anchor="middle" x="466" y="-682.8021" font-family="Times,serif" font-size="9.00" fill="#000000">total=128B (100.00%)</text>
<text text-anchor="middle" x="466" y="-672.8021" font-family="Times,serif" font-size="9.00" fill="#000000">self=0B (0.00%)</text>
<text text-anchor="middle" x="466" y="-662.8021" font-family="Times,serif" font-size="9.00" fill="#000000">num_malloc_self=1</text>
<text text-anchor="middle" x="466" y="-652.8021" font-family="Times,serif" font-size="9.00" fill="#000000">num_free_self=2</text>
</g>
<!-- 2350000_ExampleThread -->
<g id="node3" class="node">
<title>2350000_ExampleThread</title>
<ellipse fill="#fcbba1" stroke="#000000" cx="466" cy="-498.5757" rx="89.191" ry="42.3529"/>
<text text-anchor="middle" x="466" y="-514.9757" font-family="Times,serif" font-size="12.00" fill="#000000">scope=ExampleThread</text>
<text text-anchor="middle" x="466" y="-501.9757" font-family="Times,serif" font-size="12.00" fill="#000000">total=128B (100.00%)</text>
<text text-anchor="middle" x="466" y="-488.9757" font-family="Times,serif" font-size="12.00" fill="#000000">self=24B (18.75%)</text>
<text text-anchor="middle" x="466" y="-475.9757" font-family="Times,serif" font-size="12.00" fill="#000000">num_malloc_self=1</text>
</g>
<!-- 2350000_ExampleThr/0&#45;&gt;2350000_ExampleThread -->
<g id="edge1" class="edge">
<title>2350000_ExampleThr/0&#45;&gt;2350000_ExampleThread</title>
<path fill="none" stroke="#000000" d="M466,-645.8772C466,-619.2253 466,-581.7226 466,-551.2288"/>
<polygon fill="#000000" stroke="#000000" points="469.5001,-551.1819 466,-541.182 462.5001,-551.182 469.5001,-551.1819"/>
</g>
<!-- 2350000_FuncA -->
<g id="node4" class="node">
<title>2350000_FuncA</title>
<ellipse fill="#cb181d" stroke="#000000" cx="422" cy="-367.8234" rx="158.2839" ry="52.1524"/>
<text text-anchor="middle" x="422" y="-384.8234" font-family="Times,serif" font-size="20.00" fill="#000000">scope=FuncA</text>
<text text-anchor="middle" x="422" y="-362.8234" font-family="Times,serif" font-size="20.00" fill="#000000">total=self=104B (81.25%)</text>
<text text-anchor="middle" x="422" y="-340.8234" font-family="Times,serif" font-size="20.00" fill="#000000">num_malloc_self=1</text>
</g>
<!-- 2350000_ExampleThread&#45;&gt;2350000_FuncA -->
<g id="edge2" class="edge">
<title>2350000_ExampleThread&#45;&gt;2350000_FuncA</title>
<path fill="none" stroke="#000000" d="M451.8359,-456.4851C448.9272,-447.8415 445.8083,-438.5733 442.723,-429.4049"/>
<polygon fill="#000000" stroke="#000000" points="446.0369,-428.2784 439.5302,-419.917 439.4025,-430.511 446.0369,-428.2784"/>
</g>
<!-- 2350000_FuncB -->
<g id="node5" class="node">
<title>2350000_FuncB</title>
<ellipse fill="#fff5f0" stroke="#000000" cx="475" cy="-230.9411" rx="71.3357" ry="33.8824"/>
<text text-anchor="middle" x="475" y="-243.7411" font-family="Times,serif" font-size="9.00" fill="#000000">scope=FuncB</text>
<text text-anchor="middle" x="475" y="-233.7411" font-family="Times,serif" font-size="9.00" fill="#000000">total=self=0B (0.00%)</text>
<text text-anchor="middle" x="475" y="-223.7411" font-family="Times,serif" font-size="9.00" fill="#000000">num_malloc_self=1000</text>
<text text-anchor="middle" x="475" y="-213.7411" font-family="Times,serif" font-size="9.00" fill="#000000">num_free_self=1000</text>
</g>
<!-- 2350000_ExampleThread&#45;&gt;2350000_FuncB -->
<g id="edge3" class="edge">
<title>2350000_ExampleThread&#45;&gt;2350000_FuncB</title>
<path fill="none" stroke="#000000" d="M534.4403,-471.0695C555.8186,-458.8427 576.9447,-442.1332 589,-420.1493 604.7353,-391.4545 607.7243,-299.7224 589,-272.8823 583.3229,-264.7445 566.4159,-256.9223 547.302,-250.2833"/>
<polygon fill="#000000" stroke="#000000" points="548.3746,-246.9516 537.7811,-247.123 546.1693,-253.5952 548.3746,-246.9516"/>
</g>
<!-- 2350000_FuncA&#45;&gt;2350000_FuncB -->
<g id="edge4" class="edge">
<title>2350000_FuncA&#45;&gt;2350000_FuncB</title>
<path fill="none" stroke="#000000" d="M442.1882,-315.6836C447.5553,-301.8221 453.2892,-287.0133 458.4378,-273.7161"/>
<polygon fill="#000000" stroke="#000000" points="461.7228,-274.9252 462.0697,-264.336 455.195,-272.3976 461.7228,-274.9252"/>
</g>
<!-- 2350001_ExampleThr/1 -->
<g id="node6" class="node">
<title>2350001_ExampleThr/1</title>
<polygon fill="#fff5f0" stroke="#000000" points="873,-714.0021 779,-714.0021 779,-646.0021 873,-646.0021 873,-714.0021"/>
<text text-anchor="middle" x="826" y="-702.8021" font-family="Times,serif" font-size="9.00" fill="#000000">thread=ExampleThr/1</text>
<text text-anchor="middle" x="826" y="-692.8021" font-family="Times,serif" font-size="9.00" fill="#000000">TID=2350001</text>
<text text-anchor="middle" x="826" y="-682.8021" font-family="Times,serif" font-size="9.00" fill="#000000">total=1kB (100.00%)</text>
<text text-anchor="middle" x="826" y="-672.8021" font-family="Times,serif" font-size="9.00" fill="#000000">self=0B (0.00%)</text>
<text text-anchor="middle" x="826" y="-662.8021" font-family="Times,serif" font-size="9.00" fill="#000000">num_malloc_self=1</text>
<text text-anchor="middle" x="826" y="-652.8021" font-family="Times,serif" font-size="9.00" fill="#000000">num_free_self=2</text>
</g>
<!-- 2350001_ExampleThread -->
<g id="node7" class="node">
<title>2350001_ExampleThread</title>
<ellipse fill="#fff5f0" stroke="#000000" cx="826" cy="-498.5757" rx="69.0935" ry="33.8824"/>
<text text-anchor="middle" x="826" y="-511.3757" font-family="Times,serif" font-size="9.00" fill="#000000">scope=ExampleThread</text>
<text text-anchor="middle" x="826" y="-501.3757" font-family="Times,serif" font-size="9.00" fill="#000000">total=1kB (100.00%)</text>
<text text-anchor="middle" x="826" y="-491.3757" font-family="Times,serif" font-size="9.00" fill="#000000">self=24B (2.08%)</text>
<text text-anchor="middle" x="826" y="-481.3757" font-family="Times,serif" font-size="9.00" fill="#000000">num_malloc_self=1</text>
</g>
<!-- 2350001_ExampleThr/1&#45;&gt;2350001_ExampleThread -->
<g id="edge5" class="edge">
<title>2350001_ExampleThr/1&#45;&gt;2350001_ExampleThread</title>
<path fill="none" stroke="#000000" d="M826,-645.8772C826,-616.7353 826,-574.6205 826,-542.8802"/>
<polygon fill="#000000" stroke="#000000" points="829.5001,-542.5476 826,-532.5476 822.5001,-542.5476 829.5001,-542.5476"/>
</g>
<!-- 2350001_FuncA -->
<g id="node8" class="node">
<title>2350001_FuncA</title>
<ellipse fill="#cb181d" stroke="#000000" cx="775" cy="-367.8234" rx="151.1419" ry="52.1524"/>
<text text-anchor="middle" x="775" y="-384.8234" font-family="Times,serif" font-size="20.00" fill="#000000">scope=FuncA</text>
<text text-anchor="middle" x="775" y="-362.8234" font-family="Times,serif" font-size="20.00" fill="#000000">total=self=1kB (97.91%)</text>
<text text-anchor="middle" x="775" y="-340.8234" font-family="Times,serif" font-size="20.00" fill="#000000">num_malloc_self=1</text>
</g>
<!-- 2350001_ExampleThread&#45;&gt;2350001_FuncA -->
<g id="edge6" class="edge">
<title>2350001_ExampleThread&#45;&gt;2350001_FuncA</title>
<path fill="none" stroke="#000000" d="M812.8662,-464.9037C808.6094,-453.9901 803.7458,-441.5211 798.9553,-429.2393"/>
<polygon fill="#000000" stroke="#000000" points="802.2121,-427.9571 795.3174,-419.9126 795.6906,-430.5008 802.2121,-427.9571"/>
</g>
<!-- 2350001_FuncB -->
<g id="node9" class="node">
<title>2350001_FuncB</title>
<ellipse fill="#fff5f0" stroke="#000000" cx="825" cy="-230.9411" rx="71.3357" ry="33.8824"/>
<text text-anchor="middle" x="825" y="-243.7411" font-family="Times,serif" font-size="9.00" fill="#000000">scope=FuncB</text>
<text text-anchor="middle" x="825" y="-233.7411" font-family="Times,serif" font-size="9.00" fill="#000000">total=self=0B (0.00%)</text>
<text text-anchor="middle" x="825" y="-223.7411" font-family="Times,serif" font-size="9.00" fill="#000000">num_malloc_self=2000</text>
<text text-anchor="middle" x="825" y="-213.7411" font-family="Times,serif" font-size="9.00" fill="#000000">num_free_self=2000</text>
</g>
<!-- 2350001_ExampleThread&#45;&gt;2350001_FuncB -->
<g id="edge7" class="edge">
<title>2350001_ExampleThread&#45;&gt;2350001_FuncB</title>
<path fill="none" stroke="#000000" d="M877.0764,-475.4576C899.1308,-462.5753 922.6671,-444.2163 935,-420.1493 964.8492,-361.8999 972.1331,-326.7812 935,-272.8823 929.7658,-265.2848 914.5427,-257.8298 897.0271,-251.3616"/>
<polygon fill="#000000" stroke="#000000" points="897.704,-247.8897 887.1092,-247.8751 895.3825,-254.4935 897.704,-247.8897"/>
</g>
<!-- 2350001_FuncA&#45;&gt;2350001_FuncB -->
<g id="edge8" class="edge">
<title>2350001_FuncA&#45;&gt;2350001_FuncB</title>
<path fill="none" stroke="#000000" d="M794.0455,-315.6836C799.0156,-302.0771 804.3192,-287.5578 809.1066,-274.4515"/>
<polygon fill="#000000" stroke="#000000" points="812.5094,-275.3367 812.653,-264.7429 805.9343,-272.935 812.5094,-275.3367"/>
</g>
<!-- 2350002_NonInstrThr -->
<g id="node10" class="node">
<title>2350002_NonInstrThr</title>
<polygon fill="#fff5f0" stroke="#000000" points="1103.5,-709.0021 1002.5,-709.0021 1002.5,-651.0021 1103.5,-651.0021 1103.5,-709.0021"/>
<text text-anchor="middle" x="1053" y="-697.8021" font-family="Times,serif" font-size="9.00" fill="#000000">thread=NonInstrThr</text>
<text text-anchor="middle" x="1053" y="-687.8021" font-family="Times,serif" font-size="9.00" fill="#000000">TID=2350002</text>
<text text-anchor="middle" x="1053" y="-677.8021" font-family="Times,serif" font-size="9.00" fill="#000000">total=self=0B (0.00%)</text>
<text text-anchor="middle" x="1053" y="-667.8021" font-family="Times,serif" font-size="9.00" fill="#000000">num_malloc_self=1101</text>
<text text-anchor="middle" x="1053" y="-657.8021" font-family="Times,serif" font-size="9.00" fill="#000000">num_free_self=1102</text>
</g>
<!-- 2350003_YetAnThr/2 -->
<g id="node11" class="node">
<title>2350003_YetAnThr/2</title>
<polygon fill="#fff5f0" stroke="#000000" points="1299.5,-709.0021 1202.5,-709.0021 1202.5,-651.0021 1299.5,-651.0021 1299.5,-709.0021"/>
<text text-anchor="middle" x="1251" y="-697.8021" font-family="Times,serif" font-size="9.00" fill="#000000">thread=YetAnThr/2</text>
<text text-anchor="middle" x="1251" y="-687.8021" font-family="Times,serif" font-size="9.00" fill="#000000">TID=2350003</text>
<text text-anchor="middle" x="1251" y="-677.8021" font-family="Times,serif" font-size="9.00" fill="#000000">total=self=0B (0.00%)</text>
<text text-anchor="middle" x="1251" y="-667.8021" font-family="Times,serif" font-size="9.00" fill="#000000">num_malloc_self=1</text>
<text text-anchor="middle" x="1251" y="-657.8021" font-family="Times,serif" font-size="9.00" fill="#000000">num_free_self=2</text>
</g>
<!-- 2350003_YetAnThr::MainEvLoop -->
<g id="node12" class="node">
<title>2350003_YetAnThr::MainEvLoop</title>
<ellipse fill="#fff5f0" stroke="#000000" cx="1251" cy="-498.5757" rx="91.4341" ry="33.8824"/>
<text text-anchor="middle" x="1251" y="-511.3757" font-family="Times,serif" font-size="9.00" fill="#000000">scope=YetAnThr::MainEvLoop</text>
<text text-anchor="middle" x="1251" y="-501.3757" font-family="Times,serif" font-size="9.00" fill="#000000">total=self=0B (0.00%)</text>
<text text-anchor="middle" x="1251" y="-491.3757" font-family="Times,serif" font-size="9.00" fill="#000000">num_malloc_self=300</text>
<text text-anchor="middle" x="1251" y="-481.3757" font-family="Times,serif" font-size="9.00" fill="#000000">num_free_self=300</text>
</g>
<!-- 2350003_YetAnThr/2&#45;&gt;2350003_YetAnThr::MainEvLoop -->
<g id="edge9" class="edge">
<title>2350003_YetAnThr/2&#45;&gt;2350003_YetAnThr::MainEvLoop</title>
<path fill="none" stroke="#000000" d="M1251,-650.8528C1251,-621.6231 1251,-576.2466 1251,-542.6239"/>
<polygon fill="#000000" stroke="#000000" points="1254.5001,-542.5974 1251,-532.5975 1247.5001,-542.5975 1254.5001,-542.5974"/>
</g>
<!-- 2350003_FuncB -->
<g id="node13" class="node">
<title>2350003_FuncB</title>
<ellipse fill="#fff5f0" stroke="#000000" cx="1251" cy="-367.8234" rx="71.3357" ry="33.8824"/>
<text text-anchor="middle" x="1251" y="-380.6234" font-family="Times,serif" font-size="9.00" fill="#000000">scope=FuncB</text>
<text text-anchor="middle" x="1251" y="-370.6234" font-family="Times,serif" font-size="9.00" fill="#000000">total=self=0B (0.00%)</text>
<text text-anchor="middle" x="1251" y="-360.6234" font-family="Times,serif" font-size="9.00" fill="#000000">num_malloc_self=3000</text>
<text text-anchor="middle" x="1251" y="-350.6234" font-family="Times,serif" font-size="9.00" fill="#000000">num_free_self=3000</text>
</g>
<!-- 2350003_YetAnThr::MainEvLoop&#45;&gt;2350003_FuncB -->
<g id="edge10" class="edge">
<title>2350003_YetAnThr::MainEvLoop&#45;&gt;2350003_FuncB</title>
<path fill="none" stroke="#000000" d="M1251,-464.5634C1251,-448.6474 1251,-429.4811 1251,-412.4215"/>
<polygon fill="#000000" stroke="#000000" points="1254.5001,-412.1196 1251,-402.1196 1247.5001,-412.1196 1254.5001,-412.1196"/>
</g>
</g>
</svg>
