<?xml version="1.0" encoding="UTF-8" standalone="no"?>
<!DOCTYPE svg PUBLIC "-//W3C//DTD SVG 1.1//EN"
 "http://www.w3.org/Graphics/SVG/1.1/DTD/svg11.dtd">
<!-- Generated by graphviz version 2.40.1 (0)
 -->
<!-- Title: MallocTree Pages: 1 -->
<svg width="1159pt" height="466pt"
 viewBox="0.00 0.00 1159.00 466.29" xmlns="http://www.w3.org/2000/svg" xmlns:xlink="http://www.w3.org/1999/xlink">
<g id="graph0" class="graph" transform="scale(1 1) rotate(0) translate(4 462.2864)">
<title>MallocTree</title>
<polygon fill="#ffffff" stroke="transparent" points="-4,4 -4,-462.2864 1155,-462.2864 1155,4 -4,4"/>
<!-- multithread -->
<g id="node1" class="node">
<title>multithread</title>
<polygon fill="#cb181d" stroke="#000000" points="161,-450.7864 0,-450.7864 0,-382.7864 161,-382.7864 161,-450.7864"/>
<text text-anchor="middle" x="80.5" y="-435.5864" font-family="Times,serif" font-size="14.00" fill="#000000">thread=multithread</text>
<text text-anchor="middle" x="80.5" y="-420.5864" font-family="Times,serif" font-size="14.00" fill="#000000">TID=3672169</text>
<text text-anchor="middle" x="80.5" y="-405.5864" font-family="Times,serif" font-size="14.00" fill="#000000">total=self=2kB (100.00%)</text>
<text text-anchor="middle" x="80.5" y="-390.5864" font-family="Times,serif" font-size="14.00" fill="#000000">num_alloc=12</text>
</g>
<!-- exampleThr/0 -->
<g id="node2" class="node">
<title>exampleThr/0</title>
<polygon fill="#fff5f0" stroke="#000000" points="326,-458.2864 179,-458.2864 179,-375.2864 326,-375.2864 326,-458.2864"/>
<text text-anchor="middle" x="252.5" y="-443.0864" font-family="Times,serif" font-size="14.00" fill="#000000">thread=exampleThr/0</text>
<text text-anchor="middle" x="252.5" y="-428.0864" font-family="Times,serif" font-size="14.00" fill="#000000">TID=3672170</text>
<text text-anchor="middle" x="252.5" y="-413.0864" font-family="Times,serif" font-size="14.00" fill="#000000">total=144kB (100.00%)</text>
<text text-anchor="middle" x="252.5" y="-398.0864" font-family="Times,serif" font-size="14.00" fill="#000000">self=31B (0.02%)</text>
<text text-anchor="middle" x="252.5" y="-383.0864" font-family="Times,serif" font-size="14.00" fill="#000000">num_alloc=1</text>
</g>
<!-- TopFunc -->
<g id="node3" class="node">
<title>TopFunc</title>
<ellipse fill="#fff5f0" stroke="#000000" cx="664.5" cy="-291.2031" rx="98.9899" ry="48.1667"/>
<text text-anchor="middle" x="664.5" y="-310.0031" font-family="Times,serif" font-size="14.00" fill="#000000">scope=TopFunc</text>
<text text-anchor="middle" x="664.5" y="-295.0031" font-family="Times,serif" font-size="14.00" fill="#000000">total=869kB (99.99%)</text>
<text text-anchor="middle" x="664.5" y="-280.0031" font-family="Times,serif" font-size="14.00" fill="#000000">self=5B (0.00%)</text>
<text text-anchor="middle" x="664.5" y="-265.0031" font-family="Times,serif" font-size="14.00" fill="#000000">num_alloc=1</text>
</g>
<!-- exampleThr/0&#45;&gt;TopFunc -->
<g id="edge1" class="edge">
<title>exampleThr/0&#45;&gt;TopFunc</title>
<path fill="none" stroke="#000000" d="M326.3686,-378.4894C329.095,-377.3677 331.8111,-376.2954 334.5,-375.2864 409.0001,-347.3292 496.3787,-325.5275 562.5018,-311.1363"/>
<polygon fill="#000000" stroke="#000000" points="563.4743,-314.5072 572.5124,-308.9788 561.9994,-307.6643 563.4743,-314.5072"/>
</g>
<!-- FuncA -->
<g id="node4" class="node">
<title>FuncA</title>
<ellipse fill="#fff5f0" stroke="#000000" cx="578.5" cy="-159.0366" rx="98.9899" ry="48.1667"/>
<text text-anchor="middle" x="578.5" y="-177.8366" font-family="Times,serif" font-size="14.00" fill="#000000">scope=FuncA</text>
<text text-anchor="middle" x="578.5" y="-162.8366" font-family="Times,serif" font-size="14.00" fill="#000000">total=437kB (50.29%)</text>
<text text-anchor="middle" x="578.5" y="-147.8366" font-family="Times,serif" font-size="14.00" fill="#000000">self=5kB (0.60%)</text>
<text text-anchor="middle" x="578.5" y="-132.8366" font-family="Times,serif" font-size="14.00" fill="#000000">num_alloc=1</text>
</g>
<!-- TopFunc&#45;&gt;FuncA -->
<g id="edge2" class="edge">
<title>TopFunc&#45;&gt;FuncA</title>
<path fill="none" stroke="#000000" d="M607.4706,-251.5488C598.0757,-240.5212 589.3797,-228.318 582.3917,-216.49"/>
<polygon fill="#000000" stroke="#000000" points="585.3281,-214.5695 577.3976,-207.5439 579.216,-217.9816 585.3281,-214.5695"/>
</g>
<!-- TopFunc&#45;&gt;FuncA -->
<g id="edge6" class="edge">
<title>TopFunc&#45;&gt;FuncA</title>
<path fill="none" stroke="#000000" d="M617.7534,-248.6573C609.8327,-238.1775 602.0871,-226.7893 595.3391,-215.7565"/>
<polygon fill="#000000" stroke="#000000" points="598.265,-213.8284 590.1569,-207.0087 592.2425,-217.3962 598.265,-213.8284"/>
</g>
<!-- TopFunc&#45;&gt;FuncA -->
<g id="edge10" class="edge">
<title>TopFunc&#45;&gt;FuncA</title>
<path fill="none" stroke="#000000" d="M628.7058,-246.0885C621.7793,-235.9231 614.6064,-225.0191 607.9085,-214.4853"/>
<polygon fill="#000000" stroke="#000000" points="610.6985,-212.3474 602.4097,-205.7483 604.7741,-216.076 610.6985,-212.3474"/>
</g>
<!-- TopFunc&#45;&gt;FuncA -->
<g id="edge14" class="edge">
<title>TopFunc&#45;&gt;FuncA</title>
<path fill="none" stroke="#000000" d="M640.43,-244.234C634.0102,-233.93 626.9125,-222.9476 619.8696,-212.413"/>
<polygon fill="#000000" stroke="#000000" points="622.7423,-210.4129 614.247,-204.0819 616.94,-214.3288 622.7423,-210.4129"/>
</g>
<!-- TopFunc&#45;&gt;FuncA -->
<g id="edge18" class="edge">
<title>TopFunc&#45;&gt;FuncA</title>
<path fill="none" stroke="#000000" d="M652.7762,-243.1141C646.5744,-232.292 639.1436,-220.7729 631.3211,-209.8437"/>
<polygon fill="#000000" stroke="#000000" points="634.0201,-207.6059 625.2767,-201.6223 628.3803,-211.7524 634.0201,-207.6059"/>
</g>
<!-- TopFunc&#45;&gt;FuncA -->
<g id="edge22" class="edge">
<title>TopFunc&#45;&gt;FuncA</title>
<path fill="none" stroke="#000000" d="M665.8211,-243.1141C659.6311,-231.2402 651.3393,-218.5274 642.0514,-206.675"/>
<polygon fill="#000000" stroke="#000000" points="644.5136,-204.1568 635.4758,-198.6279 639.0931,-208.5861 644.5136,-204.1568"/>
</g>
<!-- FuncB -->
<g id="node5" class="node">
<title>FuncB</title>
<ellipse fill="#fb6a4a" stroke="#000000" cx="664.5" cy="-37.4767" rx="118.5882" ry="37.4533"/>
<text text-anchor="middle" x="664.5" y="-48.7767" font-family="Times,serif" font-size="14.00" fill="#000000">scope=FuncB</text>
<text text-anchor="middle" x="664.5" y="-33.7767" font-family="Times,serif" font-size="14.00" fill="#000000">total=self=432kB (49.69%)</text>
<text text-anchor="middle" x="664.5" y="-18.7767" font-family="Times,serif" font-size="14.00" fill="#000000">num_alloc=6000</text>
</g>
<!-- TopFunc&#45;&gt;FuncB -->
<g id="edge3" class="edge">
<title>TopFunc&#45;&gt;FuncB</title>
<path fill="none" stroke="#000000" d="M635.4059,-244.9226C637.0274,-232.7471 639.9019,-219.5415 641.5,-207.1198 646.9539,-164.7286 647.6952,-153.2426 641.5,-110.9533 640.2098,-102.1465 638.0935,-92.9293 636.4715,-84.1164"/>
<polygon fill="#000000" stroke="#000000" points="639.8918,-83.3364 634.8736,-74.0054 632.9776,-84.4292 639.8918,-83.3364"/>
</g>
<!-- TopFunc&#45;&gt;FuncB -->
<g id="edge7" class="edge">
<title>TopFunc&#45;&gt;FuncB</title>
<path fill="none" stroke="#000000" d="M653.1198,-243.1553C655.3015,-231.4761 657.9789,-218.9428 659.5,-207.1198 664.9539,-164.7286 665.6952,-153.2426 659.5,-110.9533 658.2376,-102.3359 656.1842,-93.3255 654.2766,-84.6855"/>
<polygon fill="#000000" stroke="#000000" points="657.6686,-83.8093 652.1605,-74.7588 650.8224,-85.2688 657.6686,-83.8093"/>
</g>
<!-- TopFunc&#45;&gt;FuncB -->
<g id="edge11" class="edge">
<title>TopFunc&#45;&gt;FuncB</title>
<path fill="none" stroke="#000000" d="M670.5909,-243.1553C673.3015,-231.4761 675.9789,-218.9428 677.5,-207.1198 682.9539,-164.7286 683.6952,-153.2426 677.5,-110.9533 676.2515,-102.4306 674.2292,-93.5235 672.0492,-84.9705"/>
<polygon fill="#000000" stroke="#000000" points="675.39,-83.9129 669.4544,-75.1369 668.6216,-85.6989 675.39,-83.9129"/>
</g>
<!-- TopFunc&#45;&gt;FuncB -->
<g id="edge15" class="edge">
<title>TopFunc&#45;&gt;FuncB</title>
<path fill="none" stroke="#000000" d="M687.8148,-244.0407C691.1652,-232.1112 693.9404,-219.2422 695.5,-207.1198 700.9539,-164.7286 701.6952,-153.2426 695.5,-110.9533 694.2098,-102.1465 692.0935,-92.9293 689.5102,-84.1164"/>
<polygon fill="#000000" stroke="#000000" points="692.7805,-82.8505 686.4143,-74.3816 686.1097,-84.9721 692.7805,-82.8505"/>
</g>
<!-- TopFunc&#45;&gt;FuncB -->
<g id="edge19" class="edge">
<title>TopFunc&#45;&gt;FuncB</title>
<path fill="none" stroke="#000000" d="M704.2025,-247.1114C708.6765,-234.341 711.8056,-220.2898 713.5,-207.1198 718.9539,-164.7286 719.6952,-153.2426 713.5,-110.9533 712.1391,-101.6637 709.859,-91.9175 706.7052,-82.6709"/>
<polygon fill="#000000" stroke="#000000" points="709.9457,-81.3457 703.1042,-73.2559 703.4076,-83.8464 709.9457,-81.3457"/>
</g>
<!-- TopFunc&#45;&gt;FuncB -->
<g id="edge23" class="edge">
<title>TopFunc&#45;&gt;FuncB</title>
<path fill="none" stroke="#000000" d="M719.8085,-250.9871C726.0214,-237.2243 729.6323,-221.6367 731.5,-207.1198 736.9539,-164.7286 737.6952,-153.2426 731.5,-110.9533 730.0227,-100.8691 727.4622,-90.2468 723.3956,-80.3096"/>
<polygon fill="#000000" stroke="#000000" points="726.4519,-78.5845 719.0215,-71.0321 720.1203,-81.5698 726.4519,-78.5845"/>
</g>
<!-- FuncA&#45;&gt;FuncB -->
<g id="edge4" class="edge">
<title>FuncA&#45;&gt;FuncB</title>
<path fill="none" stroke="#000000" d="M579.6174,-110.6436C585.9943,-100.0915 594.1476,-89.0192 603.1251,-78.773"/>
<polygon fill="#000000" stroke="#000000" points="605.9608,-80.8589 610.135,-71.121 600.7992,-76.1304 605.9608,-80.8589"/>
</g>
<!-- FuncA&#45;&gt;FuncB -->
<g id="edge8" class="edge">
<title>FuncA&#45;&gt;FuncB</title>
<path fill="none" stroke="#000000" d="M592.4157,-111.3418C598.9514,-101.1598 606.6415,-90.4635 614.6243,-80.4705"/>
<polygon fill="#000000" stroke="#000000" points="617.4235,-82.577 621.0727,-72.6305 612.0172,-78.1304 617.4235,-82.577"/>
</g>
<!-- FuncA&#45;&gt;FuncB -->
<g id="edge12" class="edge">
<title>FuncA&#45;&gt;FuncB</title>
<path fill="none" stroke="#000000" d="M604.9187,-112.386C611.7857,-102.3429 619.2964,-91.7549 626.6151,-81.8033"/>
<polygon fill="#000000" stroke="#000000" points="629.5417,-83.7329 632.6992,-73.6195 623.9241,-79.5565 629.5417,-83.7329"/>
</g>
<!-- FuncA&#45;&gt;FuncB -->
<g id="edge16" class="edge">
<title>FuncA&#45;&gt;FuncB</title>
<path fill="none" stroke="#000000" d="M616.567,-114.4624C624.115,-104.1925 631.8597,-93.2567 638.8856,-82.9492"/>
<polygon fill="#000000" stroke="#000000" points="641.9151,-84.7165 644.5981,-74.467 636.109,-80.8062 641.9151,-84.7165"/>
</g>
<!-- FuncA&#45;&gt;FuncB -->
<g id="edge20" class="edge">
<title>FuncA&#45;&gt;FuncB</title>
<path fill="none" stroke="#000000" d="M627.4453,-117.2026C636.1759,-106.3644 644.5979,-94.6331 651.5934,-83.5891"/>
<polygon fill="#000000" stroke="#000000" points="654.6668,-85.2713 656.8765,-74.9094 648.6874,-81.6317 654.6668,-85.2713"/>
</g>
<!-- FuncA&#45;&gt;FuncB -->
<g id="edge24" class="edge">
<title>FuncA&#45;&gt;FuncB</title>
<path fill="none" stroke="#000000" d="M637.6534,-120.24C648.0349,-108.7232 657.4466,-95.9894 664.4773,-84.0334"/>
<polygon fill="#000000" stroke="#000000" points="667.6479,-85.5299 669.3662,-75.0754 661.5034,-82.1765 667.6479,-85.5299"/>
</g>
<!-- exampleThr/2 -->
<g id="node6" class="node">
<title>exampleThr/2</title>
<polygon fill="#fff5f0" stroke="#000000" points="491,-458.2864 344,-458.2864 344,-375.2864 491,-375.2864 491,-458.2864"/>
<text text-anchor="middle" x="417.5" y="-443.0864" font-family="Times,serif" font-size="14.00" fill="#000000">thread=exampleThr/2</text>
<text text-anchor="middle" x="417.5" y="-428.0864" font-family="Times,serif" font-size="14.00" fill="#000000">TID=3672172</text>
<text text-anchor="middle" x="417.5" y="-413.0864" font-family="Times,serif" font-size="14.00" fill="#000000">total=434kB (100.00%)</text>
<text text-anchor="middle" x="417.5" y="-398.0864" font-family="Times,serif" font-size="14.00" fill="#000000">self=31B (0.00%)</text>
<text text-anchor="middle" x="417.5" y="-383.0864" font-family="Times,serif" font-size="14.00" fill="#000000">num_alloc=1</text>
</g>
<!-- exampleThr/2&#45;&gt;TopFunc -->
<g id="edge5" class="edge">
<title>exampleThr/2&#45;&gt;TopFunc</title>
<path fill="none" stroke="#000000" d="M491.2736,-379.2774C521.2902,-364.0159 556.0115,-346.3623 586.4517,-330.8855"/>
<polygon fill="#000000" stroke="#000000" points="588.4235,-333.8095 595.7512,-326.1573 585.2509,-327.5697 588.4235,-333.8095"/>
</g>
<!-- exampleThr/1 -->
<g id="node7" class="node">
<title>exampleThr/1</title>
<polygon fill="#fff5f0" stroke="#000000" points="656,-458.2864 509,-458.2864 509,-375.2864 656,-375.2864 656,-458.2864"/>
<text text-anchor="middle" x="582.5" y="-443.0864" font-family="Times,serif" font-size="14.00" fill="#000000">thread=exampleThr/1</text>
<text text-anchor="middle" x="582.5" y="-428.0864" font-family="Times,serif" font-size="14.00" fill="#000000">TID=3672171</text>
<text text-anchor="middle" x="582.5" y="-413.0864" font-family="Times,serif" font-size="14.00" fill="#000000">total=289kB (100.00%)</text>
<text text-anchor="middle" x="582.5" y="-398.0864" font-family="Times,serif" font-size="14.00" fill="#000000">self=31B (0.01%)</text>
<text text-anchor="middle" x="582.5" y="-383.0864" font-family="Times,serif" font-size="14.00" fill="#000000">num_alloc=1</text>
</g>
<!-- exampleThr/1&#45;&gt;TopFunc -->
<g id="edge9" class="edge">
<title>exampleThr/1&#45;&gt;TopFunc</title>
<path fill="none" stroke="#000000" d="M609.8048,-374.969C615.9306,-365.5873 622.5172,-355.4999 628.924,-345.6879"/>
<polygon fill="#000000" stroke="#000000" points="631.9551,-347.4475 634.4918,-337.1608 626.0939,-343.6204 631.9551,-347.4475"/>
</g>
<!-- exampleThr/3 -->
<g id="node8" class="node">
<title>exampleThr/3</title>
<polygon fill="#fff5f0" stroke="#000000" points="821,-458.2864 674,-458.2864 674,-375.2864 821,-375.2864 821,-458.2864"/>
<text text-anchor="middle" x="747.5" y="-443.0864" font-family="Times,serif" font-size="14.00" fill="#000000">thread=exampleThr/3</text>
<text text-anchor="middle" x="747.5" y="-428.0864" font-family="Times,serif" font-size="14.00" fill="#000000">TID=3672173</text>
<text text-anchor="middle" x="747.5" y="-413.0864" font-family="Times,serif" font-size="14.00" fill="#000000">total=579kB (100.00%)</text>
<text text-anchor="middle" x="747.5" y="-398.0864" font-family="Times,serif" font-size="14.00" fill="#000000">self=31B (0.00%)</text>
<text text-anchor="middle" x="747.5" y="-383.0864" font-family="Times,serif" font-size="14.00" fill="#000000">num_alloc=1</text>
</g>
<!-- exampleThr/3&#45;&gt;TopFunc -->
<g id="edge13" class="edge">
<title>exampleThr/3&#45;&gt;TopFunc</title>
<path fill="none" stroke="#000000" d="M719.8622,-374.969C713.6617,-365.5873 706.9948,-355.4999 700.5099,-345.6879"/>
<polygon fill="#000000" stroke="#000000" points="703.3079,-343.5736 694.8742,-337.1608 697.4681,-347.4332 703.3079,-343.5736"/>
</g>
<!-- exampleThr/4 -->
<g id="node9" class="node">
<title>exampleThr/4</title>
<polygon fill="#fff5f0" stroke="#000000" points="986,-458.2864 839,-458.2864 839,-375.2864 986,-375.2864 986,-458.2864"/>
<text text-anchor="middle" x="912.5" y="-443.0864" font-family="Times,serif" font-size="14.00" fill="#000000">thread=exampleThr/4</text>
<text text-anchor="middle" x="912.5" y="-428.0864" font-family="Times,serif" font-size="14.00" fill="#000000">TID=3672174</text>
<text text-anchor="middle" x="912.5" y="-413.0864" font-family="Times,serif" font-size="14.00" fill="#000000">total=724kB (100.00%)</text>
<text text-anchor="middle" x="912.5" y="-398.0864" font-family="Times,serif" font-size="14.00" fill="#000000">self=31B (0.00%)</text>
<text text-anchor="middle" x="912.5" y="-383.0864" font-family="Times,serif" font-size="14.00" fill="#000000">num_alloc=1</text>
</g>
<!-- exampleThr/4&#45;&gt;TopFunc -->
<g id="edge17" class="edge">
<title>exampleThr/4&#45;&gt;TopFunc</title>
<path fill="none" stroke="#000000" d="M838.7633,-379.4473C808.3544,-364.0487 773.0909,-346.1918 742.2733,-330.5862"/>
<polygon fill="#000000" stroke="#000000" points="743.7885,-327.4304 733.2859,-326.0352 740.6261,-333.6754 743.7885,-327.4304"/>
</g>
<!-- exampleThr/5 -->
<g id="node10" class="node">
<title>exampleThr/5</title>
<polygon fill="#fff5f0" stroke="#000000" points="1151,-458.2864 1004,-458.2864 1004,-375.2864 1151,-375.2864 1151,-458.2864"/>
<text text-anchor="middle" x="1077.5" y="-443.0864" font-family="Times,serif" font-size="14.00" fill="#000000">thread=exampleThr/5</text>
<text text-anchor="middle" x="1077.5" y="-428.0864" font-family="Times,serif" font-size="14.00" fill="#000000">TID=3672175</text>
<text text-anchor="middle" x="1077.5" y="-413.0864" font-family="Times,serif" font-size="14.00" fill="#000000">total=869kB (100.00%)</text>
<text text-anchor="middle" x="1077.5" y="-398.0864" font-family="Times,serif" font-size="14.00" fill="#000000">self=31B (0.00%)</text>
<text text-anchor="middle" x="1077.5" y="-383.0864" font-family="Times,serif" font-size="14.00" fill="#000000">num_alloc=1</text>
</g>
<!-- exampleThr/5&#45;&gt;TopFunc -->
<g id="edge21" class="edge">
<title>exampleThr/5&#45;&gt;TopFunc</title>
<path fill="none" stroke="#000000" d="M1003.6323,-378.4869C1000.9057,-377.3659 998.1893,-376.2944 995.5,-375.2864 920.7778,-347.2767 833.1342,-325.4776 766.8097,-311.1009"/>
<polygon fill="#000000" stroke="#000000" points="767.2805,-307.6223 756.7687,-308.9456 765.8114,-314.4664 767.2805,-307.6223"/>
</g>
</g>
</svg>
