<?xml version="1.0" encoding="UTF-8" standalone="no"?>
<!DOCTYPE svg PUBLIC "-//W3C//DTD SVG 1.1//EN"
 "http://www.w3.org/Graphics/SVG/1.1/DTD/svg11.dtd">
<!-- Generated by graphviz version 2.40.1 (0)
 -->
<!-- Title: MallocTree_TID3666411 Pages: 1 -->
<svg width="278pt" height="388pt"
 viewBox="0.00 0.00 277.60 387.65" xmlns="http://www.w3.org/2000/svg" xmlns:xlink="http://www.w3.org/1999/xlink">
<g id="page0,1_graph0" class="graph" transform="scale(1 1) rotate(0) translate(4 383.6468)">
<title>MallocTree_TID3666411</title>
<polygon fill="#ffffff" stroke="transparent" points="-4,4 -4,-383.6468 273.5965,-383.6468 273.5965,4 -4,4"/>
<!-- exampleThr/4 -->
<g id="node1" class="node">
<title>exampleThr/4</title>
<polygon fill="#fee0d2" stroke="#000000" points="225.7523,-379.6468 85.7523,-379.6468 85.7523,-311.6468 225.7523,-311.6468 225.7523,-379.6468"/>
<text text-anchor="middle" x="155.7523" y="-364.4468" font-family="Times,serif" font-size="14.00" fill="#000000">thread=exampleThr/4</text>
<text text-anchor="middle" x="155.7523" y="-349.4468" font-family="Times,serif" font-size="14.00" fill="#000000">TID=3666411</text>
<text text-anchor="middle" x="155.7523" y="-334.4468" font-family="Times,serif" font-size="14.00" fill="#000000">total=536B (100.00%)</text>
<text text-anchor="middle" x="155.7523" y="-319.4468" font-family="Times,serif" font-size="14.00" fill="#000000">self=31B (5.78%)</text>
</g>
<!-- TopFunc -->
<g id="node2" class="node">
<title>TopFunc</title>
<ellipse fill="#fff5f0" stroke="#000000" cx="155.7523" cy="-238.1701" rx="94.5053" ry="37.4533"/>
<text text-anchor="middle" x="155.7523" y="-249.4701" font-family="Times,serif" font-size="14.00" fill="#000000">scope=TopFunc</text>
<text text-anchor="middle" x="155.7523" y="-234.4701" font-family="Times,serif" font-size="14.00" fill="#000000">total=505B (94.21%)</text>
<text text-anchor="middle" x="155.7523" y="-219.4701" font-family="Times,serif" font-size="14.00" fill="#000000">self=5B (0.93%)</text>
</g>
<!-- exampleThr/4&#45;&gt;TopFunc -->
<g id="edge1" class="edge">
<title>exampleThr/4&#45;&gt;TopFunc</title>
<path fill="none" stroke="#000000" d="M155.7523,-311.6405C155.7523,-303.4189 155.7523,-294.4817 155.7523,-285.7632"/>
<polygon fill="#000000" stroke="#000000" points="159.2524,-285.6847 155.7523,-275.6848 152.2524,-285.6848 159.2524,-285.6847"/>
</g>
<!-- FuncA -->
<g id="node3" class="node">
<title>FuncA</title>
<ellipse fill="#fcbba1" stroke="#000000" cx="94.7523" cy="-127.2168" rx="94.5053" ry="37.4533"/>
<text text-anchor="middle" x="94.7523" y="-138.5168" font-family="Times,serif" font-size="14.00" fill="#000000">scope=FuncA</text>
<text text-anchor="middle" x="94.7523" y="-123.5168" font-family="Times,serif" font-size="14.00" fill="#000000">total=300B (55.97%)</text>
<text text-anchor="middle" x="94.7523" y="-108.5168" font-family="Times,serif" font-size="14.00" fill="#000000">self=100B (18.65%)</text>
</g>
<!-- TopFunc&#45;&gt;FuncA -->
<g id="edge2" class="edge">
<title>TopFunc&#45;&gt;FuncA</title>
<path fill="none" stroke="#000000" d="M135.6096,-201.5323C130.6129,-192.4438 125.1953,-182.5898 119.9888,-173.1197"/>
<polygon fill="#000000" stroke="#000000" points="122.9671,-171.2719 115.0823,-164.1952 116.833,-174.6443 122.9671,-171.2719"/>
</g>
<!-- FuncB -->
<g id="node4" class="node">
<title>FuncB</title>
<ellipse fill="#fc9272" stroke="#000000" cx="155.7523" cy="-26.8701" rx="113.6886" ry="26.7407"/>
<text text-anchor="middle" x="155.7523" y="-30.6701" font-family="Times,serif" font-size="14.00" fill="#000000">scope=FuncB</text>
<text text-anchor="middle" x="155.7523" y="-15.6701" font-family="Times,serif" font-size="14.00" fill="#000000">total=self=200B (37.31%)</text>
</g>
<!-- TopFunc&#45;&gt;FuncB -->
<g id="edge3" class="edge">
<title>TopFunc&#45;&gt;FuncB</title>
<path fill="none" stroke="#000000" d="M181.9289,-202.1242C188.7823,-190.7117 195.233,-177.6749 198.7523,-164.6934 207.4688,-132.5414 208.5948,-121.5655 198.7523,-89.7401 195.7341,-79.9809 190.6219,-70.3867 184.9544,-61.7466"/>
<polygon fill="#000000" stroke="#000000" points="187.756,-59.6454 179.1587,-53.4537 182.0184,-63.6553 187.756,-59.6454"/>
</g>
<!-- FuncA&#45;&gt;FuncB -->
<g id="edge4" class="edge">
<title>FuncA&#45;&gt;FuncB</title>
<path fill="none" stroke="#000000" d="M116.9473,-90.7054C122.575,-81.4477 128.611,-71.5183 134.2059,-62.3144"/>
<polygon fill="#000000" stroke="#000000" points="137.2036,-64.1212 139.4073,-53.758 131.222,-60.485 137.2036,-64.1212"/>
</g>
</g>
</svg>
