<?xml version="1.0" encoding="UTF-8" standalone="no"?>
<!DOCTYPE svg PUBLIC "-//W3C//DTD SVG 1.1//EN"
 "http://www.w3.org/Graphics/SVG/1.1/DTD/svg11.dtd">
<!-- Generated by graphviz version 2.40.1 (0)
 -->
<!-- Title: MallocTree Pages: 1 -->
<svg width="1366pt" height="759pt"
 viewBox="0.00 0.00 1366.00 759.00" xmlns="http://www.w3.org/2000/svg" xmlns:xlink="http://www.w3.org/1999/xlink">
<g id="graph0" class="graph" transform="scale(1 1) rotate(0) translate(4 755.0021)">
<title>MallocTree</title>
<polygon fill="#ffffff" stroke="transparent" points="-4,4 -4,-755.0021 1362,-755.0021 1362,4 -4,4"/>
<text text-anchor="middle" x="679" y="-97.8" font-family="Times,serif" font-size="14.00" fill="#000000">Memory allocated before MallocTag initialization = 72kB</text>
<text text-anchor="middle" x="679" y="-82.8" font-family="Times,serif" font-size="14.00" fill="#000000">Memory allocated by MallocTag itself =327kB</text>
<text text-anchor="middle" x="679" y="-67.8" font-family="Times,serif" font-size="14.00" fill="#000000">Total memory tracked by MallocTag across all threads =566MB</text>
<text text-anchor="middle" x="679" y="-52.8" font-family="Times,serif" font-size="14.00" fill="#000000">VmSizeNow = 241MB</text>
<text text-anchor="middle" x="679" y="-37.8" font-family="Times,serif" font-size="14.00" fill="#000000">Memory profiling session start timestamp = 2023&#45;09&#45;20 @ 00:10:37 CEST</text>
<text text-anchor="middle" x="679" y="-22.8" font-family="Times,serif" font-size="14.00" fill="#000000">This snapshot timestamp = 2023&#45;09&#45;20 @ 00:10:37 CEST</text>
<text text-anchor="middle" x="679" y="-7.8" font-family="Times,serif" font-size="14.00" fill="#000000">PID = 1908504</text>
<g id="clust1" class="cluster">
<title>cluster_TID1908504</title>
<polygon fill="none" stroke="#000000" points="8,-534.0021 8,-743.0021 248,-743.0021 248,-534.0021 8,-534.0021"/>
<text text-anchor="middle" x="128" y="-571.8021" font-family="Times,serif" font-size="14.00" fill="#000000">TID=1908504</text>
<text text-anchor="middle" x="128" y="-556.8021" font-family="Times,serif" font-size="14.00" fill="#000000">nPushNodeFailures=0</text>
<text text-anchor="middle" x="128" y="-541.8021" font-family="Times,serif" font-size="14.00" fill="#000000">nTreeNodesInUse/Max=1/256</text>
</g>
<g id="clust2" class="cluster">
<title>cluster_TID1908505</title>
<polygon fill="none" stroke="#000000" points="256,-121 256,-707.0021 608,-707.0021 608,-121 256,-121"/>
<text text-anchor="middle" x="432" y="-158.8" font-family="Times,serif" font-size="14.00" fill="#000000">TID=1908505</text>
<text text-anchor="middle" x="432" y="-143.8" font-family="Times,serif" font-size="14.00" fill="#000000">nPushNodeFailures=0</text>
<text text-anchor="middle" x="432" y="-128.8" font-family="Times,serif" font-size="14.00" fill="#000000">nTreeNodesInUse/Max=5/256</text>
</g>
<g id="clust3" class="cluster">
<title>cluster_TID1908506</title>
<polygon fill="none" stroke="#000000" points="616,-121 616,-707.0021 954,-707.0021 954,-121 616,-121"/>
<text text-anchor="middle" x="785" y="-158.8" font-family="Times,serif" font-size="14.00" fill="#000000">TID=1908506</text>
<text text-anchor="middle" x="785" y="-143.8" font-family="Times,serif" font-size="14.00" fill="#000000">nPushNodeFailures=0</text>
<text text-anchor="middle" x="785" y="-128.8" font-family="Times,serif" font-size="14.00" fill="#000000">nTreeNodesInUse/Max=5/256</text>
</g>
<g id="clust4" class="cluster">
<title>cluster_TID1908507</title>
<polygon fill="none" stroke="#000000" points="962,-575.0021 962,-702.0021 1144,-702.0021 1144,-575.0021 962,-575.0021"/>
<text text-anchor="middle" x="1053" y="-612.8021" font-family="Times,serif" font-size="14.00" fill="#000000">TID=1908507</text>
<text text-anchor="middle" x="1053" y="-597.8021" font-family="Times,serif" font-size="14.00" fill="#000000">nPushNodeFailures=0</text>
<text text-anchor="middle" x="1053" y="-582.8021" font-family="Times,serif" font-size="14.00" fill="#000000">nTreeNodesInUse/Max=1/256</text>
</g>
<g id="clust5" class="cluster">
<title>cluster_TID1908508</title>
<polygon fill="none" stroke="#000000" points="1152,-257.8823 1152,-702.0021 1350,-702.0021 1350,-257.8823 1152,-257.8823"/>
<text text-anchor="middle" x="1251" y="-295.6823" font-family="Times,serif" font-size="14.00" fill="#000000">TID=1908508</text>
<text text-anchor="middle" x="1251" y="-280.6823" font-family="Times,serif" font-size="14.00" fill="#000000">nPushNodeFailures=0</text>
<text text-anchor="middle" x="1251" y="-265.6823" font-family="Times,serif" font-size="14.00" fill="#000000">nTreeNodesInUse/Max=3/256</text>
</g>
<!-- 1908504_multithread -->
<g id="node1" class="node">
<title>1908504_multithread</title>
<polygon fill="#cb181d" stroke="#000000" points="240,-735.0021 16,-735.0021 16,-595.0021 240,-595.0021 240,-735.0021"/>
<text text-anchor="middle" x="128" y="-715.0021" font-family="Times,serif" font-size="20.00" fill="#000000">thread=multithread</text>
<text text-anchor="middle" x="128" y="-693.0021" font-family="Times,serif" font-size="20.00" fill="#000000">TID=1908504</text>
<text text-anchor="middle" x="128" y="-671.0021" font-family="Times,serif" font-size="20.00" fill="#000000">total=self=2kB (100.00%)</text>
<text text-anchor="middle" x="128" y="-649.0021" font-family="Times,serif" font-size="20.00" fill="#000000">num_malloc_self=14</text>
<text text-anchor="middle" x="128" y="-627.0021" font-family="Times,serif" font-size="20.00" fill="#000000">num_calloc_self=3</text>
<text text-anchor="middle" x="128" y="-605.0021" font-family="Times,serif" font-size="20.00" fill="#000000">num_free_self=25</text>
</g>
<!-- 1908505_ExampleThr/0 -->
<g id="node2" class="node">
<title>1908505_ExampleThr/0</title>
<polygon fill="#fff5f0" stroke="#000000" points="514.5,-699.0021 417.5,-699.0021 417.5,-631.0021 514.5,-631.0021 514.5,-699.0021"/>
<text text-anchor="middle" x="466" y="-687.8021" font-family="Times,serif" font-size="9.00" fill="#000000">thread=ExampleThr/0</text>
<text text-anchor="middle" x="466" y="-677.8021" font-family="Times,serif" font-size="9.00" fill="#000000">TID=1908505</text>
<text text-anchor="middle" x="466" y="-667.8021" font-family="Times,serif" font-size="9.00" fill="#000000">total=128B (100.00%)</text>
<text text-anchor="middle" x="466" y="-657.8021" font-family="Times,serif" font-size="9.00" fill="#000000">self=0B (0.00%)</text>
<text text-anchor="middle" x="466" y="-647.8021" font-family="Times,serif" font-size="9.00" fill="#000000">num_malloc_self=1</text>
<text text-anchor="middle" x="466" y="-637.8021" font-family="Times,serif" font-size="9.00" fill="#000000">num_free_self=2</text>
</g>
<!-- 1908505_ExampleThread -->
<g id="node3" class="node">
<title>1908505_ExampleThread</title>
<ellipse fill="#fcbba1" stroke="#000000" cx="466" cy="-483.5757" rx="89.191" ry="42.3529"/>
<text text-anchor="middle" x="466" y="-499.9757" font-family="Times,serif" font-size="12.00" fill="#000000">scope=ExampleThread</text>
<text text-anchor="middle" x="466" y="-486.9757" font-family="Times,serif" font-size="12.00" fill="#000000">total=128B (100.00%)</text>
<text text-anchor="middle" x="466" y="-473.9757" font-family="Times,serif" font-size="12.00" fill="#000000">self=24B (18.75%)</text>
<text text-anchor="middle" x="466" y="-460.9757" font-family="Times,serif" font-size="12.00" fill="#000000">num_malloc_self=1</text>
</g>
<!-- 1908505_ExampleThr/0&#45;&gt;1908505_ExampleThread -->
<g id="edge1" class="edge">
<title>1908505_ExampleThr/0&#45;&gt;1908505_ExampleThread</title>
<path fill="none" stroke="#000000" d="M466,-630.8772C466,-604.2253 466,-566.7226 466,-536.2288"/>
<polygon fill="#000000" stroke="#000000" points="469.5001,-536.1819 466,-526.182 462.5001,-536.182 469.5001,-536.1819"/>
</g>
<!-- 1908505_FuncA -->
<g id="node4" class="node">
<title>1908505_FuncA</title>
<ellipse fill="#cb181d" stroke="#000000" cx="422" cy="-352.8234" rx="158.2839" ry="52.1524"/>
<text text-anchor="middle" x="422" y="-369.8234" font-family="Times,serif" font-size="20.00" fill="#000000">scope=FuncA</text>
<text text-anchor="middle" x="422" y="-347.8234" font-family="Times,serif" font-size="20.00" fill="#000000">total=self=104B (81.25%)</text>
<text text-anchor="middle" x="422" y="-325.8234" font-family="Times,serif" font-size="20.00" fill="#000000">num_malloc_self=1</text>
</g>
<!-- 1908505_ExampleThread&#45;&gt;1908505_FuncA -->
<g id="edge2" class="edge">
<title>1908505_ExampleThread&#45;&gt;1908505_FuncA</title>
<path fill="none" stroke="#000000" d="M451.8359,-441.4851C448.9272,-432.8415 445.8083,-423.5733 442.723,-414.4049"/>
<polygon fill="#000000" stroke="#000000" points="446.0369,-413.2784 439.5302,-404.917 439.4025,-415.511 446.0369,-413.2784"/>
</g>
<!-- 1908505_FuncB -->
<g id="node5" class="node">
<title>1908505_FuncB</title>
<ellipse fill="#fff5f0" stroke="#000000" cx="475" cy="-215.9411" rx="71.3357" ry="33.8824"/>
<text text-anchor="middle" x="475" y="-228.7411" font-family="Times,serif" font-size="9.00" fill="#000000">scope=FuncB</text>
<text text-anchor="middle" x="475" y="-218.7411" font-family="Times,serif" font-size="9.00" fill="#000000">total=self=0B (0.00%)</text>
<text text-anchor="middle" x="475" y="-208.7411" font-family="Times,serif" font-size="9.00" fill="#000000">num_malloc_self=1000</text>
<text text-anchor="middle" x="475" y="-198.7411" font-family="Times,serif" font-size="9.00" fill="#000000">num_free_self=1000</text>
</g>
<!-- 1908505_ExampleThread&#45;&gt;1908505_FuncB -->
<g id="edge3" class="edge">
<title>1908505_ExampleThread&#45;&gt;1908505_FuncB</title>
<path fill="none" stroke="#000000" d="M534.4403,-456.0695C555.8186,-443.8427 576.9447,-427.1332 589,-405.1493 604.7353,-376.4545 607.7243,-284.7224 589,-257.8823 583.3229,-249.7445 566.4159,-241.9223 547.302,-235.2833"/>
<polygon fill="#000000" stroke="#000000" points="548.3746,-231.9516 537.7811,-232.123 546.1693,-238.5952 548.3746,-231.9516"/>
</g>
<!-- 1908505_FuncA&#45;&gt;1908505_FuncB -->
<g id="edge4" class="edge">
<title>1908505_FuncA&#45;&gt;1908505_FuncB</title>
<path fill="none" stroke="#000000" d="M442.1882,-300.6836C447.5553,-286.8221 453.2892,-272.0133 458.4378,-258.7161"/>
<polygon fill="#000000" stroke="#000000" points="461.7228,-259.9252 462.0697,-249.336 455.195,-257.3976 461.7228,-259.9252"/>
</g>
<!-- 1908506_ExampleThr/1 -->
<g id="node6" class="node">
<title>1908506_ExampleThr/1</title>
<polygon fill="#fff5f0" stroke="#000000" points="873,-699.0021 779,-699.0021 779,-631.0021 873,-631.0021 873,-699.0021"/>
<text text-anchor="middle" x="826" y="-687.8021" font-family="Times,serif" font-size="9.00" fill="#000000">thread=ExampleThr/1</text>
<text text-anchor="middle" x="826" y="-677.8021" font-family="Times,serif" font-size="9.00" fill="#000000">TID=1908506</text>
<text text-anchor="middle" x="826" y="-667.8021" font-family="Times,serif" font-size="9.00" fill="#000000">total=1kB (100.00%)</text>
<text text-anchor="middle" x="826" y="-657.8021" font-family="Times,serif" font-size="9.00" fill="#000000">self=0B (0.00%)</text>
<text text-anchor="middle" x="826" y="-647.8021" font-family="Times,serif" font-size="9.00" fill="#000000">num_malloc_self=1</text>
<text text-anchor="middle" x="826" y="-637.8021" font-family="Times,serif" font-size="9.00" fill="#000000">num_free_self=2</text>
</g>
<!-- 1908506_ExampleThread -->
<g id="node7" class="node">
<title>1908506_ExampleThread</title>
<ellipse fill="#fff5f0" stroke="#000000" cx="826" cy="-483.5757" rx="69.0935" ry="33.8824"/>
<text text-anchor="middle" x="826" y="-496.3757" font-family="Times,serif" font-size="9.00" fill="#000000">scope=ExampleThread</text>
<text text-anchor="middle" x="826" y="-486.3757" font-family="Times,serif" font-size="9.00" fill="#000000">total=1kB (100.00%)</text>
<text text-anchor="middle" x="826" y="-476.3757" font-family="Times,serif" font-size="9.00" fill="#000000">self=24B (2.08%)</text>
<text text-anchor="middle" x="826" y="-466.3757" font-family="Times,serif" font-size="9.00" fill="#000000">num_malloc_self=1</text>
</g>
<!-- 1908506_ExampleThr/1&#45;&gt;1908506_ExampleThread -->
<g id="edge5" class="edge">
<title>1908506_ExampleThr/1&#45;&gt;1908506_ExampleThread</title>
<path fill="none" stroke="#000000" d="M826,-630.8772C826,-601.7353 826,-559.6205 826,-527.8802"/>
<polygon fill="#000000" stroke="#000000" points="829.5001,-527.5476 826,-517.5476 822.5001,-527.5476 829.5001,-527.5476"/>
</g>
<!-- 1908506_FuncA -->
<g id="node8" class="node">
<title>1908506_FuncA</title>
<ellipse fill="#cb181d" stroke="#000000" cx="775" cy="-352.8234" rx="151.1419" ry="52.1524"/>
<text text-anchor="middle" x="775" y="-369.8234" font-family="Times,serif" font-size="20.00" fill="#000000">scope=FuncA</text>
<text text-anchor="middle" x="775" y="-347.8234" font-family="Times,serif" font-size="20.00" fill="#000000">total=self=1kB (97.91%)</text>
<text text-anchor="middle" x="775" y="-325.8234" font-family="Times,serif" font-size="20.00" fill="#000000">num_malloc_self=1</text>
</g>
<!-- 1908506_ExampleThread&#45;&gt;1908506_FuncA -->
<g id="edge6" class="edge">
<title>1908506_ExampleThread&#45;&gt;1908506_FuncA</title>
<path fill="none" stroke="#000000" d="M812.8662,-449.9037C808.6094,-438.9901 803.7458,-426.5211 798.9553,-414.2393"/>
<polygon fill="#000000" stroke="#000000" points="802.2121,-412.9571 795.3174,-404.9126 795.6906,-415.5008 802.2121,-412.9571"/>
</g>
<!-- 1908506_FuncB -->
<g id="node9" class="node">
<title>1908506_FuncB</title>
<ellipse fill="#fff5f0" stroke="#000000" cx="825" cy="-215.9411" rx="71.3357" ry="33.8824"/>
<text text-anchor="middle" x="825" y="-228.7411" font-family="Times,serif" font-size="9.00" fill="#000000">scope=FuncB</text>
<text text-anchor="middle" x="825" y="-218.7411" font-family="Times,serif" font-size="9.00" fill="#000000">total=self=0B (0.00%)</text>
<text text-anchor="middle" x="825" y="-208.7411" font-family="Times,serif" font-size="9.00" fill="#000000">num_malloc_self=2000</text>
<text text-anchor="middle" x="825" y="-198.7411" font-family="Times,serif" font-size="9.00" fill="#000000">num_free_self=2000</text>
</g>
<!-- 1908506_ExampleThread&#45;&gt;1908506_FuncB -->
<g id="edge7" class="edge">
<title>1908506_ExampleThread&#45;&gt;1908506_FuncB</title>
<path fill="none" stroke="#000000" d="M877.0764,-460.4576C899.1308,-447.5753 922.6671,-429.2163 935,-405.1493 964.8492,-346.8999 972.1331,-311.7812 935,-257.8823 929.7658,-250.2848 914.5427,-242.8298 897.0271,-236.3616"/>
<polygon fill="#000000" stroke="#000000" points="897.704,-232.8897 887.1092,-232.8751 895.3825,-239.4935 897.704,-232.8897"/>
</g>
<!-- 1908506_FuncA&#45;&gt;1908506_FuncB -->
<g id="edge8" class="edge">
<title>1908506_FuncA&#45;&gt;1908506_FuncB</title>
<path fill="none" stroke="#000000" d="M794.0455,-300.6836C799.0156,-287.0771 804.3192,-272.5578 809.1066,-259.4515"/>
<polygon fill="#000000" stroke="#000000" points="812.5094,-260.3367 812.653,-249.7429 805.9343,-257.935 812.5094,-260.3367"/>
</g>
<!-- 1908507_NonInstrThr -->
<g id="node10" class="node">
<title>1908507_NonInstrThr</title>
<polygon fill="#fff5f0" stroke="#000000" points="1103.5,-694.0021 1002.5,-694.0021 1002.5,-636.0021 1103.5,-636.0021 1103.5,-694.0021"/>
<text text-anchor="middle" x="1053" y="-682.8021" font-family="Times,serif" font-size="9.00" fill="#000000">thread=NonInstrThr</text>
<text text-anchor="middle" x="1053" y="-672.8021" font-family="Times,serif" font-size="9.00" fill="#000000">TID=1908507</text>
<text text-anchor="middle" x="1053" y="-662.8021" font-family="Times,serif" font-size="9.00" fill="#000000">total=self=0B (0.00%)</text>
<text text-anchor="middle" x="1053" y="-652.8021" font-family="Times,serif" font-size="9.00" fill="#000000">num_malloc_self=1101</text>
<text text-anchor="middle" x="1053" y="-642.8021" font-family="Times,serif" font-size="9.00" fill="#000000">num_free_self=1102</text>
</g>
<!-- 1908508_YetAnThr/2 -->
<g id="node11" class="node">
<title>1908508_YetAnThr/2</title>
<polygon fill="#fff5f0" stroke="#000000" points="1299.5,-694.0021 1202.5,-694.0021 1202.5,-636.0021 1299.5,-636.0021 1299.5,-694.0021"/>
<text text-anchor="middle" x="1251" y="-682.8021" font-family="Times,serif" font-size="9.00" fill="#000000">thread=YetAnThr/2</text>
<text text-anchor="middle" x="1251" y="-672.8021" font-family="Times,serif" font-size="9.00" fill="#000000">TID=1908508</text>
<text text-anchor="middle" x="1251" y="-662.8021" font-family="Times,serif" font-size="9.00" fill="#000000">total=self=0B (0.00%)</text>
<text text-anchor="middle" x="1251" y="-652.8021" font-family="Times,serif" font-size="9.00" fill="#000000">num_malloc_self=1</text>
<text text-anchor="middle" x="1251" y="-642.8021" font-family="Times,serif" font-size="9.00" fill="#000000">num_free_self=2</text>
</g>
<!-- 1908508_YetAnThr::MainEvLoop -->
<g id="node12" class="node">
<title>1908508_YetAnThr::MainEvLoop</title>
<ellipse fill="#fff5f0" stroke="#000000" cx="1251" cy="-483.5757" rx="91.4341" ry="33.8824"/>
<text text-anchor="middle" x="1251" y="-496.3757" font-family="Times,serif" font-size="9.00" fill="#000000">scope=YetAnThr::MainEvLoop</text>
<text text-anchor="middle" x="1251" y="-486.3757" font-family="Times,serif" font-size="9.00" fill="#000000">total=self=0B (0.00%)</text>
<text text-anchor="middle" x="1251" y="-476.3757" font-family="Times,serif" font-size="9.00" fill="#000000">num_malloc_self=300</text>
<text text-anchor="middle" x="1251" y="-466.3757" font-family="Times,serif" font-size="9.00" fill="#000000">num_free_self=300</text>
</g>
<!-- 1908508_YetAnThr/2&#45;&gt;1908508_YetAnThr::MainEvLoop -->
<g id="edge9" class="edge">
<title>1908508_YetAnThr/2&#45;&gt;1908508_YetAnThr::MainEvLoop</title>
<path fill="none" stroke="#000000" d="M1251,-635.8528C1251,-606.6231 1251,-561.2466 1251,-527.6239"/>
<polygon fill="#000000" stroke="#000000" points="1254.5001,-527.5974 1251,-517.5975 1247.5001,-527.5975 1254.5001,-527.5974"/>
</g>
<!-- 1908508_FuncB -->
<g id="node13" class="node">
<title>1908508_FuncB</title>
<ellipse fill="#fff5f0" stroke="#000000" cx="1251" cy="-352.8234" rx="71.3357" ry="33.8824"/>
<text text-anchor="middle" x="1251" y="-365.6234" font-family="Times,serif" font-size="9.00" fill="#000000">scope=FuncB</text>
<text text-anchor="middle" x="1251" y="-355.6234" font-family="Times,serif" font-size="9.00" fill="#000000">total=self=0B (0.00%)</text>
<text text-anchor="middle" x="1251" y="-345.6234" font-family="Times,serif" font-size="9.00" fill="#000000">num_malloc_self=3000</text>
<text text-anchor="middle" x="1251" y="-335.6234" font-family="Times,serif" font-size="9.00" fill="#000000">num_free_self=3000</text>
</g>
<!-- 1908508_YetAnThr::MainEvLoop&#45;&gt;1908508_FuncB -->
<g id="edge10" class="edge">
<title>1908508_YetAnThr::MainEvLoop&#45;&gt;1908508_FuncB</title>
<path fill="none" stroke="#000000" d="M1251,-449.5634C1251,-433.6474 1251,-414.4811 1251,-397.4215"/>
<polygon fill="#000000" stroke="#000000" points="1254.5001,-397.1196 1251,-387.1196 1247.5001,-397.1196 1254.5001,-397.1196"/>
</g>
</g>
</svg>
